<svg width="5857" height="3731" viewBox="0 0 5857 3731" fill="none" xmlns="http://www.w3.org/2000/svg">
<g filter="url(#filter0_dd_23_156)">
<path d="M1557 1503.49H4437V2247H1557V1503.49Z" fill="black"/>
<g filter="url(#filter1_f_23_156)">
<rect width="2655.71" height="517.015" rx="170.5" transform="matrix(0.999985 0.00548631 -0.00398154 0.999992 1601.39 1599.42)" fill="url(#paint0_linear_23_156)"/>
</g>
<path d="M1623.32 2106.69C1636.45 2032.24 1649.74 1956.9 1663.18 1880.67C1676.62 1804.45 1689.9 1729.11 1703.03 1654.66C1730.93 1654.66 1758.83 1654.66 1786.73 1654.66C1815.08 1654.66 1842.98 1654.66 1870.43 1654.66C1901.48 1654.66 1927.73 1660.2 1949.17 1671.28C1970.7 1681.91 1986.27 1696.98 1995.88 1716.48C2005.57 1735.54 2008.11 1758.14 2003.5 1784.29C2000.21 1802.9 1993.65 1819.74 1983.79 1834.81C1973.93 1849.87 1960.9 1862.5 1944.71 1872.7C1961.65 1883.78 1973.51 1898.18 1980.29 1915.91C1987.14 1933.19 1988.69 1952.47 1984.94 1973.74C1980.25 2000.33 1969.18 2023.59 1951.71 2043.54C1934.69 2063.48 1912.83 2078.99 1886.13 2090.07C1859.88 2101.15 1830.32 2106.69 1797.47 2106.69C1768.67 2106.69 1739.65 2106.69 1710.4 2106.69C1681.15 2106.69 1652.12 2106.69 1623.32 2106.69ZM1883.38 1795.59C1885.41 1784.06 1883.45 1774.76 1877.5 1767.67C1871.63 1760.13 1862.84 1756.37 1851.14 1756.37C1843.04 1756.37 1834.72 1756.37 1826.17 1756.37C1818.07 1756.37 1809.97 1756.37 1801.87 1756.37C1799.68 1768.77 1797.42 1781.63 1795.07 1794.92C1792.81 1807.77 1790.54 1820.63 1788.27 1833.48C1796.37 1833.48 1804.47 1833.48 1812.57 1833.48C1821.12 1833.48 1829.45 1833.48 1837.55 1833.48C1849.25 1833.48 1859.28 1830.15 1867.66 1823.51C1876.11 1816.42 1881.35 1807.11 1883.38 1795.59ZM1868.69 1963.1C1870.88 1950.69 1868.32 1940.94 1861.02 1933.85C1854.25 1926.32 1843.67 1922.55 1829.27 1922.55C1819.82 1922.55 1810.37 1922.55 1800.92 1922.55C1791.47 1922.55 1782.02 1922.55 1772.57 1922.55C1770.14 1936.29 1767.72 1950.03 1765.3 1963.77C1762.88 1977.51 1760.45 1991.24 1758.03 2004.98C1767.48 2004.98 1776.93 2004.98 1786.38 2004.98C1795.83 2004.98 1805.28 2004.98 1814.73 2004.98C1829.13 2004.98 1841.05 2001.21 1850.47 1993.68C1860.35 1986.15 1866.43 1975.95 1868.69 1963.1ZM2405.3 1763.01C2395.3 1819.74 2385.18 1877.13 2374.94 1935.18C2364.78 1992.79 2354.7 2049.96 2344.7 2106.69C2326.7 2106.69 2308.25 2106.69 2289.35 2106.69C2270.45 2106.69 2251.77 2106.69 2233.32 2106.69C2233.87 2103.59 2234.38 2100.7 2234.85 2098.05C2235.32 2095.39 2235.82 2092.51 2236.37 2089.4C2222.74 2097.82 2207.88 2104.25 2191.8 2108.68C2176.09 2113.56 2159.46 2115.99 2141.91 2115.99C2116.26 2115.99 2094.55 2110.23 2076.78 2098.71C2059.46 2087.19 2047.09 2070.57 2039.67 2048.85C2032.7 2027.14 2031.83 2001.44 2037.07 1971.74C2043.16 1937.18 2049.3 1902.39 2055.47 1867.38C2061.64 1832.37 2067.78 1797.58 2073.87 1763.01C2092.32 1763.01 2111 1763.01 2129.9 1763.01C2148.8 1763.01 2167.25 1763.01 2185.25 1763.01C2179.62 1794.92 2173.92 1827.27 2168.13 1860.07C2162.35 1892.86 2156.65 1925.21 2151.02 1957.12C2147.9 1974.85 2149.41 1989.25 2155.55 2000.33C2162.23 2010.96 2174.56 2016.28 2192.56 2016.28C2210.56 2016.28 2225.41 2011.19 2237.11 2000.99C2248.81 1990.8 2256.34 1976.18 2259.7 1957.12C2265.32 1925.21 2271.03 1892.86 2276.81 1860.07C2282.59 1827.27 2288.3 1794.92 2293.92 1763.01C2312.37 1763.01 2331.05 1763.01 2349.95 1763.01C2368.85 1763.01 2387.3 1763.01 2405.3 1763.01ZM2432.44 2213.05C2445.58 2189.56 2458.99 2165.85 2472.66 2141.92C2486.7 2118.43 2500.25 2095.16 2513.32 2072.12C2501.15 2021.16 2488.62 1969.75 2475.71 1917.9C2463.33 1865.61 2451.06 1813.98 2438.89 1763.01C2458.69 1763.01 2478.49 1763.01 2498.29 1763.01C2518.09 1763.01 2537.67 1763.01 2557.02 1763.01C2563.72 1791.38 2570.34 1820.18 2576.88 1849.43C2583.87 1878.68 2590.68 1907.71 2597.3 1936.51C2613.18 1907.71 2629.32 1878.68 2645.73 1849.43C2662.14 1820.18 2678.24 1791.38 2694.04 1763.01C2713.39 1763.01 2732.74 1763.01 2752.09 1763.01C2771.44 1763.01 2790.79 1763.01 2810.14 1763.01C2766.94 1837.02 2723.32 1912.14 2679.28 1988.36C2635.77 2064.14 2592.42 2139.04 2549.22 2213.05C2529.87 2213.05 2510.29 2213.05 2490.49 2213.05C2471.14 2213.05 2451.79 2213.05 2432.44 2213.05ZM2940.23 2117.32C2914.13 2117.32 2890.61 2112.89 2869.67 2104.03C2848.81 2094.72 2831.51 2081.87 2817.75 2065.47C2804.07 2048.63 2794.45 2029.13 2788.91 2006.98C2783.82 1984.82 2783.58 1960.66 2788.19 1934.52C2792.8 1908.37 2801.56 1884.22 2814.46 1862.06C2827.82 1839.9 2844.27 1820.63 2863.81 1804.23C2883.35 1787.83 2905.15 1775.2 2929.22 1766.34C2953.36 1757.03 2978.48 1752.38 3004.58 1752.38C3031.13 1752.38 3054.61 1757.03 3075.02 1766.34C3095.95 1775.2 3113.3 1787.83 3127.06 1804.23C3140.82 1820.63 3150.25 1839.9 3155.34 1862.06C3160.88 1884.22 3161.35 1908.37 3156.74 1934.52C3152.13 1960.66 3143.14 1984.82 3129.79 2006.98C3116.88 2029.13 3100.62 2048.63 3081 2065.47C3061.46 2081.87 3039.61 2094.72 3015.47 2104.03C2991.86 2112.89 2966.78 2117.32 2940.23 2117.32ZM2957.69 2018.28C2979.74 2018.28 2998.66 2010.52 3014.45 1995.01C3030.76 1979.06 3041.07 1958.89 3045.36 1934.52C3049.74 1909.7 3046.51 1889.76 3035.66 1874.69C3025.35 1859.18 3009.16 1851.42 2987.11 1851.42C2965.06 1851.42 2945.92 1859.18 2929.69 1874.69C2913.98 1889.76 2903.94 1909.7 2899.56 1934.52C2895.27 1958.89 2898.23 1979.06 2908.47 1995.01C2919.24 2010.52 2935.64 2018.28 2957.69 2018.28ZM3184.84 2106.69C3198.98 2026.47 3213.25 1945.6 3227.62 1864.06C3242 1782.51 3256.26 1701.64 3270.41 1621.42C3288.86 1621.42 3307.53 1621.42 3326.43 1621.42C3345.33 1621.42 3363.78 1621.42 3381.78 1621.42C3367.64 1701.64 3353.38 1782.51 3339 1864.06C3324.62 1945.6 3310.36 2026.47 3296.22 2106.69C3278.22 2106.69 3259.77 2106.69 3240.87 2106.69C3221.97 2106.69 3203.29 2106.69 3184.84 2106.69ZM3433.5 2117.32C3420.45 2117.32 3408.84 2114.22 3398.69 2108.02C3388.98 2101.81 3381.92 2093.39 3377.49 2082.76C3373.07 2072.12 3371.95 2060.6 3374.14 2048.19C3376.32 2035.78 3381.47 2024.48 3389.56 2014.29C3397.74 2003.65 3407.77 1995.23 3419.67 1989.03C3432.01 1982.82 3444.71 1979.72 3457.76 1979.72C3470.81 1979.72 3481.96 1982.82 3491.22 1989.03C3500.92 1995.23 3507.99 2003.65 3512.41 2014.29C3517.37 2024.48 3518.75 2035.78 3516.56 2048.19C3514.37 2060.6 3508.97 2072.12 3500.34 2082.76C3492.17 2093.39 3482.13 2101.81 3470.24 2108.02C3458.79 2114.22 3446.55 2117.32 3433.5 2117.32ZM3570.38 2106.69C3580.38 2049.96 3590.46 1992.79 3600.62 1935.18C3610.86 1877.13 3620.98 1819.74 3630.98 1763.01C3649.43 1763.01 3668.11 1763.01 3687.01 1763.01C3705.91 1763.01 3724.36 1763.01 3742.36 1763.01C3741.81 1766.12 3741.26 1769.22 3740.72 1772.32C3740.17 1775.42 3739.62 1778.52 3739.07 1781.63C3754.74 1771.88 3771.78 1764.56 3790.19 1759.69C3808.6 1754.82 3827.96 1753.49 3848.27 1755.7C3845.14 1773.43 3841.98 1791.38 3838.78 1809.55C3835.57 1827.72 3832.41 1845.66 3829.28 1863.39C3794.59 1858.52 3767.72 1861.62 3748.67 1872.7C3729.69 1883.33 3718.05 1900.84 3713.76 1925.21C3708.52 1954.9 3703.21 1985.04 3697.82 2015.62C3692.42 2046.2 3687.07 2076.55 3681.76 2106.69C3663.76 2106.69 3645.31 2106.69 3626.41 2106.69C3607.51 2106.69 3588.83 2106.69 3570.38 2106.69ZM4223.31 1763.01C4213.31 1819.74 4203.19 1877.13 4192.96 1935.18C4182.8 1992.79 4172.72 2049.96 4162.72 2106.69C4144.72 2106.69 4126.27 2106.69 4107.37 2106.69C4088.47 2106.69 4069.79 2106.69 4051.34 2106.69C4051.89 2103.59 4052.4 2100.7 4052.86 2098.05C4053.33 2095.39 4053.84 2092.51 4054.39 2089.4C4040.75 2097.82 4025.9 2104.25 4009.81 2108.68C3994.1 2113.56 3977.47 2115.99 3959.92 2115.99C3934.27 2115.99 3912.57 2110.23 3894.8 2098.71C3877.48 2087.19 3865.11 2070.57 3857.69 2048.85C3850.72 2027.14 3849.85 2001.44 3855.09 1971.74C3861.18 1937.18 3867.31 1902.39 3873.49 1867.38C3879.66 1832.37 3885.79 1797.58 3891.89 1763.01C3910.34 1763.01 3929.01 1763.01 3947.91 1763.01C3966.81 1763.01 3985.26 1763.01 4003.26 1763.01C3997.64 1794.92 3991.93 1827.27 3986.15 1860.07C3980.37 1892.86 3974.66 1925.21 3969.04 1957.12C3965.91 1974.85 3967.42 1989.25 3973.57 2000.33C3980.24 2010.96 3992.58 2016.28 4010.58 2016.28C4028.58 2016.28 4043.43 2011.19 4055.13 2000.99C4066.82 1990.8 4074.35 1976.18 4077.71 1957.12C4083.34 1925.21 4089.04 1892.86 4094.83 1860.07C4100.61 1827.27 4106.31 1794.92 4111.94 1763.01C4130.39 1763.01 4149.06 1763.01 4167.96 1763.01C4186.86 1763.01 4205.31 1763.01 4223.31 1763.01Z" fill="white"/>
</g>
<defs>
<filter id="filter0_dd_23_156" x="1553" y="1503.49" width="2888" height="751.508" filterUnits="userSpaceOnUse" color-interpolation-filters="sRGB">
<feFlood flood-opacity="0" result="BackgroundImageFix"/>
<feColorMatrix in="SourceAlpha" type="matrix" values="0 0 0 0 0 0 0 0 0 0 0 0 0 0 0 0 0 0 127 0" result="hardAlpha"/>
<feOffset dy="4"/>
<feGaussianBlur stdDeviation="2"/>
<feComposite in2="hardAlpha" operator="out"/>
<feColorMatrix type="matrix" values="0 0 0 0 0 0 0 0 0 0 0 0 0 0 0 0 0 0 0.25 0"/>
<feBlend mode="normal" in2="BackgroundImageFix" result="effect1_dropShadow_23_156"/>
<feColorMatrix in="SourceAlpha" type="matrix" values="0 0 0 0 0 0 0 0 0 0 0 0 0 0 0 0 0 0 127 0" result="hardAlpha"/>
<feOffset dy="4"/>
<feGaussianBlur stdDeviation="2"/>
<feComposite in2="hardAlpha" operator="out"/>
<feColorMatrix type="matrix" values="0 0 0 0 0 0 0 0 0 0 0 0 0 0 0 0 0 0 0.25 0"/>
<feBlend mode="normal" in2="effect1_dropShadow_23_156" result="effect2_dropShadow_23_156"/>
<feBlend mode="normal" in="SourceGraphic" in2="effect2_dropShadow_23_156" result="shape"/>
</filter>
<filter id="filter1_f_23_156" x="0.0102539" y="0.352295" width="5856.37" height="3729.71" filterUnits="userSpaceOnUse" color-interpolation-filters="sRGB">
<feFlood flood-opacity="0" result="BackgroundImageFix"/>
<feBlend mode="normal" in="SourceGraphic" in2="BackgroundImageFix" result="shape"/>
<feGaussianBlur stdDeviation="800" result="effect1_foregroundBlur_23_156"/>
</filter>
<linearGradient id="paint0_linear_23_156" x1="1327.85" y1="0" x2="1327.85" y2="517.015" gradientUnits="userSpaceOnUse">
<stop stop-color="#1900FF"/>
<stop offset="1" stop-color="#1900FF"/>
</linearGradient>
</defs>
</svg>
