<svg width="2560" height="712" viewBox="0 0 2560 712" fill="none" xmlns="http://www.w3.org/2000/svg">
<rect width="2560" height="711.111" fill="#2973B2"/>
<rect x="1348.95" y="198" width="504.863" height="315" rx="8" fill="#0B0B0B"/>
<path d="M1715.29 413.322H1782.61L1807.21 462.514H1661.79V245.034H1715.29V413.322Z" fill="#FCF6F6"/>
<path fill-rule="evenodd" clip-rule="evenodd" d="M1396.41 353.774C1396.41 288.616 1445.6 241.151 1512.49 241.151C1579.37 241.151 1628.56 288.616 1628.56 353.774C1628.56 418.932 1580.23 466.397 1512.49 466.397C1444.74 466.397 1396.41 419.363 1396.41 353.774ZM1512.05 289.911C1548.3 289.911 1573.76 316.233 1573.76 353.774C1573.76 391.747 1548.3 418.069 1512.49 418.069C1476.67 418.069 1450.78 391.315 1450.78 353.774C1450.78 316.233 1475.81 289.911 1512.05 289.911Z" fill="#FCF6F6"/>
<path d="M903.199 377.507V245.466H956.705V372.76C956.705 402.103 970.514 417.637 996.404 417.637C1022.29 417.637 1036.1 402.103 1036.1 372.76V245.466H1089.61V377.075C1089.61 433.171 1053.79 466.397 996.404 466.397C939.014 466.397 903.199 433.603 903.199 377.507ZM876.877 385.274C876.877 338.24 845.377 307.171 792.733 307.171H778.925V351.185H787.555C810.425 351.185 823.801 363.267 823.801 384.411C823.801 405.555 810.425 417.637 787.555 417.637H759.075V245.466H706V462.945H792.733C845.377 462.945 876.877 432.308 876.877 385.274ZM1198.78 290.774L1174.18 245.897H1113.34L1191.88 382.685V462.945H1245.38V382.685L1219.06 329.61C1218.63 329.61 1198.78 290.774 1198.78 290.774Z" fill="white"/>
<path d="M1255.31 364.993L1323.49 245.466H1264.37L1239.34 290.342L1228.12 311.486L1255.31 364.993Z" fill="white"/>
<path d="M2423.02 567.903C2424.75 568.248 2426.61 568.018 2428.35 568.024C2430.85 568.031 2433.37 568.186 2435.87 568.026C2435.84 573.042 2435.88 578.066 2435.88 583.082C2435.88 587.129 2435.82 591.202 2435.94 595.244L2435.88 595.26C2435.67 594.932 2435.47 593.486 2435.36 592.971C2434.97 591.266 2434.54 589.597 2434.06 587.965C2433.63 586.503 2433.16 585.084 2432.64 583.706C2432.12 582.329 2431.57 581 2430.97 579.721C2430.24 578.154 2429.45 576.67 2428.61 575.269C2427.76 573.867 2426.88 572.559 2425.95 571.344C2425.43 570.678 2423.27 568.57 2423.02 567.903Z" fill="white"/>
<path d="M2455.39 567.996C2457.2 568.156 2467.75 567.674 2468.43 568.245C2468.44 568.392 2468.46 568.549 2468.45 568.698C2468.44 568.899 2468.38 569.109 2468.31 569.273C2467.89 570.347 2466.87 571.037 2466.25 571.803C2465.69 572.499 2465.14 573.26 2464.61 574.009C2463.62 575.395 2462.63 576.924 2461.76 578.531C2461.21 579.543 2460.68 580.919 2460.04 581.742C2460.02 582.002 2458.57 585.355 2458.36 585.918C2457.11 589.24 2456.14 592.826 2455.33 596.532C2455.5 587.031 2455.34 577.502 2455.39 567.996Z" fill="white"/>
<path d="M2382.03 533C2383.48 533.141 2384.97 533.015 2386.43 533.017L2395.05 533.022L2395.05 577.939C2397.91 573.05 2401.22 569.367 2405.06 567.34C2410.66 564.382 2417.22 565.577 2422.37 570.386C2424.37 572.259 2426.16 574.639 2427.79 577.399C2432.83 585.935 2435.34 596.982 2435.8 609.091C2436.05 615.621 2435.72 622.451 2436.83 628.794C2437.5 632.625 2438.96 636.04 2441.01 637.923C2443.36 640.08 2446.48 640.207 2448.98 638.845C2449.16 638.751 2449.33 638.646 2449.5 638.531C2449.67 638.416 2449.84 638.291 2450.01 638.156C2450.18 638.021 2450.34 637.877 2450.5 637.722C2450.66 637.568 2450.82 637.404 2450.98 637.23C2451.13 637.057 2451.28 636.875 2451.43 636.684C2451.58 636.493 2451.72 636.293 2451.86 636.085C2452 635.876 2452.14 635.66 2452.27 635.436C2452.4 635.211 2452.53 634.979 2452.65 634.74C2456.34 627.549 2454.96 616.363 2455.49 607.508C2455.53 606.772 2455.58 606.038 2455.64 605.306C2455.7 604.574 2455.78 603.845 2455.86 603.12C2455.94 602.394 2456.04 601.673 2456.14 600.955C2456.24 600.237 2456.35 599.524 2456.48 598.816C2456.6 598.108 2456.73 597.405 2456.87 596.708C2457.02 596.011 2457.17 595.32 2457.33 594.636C2457.49 593.952 2457.66 593.275 2457.84 592.606C2458.02 591.936 2458.21 591.275 2458.41 590.621C2461.72 579.706 2467.95 571.004 2474.68 567.388C2481.62 563.659 2489.36 565.508 2495.71 571.4C2495.91 571.58 2496.1 571.764 2496.29 571.953C2496.49 572.141 2496.68 572.333 2496.87 572.53C2497.06 572.726 2497.24 572.927 2497.43 573.132C2497.62 573.336 2497.8 573.545 2497.99 573.757C2498.17 573.97 2498.35 574.186 2498.53 574.407C2498.71 574.627 2498.89 574.851 2499.07 575.079C2499.25 575.307 2499.42 575.539 2499.6 575.775C2499.77 576.01 2499.94 576.25 2500.11 576.493C2500.29 576.735 2500.45 576.982 2500.62 577.232C2500.79 577.483 2500.95 577.736 2501.12 577.994C2501.28 578.251 2501.44 578.512 2501.6 578.776C2501.76 579.04 2501.92 579.308 2502.08 579.579C2502.24 579.85 2502.39 580.125 2502.54 580.402C2502.69 580.68 2502.84 580.961 2502.99 581.245C2503.14 581.529 2503.29 581.816 2503.43 582.107C2503.58 582.397 2503.72 582.691 2503.86 582.988C2504 583.284 2504.14 583.583 2504.27 583.886C2504.41 584.189 2504.54 584.494 2504.68 584.802C2504.81 585.11 2504.94 585.421 2505.06 585.735C2505.19 586.049 2505.32 586.365 2505.44 586.684C2505.56 587.003 2505.68 587.325 2505.8 587.649C2505.92 587.974 2506.04 588.301 2506.15 588.63C2506.26 588.959 2506.37 589.291 2506.48 589.625C2506.59 589.959 2506.7 590.296 2506.8 590.634C2506.91 590.973 2507.01 591.314 2507.11 591.657C2507.21 592 2507.3 592.345 2507.4 592.692C2507.49 593.039 2507.59 593.388 2507.68 593.74C2507.77 594.091 2507.85 594.444 2507.94 594.799C2508.02 595.153 2508.1 595.51 2508.18 595.869C2508.26 596.227 2508.34 596.587 2508.42 596.948C2508.49 597.31 2508.56 597.673 2508.63 598.039C2508.7 598.403 2508.77 598.77 2508.83 599.137C2508.9 599.516 2508.96 599.897 2509.02 600.279C2509.08 600.661 2509.14 601.044 2509.19 601.429C2509.25 601.814 2509.3 602.199 2509.35 602.586C2509.4 602.973 2509.44 603.36 2509.49 603.749C2509.53 604.138 2509.57 604.527 2509.61 604.918C2509.65 605.309 2509.68 605.7 2509.72 606.092C2509.75 606.484 2509.78 606.877 2509.8 607.27C2509.83 607.663 2509.86 608.057 2509.88 608.451C2509.9 608.846 2509.92 609.241 2509.93 609.636C2509.95 610.031 2509.96 610.426 2509.97 610.822C2509.98 611.218 2509.99 611.613 2509.99 612.01C2510 612.406 2510 612.802 2510 613.198C2510 613.594 2510 613.99 2509.99 614.386C2509.98 614.782 2509.97 615.177 2509.96 615.573C2509.95 615.969 2509.93 616.364 2509.92 616.759C2509.9 617.154 2509.88 617.548 2509.85 617.942C2509.83 618.336 2509.8 618.73 2509.77 619.123C2509.75 619.516 2509.71 619.908 2509.68 620.299C2509.64 620.691 2509.61 621.081 2509.57 621.471C2509.53 621.861 2509.48 622.25 2509.44 622.638C2509.39 623.026 2509.35 623.413 2509.29 623.8C2509.24 624.185 2509.19 624.57 2509.13 624.954C2509.08 625.337 2509.02 625.72 2508.96 626.101C2508.89 626.482 2508.83 626.862 2508.76 627.24C2508.69 627.618 2508.62 627.995 2508.55 628.37C2508.48 628.746 2508.4 629.12 2508.33 629.492C2508.25 629.864 2508.17 630.234 2508.08 630.602C2508 630.971 2507.91 631.338 2507.83 631.703C2507.74 632.068 2507.65 632.431 2507.55 632.792C2507.46 633.153 2507.36 633.512 2507.27 633.869C2507.17 634.225 2507.07 634.58 2506.96 634.933C2506.86 635.285 2506.75 635.635 2506.64 635.983C2506.54 636.316 2506.43 636.646 2506.33 636.975C2506.22 637.303 2506.11 637.629 2506 637.953C2505.88 638.276 2505.77 638.598 2505.65 638.916C2505.54 639.235 2505.42 639.551 2505.3 639.865C2505.17 640.179 2505.05 640.49 2504.93 640.798C2504.8 641.107 2504.67 641.413 2504.54 641.716C2504.41 642.019 2504.28 642.319 2504.15 642.617C2504.01 642.914 2503.88 643.209 2503.74 643.501C2503.6 643.793 2503.46 644.082 2503.32 644.367C2503.18 644.653 2503.03 644.936 2502.89 645.216C2502.74 645.495 2502.59 645.772 2502.44 646.046C2502.29 646.319 2502.14 646.589 2501.99 646.856C2501.83 647.124 2501.68 647.387 2501.52 647.648C2501.36 647.908 2501.2 648.165 2501.04 648.419C2500.88 648.673 2500.72 648.923 2500.56 649.17C2500.39 649.417 2500.23 649.66 2500.06 649.9C2499.89 650.14 2499.72 650.377 2499.55 650.609C2499.38 650.842 2499.21 651.071 2499.03 651.296C2498.86 651.522 2498.68 651.743 2498.5 651.961C2498.33 652.179 2498.15 652.393 2497.97 652.604C2497.79 652.814 2497.61 653.02 2497.42 653.223C2497.24 653.426 2497.05 653.625 2496.87 653.82C2496.68 654.014 2496.5 654.205 2496.31 654.392C2496.12 654.579 2495.93 654.762 2495.74 654.941C2495.55 655.12 2495.35 655.295 2495.16 655.466C2494.97 655.637 2494.77 655.803 2494.58 655.966C2494.38 656.128 2494.18 656.287 2493.99 656.441C2493.79 656.595 2493.59 656.745 2493.39 656.891C2493.19 657.036 2492.99 657.178 2492.78 657.316C2492.58 657.453 2492.38 657.586 2492.17 657.714C2491.97 657.843 2491.77 657.967 2491.56 658.087C2491.35 658.207 2491.15 658.323 2490.94 658.434C2483.93 662.142 2475.91 661.32 2469.45 655.055C2468.45 654.093 2467.45 653.01 2466.55 651.805C2465.9 650.935 2465.23 649.696 2464.51 649.043C2464.49 649.028 2464.48 649.015 2464.46 649.002C2465.51 647.637 2467.29 641.197 2467.78 638.952C2468.24 636.858 2469.78 626.088 2469.29 624.176C2469.81 624.972 2470.31 627.377 2470.75 628.541C2472.71 633.732 2475.69 637.593 2479.21 638.85C2482.94 640.184 2487.05 639.263 2490.26 635.558C2490.46 635.329 2490.66 635.092 2490.85 634.846C2491.04 634.6 2491.22 634.346 2491.41 634.085C2491.59 633.822 2491.77 633.553 2491.95 633.275C2492.12 632.998 2492.3 632.713 2492.46 632.421C2492.63 632.128 2492.79 631.829 2492.95 631.522C2493.11 631.216 2493.27 630.902 2493.42 630.582C2493.57 630.262 2493.71 629.936 2493.86 629.604C2494 629.271 2494.13 628.933 2494.26 628.588C2494.4 628.244 2494.52 627.894 2494.64 627.539C2494.76 627.183 2494.88 626.823 2494.99 626.457C2495.1 626.092 2495.21 625.722 2495.31 625.347C2495.41 624.973 2495.51 624.594 2495.6 624.211C2495.69 623.828 2495.77 623.442 2495.85 623.052C2495.93 622.662 2496 622.268 2496.07 621.872C2496.14 621.475 2496.2 621.076 2496.25 620.674C2496.31 620.272 2496.36 619.868 2496.41 619.462C2496.56 618.127 2497.03 612.869 2496.62 611.796C2496.64 611.735 2496.65 611.712 2496.67 611.641C2497.08 609.894 2495.86 602.785 2495.38 600.907C2493.94 595.347 2491.21 590.645 2487.93 588.491C2484.42 586.191 2480.04 586.234 2476.61 588.956C2472.39 592.304 2469.48 599.329 2468.65 607.2C2468.33 610.238 2468.36 613.317 2468.29 616.392C2468.13 623.336 2467.88 631.433 2466.46 637.99C2464.63 646.47 2460.89 653.72 2456.14 657.444C2450.34 661.993 2441.77 662.113 2435.83 658.175C2429.91 654.248 2425.67 645.332 2424.02 634.76C2423.23 629.76 2422.97 624.336 2422.82 619.174C2422.63 612.613 2423.03 607.055 2421.44 600.868C2419.98 595.234 2417.28 590.436 2413.93 588.25C2410.35 585.912 2406.02 586.111 2402.54 588.901C2399.3 591.496 2396.7 596.626 2395.48 602.435C2393.95 609.738 2394.08 619.045 2395.98 626.111C2397.5 631.756 2400.29 636.476 2403.68 638.592C2407.14 640.756 2411.31 640.607 2414.65 637.825C2417.67 635.307 2420.48 630.253 2421.6 624.709C2422.13 632.282 2422.77 638.662 2425.07 645.37C2425.62 646.985 2426.24 648.655 2426.97 650.043C2421.93 657.773 2416.36 661.559 2409.61 660.849C2404.95 660.359 2400.75 657.35 2397.13 652.259C2396.43 651.271 2395.66 650.23 2395.06 649.051L2395.06 658.687C2390.7 658.635 2386.35 658.641 2382 658.705C2382.06 654.505 2382.01 650.284 2382.01 646.082L2382.01 622.461L2382.03 533Z" fill="white"/>
<path d="M860.812 543.5V589H854.875V543.5H860.812ZM875.438 543.5V548.438H840.281V543.5H875.438ZM876.656 572.469V571.75C876.656 569.312 877.01 567.052 877.719 564.969C878.427 562.865 879.448 561.042 880.781 559.5C882.115 557.938 883.729 556.729 885.625 555.875C887.521 555 889.646 554.562 892 554.562C894.375 554.562 896.51 555 898.406 555.875C900.323 556.729 901.948 557.938 903.281 559.5C904.635 561.042 905.667 562.865 906.375 564.969C907.083 567.052 907.438 569.312 907.438 571.75V572.469C907.438 574.906 907.083 577.167 906.375 579.25C905.667 581.333 904.635 583.156 903.281 584.719C901.948 586.26 900.333 587.469 898.438 588.344C896.562 589.198 894.438 589.625 892.062 589.625C889.688 589.625 887.552 589.198 885.656 588.344C883.76 587.469 882.135 586.26 880.781 584.719C879.448 583.156 878.427 581.333 877.719 579.25C877.01 577.167 876.656 574.906 876.656 572.469ZM882.438 571.75V572.469C882.438 574.156 882.635 575.75 883.031 577.25C883.427 578.729 884.021 580.042 884.812 581.188C885.625 582.333 886.635 583.24 887.844 583.906C889.052 584.552 890.458 584.875 892.062 584.875C893.646 584.875 895.031 584.552 896.219 583.906C897.427 583.24 898.427 582.333 899.219 581.188C900.01 580.042 900.604 578.729 901 577.25C901.417 575.75 901.625 574.156 901.625 572.469V571.75C901.625 570.083 901.417 568.51 901 567.031C900.604 565.531 900 564.208 899.188 563.062C898.396 561.896 897.396 560.979 896.188 560.312C895 559.646 893.604 559.312 892 559.312C890.417 559.312 889.021 559.646 887.812 560.312C886.625 560.979 885.625 561.896 884.812 563.062C884.021 564.208 883.427 565.531 883.031 567.031C882.635 568.51 882.438 570.083 882.438 571.75ZM930.562 574.125H919.469L919.406 569.5H928.469C930.26 569.5 931.75 569.323 932.938 568.969C934.146 568.615 935.052 568.083 935.656 567.375C936.26 566.667 936.562 565.792 936.562 564.75C936.562 563.938 936.385 563.229 936.031 562.625C935.698 562 935.188 561.49 934.5 561.094C933.812 560.677 932.958 560.375 931.938 560.188C930.938 559.979 929.76 559.875 928.406 559.875H921V589H915.219V555.188H928.406C930.552 555.188 932.479 555.375 934.188 555.75C935.917 556.125 937.385 556.698 938.594 557.469C939.823 558.219 940.76 559.177 941.406 560.344C942.052 561.51 942.375 562.885 942.375 564.469C942.375 565.49 942.167 566.458 941.75 567.375C941.333 568.292 940.719 569.104 939.906 569.812C939.094 570.521 938.094 571.104 936.906 571.562C935.719 572 934.354 572.281 932.812 572.406L930.562 574.125ZM930.562 589H917.375L920.25 584.312H930.562C932.167 584.312 933.5 584.115 934.562 583.719C935.625 583.302 936.417 582.719 936.938 581.969C937.479 581.198 937.75 580.281 937.75 579.219C937.75 578.156 937.479 577.25 936.938 576.5C936.417 575.729 935.625 575.146 934.562 574.75C933.5 574.333 932.167 574.125 930.562 574.125H921.781L921.844 569.5H932.812L934.906 571.25C936.76 571.396 938.333 571.854 939.625 572.625C940.917 573.396 941.896 574.375 942.562 575.562C943.229 576.729 943.562 578 943.562 579.375C943.562 580.958 943.26 582.354 942.656 583.562C942.073 584.771 941.219 585.781 940.094 586.594C938.969 587.385 937.604 587.99 936 588.406C934.396 588.802 932.583 589 930.562 589ZM971.25 583.219V565.812C971.25 564.479 970.979 563.323 970.438 562.344C969.917 561.344 969.125 560.573 968.062 560.031C967 559.49 965.688 559.219 964.125 559.219C962.667 559.219 961.385 559.469 960.281 559.969C959.198 560.469 958.344 561.125 957.719 561.938C957.115 562.75 956.812 563.625 956.812 564.562H951.031C951.031 563.354 951.344 562.156 951.969 560.969C952.594 559.781 953.49 558.708 954.656 557.75C955.844 556.771 957.26 556 958.906 555.438C960.573 554.854 962.427 554.562 964.469 554.562C966.927 554.562 969.094 554.979 970.969 555.812C972.865 556.646 974.344 557.906 975.406 559.594C976.49 561.26 977.031 563.354 977.031 565.875V581.625C977.031 582.75 977.125 583.948 977.312 585.219C977.521 586.49 977.823 587.583 978.219 588.5V589H972.188C971.896 588.333 971.667 587.448 971.5 586.344C971.333 585.219 971.25 584.177 971.25 583.219ZM972.25 568.5L972.312 572.562H966.469C964.823 572.562 963.354 572.698 962.062 572.969C960.771 573.219 959.688 573.604 958.812 574.125C957.938 574.646 957.271 575.302 956.812 576.094C956.354 576.865 956.125 577.771 956.125 578.812C956.125 579.875 956.365 580.844 956.844 581.719C957.323 582.594 958.042 583.292 959 583.812C959.979 584.312 961.177 584.562 962.594 584.562C964.365 584.562 965.927 584.188 967.281 583.438C968.635 582.688 969.708 581.771 970.5 580.688C971.312 579.604 971.75 578.552 971.812 577.531L974.281 580.312C974.135 581.188 973.74 582.156 973.094 583.219C972.448 584.281 971.583 585.302 970.5 586.281C969.438 587.24 968.167 588.042 966.688 588.688C965.229 589.312 963.583 589.625 961.75 589.625C959.458 589.625 957.448 589.177 955.719 588.281C954.01 587.385 952.677 586.188 951.719 584.688C950.781 583.167 950.312 581.469 950.312 579.594C950.312 577.781 950.667 576.188 951.375 574.812C952.083 573.417 953.104 572.26 954.438 571.344C955.771 570.406 957.375 569.698 959.25 569.219C961.125 568.74 963.219 568.5 965.531 568.5H972.25ZM991.906 561.688V602H986.094V555.188H991.406L991.906 561.688ZM1014.69 571.812V572.469C1014.69 574.927 1014.4 577.208 1013.81 579.312C1013.23 581.396 1012.38 583.208 1011.25 584.75C1010.15 586.292 1008.78 587.49 1007.16 588.344C1005.53 589.198 1003.67 589.625 1001.56 589.625C999.417 589.625 997.521 589.271 995.875 588.562C994.229 587.854 992.833 586.823 991.688 585.469C990.542 584.115 989.625 582.49 988.938 580.594C988.271 578.698 987.812 576.562 987.562 574.188V570.688C987.812 568.188 988.281 565.948 988.969 563.969C989.656 561.99 990.562 560.302 991.688 558.906C992.833 557.49 994.219 556.417 995.844 555.688C997.469 554.938 999.344 554.562 1001.47 554.562C1003.59 554.562 1005.48 554.979 1007.12 555.812C1008.77 556.625 1010.16 557.792 1011.28 559.312C1012.41 560.833 1013.25 562.656 1013.81 564.781C1014.4 566.885 1014.69 569.229 1014.69 571.812ZM1008.88 572.469V571.812C1008.88 570.125 1008.7 568.542 1008.34 567.062C1007.99 565.562 1007.44 564.25 1006.69 563.125C1005.96 561.979 1005.02 561.083 1003.88 560.438C1002.73 559.771 1001.36 559.438 999.781 559.438C998.323 559.438 997.052 559.688 995.969 560.188C994.906 560.688 994 561.365 993.25 562.219C992.5 563.052 991.885 564.01 991.406 565.094C990.948 566.156 990.604 567.26 990.375 568.406V576.5C990.792 577.958 991.375 579.333 992.125 580.625C992.875 581.896 993.875 582.927 995.125 583.719C996.375 584.49 997.948 584.875 999.844 584.875C1001.41 584.875 1002.75 584.552 1003.88 583.906C1005.02 583.24 1005.96 582.333 1006.69 581.188C1007.44 580.042 1007.99 578.729 1008.34 577.25C1008.7 575.75 1008.88 574.156 1008.88 572.469ZM1026.81 566.812H1036.97C1039.7 566.812 1042 567.292 1043.88 568.25C1045.75 569.188 1047.17 570.49 1048.12 572.156C1049.1 573.802 1049.59 575.677 1049.59 577.781C1049.59 579.344 1049.32 580.812 1048.78 582.188C1048.24 583.542 1047.43 584.729 1046.34 585.75C1045.28 586.771 1043.96 587.573 1042.38 588.156C1040.81 588.719 1039.01 589 1036.97 589H1022.59V555.188H1028.38V584.25H1036.97C1038.64 584.25 1039.97 583.948 1040.97 583.344C1041.97 582.74 1042.69 581.958 1043.12 581C1043.56 580.042 1043.78 579.042 1043.78 578C1043.78 576.979 1043.56 575.979 1043.12 575C1042.69 574.021 1041.97 573.208 1040.97 572.562C1039.97 571.896 1038.64 571.562 1036.97 571.562H1026.81V566.812ZM1061.62 555.188V589H1055.84V555.188H1061.62ZM1077 582.125V586.781C1077 588.677 1076.52 590.677 1075.56 592.781C1074.6 594.906 1073.26 596.677 1071.53 598.094L1068.25 595.812C1068.92 594.896 1069.48 593.958 1069.94 593C1070.4 592.062 1070.74 591.083 1070.97 590.062C1071.22 589.062 1071.34 588 1071.34 586.875V582.125H1077ZM1106.53 555.188V589H1100.75V555.188H1106.53ZM1128.72 555.188L1112.69 574.562H1104.59L1103.72 569.5H1110.34L1121.69 555.188H1128.72ZM1122.5 589L1110.06 573.688L1113.78 569.5L1129.84 589H1122.5ZM1132.66 572.469V571.75C1132.66 569.312 1133.01 567.052 1133.72 564.969C1134.43 562.865 1135.45 561.042 1136.78 559.5C1138.11 557.938 1139.73 556.729 1141.62 555.875C1143.52 555 1145.65 554.562 1148 554.562C1150.38 554.562 1152.51 555 1154.41 555.875C1156.32 556.729 1157.95 557.938 1159.28 559.5C1160.64 561.042 1161.67 562.865 1162.38 564.969C1163.08 567.052 1163.44 569.312 1163.44 571.75V572.469C1163.44 574.906 1163.08 577.167 1162.38 579.25C1161.67 581.333 1160.64 583.156 1159.28 584.719C1157.95 586.26 1156.33 587.469 1154.44 588.344C1152.56 589.198 1150.44 589.625 1148.06 589.625C1145.69 589.625 1143.55 589.198 1141.66 588.344C1139.76 587.469 1138.14 586.26 1136.78 584.719C1135.45 583.156 1134.43 581.333 1133.72 579.25C1133.01 577.167 1132.66 574.906 1132.66 572.469ZM1138.44 571.75V572.469C1138.44 574.156 1138.64 575.75 1139.03 577.25C1139.43 578.729 1140.02 580.042 1140.81 581.188C1141.62 582.333 1142.64 583.24 1143.84 583.906C1145.05 584.552 1146.46 584.875 1148.06 584.875C1149.65 584.875 1151.03 584.552 1152.22 583.906C1153.43 583.24 1154.43 582.333 1155.22 581.188C1156.01 580.042 1156.6 578.729 1157 577.25C1157.42 575.75 1157.62 574.156 1157.62 572.469V571.75C1157.62 570.083 1157.42 568.51 1157 567.031C1156.6 565.531 1156 564.208 1155.19 563.062C1154.4 561.896 1153.4 560.979 1152.19 560.312C1151 559.646 1149.6 559.312 1148 559.312C1146.42 559.312 1145.02 559.646 1143.81 560.312C1142.62 560.979 1141.62 561.896 1140.81 563.062C1140.02 564.208 1139.43 565.531 1139.03 567.031C1138.64 568.51 1138.44 570.083 1138.44 571.75ZM1183.78 555.188V589H1177.97V555.188H1183.78ZM1195.12 555.188V559.875H1166.84V555.188H1195.12ZM1197.97 572.469V571.75C1197.97 569.312 1198.32 567.052 1199.03 564.969C1199.74 562.865 1200.76 561.042 1202.09 559.5C1203.43 557.938 1205.04 556.729 1206.94 555.875C1208.83 555 1210.96 554.562 1213.31 554.562C1215.69 554.562 1217.82 555 1219.72 555.875C1221.64 556.729 1223.26 557.938 1224.59 559.5C1225.95 561.042 1226.98 562.865 1227.69 564.969C1228.4 567.052 1228.75 569.312 1228.75 571.75V572.469C1228.75 574.906 1228.4 577.167 1227.69 579.25C1226.98 581.333 1225.95 583.156 1224.59 584.719C1223.26 586.26 1221.65 587.469 1219.75 588.344C1217.88 589.198 1215.75 589.625 1213.38 589.625C1211 589.625 1208.86 589.198 1206.97 588.344C1205.07 587.469 1203.45 586.26 1202.09 584.719C1200.76 583.156 1199.74 581.333 1199.03 579.25C1198.32 577.167 1197.97 574.906 1197.97 572.469ZM1203.75 571.75V572.469C1203.75 574.156 1203.95 575.75 1204.34 577.25C1204.74 578.729 1205.33 580.042 1206.12 581.188C1206.94 582.333 1207.95 583.24 1209.16 583.906C1210.36 584.552 1211.77 584.875 1213.38 584.875C1214.96 584.875 1216.34 584.552 1217.53 583.906C1218.74 583.24 1219.74 582.333 1220.53 581.188C1221.32 580.042 1221.92 578.729 1222.31 577.25C1222.73 575.75 1222.94 574.156 1222.94 572.469V571.75C1222.94 570.083 1222.73 568.51 1222.31 567.031C1221.92 565.531 1221.31 564.208 1220.5 563.062C1219.71 561.896 1218.71 560.979 1217.5 560.312C1216.31 559.646 1214.92 559.312 1213.31 559.312C1211.73 559.312 1210.33 559.646 1209.12 560.312C1207.94 560.979 1206.94 561.896 1206.12 563.062C1205.33 564.208 1204.74 565.531 1204.34 567.031C1203.95 568.51 1203.75 570.083 1203.75 571.75ZM1241.78 561.688V602H1235.97V555.188H1241.28L1241.78 561.688ZM1264.56 571.812V572.469C1264.56 574.927 1264.27 577.208 1263.69 579.312C1263.1 581.396 1262.25 583.208 1261.12 584.75C1260.02 586.292 1258.66 587.49 1257.03 588.344C1255.41 589.198 1253.54 589.625 1251.44 589.625C1249.29 589.625 1247.4 589.271 1245.75 588.562C1244.1 587.854 1242.71 586.823 1241.56 585.469C1240.42 584.115 1239.5 582.49 1238.81 580.594C1238.15 578.698 1237.69 576.562 1237.44 574.188V570.688C1237.69 568.188 1238.16 565.948 1238.84 563.969C1239.53 561.99 1240.44 560.302 1241.56 558.906C1242.71 557.49 1244.09 556.417 1245.72 555.688C1247.34 554.938 1249.22 554.562 1251.34 554.562C1253.47 554.562 1255.35 554.979 1257 555.812C1258.65 556.625 1260.03 557.792 1261.16 559.312C1262.28 560.833 1263.12 562.656 1263.69 564.781C1264.27 566.885 1264.56 569.229 1264.56 571.812ZM1258.75 572.469V571.812C1258.75 570.125 1258.57 568.542 1258.22 567.062C1257.86 565.562 1257.31 564.25 1256.56 563.125C1255.83 561.979 1254.9 561.083 1253.75 560.438C1252.6 559.771 1251.24 559.438 1249.66 559.438C1248.2 559.438 1246.93 559.688 1245.84 560.188C1244.78 560.688 1243.88 561.365 1243.12 562.219C1242.38 563.052 1241.76 564.01 1241.28 565.094C1240.82 566.156 1240.48 567.26 1240.25 568.406V576.5C1240.67 577.958 1241.25 579.333 1242 580.625C1242.75 581.896 1243.75 582.927 1245 583.719C1246.25 584.49 1247.82 584.875 1249.72 584.875C1251.28 584.875 1252.62 584.552 1253.75 583.906C1254.9 583.24 1255.83 582.333 1256.56 581.188C1257.31 580.042 1257.86 578.729 1258.22 577.25C1258.57 575.75 1258.75 574.156 1258.75 572.469ZM1276.69 566.812H1286.84C1289.57 566.812 1291.88 567.292 1293.75 568.25C1295.62 569.188 1297.04 570.49 1298 572.156C1298.98 573.802 1299.47 575.677 1299.47 577.781C1299.47 579.344 1299.2 580.812 1298.66 582.188C1298.11 583.542 1297.3 584.729 1296.22 585.75C1295.16 586.771 1293.83 587.573 1292.25 588.156C1290.69 588.719 1288.89 589 1286.84 589H1272.47V555.188H1278.25V584.25H1286.84C1288.51 584.25 1289.84 583.948 1290.84 583.344C1291.84 582.74 1292.56 581.958 1293 581C1293.44 580.042 1293.66 579.042 1293.66 578C1293.66 576.979 1293.44 575.979 1293 575C1292.56 574.021 1291.84 573.208 1290.84 572.562C1289.84 571.896 1288.51 571.562 1286.84 571.562H1276.69V566.812ZM1311.5 555.188V589H1305.72V555.188H1311.5ZM1335.66 589.625C1333.3 589.625 1331.17 589.229 1329.25 588.438C1327.35 587.625 1325.72 586.49 1324.34 585.031C1322.99 583.573 1321.95 581.844 1321.22 579.844C1320.49 577.844 1320.12 575.656 1320.12 573.281V571.969C1320.12 569.219 1320.53 566.771 1321.34 564.625C1322.16 562.458 1323.26 560.625 1324.66 559.125C1326.05 557.625 1327.64 556.49 1329.41 555.719C1331.18 554.948 1333.01 554.562 1334.91 554.562C1337.32 554.562 1339.41 554.979 1341.16 555.812C1342.93 556.646 1344.38 557.812 1345.5 559.312C1346.62 560.792 1347.46 562.542 1348 564.562C1348.54 566.562 1348.81 568.75 1348.81 571.125V573.719H1323.56V569H1343.03V568.562C1342.95 567.062 1342.64 565.604 1342.09 564.188C1341.57 562.771 1340.74 561.604 1339.59 560.688C1338.45 559.771 1336.89 559.312 1334.91 559.312C1333.59 559.312 1332.39 559.594 1331.28 560.156C1330.18 560.698 1329.23 561.51 1328.44 562.594C1327.65 563.677 1327.03 565 1326.59 566.562C1326.16 568.125 1325.94 569.927 1325.94 571.969V573.281C1325.94 574.885 1326.16 576.396 1326.59 577.812C1327.05 579.208 1327.71 580.438 1328.56 581.5C1329.44 582.562 1330.49 583.396 1331.72 584C1332.97 584.604 1334.39 584.906 1335.97 584.906C1338.01 584.906 1339.74 584.49 1341.16 583.656C1342.57 582.823 1343.81 581.708 1344.88 580.312L1348.38 583.094C1347.65 584.198 1346.72 585.25 1345.59 586.25C1344.47 587.25 1343.08 588.062 1341.44 588.688C1339.81 589.312 1337.89 589.625 1335.66 589.625ZM1387.31 574.125H1376.22L1376.16 569.5H1385.22C1387.01 569.5 1388.5 569.323 1389.69 568.969C1390.9 568.615 1391.8 568.083 1392.41 567.375C1393.01 566.667 1393.31 565.792 1393.31 564.75C1393.31 563.938 1393.14 563.229 1392.78 562.625C1392.45 562 1391.94 561.49 1391.25 561.094C1390.56 560.677 1389.71 560.375 1388.69 560.188C1387.69 559.979 1386.51 559.875 1385.16 559.875H1377.75V589H1371.97V555.188H1385.16C1387.3 555.188 1389.23 555.375 1390.94 555.75C1392.67 556.125 1394.14 556.698 1395.34 557.469C1396.57 558.219 1397.51 559.177 1398.16 560.344C1398.8 561.51 1399.12 562.885 1399.12 564.469C1399.12 565.49 1398.92 566.458 1398.5 567.375C1398.08 568.292 1397.47 569.104 1396.66 569.812C1395.84 570.521 1394.84 571.104 1393.66 571.562C1392.47 572 1391.1 572.281 1389.56 572.406L1387.31 574.125ZM1387.31 589H1374.12L1377 584.312H1387.31C1388.92 584.312 1390.25 584.115 1391.31 583.719C1392.38 583.302 1393.17 582.719 1393.69 581.969C1394.23 581.198 1394.5 580.281 1394.5 579.219C1394.5 578.156 1394.23 577.25 1393.69 576.5C1393.17 575.729 1392.38 575.146 1391.31 574.75C1390.25 574.333 1388.92 574.125 1387.31 574.125H1378.53L1378.59 569.5H1389.56L1391.66 571.25C1393.51 571.396 1395.08 571.854 1396.38 572.625C1397.67 573.396 1398.65 574.375 1399.31 575.562C1399.98 576.729 1400.31 578 1400.31 579.375C1400.31 580.958 1400.01 582.354 1399.41 583.562C1398.82 584.771 1397.97 585.781 1396.84 586.594C1395.72 587.385 1394.35 587.99 1392.75 588.406C1391.15 588.802 1389.33 589 1387.31 589ZM1428 583.219V565.812C1428 564.479 1427.73 563.323 1427.19 562.344C1426.67 561.344 1425.88 560.573 1424.81 560.031C1423.75 559.49 1422.44 559.219 1420.88 559.219C1419.42 559.219 1418.14 559.469 1417.03 559.969C1415.95 560.469 1415.09 561.125 1414.47 561.938C1413.86 562.75 1413.56 563.625 1413.56 564.562H1407.78C1407.78 563.354 1408.09 562.156 1408.72 560.969C1409.34 559.781 1410.24 558.708 1411.41 557.75C1412.59 556.771 1414.01 556 1415.66 555.438C1417.32 554.854 1419.18 554.562 1421.22 554.562C1423.68 554.562 1425.84 554.979 1427.72 555.812C1429.61 556.646 1431.09 557.906 1432.16 559.594C1433.24 561.26 1433.78 563.354 1433.78 565.875V581.625C1433.78 582.75 1433.88 583.948 1434.06 585.219C1434.27 586.49 1434.57 587.583 1434.97 588.5V589H1428.94C1428.65 588.333 1428.42 587.448 1428.25 586.344C1428.08 585.219 1428 584.177 1428 583.219ZM1429 568.5L1429.06 572.562H1423.22C1421.57 572.562 1420.1 572.698 1418.81 572.969C1417.52 573.219 1416.44 573.604 1415.56 574.125C1414.69 574.646 1414.02 575.302 1413.56 576.094C1413.1 576.865 1412.88 577.771 1412.88 578.812C1412.88 579.875 1413.11 580.844 1413.59 581.719C1414.07 582.594 1414.79 583.292 1415.75 583.812C1416.73 584.312 1417.93 584.562 1419.34 584.562C1421.11 584.562 1422.68 584.188 1424.03 583.438C1425.39 582.688 1426.46 581.771 1427.25 580.688C1428.06 579.604 1428.5 578.552 1428.56 577.531L1431.03 580.312C1430.89 581.188 1430.49 582.156 1429.84 583.219C1429.2 584.281 1428.33 585.302 1427.25 586.281C1426.19 587.24 1424.92 588.042 1423.44 588.688C1421.98 589.312 1420.33 589.625 1418.5 589.625C1416.21 589.625 1414.2 589.177 1412.47 588.281C1410.76 587.385 1409.43 586.188 1408.47 584.688C1407.53 583.167 1407.06 581.469 1407.06 579.594C1407.06 577.781 1407.42 576.188 1408.12 574.812C1408.83 573.417 1409.85 572.26 1411.19 571.344C1412.52 570.406 1414.12 569.698 1416 569.219C1417.88 568.74 1419.97 568.5 1422.28 568.5H1429ZM1462.31 581.312L1473.81 555.188H1479.38L1464.31 589H1460.31L1445.31 555.188H1450.88L1462.31 581.312ZM1449.19 555.188V589H1443.41V555.188H1449.19ZM1475.25 589V555.188H1481.06V589H1475.25ZM1529.19 569.844V574.531H1511.31V569.844H1529.19ZM1512.53 555.188V589H1506.75V555.188H1512.53ZM1533.88 555.188V589H1528.06V555.188H1533.88ZM1552.69 585.5L1562.09 555.188H1568.28L1554.72 594.219C1554.41 595.052 1553.99 595.948 1553.47 596.906C1552.97 597.885 1552.32 598.812 1551.53 599.688C1550.74 600.562 1549.78 601.271 1548.66 601.812C1547.55 602.375 1546.23 602.656 1544.69 602.656C1544.23 602.656 1543.65 602.594 1542.94 602.469C1542.23 602.344 1541.73 602.24 1541.44 602.156L1541.41 597.469C1541.57 597.49 1541.83 597.51 1542.19 597.531C1542.56 597.573 1542.82 597.594 1542.97 597.594C1544.28 597.594 1545.4 597.417 1546.31 597.062C1547.23 596.729 1548 596.156 1548.62 595.344C1549.27 594.552 1549.82 593.458 1550.28 592.062L1552.69 585.5ZM1545.78 555.188L1554.56 581.438L1556.06 587.531L1551.91 589.656L1539.47 555.188H1545.78ZM1583.75 574.281L1570.94 555.188H1577.91L1586.66 569.188H1593.41L1592.56 574.281H1583.75ZM1586.91 573.688L1577.09 589H1569.78L1583.25 569.5L1586.91 573.688ZM1596.38 555.188V589H1590.59V555.188H1596.38ZM1616.09 555.188L1603.28 574.281H1594.47L1593.56 569.188H1600.34L1609.09 555.188H1616.09ZM1609.91 589L1600.06 573.688L1603.78 569.5L1617.22 589H1609.91ZM1645.5 569.844V574.531H1627.62V569.844H1645.5ZM1628.84 555.188V589H1623.06V555.188H1628.84ZM1650.19 555.188V589H1644.38V555.188H1650.19ZM1664.25 566.812H1674.41C1677.14 566.812 1679.44 567.292 1681.31 568.25C1683.19 569.188 1684.6 570.49 1685.56 572.156C1686.54 573.802 1687.03 575.677 1687.03 577.781C1687.03 579.344 1686.76 580.812 1686.22 582.188C1685.68 583.542 1684.86 584.729 1683.78 585.75C1682.72 586.771 1681.4 587.573 1679.81 588.156C1678.25 588.719 1676.45 589 1674.41 589H1660.03V555.188H1665.81V584.25H1674.41C1676.07 584.25 1677.41 583.948 1678.41 583.344C1679.41 582.74 1680.12 581.958 1680.56 581C1681 580.042 1681.22 579.042 1681.22 578C1681.22 576.979 1681 575.979 1680.56 575C1680.12 574.021 1679.41 573.208 1678.41 572.562C1677.41 571.896 1676.07 571.562 1674.41 571.562H1664.25V566.812ZM1699.06 555.188V589H1693.28V555.188H1699.06ZM1716.06 543.5L1715.66 576.156H1710.44L1710 543.5H1716.06ZM1709.81 586.094C1709.81 585.156 1710.09 584.365 1710.66 583.719C1711.24 583.073 1712.09 582.75 1713.22 582.75C1714.32 582.75 1715.17 583.073 1715.75 583.719C1716.35 584.365 1716.66 585.156 1716.66 586.094C1716.66 586.99 1716.35 587.76 1715.75 588.406C1715.17 589.052 1714.32 589.375 1713.22 589.375C1712.09 589.375 1711.24 589.052 1710.66 588.406C1710.09 587.76 1709.81 586.99 1709.81 586.094Z" fill="white"/>
</svg>
