<svg width="2888" height="752" viewBox="0 0 2888 752" fill="none" xmlns="http://www.w3.org/2000/svg">
<g filter="url(#filter0_dd_23_156)">
<path d="M4 0.491943H2884V744H4V0.491943Z" fill="black"/>
<g filter="url(#filter1_f_23_156)">
<rect width="1382.03" height="167.107" rx="83.5537" transform="matrix(0.999985 0.00548631 -0.00398154 0.999992 760.994 316.418)" fill="url(#paint0_linear_23_156)"/>
</g>
<path d="M788.883 491.419C795.457 454.138 802.108 416.413 808.839 378.245C815.569 340.076 822.221 302.352 828.794 265.071C842.765 265.071 856.736 265.071 870.706 265.071C884.902 265.071 898.873 265.071 912.618 265.071C928.166 265.071 941.31 267.845 952.049 273.392C962.827 278.718 970.623 286.263 975.436 296.027C980.288 305.569 981.56 316.887 979.251 329.98C977.608 339.3 974.318 347.732 969.382 355.277C964.447 362.822 957.924 369.147 949.813 374.251C958.299 379.798 964.238 387.01 967.63 395.887C971.061 404.541 971.838 414.194 969.96 424.846C967.612 438.161 962.065 449.811 953.319 459.797C944.798 469.783 933.852 477.55 920.48 483.097C907.334 488.645 892.536 491.419 876.087 491.419C861.666 491.419 847.132 491.419 832.485 491.419C817.838 491.419 803.304 491.419 788.883 491.419ZM919.103 335.638C920.121 329.869 919.14 325.208 916.16 321.658C913.22 317.885 908.821 315.999 902.962 315.999C898.906 315.999 894.738 315.999 890.456 315.999C886.4 315.999 882.344 315.999 878.288 315.999C877.193 322.213 876.058 328.648 874.884 335.305C873.749 341.741 872.615 348.176 871.48 354.612C875.536 354.612 879.592 354.612 883.648 354.612C887.929 354.612 892.098 354.612 896.154 354.612C902.012 354.612 907.038 352.947 911.23 349.619C915.462 346.068 918.086 341.408 919.103 335.638ZM911.749 419.52C912.844 413.307 911.564 408.425 907.909 404.874C904.518 401.102 899.218 399.215 892.007 399.215C887.275 399.215 882.543 399.215 877.811 399.215C873.079 399.215 868.347 399.215 863.615 399.215C862.402 406.095 861.189 412.974 859.976 419.853C858.763 426.732 857.55 433.612 856.337 440.491C861.069 440.491 865.801 440.491 870.533 440.491C875.265 440.491 879.997 440.491 884.729 440.491C891.94 440.491 897.906 438.604 902.627 434.832C907.573 431.06 910.614 425.956 911.749 419.52ZM1180.45 319.328C1175.44 347.732 1170.37 376.47 1165.25 405.54C1160.16 434.388 1155.11 463.015 1150.1 491.419C1141.09 491.419 1131.85 491.419 1122.39 491.419C1112.92 491.419 1103.57 491.419 1094.33 491.419C1094.61 489.866 1094.86 488.423 1095.1 487.092C1095.33 485.76 1095.59 484.318 1095.86 482.765C1089.03 486.981 1081.59 490.199 1073.54 492.418C1065.67 494.859 1057.35 496.079 1048.56 496.079C1035.71 496.079 1024.84 493.194 1015.95 487.425C1007.27 481.655 1001.08 473.333 997.365 462.46C993.874 451.586 993.44 438.715 996.061 423.847C999.113 406.538 1002.18 389.119 1005.28 371.588C1008.37 354.057 1011.44 336.637 1014.49 319.328C1023.73 319.328 1033.08 319.328 1042.54 319.328C1052.01 319.328 1061.25 319.328 1070.26 319.328C1067.44 335.305 1064.59 351.505 1061.69 367.926C1058.8 384.347 1055.94 400.547 1053.12 416.524C1051.56 425.401 1052.31 432.613 1055.39 438.161C1058.73 443.487 1064.91 446.149 1073.92 446.149C1082.94 446.149 1090.37 443.597 1096.23 438.494C1102.09 433.39 1105.86 426.067 1107.54 416.524C1110.36 400.547 1113.21 384.347 1116.11 367.926C1119.01 351.505 1121.86 335.305 1124.68 319.328C1133.92 319.328 1143.27 319.328 1152.73 319.328C1162.2 319.328 1171.44 319.328 1180.45 319.328ZM1194.04 544.677C1200.62 532.916 1207.33 521.044 1214.18 509.061C1221.21 497.3 1228 485.649 1234.54 474.11C1228.45 448.59 1222.17 422.849 1215.71 396.885C1209.51 370.7 1203.36 344.848 1197.27 319.328C1207.19 319.328 1217.1 319.328 1227.02 319.328C1236.93 319.328 1246.73 319.328 1256.42 319.328C1259.78 333.53 1263.09 347.954 1266.37 362.6C1269.87 377.246 1273.28 391.781 1276.59 406.206C1284.54 391.781 1292.63 377.246 1300.84 362.6C1309.06 347.954 1317.12 333.53 1325.04 319.328C1334.73 319.328 1344.42 319.328 1354.1 319.328C1363.79 319.328 1373.48 319.328 1383.17 319.328C1361.54 356.387 1339.7 394.001 1317.65 432.169C1295.86 470.116 1274.15 507.619 1252.52 544.677C1242.83 544.677 1233.02 544.677 1223.11 544.677C1213.42 544.677 1203.73 544.677 1194.04 544.677ZM1448.31 496.745C1435.24 496.745 1423.47 494.526 1412.98 490.088C1402.54 485.428 1393.87 478.992 1386.98 470.781C1380.13 462.349 1375.32 452.585 1372.54 441.489C1369.99 430.394 1369.87 418.3 1372.18 405.207C1374.49 392.114 1378.87 380.02 1385.34 368.925C1392.02 357.829 1400.26 348.176 1410.05 339.965C1419.83 331.755 1430.75 325.43 1442.8 320.992C1454.89 316.332 1467.46 314.002 1480.53 314.002C1493.83 314.002 1505.59 316.332 1515.81 320.992C1526.29 325.43 1534.98 331.755 1541.87 339.965C1548.76 348.176 1553.48 357.829 1556.03 368.925C1558.8 380.02 1559.03 392.114 1556.73 405.207C1554.42 418.3 1549.92 430.394 1543.23 441.489C1536.77 452.585 1528.62 462.349 1518.8 470.781C1509.01 478.992 1498.08 485.428 1485.99 490.088C1474.17 494.526 1461.61 496.745 1448.31 496.745ZM1457.06 447.148C1468.1 447.148 1477.57 443.265 1485.47 435.498C1493.64 427.509 1498.8 417.412 1500.96 405.207C1503.15 392.78 1501.53 382.794 1496.1 375.249C1490.93 367.482 1482.83 363.599 1471.79 363.599C1460.75 363.599 1451.16 367.482 1443.03 375.249C1435.17 382.794 1430.14 392.78 1427.95 405.207C1425.8 417.412 1427.28 427.509 1432.41 435.498C1437.8 443.265 1446.02 447.148 1457.06 447.148ZM1570.8 491.419C1577.88 451.253 1585.02 410.755 1592.22 369.923C1599.42 329.092 1606.56 288.593 1613.64 248.428C1622.88 248.428 1632.23 248.428 1641.7 248.428C1651.16 248.428 1660.4 248.428 1669.41 248.428C1662.33 288.593 1655.19 329.092 1647.99 369.923C1640.79 410.755 1633.65 451.253 1626.57 491.419C1617.56 491.419 1608.32 491.419 1598.85 491.419C1589.39 491.419 1580.04 491.419 1570.8 491.419ZM1695.31 496.745C1688.78 496.745 1682.97 495.192 1677.88 492.085C1673.02 488.978 1669.48 484.762 1667.27 479.436C1665.05 474.11 1664.49 468.34 1665.59 462.127C1666.68 455.913 1669.26 450.255 1673.31 445.151C1677.41 439.825 1682.43 435.609 1688.39 432.502C1694.57 429.395 1700.92 427.842 1707.46 427.842C1713.99 427.842 1719.58 429.395 1724.21 432.502C1729.07 435.609 1732.61 439.825 1734.83 445.151C1737.31 450.255 1738 455.913 1736.9 462.127C1735.81 468.34 1733.1 474.11 1728.78 479.436C1724.69 484.762 1719.66 488.978 1713.71 492.085C1707.98 495.192 1701.84 496.745 1695.31 496.745ZM1763.85 491.419C1768.86 463.015 1773.91 434.388 1779 405.54C1784.12 376.47 1789.19 347.732 1794.2 319.328C1803.44 319.328 1812.79 319.328 1822.25 319.328C1831.72 319.328 1840.96 319.328 1849.97 319.328C1849.69 320.881 1849.42 322.435 1849.15 323.988C1848.87 325.541 1848.6 327.095 1848.33 328.648C1856.17 323.766 1864.7 320.105 1873.92 317.664C1883.14 315.223 1892.83 314.557 1903 315.666C1901.44 324.543 1899.85 333.53 1898.25 342.628C1896.65 351.727 1895.06 360.714 1893.5 369.59C1876.13 367.149 1862.67 368.703 1853.13 374.251C1843.63 379.576 1837.8 388.342 1835.65 400.547C1833.03 415.415 1830.37 430.505 1827.67 445.817C1824.97 461.128 1822.29 476.329 1819.62 491.419C1810.61 491.419 1801.37 491.419 1791.91 491.419C1782.44 491.419 1773.09 491.419 1763.85 491.419ZM2090.8 319.328C2085.8 347.732 2080.73 376.47 2075.6 405.54C2070.52 434.388 2065.47 463.015 2060.46 491.419C2051.45 491.419 2042.21 491.419 2032.74 491.419C2023.28 491.419 2013.93 491.419 2004.69 491.419C2004.96 489.866 2005.22 488.423 2005.45 487.092C2005.69 485.76 2005.94 484.318 2006.22 482.765C1999.39 486.981 1991.95 490.199 1983.9 492.418C1976.03 494.859 1967.7 496.079 1958.91 496.079C1946.07 496.079 1935.2 493.194 1926.3 487.425C1917.63 481.655 1911.44 473.333 1907.72 462.46C1904.23 451.586 1903.8 438.715 1906.42 423.847C1909.47 406.538 1912.54 389.119 1915.63 371.588C1918.72 354.057 1921.79 336.637 1924.85 319.328C1934.09 319.328 1943.44 319.328 1952.9 319.328C1962.36 319.328 1971.6 319.328 1980.62 319.328C1977.8 335.305 1974.94 351.505 1972.05 367.926C1969.15 384.347 1966.3 400.547 1963.48 416.524C1961.91 425.401 1962.67 432.613 1965.75 438.161C1969.09 443.487 1975.27 446.149 1984.28 446.149C1993.29 446.149 2000.73 443.597 2006.59 438.494C2012.44 433.39 2016.21 426.067 2017.9 416.524C2020.71 400.547 2023.57 384.347 2026.47 367.926C2029.36 351.505 2032.22 335.305 2035.03 319.328C2044.27 319.328 2053.62 319.328 2063.09 319.328C2072.55 319.328 2081.79 319.328 2090.8 319.328Z" fill="white"/>
</g>
<defs>
<filter id="filter0_dd_23_156" x="0" y="0.491943" width="2888" height="751.508" filterUnits="userSpaceOnUse" color-interpolation-filters="sRGB">
<feFlood flood-opacity="0" result="BackgroundImageFix"/>
<feColorMatrix in="SourceAlpha" type="matrix" values="0 0 0 0 0 0 0 0 0 0 0 0 0 0 0 0 0 0 127 0" result="hardAlpha"/>
<feOffset dy="4"/>
<feGaussianBlur stdDeviation="2"/>
<feComposite in2="hardAlpha" operator="out"/>
<feColorMatrix type="matrix" values="0 0 0 0 0 0 0 0 0 0 0 0 0 0 0 0 0 0 0.25 0"/>
<feBlend mode="normal" in2="BackgroundImageFix" result="effect1_dropShadow_23_156"/>
<feColorMatrix in="SourceAlpha" type="matrix" values="0 0 0 0 0 0 0 0 0 0 0 0 0 0 0 0 0 0 127 0" result="hardAlpha"/>
<feOffset dy="4"/>
<feGaussianBlur stdDeviation="2"/>
<feComposite in2="hardAlpha" operator="out"/>
<feColorMatrix type="matrix" values="0 0 0 0 0 0 0 0 0 0 0 0 0 0 0 0 0 0 0.25 0"/>
<feBlend mode="normal" in2="effect1_dropShadow_23_156" result="effect2_dropShadow_23_156"/>
<feBlend mode="normal" in="SourceGraphic" in2="effect2_dropShadow_23_156" result="shape"/>
</filter>
<filter id="filter1_f_23_156" x="560.66" y="116.875" width="1782.01" height="573.774" filterUnits="userSpaceOnUse" color-interpolation-filters="sRGB">
<feFlood flood-opacity="0" result="BackgroundImageFix"/>
<feBlend mode="normal" in="SourceGraphic" in2="BackgroundImageFix" result="shape"/>
<feGaussianBlur stdDeviation="100" result="effect1_foregroundBlur_23_156"/>
</filter>
<linearGradient id="paint0_linear_23_156" x1="691.014" y1="0" x2="691.014" y2="167.107" gradientUnits="userSpaceOnUse">
<stop stop-color="#1900FF"/>
<stop offset="1" stop-color="#1900FF"/>
</linearGradient>
</defs>
</svg>
