<svg width="2560" height="712" viewBox="0 0 2560 712" fill="none" xmlns="http://www.w3.org/2000/svg">
<rect width="2560" height="711.111" fill="#2973B2"/>
<path d="M1694.29 413.322H1761.61L1786.21 462.514H1640.79V245.034H1694.29V413.322Z" fill="#FCF6F6"/>
<path fill-rule="evenodd" clip-rule="evenodd" d="M1375.41 353.774C1375.41 288.616 1424.6 241.151 1491.49 241.151C1558.37 241.151 1607.56 288.616 1607.56 353.774C1607.56 418.932 1559.23 466.397 1491.49 466.397C1423.74 466.397 1375.41 419.363 1375.41 353.774ZM1491.05 289.911C1527.3 289.911 1552.76 316.233 1552.76 353.774C1552.76 391.747 1527.3 418.069 1491.49 418.069C1455.67 418.069 1429.78 391.315 1429.78 353.774C1429.78 316.233 1454.81 289.911 1491.05 289.911Z" fill="#FCF6F6"/>
<path d="M970.199 377.507V245.466H1023.71V372.76C1023.71 402.103 1037.51 417.637 1063.4 417.637C1089.29 417.637 1103.1 402.103 1103.1 372.76V245.466H1156.61V377.075C1156.61 433.171 1120.79 466.397 1063.4 466.397C1006.01 466.397 970.199 433.603 970.199 377.507ZM943.877 385.274C943.877 338.24 912.377 307.171 859.733 307.171H845.925V351.185H854.555C877.425 351.185 890.801 363.267 890.801 384.411C890.801 405.555 877.425 417.637 854.555 417.637H826.075V245.466H773V462.945H859.733C912.377 462.945 943.877 432.308 943.877 385.274ZM1265.78 290.774L1241.18 245.897H1180.34L1258.88 382.685V462.945H1312.38V382.685L1286.06 329.61C1285.63 329.61 1265.78 290.774 1265.78 290.774Z" fill="white"/>
<path d="M1322.31 364.993L1390.49 245.466H1331.37L1306.34 290.342L1295.12 311.486L1322.31 364.993Z" fill="white"/>
<path d="M2402.51 602.451C2403.37 602.624 2404.3 602.509 2405.17 602.512C2406.43 602.516 2407.69 602.593 2408.94 602.513C2408.92 605.021 2408.94 607.533 2408.94 610.041C2408.94 612.065 2408.91 614.101 2408.97 616.122L2408.94 616.13C2408.84 615.966 2408.74 615.243 2408.68 614.985C2408.49 614.133 2408.27 613.298 2408.03 612.482C2407.82 611.752 2407.58 611.042 2407.32 610.353C2407.06 609.664 2406.78 609 2406.49 608.361C2406.12 607.577 2405.72 606.835 2405.3 606.135C2404.88 605.434 2404.44 604.78 2403.97 604.172C2403.71 603.839 2402.64 602.785 2402.51 602.451Z" fill="white"/>
<path d="M2418.7 602.498C2419.6 602.578 2424.87 602.337 2425.21 602.623C2425.22 602.696 2425.23 602.774 2425.23 602.849C2425.22 602.949 2425.19 603.055 2425.16 603.136C2424.94 603.673 2424.43 604.019 2424.13 604.401C2423.85 604.75 2423.57 605.13 2423.3 605.505C2422.81 606.197 2422.32 606.962 2421.88 607.765C2421.6 608.272 2421.34 608.96 2421.02 609.371C2421.01 609.501 2420.29 611.178 2420.18 611.459C2419.56 613.12 2419.07 614.913 2418.66 616.766C2418.75 612.015 2418.67 607.251 2418.7 602.498Z" fill="white"/>
<path d="M2382.01 585C2382.74 585.07 2383.48 585.008 2384.21 585.008L2388.53 585.011L2388.53 607.469C2389.95 605.025 2391.61 603.184 2393.53 602.17C2396.33 600.691 2399.61 601.288 2402.18 603.693C2403.19 604.63 2404.08 605.819 2404.89 607.2C2407.41 611.468 2408.67 616.991 2408.9 623.045C2409.03 626.31 2408.86 629.725 2409.41 632.897C2409.75 634.813 2410.48 636.52 2411.5 637.462C2412.68 638.54 2414.24 638.604 2415.49 637.922C2415.58 637.875 2415.66 637.823 2415.75 637.765C2415.84 637.708 2415.92 637.646 2416 637.578C2416.09 637.511 2416.17 637.438 2416.25 637.361C2416.33 637.284 2416.41 637.202 2416.49 637.115C2416.57 637.029 2416.64 636.938 2416.72 636.842C2416.79 636.746 2416.86 636.647 2416.93 636.542C2417 636.438 2417.07 636.33 2417.14 636.218C2417.2 636.106 2417.27 635.99 2417.33 635.87C2419.17 632.275 2418.48 626.681 2418.74 622.254C2418.76 621.886 2418.79 621.519 2418.82 621.153C2418.85 620.787 2418.89 620.423 2418.93 620.06C2418.97 619.697 2419.02 619.336 2419.07 618.977C2419.12 618.618 2419.18 618.262 2419.24 617.908C2419.3 617.554 2419.37 617.202 2419.44 616.854C2419.51 616.505 2419.58 616.16 2419.66 615.818C2419.75 615.476 2419.83 615.138 2419.92 614.803C2420.01 614.468 2420.11 614.137 2420.21 613.81C2421.86 608.353 2424.97 604.002 2428.34 602.194C2431.81 600.329 2435.68 601.254 2438.86 604.2C2438.95 604.29 2439.05 604.382 2439.15 604.476C2439.24 604.571 2439.34 604.667 2439.43 604.765C2439.53 604.863 2439.62 604.964 2439.72 605.066C2439.81 605.168 2439.9 605.272 2439.99 605.379C2440.09 605.485 2440.18 605.593 2440.27 605.703C2440.36 605.814 2440.45 605.926 2440.54 606.04C2440.62 606.154 2440.71 606.27 2440.8 606.387C2440.89 606.505 2440.97 606.625 2441.06 606.746C2441.14 606.868 2441.23 606.991 2441.31 607.116C2441.39 607.241 2441.48 607.368 2441.56 607.497C2441.64 607.626 2441.72 607.756 2441.8 607.888C2441.88 608.02 2441.96 608.154 2442.04 608.29C2442.12 608.425 2442.19 608.562 2442.27 608.701C2442.35 608.84 2442.42 608.981 2442.5 609.123C2442.57 609.265 2442.64 609.408 2442.72 609.553C2442.79 609.699 2442.86 609.845 2442.93 609.994C2443 610.142 2443.07 610.292 2443.14 610.443C2443.2 610.594 2443.27 610.747 2443.34 610.901C2443.4 611.055 2443.47 611.211 2443.53 611.368C2443.6 611.524 2443.66 611.683 2443.72 611.842C2443.78 612.002 2443.84 612.163 2443.9 612.325C2443.96 612.487 2444.02 612.65 2444.07 612.815C2444.13 612.98 2444.19 613.145 2444.24 613.312C2444.3 613.48 2444.35 613.648 2444.4 613.817C2444.45 613.987 2444.5 614.157 2444.55 614.328C2444.6 614.5 2444.65 614.672 2444.7 614.846C2444.75 615.02 2444.79 615.194 2444.84 615.37C2444.88 615.545 2444.93 615.722 2444.97 615.899C2445.01 616.077 2445.05 616.255 2445.09 616.434C2445.13 616.613 2445.17 616.793 2445.21 616.974C2445.24 617.155 2445.28 617.337 2445.32 617.519C2445.35 617.702 2445.38 617.885 2445.42 618.069C2445.45 618.258 2445.48 618.449 2445.51 618.64C2445.54 618.831 2445.57 619.022 2445.6 619.214C2445.62 619.407 2445.65 619.6 2445.67 619.793C2445.7 619.986 2445.72 620.18 2445.74 620.375C2445.77 620.569 2445.79 620.764 2445.8 620.959C2445.82 621.154 2445.84 621.35 2445.86 621.546C2445.87 621.742 2445.89 621.938 2445.9 622.135C2445.92 622.332 2445.93 622.529 2445.94 622.726C2445.95 622.923 2445.96 623.12 2445.97 623.318C2445.97 623.515 2445.98 623.713 2445.99 623.911C2445.99 624.109 2445.99 624.307 2446 624.505C2446 624.703 2446 624.901 2446 625.099C2446 625.297 2446 625.495 2445.99 625.693C2445.99 625.891 2445.99 626.089 2445.98 626.286C2445.97 626.484 2445.97 626.682 2445.96 626.879C2445.95 627.077 2445.94 627.274 2445.93 627.471C2445.91 627.668 2445.9 627.865 2445.89 628.061C2445.87 628.258 2445.86 628.454 2445.84 628.65C2445.82 628.845 2445.8 629.041 2445.78 629.236C2445.76 629.431 2445.74 629.625 2445.72 629.819C2445.7 630.013 2445.67 630.207 2445.65 630.4C2445.62 630.593 2445.59 630.785 2445.57 630.977C2445.54 631.169 2445.51 631.36 2445.48 631.551C2445.45 631.741 2445.41 631.931 2445.38 632.12C2445.35 632.309 2445.31 632.498 2445.28 632.685C2445.24 632.873 2445.2 633.06 2445.16 633.246C2445.12 633.432 2445.08 633.617 2445.04 633.801C2445 633.986 2444.96 634.169 2444.91 634.351C2444.87 634.534 2444.82 634.715 2444.78 634.896C2444.73 635.076 2444.68 635.256 2444.63 635.434C2444.58 635.613 2444.53 635.79 2444.48 635.966C2444.43 636.143 2444.38 636.318 2444.32 636.492C2444.27 636.658 2444.22 636.823 2444.16 636.987C2444.11 637.151 2444.05 637.314 2444 637.476C2443.94 637.638 2443.89 637.799 2443.83 637.958C2443.77 638.118 2443.71 638.276 2443.65 638.433C2443.59 638.589 2443.53 638.745 2443.46 638.899C2443.4 639.053 2443.34 639.206 2443.27 639.358C2443.21 639.51 2443.14 639.66 2443.07 639.808C2443.01 639.957 2442.94 640.104 2442.87 640.25C2442.8 640.396 2442.73 640.541 2442.66 640.684C2442.59 640.827 2442.52 640.968 2442.44 641.108C2442.37 641.248 2442.3 641.386 2442.22 641.523C2442.15 641.66 2442.07 641.795 2441.99 641.928C2441.92 642.062 2441.84 642.194 2441.76 642.324C2441.68 642.454 2441.6 642.583 2441.52 642.71C2441.44 642.836 2441.36 642.962 2441.28 643.085C2441.2 643.209 2441.11 643.33 2441.03 643.45C2440.94 643.57 2440.86 643.688 2440.77 643.805C2440.69 643.921 2440.6 644.035 2440.52 644.148C2440.43 644.261 2440.34 644.372 2440.25 644.481C2440.16 644.59 2440.07 644.697 2439.98 644.802C2439.89 644.907 2439.8 645.01 2439.71 645.112C2439.62 645.213 2439.53 645.312 2439.43 645.41C2439.34 645.507 2439.25 645.603 2439.15 645.696C2439.06 645.79 2438.96 645.881 2438.87 645.971C2438.77 646.06 2438.68 646.147 2438.58 646.233C2438.48 646.318 2438.39 646.402 2438.29 646.483C2438.19 646.564 2438.09 646.643 2437.99 646.72C2437.89 646.798 2437.79 646.873 2437.69 646.945C2437.59 647.018 2437.49 647.089 2437.39 647.158C2437.29 647.226 2437.19 647.293 2437.09 647.357C2436.99 647.421 2436.88 647.484 2436.78 647.544C2436.68 647.604 2436.57 647.661 2436.47 647.717C2432.96 649.571 2428.96 649.16 2425.72 646.028C2425.23 645.546 2424.73 645.005 2424.28 644.403C2423.95 643.967 2423.62 643.348 2423.25 643.021C2423.25 643.014 2423.24 643.008 2423.23 643.001C2423.75 642.319 2424.65 639.099 2424.89 637.976C2425.12 636.929 2425.89 631.544 2425.64 630.588C2425.91 630.986 2426.16 632.188 2426.38 632.771C2427.35 635.366 2428.85 637.296 2430.6 637.925C2432.47 638.592 2434.53 638.132 2436.13 636.279C2436.23 636.164 2436.33 636.046 2436.42 635.923C2436.52 635.8 2436.61 635.673 2436.7 635.542C2436.8 635.411 2436.89 635.276 2436.97 635.138C2437.06 634.999 2437.15 634.857 2437.23 634.71C2437.32 634.564 2437.4 634.414 2437.48 634.261C2437.56 634.108 2437.63 633.951 2437.71 633.791C2437.78 633.631 2437.86 633.468 2437.93 633.302C2438 633.136 2438.07 632.966 2438.13 632.794C2438.2 632.622 2438.26 632.447 2438.32 632.269C2438.38 632.092 2438.44 631.911 2438.5 631.729C2438.55 631.546 2438.6 631.361 2438.66 631.174C2438.71 630.986 2438.75 630.797 2438.8 630.605C2438.84 630.414 2438.89 630.221 2438.92 630.026C2438.96 629.831 2439 629.634 2439.03 629.436C2439.07 629.238 2439.1 629.038 2439.13 628.837C2439.16 628.636 2439.18 628.434 2439.2 628.231C2439.28 627.563 2439.52 624.934 2439.31 624.398C2439.32 624.368 2439.33 624.356 2439.33 624.321C2439.54 623.447 2438.93 619.892 2438.69 618.954C2437.97 616.173 2436.61 613.823 2434.96 612.745C2433.21 611.595 2431.02 611.617 2429.31 612.978C2427.2 614.652 2425.74 618.164 2425.33 622.1C2425.17 623.619 2425.18 625.159 2425.15 626.696C2425.06 630.168 2424.94 634.217 2424.23 637.495C2423.32 641.735 2421.44 645.36 2419.07 647.222C2416.17 649.497 2411.88 649.556 2408.91 647.587C2405.95 645.624 2403.84 641.166 2403.01 635.88C2402.62 633.38 2402.48 630.668 2402.41 628.087C2402.32 624.807 2402.52 622.028 2401.72 618.934C2400.99 616.117 2399.64 613.718 2397.97 612.625C2396.18 611.456 2394.01 611.556 2392.27 612.95C2390.65 614.248 2389.35 616.813 2388.74 619.718C2387.97 623.369 2388.04 628.023 2388.99 631.556C2389.75 634.378 2391.15 636.738 2392.84 637.796C2394.57 638.878 2396.65 638.804 2398.32 637.413C2399.83 636.153 2401.24 633.627 2401.8 630.855C2402.06 634.641 2402.39 637.831 2403.53 641.185C2403.81 641.993 2404.12 642.827 2404.49 643.522C2401.97 647.387 2399.18 649.28 2395.8 648.924C2393.48 648.68 2391.37 647.175 2389.56 644.63C2389.21 644.135 2388.83 643.615 2388.53 643.026L2388.53 647.843C2386.35 647.817 2384.18 647.82 2382 647.852C2382.03 645.752 2382.01 643.642 2382.01 641.541L2382.01 629.73L2382.01 585Z" fill="white"/>
<path d="M869.062 506.5V552H863.125V506.5H869.062ZM883.688 506.5V511.438H848.531V506.5H883.688ZM884.906 535.469V534.75C884.906 532.312 885.26 530.052 885.969 527.969C886.677 525.865 887.698 524.042 889.031 522.5C890.365 520.938 891.979 519.729 893.875 518.875C895.771 518 897.896 517.562 900.25 517.562C902.625 517.562 904.76 518 906.656 518.875C908.573 519.729 910.198 520.938 911.531 522.5C912.885 524.042 913.917 525.865 914.625 527.969C915.333 530.052 915.688 532.312 915.688 534.75V535.469C915.688 537.906 915.333 540.167 914.625 542.25C913.917 544.333 912.885 546.156 911.531 547.719C910.198 549.26 908.583 550.469 906.688 551.344C904.812 552.198 902.688 552.625 900.312 552.625C897.938 552.625 895.802 552.198 893.906 551.344C892.01 550.469 890.385 549.26 889.031 547.719C887.698 546.156 886.677 544.333 885.969 542.25C885.26 540.167 884.906 537.906 884.906 535.469ZM890.688 534.75V535.469C890.688 537.156 890.885 538.75 891.281 540.25C891.677 541.729 892.271 543.042 893.062 544.188C893.875 545.333 894.885 546.24 896.094 546.906C897.302 547.552 898.708 547.875 900.312 547.875C901.896 547.875 903.281 547.552 904.469 546.906C905.677 546.24 906.677 545.333 907.469 544.188C908.26 543.042 908.854 541.729 909.25 540.25C909.667 538.75 909.875 537.156 909.875 535.469V534.75C909.875 533.083 909.667 531.51 909.25 530.031C908.854 528.531 908.25 527.208 907.438 526.062C906.646 524.896 905.646 523.979 904.438 523.312C903.25 522.646 901.854 522.312 900.25 522.312C898.667 522.312 897.271 522.646 896.062 523.312C894.875 523.979 893.875 524.896 893.062 526.062C892.271 527.208 891.677 528.531 891.281 530.031C890.885 531.51 890.688 533.083 890.688 534.75ZM938.812 537.125H927.719L927.656 532.5H936.719C938.51 532.5 940 532.323 941.188 531.969C942.396 531.615 943.302 531.083 943.906 530.375C944.51 529.667 944.812 528.792 944.812 527.75C944.812 526.938 944.635 526.229 944.281 525.625C943.948 525 943.438 524.49 942.75 524.094C942.062 523.677 941.208 523.375 940.188 523.188C939.188 522.979 938.01 522.875 936.656 522.875H929.25V552H923.469V518.188H936.656C938.802 518.188 940.729 518.375 942.438 518.75C944.167 519.125 945.635 519.698 946.844 520.469C948.073 521.219 949.01 522.177 949.656 523.344C950.302 524.51 950.625 525.885 950.625 527.469C950.625 528.49 950.417 529.458 950 530.375C949.583 531.292 948.969 532.104 948.156 532.812C947.344 533.521 946.344 534.104 945.156 534.562C943.969 535 942.604 535.281 941.062 535.406L938.812 537.125ZM938.812 552H925.625L928.5 547.312H938.812C940.417 547.312 941.75 547.115 942.812 546.719C943.875 546.302 944.667 545.719 945.188 544.969C945.729 544.198 946 543.281 946 542.219C946 541.156 945.729 540.25 945.188 539.5C944.667 538.729 943.875 538.146 942.812 537.75C941.75 537.333 940.417 537.125 938.812 537.125H930.031L930.094 532.5H941.062L943.156 534.25C945.01 534.396 946.583 534.854 947.875 535.625C949.167 536.396 950.146 537.375 950.812 538.562C951.479 539.729 951.812 541 951.812 542.375C951.812 543.958 951.51 545.354 950.906 546.562C950.323 547.771 949.469 548.781 948.344 549.594C947.219 550.385 945.854 550.99 944.25 551.406C942.646 551.802 940.833 552 938.812 552ZM979.5 546.219V528.812C979.5 527.479 979.229 526.323 978.688 525.344C978.167 524.344 977.375 523.573 976.312 523.031C975.25 522.49 973.938 522.219 972.375 522.219C970.917 522.219 969.635 522.469 968.531 522.969C967.448 523.469 966.594 524.125 965.969 524.938C965.365 525.75 965.062 526.625 965.062 527.562H959.281C959.281 526.354 959.594 525.156 960.219 523.969C960.844 522.781 961.74 521.708 962.906 520.75C964.094 519.771 965.51 519 967.156 518.438C968.823 517.854 970.677 517.562 972.719 517.562C975.177 517.562 977.344 517.979 979.219 518.812C981.115 519.646 982.594 520.906 983.656 522.594C984.74 524.26 985.281 526.354 985.281 528.875V544.625C985.281 545.75 985.375 546.948 985.562 548.219C985.771 549.49 986.073 550.583 986.469 551.5V552H980.438C980.146 551.333 979.917 550.448 979.75 549.344C979.583 548.219 979.5 547.177 979.5 546.219ZM980.5 531.5L980.562 535.562H974.719C973.073 535.562 971.604 535.698 970.312 535.969C969.021 536.219 967.938 536.604 967.062 537.125C966.188 537.646 965.521 538.302 965.062 539.094C964.604 539.865 964.375 540.771 964.375 541.812C964.375 542.875 964.615 543.844 965.094 544.719C965.573 545.594 966.292 546.292 967.25 546.812C968.229 547.312 969.427 547.562 970.844 547.562C972.615 547.562 974.177 547.188 975.531 546.438C976.885 545.688 977.958 544.771 978.75 543.688C979.562 542.604 980 541.552 980.062 540.531L982.531 543.312C982.385 544.188 981.99 545.156 981.344 546.219C980.698 547.281 979.833 548.302 978.75 549.281C977.688 550.24 976.417 551.042 974.938 551.688C973.479 552.312 971.833 552.625 970 552.625C967.708 552.625 965.698 552.177 963.969 551.281C962.26 550.385 960.927 549.188 959.969 547.688C959.031 546.167 958.562 544.469 958.562 542.594C958.562 540.781 958.917 539.188 959.625 537.812C960.333 536.417 961.354 535.26 962.688 534.344C964.021 533.406 965.625 532.698 967.5 532.219C969.375 531.74 971.469 531.5 973.781 531.5H980.5ZM1000.16 524.688V565H994.344V518.188H999.656L1000.16 524.688ZM1022.94 534.812V535.469C1022.94 537.927 1022.65 540.208 1022.06 542.312C1021.48 544.396 1020.62 546.208 1019.5 547.75C1018.4 549.292 1017.03 550.49 1015.41 551.344C1013.78 552.198 1011.92 552.625 1009.81 552.625C1007.67 552.625 1005.77 552.271 1004.12 551.562C1002.48 550.854 1001.08 549.823 999.938 548.469C998.792 547.115 997.875 545.49 997.188 543.594C996.521 541.698 996.062 539.562 995.812 537.188V533.688C996.062 531.188 996.531 528.948 997.219 526.969C997.906 524.99 998.812 523.302 999.938 521.906C1001.08 520.49 1002.47 519.417 1004.09 518.688C1005.72 517.938 1007.59 517.562 1009.72 517.562C1011.84 517.562 1013.73 517.979 1015.38 518.812C1017.02 519.625 1018.41 520.792 1019.53 522.312C1020.66 523.833 1021.5 525.656 1022.06 527.781C1022.65 529.885 1022.94 532.229 1022.94 534.812ZM1017.12 535.469V534.812C1017.12 533.125 1016.95 531.542 1016.59 530.062C1016.24 528.562 1015.69 527.25 1014.94 526.125C1014.21 524.979 1013.27 524.083 1012.12 523.438C1010.98 522.771 1009.61 522.438 1008.03 522.438C1006.57 522.438 1005.3 522.688 1004.22 523.188C1003.16 523.688 1002.25 524.365 1001.5 525.219C1000.75 526.052 1000.14 527.01 999.656 528.094C999.198 529.156 998.854 530.26 998.625 531.406V539.5C999.042 540.958 999.625 542.333 1000.38 543.625C1001.12 544.896 1002.12 545.927 1003.38 546.719C1004.62 547.49 1006.2 547.875 1008.09 547.875C1009.66 547.875 1011 547.552 1012.12 546.906C1013.27 546.24 1014.21 545.333 1014.94 544.188C1015.69 543.042 1016.24 541.729 1016.59 540.25C1016.95 538.75 1017.12 537.156 1017.12 535.469ZM1035.06 529.812H1045.22C1047.95 529.812 1050.25 530.292 1052.12 531.25C1054 532.188 1055.42 533.49 1056.38 535.156C1057.35 536.802 1057.84 538.677 1057.84 540.781C1057.84 542.344 1057.57 543.812 1057.03 545.188C1056.49 546.542 1055.68 547.729 1054.59 548.75C1053.53 549.771 1052.21 550.573 1050.62 551.156C1049.06 551.719 1047.26 552 1045.22 552H1030.84V518.188H1036.62V547.25H1045.22C1046.89 547.25 1048.22 546.948 1049.22 546.344C1050.22 545.74 1050.94 544.958 1051.38 544C1051.81 543.042 1052.03 542.042 1052.03 541C1052.03 539.979 1051.81 538.979 1051.38 538C1050.94 537.021 1050.22 536.208 1049.22 535.562C1048.22 534.896 1046.89 534.562 1045.22 534.562H1035.06V529.812ZM1069.88 518.188V552H1064.09V518.188H1069.88ZM1085.25 545.125V549.781C1085.25 551.677 1084.77 553.677 1083.81 555.781C1082.85 557.906 1081.51 559.677 1079.78 561.094L1076.5 558.812C1077.17 557.896 1077.73 556.958 1078.19 556C1078.65 555.062 1078.99 554.083 1079.22 553.062C1079.47 552.062 1079.59 551 1079.59 549.875V545.125H1085.25ZM1114.78 518.188V552H1109V518.188H1114.78ZM1136.97 518.188L1120.94 537.562H1112.84L1111.97 532.5H1118.59L1129.94 518.188H1136.97ZM1130.75 552L1118.31 536.688L1122.03 532.5L1138.09 552H1130.75ZM1140.91 535.469V534.75C1140.91 532.312 1141.26 530.052 1141.97 527.969C1142.68 525.865 1143.7 524.042 1145.03 522.5C1146.36 520.938 1147.98 519.729 1149.88 518.875C1151.77 518 1153.9 517.562 1156.25 517.562C1158.62 517.562 1160.76 518 1162.66 518.875C1164.57 519.729 1166.2 520.938 1167.53 522.5C1168.89 524.042 1169.92 525.865 1170.62 527.969C1171.33 530.052 1171.69 532.312 1171.69 534.75V535.469C1171.69 537.906 1171.33 540.167 1170.62 542.25C1169.92 544.333 1168.89 546.156 1167.53 547.719C1166.2 549.26 1164.58 550.469 1162.69 551.344C1160.81 552.198 1158.69 552.625 1156.31 552.625C1153.94 552.625 1151.8 552.198 1149.91 551.344C1148.01 550.469 1146.39 549.26 1145.03 547.719C1143.7 546.156 1142.68 544.333 1141.97 542.25C1141.26 540.167 1140.91 537.906 1140.91 535.469ZM1146.69 534.75V535.469C1146.69 537.156 1146.89 538.75 1147.28 540.25C1147.68 541.729 1148.27 543.042 1149.06 544.188C1149.88 545.333 1150.89 546.24 1152.09 546.906C1153.3 547.552 1154.71 547.875 1156.31 547.875C1157.9 547.875 1159.28 547.552 1160.47 546.906C1161.68 546.24 1162.68 545.333 1163.47 544.188C1164.26 543.042 1164.85 541.729 1165.25 540.25C1165.67 538.75 1165.88 537.156 1165.88 535.469V534.75C1165.88 533.083 1165.67 531.51 1165.25 530.031C1164.85 528.531 1164.25 527.208 1163.44 526.062C1162.65 524.896 1161.65 523.979 1160.44 523.312C1159.25 522.646 1157.85 522.312 1156.25 522.312C1154.67 522.312 1153.27 522.646 1152.06 523.312C1150.88 523.979 1149.88 524.896 1149.06 526.062C1148.27 527.208 1147.68 528.531 1147.28 530.031C1146.89 531.51 1146.69 533.083 1146.69 534.75ZM1192.03 518.188V552H1186.22V518.188H1192.03ZM1203.38 518.188V522.875H1175.09V518.188H1203.38ZM1206.22 535.469V534.75C1206.22 532.312 1206.57 530.052 1207.28 527.969C1207.99 525.865 1209.01 524.042 1210.34 522.5C1211.68 520.938 1213.29 519.729 1215.19 518.875C1217.08 518 1219.21 517.562 1221.56 517.562C1223.94 517.562 1226.07 518 1227.97 518.875C1229.89 519.729 1231.51 520.938 1232.84 522.5C1234.2 524.042 1235.23 525.865 1235.94 527.969C1236.65 530.052 1237 532.312 1237 534.75V535.469C1237 537.906 1236.65 540.167 1235.94 542.25C1235.23 544.333 1234.2 546.156 1232.84 547.719C1231.51 549.26 1229.9 550.469 1228 551.344C1226.12 552.198 1224 552.625 1221.62 552.625C1219.25 552.625 1217.11 552.198 1215.22 551.344C1213.32 550.469 1211.7 549.26 1210.34 547.719C1209.01 546.156 1207.99 544.333 1207.28 542.25C1206.57 540.167 1206.22 537.906 1206.22 535.469ZM1212 534.75V535.469C1212 537.156 1212.2 538.75 1212.59 540.25C1212.99 541.729 1213.58 543.042 1214.38 544.188C1215.19 545.333 1216.2 546.24 1217.41 546.906C1218.61 547.552 1220.02 547.875 1221.62 547.875C1223.21 547.875 1224.59 547.552 1225.78 546.906C1226.99 546.24 1227.99 545.333 1228.78 544.188C1229.57 543.042 1230.17 541.729 1230.56 540.25C1230.98 538.75 1231.19 537.156 1231.19 535.469V534.75C1231.19 533.083 1230.98 531.51 1230.56 530.031C1230.17 528.531 1229.56 527.208 1228.75 526.062C1227.96 524.896 1226.96 523.979 1225.75 523.312C1224.56 522.646 1223.17 522.312 1221.56 522.312C1219.98 522.312 1218.58 522.646 1217.38 523.312C1216.19 523.979 1215.19 524.896 1214.38 526.062C1213.58 527.208 1212.99 528.531 1212.59 530.031C1212.2 531.51 1212 533.083 1212 534.75ZM1250.03 524.688V565H1244.22V518.188H1249.53L1250.03 524.688ZM1272.81 534.812V535.469C1272.81 537.927 1272.52 540.208 1271.94 542.312C1271.35 544.396 1270.5 546.208 1269.38 547.75C1268.27 549.292 1266.91 550.49 1265.28 551.344C1263.66 552.198 1261.79 552.625 1259.69 552.625C1257.54 552.625 1255.65 552.271 1254 551.562C1252.35 550.854 1250.96 549.823 1249.81 548.469C1248.67 547.115 1247.75 545.49 1247.06 543.594C1246.4 541.698 1245.94 539.562 1245.69 537.188V533.688C1245.94 531.188 1246.41 528.948 1247.09 526.969C1247.78 524.99 1248.69 523.302 1249.81 521.906C1250.96 520.49 1252.34 519.417 1253.97 518.688C1255.59 517.938 1257.47 517.562 1259.59 517.562C1261.72 517.562 1263.6 517.979 1265.25 518.812C1266.9 519.625 1268.28 520.792 1269.41 522.312C1270.53 523.833 1271.38 525.656 1271.94 527.781C1272.52 529.885 1272.81 532.229 1272.81 534.812ZM1267 535.469V534.812C1267 533.125 1266.82 531.542 1266.47 530.062C1266.11 528.562 1265.56 527.25 1264.81 526.125C1264.08 524.979 1263.15 524.083 1262 523.438C1260.85 522.771 1259.49 522.438 1257.91 522.438C1256.45 522.438 1255.18 522.688 1254.09 523.188C1253.03 523.688 1252.12 524.365 1251.38 525.219C1250.62 526.052 1250.01 527.01 1249.53 528.094C1249.07 529.156 1248.73 530.26 1248.5 531.406V539.5C1248.92 540.958 1249.5 542.333 1250.25 543.625C1251 544.896 1252 545.927 1253.25 546.719C1254.5 547.49 1256.07 547.875 1257.97 547.875C1259.53 547.875 1260.88 547.552 1262 546.906C1263.15 546.24 1264.08 545.333 1264.81 544.188C1265.56 543.042 1266.11 541.729 1266.47 540.25C1266.82 538.75 1267 537.156 1267 535.469ZM1284.94 529.812H1295.09C1297.82 529.812 1300.12 530.292 1302 531.25C1303.88 532.188 1305.29 533.49 1306.25 535.156C1307.23 536.802 1307.72 538.677 1307.72 540.781C1307.72 542.344 1307.45 543.812 1306.91 545.188C1306.36 546.542 1305.55 547.729 1304.47 548.75C1303.41 549.771 1302.08 550.573 1300.5 551.156C1298.94 551.719 1297.14 552 1295.09 552H1280.72V518.188H1286.5V547.25H1295.09C1296.76 547.25 1298.09 546.948 1299.09 546.344C1300.09 545.74 1300.81 544.958 1301.25 544C1301.69 543.042 1301.91 542.042 1301.91 541C1301.91 539.979 1301.69 538.979 1301.25 538C1300.81 537.021 1300.09 536.208 1299.09 535.562C1298.09 534.896 1296.76 534.562 1295.09 534.562H1284.94V529.812ZM1319.75 518.188V552H1313.97V518.188H1319.75ZM1343.91 552.625C1341.55 552.625 1339.42 552.229 1337.5 551.438C1335.6 550.625 1333.97 549.49 1332.59 548.031C1331.24 546.573 1330.2 544.844 1329.47 542.844C1328.74 540.844 1328.38 538.656 1328.38 536.281V534.969C1328.38 532.219 1328.78 529.771 1329.59 527.625C1330.41 525.458 1331.51 523.625 1332.91 522.125C1334.3 520.625 1335.89 519.49 1337.66 518.719C1339.43 517.948 1341.26 517.562 1343.16 517.562C1345.57 517.562 1347.66 517.979 1349.41 518.812C1351.18 519.646 1352.62 520.812 1353.75 522.312C1354.88 523.792 1355.71 525.542 1356.25 527.562C1356.79 529.562 1357.06 531.75 1357.06 534.125V536.719H1331.81V532H1351.28V531.562C1351.2 530.062 1350.89 528.604 1350.34 527.188C1349.82 525.771 1348.99 524.604 1347.84 523.688C1346.7 522.771 1345.14 522.312 1343.16 522.312C1341.84 522.312 1340.64 522.594 1339.53 523.156C1338.43 523.698 1337.48 524.51 1336.69 525.594C1335.9 526.677 1335.28 528 1334.84 529.562C1334.41 531.125 1334.19 532.927 1334.19 534.969V536.281C1334.19 537.885 1334.41 539.396 1334.84 540.812C1335.3 542.208 1335.96 543.438 1336.81 544.5C1337.69 545.562 1338.74 546.396 1339.97 547C1341.22 547.604 1342.64 547.906 1344.22 547.906C1346.26 547.906 1347.99 547.49 1349.41 546.656C1350.82 545.823 1352.06 544.708 1353.12 543.312L1356.62 546.094C1355.9 547.198 1354.97 548.25 1353.84 549.25C1352.72 550.25 1351.33 551.062 1349.69 551.688C1348.06 552.312 1346.14 552.625 1343.91 552.625ZM1395.56 537.125H1384.47L1384.41 532.5H1393.47C1395.26 532.5 1396.75 532.323 1397.94 531.969C1399.15 531.615 1400.05 531.083 1400.66 530.375C1401.26 529.667 1401.56 528.792 1401.56 527.75C1401.56 526.938 1401.39 526.229 1401.03 525.625C1400.7 525 1400.19 524.49 1399.5 524.094C1398.81 523.677 1397.96 523.375 1396.94 523.188C1395.94 522.979 1394.76 522.875 1393.41 522.875H1386V552H1380.22V518.188H1393.41C1395.55 518.188 1397.48 518.375 1399.19 518.75C1400.92 519.125 1402.39 519.698 1403.59 520.469C1404.82 521.219 1405.76 522.177 1406.41 523.344C1407.05 524.51 1407.38 525.885 1407.38 527.469C1407.38 528.49 1407.17 529.458 1406.75 530.375C1406.33 531.292 1405.72 532.104 1404.91 532.812C1404.09 533.521 1403.09 534.104 1401.91 534.562C1400.72 535 1399.35 535.281 1397.81 535.406L1395.56 537.125ZM1395.56 552H1382.38L1385.25 547.312H1395.56C1397.17 547.312 1398.5 547.115 1399.56 546.719C1400.62 546.302 1401.42 545.719 1401.94 544.969C1402.48 544.198 1402.75 543.281 1402.75 542.219C1402.75 541.156 1402.48 540.25 1401.94 539.5C1401.42 538.729 1400.62 538.146 1399.56 537.75C1398.5 537.333 1397.17 537.125 1395.56 537.125H1386.78L1386.84 532.5H1397.81L1399.91 534.25C1401.76 534.396 1403.33 534.854 1404.62 535.625C1405.92 536.396 1406.9 537.375 1407.56 538.562C1408.23 539.729 1408.56 541 1408.56 542.375C1408.56 543.958 1408.26 545.354 1407.66 546.562C1407.07 547.771 1406.22 548.781 1405.09 549.594C1403.97 550.385 1402.6 550.99 1401 551.406C1399.4 551.802 1397.58 552 1395.56 552ZM1436.25 546.219V528.812C1436.25 527.479 1435.98 526.323 1435.44 525.344C1434.92 524.344 1434.12 523.573 1433.06 523.031C1432 522.49 1430.69 522.219 1429.12 522.219C1427.67 522.219 1426.39 522.469 1425.28 522.969C1424.2 523.469 1423.34 524.125 1422.72 524.938C1422.11 525.75 1421.81 526.625 1421.81 527.562H1416.03C1416.03 526.354 1416.34 525.156 1416.97 523.969C1417.59 522.781 1418.49 521.708 1419.66 520.75C1420.84 519.771 1422.26 519 1423.91 518.438C1425.57 517.854 1427.43 517.562 1429.47 517.562C1431.93 517.562 1434.09 517.979 1435.97 518.812C1437.86 519.646 1439.34 520.906 1440.41 522.594C1441.49 524.26 1442.03 526.354 1442.03 528.875V544.625C1442.03 545.75 1442.12 546.948 1442.31 548.219C1442.52 549.49 1442.82 550.583 1443.22 551.5V552H1437.19C1436.9 551.333 1436.67 550.448 1436.5 549.344C1436.33 548.219 1436.25 547.177 1436.25 546.219ZM1437.25 531.5L1437.31 535.562H1431.47C1429.82 535.562 1428.35 535.698 1427.06 535.969C1425.77 536.219 1424.69 536.604 1423.81 537.125C1422.94 537.646 1422.27 538.302 1421.81 539.094C1421.35 539.865 1421.12 540.771 1421.12 541.812C1421.12 542.875 1421.36 543.844 1421.84 544.719C1422.32 545.594 1423.04 546.292 1424 546.812C1424.98 547.312 1426.18 547.562 1427.59 547.562C1429.36 547.562 1430.93 547.188 1432.28 546.438C1433.64 545.688 1434.71 544.771 1435.5 543.688C1436.31 542.604 1436.75 541.552 1436.81 540.531L1439.28 543.312C1439.14 544.188 1438.74 545.156 1438.09 546.219C1437.45 547.281 1436.58 548.302 1435.5 549.281C1434.44 550.24 1433.17 551.042 1431.69 551.688C1430.23 552.312 1428.58 552.625 1426.75 552.625C1424.46 552.625 1422.45 552.177 1420.72 551.281C1419.01 550.385 1417.68 549.188 1416.72 547.688C1415.78 546.167 1415.31 544.469 1415.31 542.594C1415.31 540.781 1415.67 539.188 1416.38 537.812C1417.08 536.417 1418.1 535.26 1419.44 534.344C1420.77 533.406 1422.38 532.698 1424.25 532.219C1426.12 531.74 1428.22 531.5 1430.53 531.5H1437.25ZM1470.56 544.312L1482.06 518.188H1487.62L1472.56 552H1468.56L1453.56 518.188H1459.12L1470.56 544.312ZM1457.44 518.188V552H1451.66V518.188H1457.44ZM1483.5 552V518.188H1489.31V552H1483.5ZM1537.44 532.844V537.531H1519.56V532.844H1537.44ZM1520.78 518.188V552H1515V518.188H1520.78ZM1542.12 518.188V552H1536.31V518.188H1542.12ZM1560.94 548.5L1570.34 518.188H1576.53L1562.97 557.219C1562.66 558.052 1562.24 558.948 1561.72 559.906C1561.22 560.885 1560.57 561.812 1559.78 562.688C1558.99 563.562 1558.03 564.271 1556.91 564.812C1555.8 565.375 1554.48 565.656 1552.94 565.656C1552.48 565.656 1551.9 565.594 1551.19 565.469C1550.48 565.344 1549.98 565.24 1549.69 565.156L1549.66 560.469C1549.82 560.49 1550.08 560.51 1550.44 560.531C1550.81 560.573 1551.07 560.594 1551.22 560.594C1552.53 560.594 1553.65 560.417 1554.56 560.062C1555.48 559.729 1556.25 559.156 1556.88 558.344C1557.52 557.552 1558.07 556.458 1558.53 555.062L1560.94 548.5ZM1554.03 518.188L1562.81 544.438L1564.31 550.531L1560.16 552.656L1547.72 518.188H1554.03ZM1592 537.281L1579.19 518.188H1586.16L1594.91 532.188H1601.66L1600.81 537.281H1592ZM1595.16 536.688L1585.34 552H1578.03L1591.5 532.5L1595.16 536.688ZM1604.62 518.188V552H1598.84V518.188H1604.62ZM1624.34 518.188L1611.53 537.281H1602.72L1601.81 532.188H1608.59L1617.34 518.188H1624.34ZM1618.16 552L1608.31 536.688L1612.03 532.5L1625.47 552H1618.16ZM1653.75 532.844V537.531H1635.88V532.844H1653.75ZM1637.09 518.188V552H1631.31V518.188H1637.09ZM1658.44 518.188V552H1652.62V518.188H1658.44ZM1672.5 529.812H1682.66C1685.39 529.812 1687.69 530.292 1689.56 531.25C1691.44 532.188 1692.85 533.49 1693.81 535.156C1694.79 536.802 1695.28 538.677 1695.28 540.781C1695.28 542.344 1695.01 543.812 1694.47 545.188C1693.93 546.542 1693.11 547.729 1692.03 548.75C1690.97 549.771 1689.65 550.573 1688.06 551.156C1686.5 551.719 1684.7 552 1682.66 552H1668.28V518.188H1674.06V547.25H1682.66C1684.32 547.25 1685.66 546.948 1686.66 546.344C1687.66 545.74 1688.38 544.958 1688.81 544C1689.25 543.042 1689.47 542.042 1689.47 541C1689.47 539.979 1689.25 538.979 1688.81 538C1688.38 537.021 1687.66 536.208 1686.66 535.562C1685.66 534.896 1684.32 534.562 1682.66 534.562H1672.5V529.812ZM1707.31 518.188V552H1701.53V518.188H1707.31Z" fill="white"/>
</svg>
