<svg width="266" height="73" viewBox="0 0 266 73" fill="none" xmlns="http://www.w3.org/2000/svg">
<rect x="149" width="117" height="73" rx="8" fill="#2973B2"/>
<path d="M233.9 49.9H249.5L255.2 61.3H221.5V10.9H233.9V49.9Z" fill="#FCF6F6"/>
<path fill-rule="evenodd" clip-rule="evenodd" d="M160 36.1C160 21 171.4 10 186.9 10C202.4 10 213.8 21 213.8 36.1C213.8 51.2 202.6 62.2 186.9 62.2C171.2 62.2 160 51.3 160 36.1ZM186.8 21.3C195.2 21.3 201.1 27.4 201.1 36.1C201.1 44.9 195.2 51 186.9 51C178.6 51 172.6 44.8 172.6 36.1C172.6 27.4 178.4 21.3 186.8 21.3Z" fill="#FCF6F6"/>
<path d="M45.7 41.6V11H58.1V40.5C58.1 47.3 61.3 50.9 67.3 50.9C73.3 50.9 76.5 47.3 76.5 40.5V11H88.9V41.5C88.9 54.5 80.6 62.2 67.3 62.2C54 62.2 45.7 54.6 45.7 41.6ZM39.6 43.4C39.6 32.5 32.3 25.3 20.1 25.3H16.9V35.5H18.9C24.2 35.5 27.3 38.3 27.3 43.2C27.3 48.1 24.2 50.9 18.9 50.9H12.3V11H0V61.4H20.1C32.3 61.4 39.6 54.3 39.6 43.4ZM114.2 21.5L108.5 11.1H94.4L112.6 42.8V61.4H125V42.8L118.9 30.5C118.8 30.5 114.2 21.5 114.2 21.5Z" fill="black"/>
<path d="M127.3 38.7L143.1 11H129.4L123.6 21.4L121 26.3L127.3 38.7Z" fill="black"/>
</svg>
