<svg width="258" height="65" viewBox="0 0 258 65" fill="none" xmlns="http://www.w3.org/2000/svg">
<rect x="149" width="109" height="65" rx="8" fill="#CC1A1E"/>
<path d="M229.9 45.9H245.5L251.2 57.3H217.5V6.9H229.9V45.9Z" fill="#FCF6F6"/>
<path fill-rule="evenodd" clip-rule="evenodd" d="M156 32.1C156 17 167.4 6 182.9 6C198.4 6 209.8 17 209.8 32.1C209.8 47.2 198.6 58.2 182.9 58.2C167.2 58.2 156 47.3 156 32.1ZM182.8 17.3C191.2 17.3 197.1 23.4 197.1 32.1C197.1 40.9 191.2 47 182.9 47C174.6 47 168.6 40.8 168.6 32.1C168.6 23.4 174.4 17.3 182.8 17.3Z" fill="#FCF6F6"/>
<path d="M45.7 37.6V7H58.1V36.5C58.1 43.3 61.3 46.9 67.3 46.9C73.3 46.9 76.5 43.3 76.5 36.5V7H88.9V37.5C88.9 50.5 80.6 58.2 67.3 58.2C54 58.2 45.7 50.6 45.7 37.6ZM39.6 39.4C39.6 28.5 32.3 21.3 20.1 21.3H16.9V31.5H18.9C24.2 31.5 27.3 34.3 27.3 39.2C27.3 44.1 24.2 46.9 18.9 46.9H12.3V7H0V57.4H20.1C32.3 57.4 39.6 50.3 39.6 39.4ZM114.2 17.5L108.5 7.1H94.4L112.6 38.8V57.4H125V38.8L118.9 26.5C118.8 26.5 114.2 17.5 114.2 17.5Z" fill="black"/>
<path d="M127.3 34.7L143.1 7H129.4L123.6 17.4L121 22.3L127.3 34.7Z" fill="black"/>
</svg>
