<svg width="64" height="64" viewBox="0 0 64 64" fill="none" xmlns="http://www.w3.org/2000/svg">
<g clip-path="url(#clip0_8_66)">
<rect width="64" height="64" rx="8" fill="#2973B2"/>
<path d="M21.906 19.4475C22.7029 19.6005 23.5602 19.4986 24.3632 19.501C25.5157 19.5044 26.6793 19.5729 27.8305 19.5022C27.8168 21.7222 27.8334 23.9456 27.8331 26.1658C27.8329 27.957 27.8059 29.7593 27.8633 31.5482L27.8336 31.5554C27.7383 31.4103 27.6465 30.7705 27.5924 30.5424C27.4157 29.7876 27.2173 29.0491 26.9974 28.3268C26.7976 27.6799 26.5786 27.0516 26.3406 26.4421C26.1026 25.8323 25.8469 25.2444 25.5733 24.6783C25.2328 23.9848 24.8688 23.3279 24.4812 22.7078C24.0935 22.0874 23.685 21.5083 23.2558 20.9705C23.0172 20.6756 22.0237 19.7428 21.906 19.4475Z" fill="white"/>
<path d="M36.8283 19.4888C37.6621 19.5596 42.5227 19.3464 42.8367 19.5992C42.8432 19.6641 42.8499 19.7334 42.8464 19.7993C42.8414 19.8883 42.8133 19.9815 42.7833 20.0539C42.5869 20.5293 42.1163 20.8348 41.8328 21.1736C41.575 21.4818 41.3227 21.8184 41.0752 22.1501C40.6178 22.7633 40.1656 23.44 39.7617 24.1513C39.507 24.5995 39.2654 25.2085 38.9706 25.5725C38.9611 25.6879 38.293 27.1719 38.1954 27.4208C37.6198 28.8912 37.1717 30.4782 36.7978 32.1184C36.8752 27.9134 36.8013 23.6962 36.8283 19.4888Z" fill="white"/>
<path d="M3.01185 4C3.68104 4.0622 4.36837 4.00683 5.04029 4.00737L9.01591 4.00962L9.01697 23.8893C10.3317 21.7255 11.8585 20.0957 13.6277 19.1986C16.2103 17.8891 19.2322 18.4181 21.6064 20.5467C22.531 21.3757 23.354 22.4288 24.1048 23.6506C26.4269 27.4285 27.5858 32.3177 27.7993 37.6767C27.9145 40.5669 27.7584 43.5897 28.2703 46.397C28.5794 48.0928 29.252 49.6043 30.198 50.4377C31.2812 51.3921 32.7186 51.4487 33.8718 50.8457C33.953 50.804 34.0331 50.7576 34.1124 50.7067C34.1916 50.6559 34.2697 50.6007 34.3467 50.5409C34.4237 50.4812 34.4994 50.4171 34.5738 50.3487C34.6482 50.2803 34.7212 50.2078 34.7926 50.1311C34.864 50.0545 34.9338 49.9738 35.002 49.8892C35.0701 49.8047 35.1365 49.7163 35.2011 49.6241C35.2658 49.5319 35.3284 49.4362 35.3891 49.3369C35.4497 49.2375 35.5084 49.1349 35.5649 49.0289C37.2648 45.8464 36.6264 40.8953 36.8708 36.9762C36.8901 36.6505 36.9142 36.3256 36.9429 36.0018C36.9716 35.6778 37.0051 35.3553 37.0432 35.0342C37.0813 34.7131 37.124 34.3937 37.1713 34.076C37.2188 33.7582 37.2707 33.4426 37.3272 33.1292C37.3838 32.8158 37.4448 32.5048 37.5103 32.1963C37.5759 31.8878 37.6459 31.5822 37.7203 31.2794C37.7947 30.9766 37.8735 30.6771 37.9566 30.3807C38.0398 30.0844 38.1272 29.7916 38.2188 29.5023C39.7432 24.6713 42.6142 20.82 45.7167 19.2197C48.9167 17.5692 52.4826 18.3878 55.4127 20.9954C55.5025 21.0751 55.5916 21.1567 55.6802 21.2401C55.7687 21.3234 55.8566 21.4085 55.9439 21.4955C56.0312 21.5825 56.1179 21.6712 56.204 21.7618C56.29 21.8524 56.3753 21.9446 56.46 22.0386C56.5446 22.1328 56.6285 22.2286 56.7118 22.326C56.795 22.4236 56.8775 22.5228 56.9593 22.6237C57.0411 22.7248 57.1221 22.8274 57.2023 22.9316C57.2827 23.0359 57.3622 23.1418 57.4408 23.2493C57.5196 23.3568 57.5975 23.4659 57.6746 23.5767C57.7517 23.6875 57.828 23.7998 57.9035 23.9136C57.979 24.0276 58.0536 24.1431 58.1273 24.2601C58.2011 24.3769 58.2741 24.4954 58.3461 24.6154C58.4181 24.7354 58.4892 24.8569 58.5594 24.9798C58.6297 25.1027 58.699 25.227 58.7674 25.3528C58.8358 25.4785 58.9033 25.6056 58.9699 25.7341C59.0364 25.8627 59.102 25.9926 59.1667 26.1239C59.2313 26.2551 59.295 26.3876 59.3576 26.5215C59.4203 26.6555 59.482 26.7906 59.5427 26.927C59.6035 27.0634 59.6632 27.201 59.7219 27.3399C59.7805 27.4788 59.8381 27.6188 59.8948 27.76C59.9514 27.9013 60.007 28.0436 60.0615 28.1872C60.1161 28.3307 60.1696 28.4754 60.2219 28.6212C60.2744 28.7669 60.3257 28.9137 60.3759 29.0615C60.4262 29.2095 60.4753 29.3584 60.5234 29.5083C60.5714 29.6582 60.6184 29.809 60.6643 29.9608C60.7101 30.1126 60.7549 30.2653 60.7984 30.4189C60.842 30.5725 60.8845 30.7271 60.9258 30.8826C60.9672 31.038 61.0074 31.1942 61.0464 31.3513C61.0854 31.5083 61.1232 31.6662 61.16 31.8249C61.1967 31.9834 61.2323 32.1427 61.2666 32.3028C61.301 32.4629 61.3342 32.6237 61.3662 32.7853C61.3982 32.9467 61.4291 33.1088 61.4586 33.2715C61.4888 33.4394 61.5177 33.6079 61.5453 33.7769C61.573 33.946 61.5995 34.1157 61.6246 34.2858C61.6498 34.456 61.6737 34.6268 61.6963 34.798C61.7189 34.9691 61.7403 35.1406 61.7604 35.3127C61.7805 35.4847 61.7994 35.6572 61.8169 35.83C61.8345 36.0029 61.8507 36.1761 61.8657 36.3497C61.8808 36.5231 61.8945 36.6969 61.9069 36.871C61.9194 37.0451 61.9306 37.2194 61.9404 37.3939C61.9503 37.5684 61.9589 37.7431 61.9662 37.9181C61.9734 38.0929 61.9794 38.2679 61.9842 38.4431C61.9889 38.6182 61.9923 38.7934 61.9944 38.9687C61.9966 39.1439 61.9974 39.3192 61.9969 39.4945C61.9965 39.6699 61.9948 39.8452 61.9917 40.0204C61.9887 40.1956 61.9843 40.3707 61.9787 40.5458C61.9731 40.7209 61.9662 40.8958 61.9579 41.0706C61.9497 41.2454 61.9402 41.42 61.9295 41.5944C61.9187 41.7687 61.9066 41.9429 61.8932 42.1169C61.8799 42.2907 61.8653 42.4643 61.8493 42.6376C61.8334 42.8108 61.8162 42.9838 61.7978 43.1564C61.7793 43.329 61.7595 43.5011 61.7386 43.6727C61.7175 43.8445 61.6952 44.0158 61.6717 44.1868C61.6482 44.3576 61.6234 44.5278 61.5974 44.6975C61.5713 44.8674 61.544 45.0367 61.5155 45.2054C61.4869 45.374 61.4571 45.5421 61.4261 45.7096C61.3951 45.8769 61.3628 46.0437 61.3293 46.2098C61.2958 46.3759 61.2611 46.5414 61.2252 46.7061C61.1893 46.8707 61.1522 47.0346 61.1139 47.1977C61.0755 47.3609 61.0359 47.5232 60.9952 47.6847C60.9545 47.8463 60.9125 48.0069 60.8695 48.1665C60.8264 48.3263 60.7821 48.4852 60.7366 48.6432C60.6912 48.8011 60.6446 48.9581 60.5968 49.1142C60.549 49.2701 60.5001 49.4251 60.4501 49.5791C60.4025 49.7264 60.3538 49.8727 60.3042 50.018C60.2544 50.1632 60.2037 50.3074 60.152 50.4507C60.1002 50.594 60.0474 50.7362 59.9936 50.8773C59.9397 51.0183 59.8848 51.1583 59.8289 51.2972C59.7731 51.436 59.7163 51.5738 59.6584 51.7103C59.6005 51.8468 59.5417 51.9822 59.4818 52.1164C59.422 52.2506 59.3612 52.3835 59.2994 52.515C59.2377 52.6468 59.175 52.7772 59.1114 52.9063C59.0477 53.0355 58.9832 53.1634 58.9176 53.2898C58.8521 53.4163 58.7857 53.5415 58.7184 53.6654C58.6511 53.7891 58.5829 53.9115 58.5138 54.0327C58.4447 54.1536 58.3748 54.2732 58.304 54.3915C58.2332 54.5097 58.1615 54.6265 58.089 54.7418C58.0165 54.857 57.9431 54.9708 57.869 55.0831C57.7948 55.1954 57.7199 55.3062 57.6442 55.4155C57.5684 55.5248 57.4918 55.6325 57.4144 55.7386C57.3372 55.8448 57.2591 55.9494 57.1803 56.0524C57.1014 56.1553 57.0218 56.2567 56.9415 56.3565C56.8612 56.4563 56.7802 56.5544 56.6985 56.6509C56.6168 56.7472 56.5343 56.842 56.4512 56.9352C56.3681 57.0282 56.2843 57.1196 56.1999 57.2093C56.1155 57.2991 56.0304 57.3871 55.9447 57.4734C55.859 57.5595 55.7727 57.644 55.6858 57.7267C55.5988 57.8096 55.5113 57.8906 55.4233 57.9697C55.3352 58.0488 55.2465 58.1262 55.1573 58.2017C55.068 58.2774 54.9782 58.3512 54.888 58.4231C54.7977 58.495 54.7069 58.5652 54.6156 58.6334C54.5242 58.7017 54.4325 58.768 54.3402 58.8325C54.248 58.897 54.1552 58.9597 54.062 59.0205C53.9689 59.0812 53.8753 59.1401 53.7812 59.197C53.6872 59.2539 53.5928 59.3089 53.498 59.362C53.4031 59.4151 53.3079 59.4663 53.2124 59.5156C49.9788 61.1567 46.286 60.7929 43.3057 58.0201C42.8481 57.5942 42.3873 57.1148 41.9711 56.5817C41.6703 56.1965 41.3626 55.6481 41.0296 55.3591C41.0223 55.3527 41.0149 55.3469 41.0075 55.3409C41.4894 54.7371 42.3115 51.8868 42.5387 50.8929C42.7504 49.9662 43.4587 45.1996 43.2318 44.3534C43.4746 44.7058 43.7039 45.7701 43.9062 46.2854C44.8083 48.583 46.1832 50.2916 47.8048 50.8477C49.526 51.4382 51.4205 51.0309 52.9002 49.3908C52.9912 49.2895 53.0808 49.1845 53.1687 49.0758C53.2567 48.967 53.343 48.8547 53.4276 48.7388C53.5122 48.6228 53.5951 48.5034 53.6762 48.3806C53.7573 48.2579 53.8366 48.1318 53.9139 48.0024C53.9912 47.8729 54.0666 47.7404 54.1401 47.6048C54.2135 47.4691 54.2849 47.3304 54.3542 47.1888C54.4235 47.0472 54.4906 46.9028 54.5556 46.7557C54.6207 46.6084 54.6835 46.4586 54.7441 46.3062C54.8046 46.1537 54.8628 45.9989 54.9188 45.8417C54.9748 45.6844 55.0284 45.5249 55.0797 45.3631C55.1309 45.2014 55.1798 45.0376 55.2262 44.8718C55.2726 44.7061 55.3165 44.5384 55.3579 44.3689C55.3994 44.1994 55.4383 44.0284 55.4746 43.8558C55.5109 43.6831 55.5447 43.509 55.5758 43.3335C55.6071 43.158 55.6356 42.9814 55.6615 42.8035C55.6875 42.6256 55.7108 42.4467 55.7314 42.267C55.8026 41.6761 56.02 39.349 55.8311 38.8744C55.8402 38.8473 55.8443 38.8368 55.8519 38.8056C56.0415 38.0322 55.4811 34.8859 55.2579 34.055C54.5968 31.5938 53.3385 29.513 51.8235 28.5594C50.2066 27.5416 48.1887 27.5608 46.6074 28.7655C44.6628 30.2472 43.3215 33.3563 42.9388 36.8402C42.7911 38.1848 42.8067 39.5474 42.7729 40.9081C42.6967 43.9818 42.5826 47.5654 41.9306 50.4674C41.0877 54.2203 39.3614 57.429 37.1728 59.0773C34.4995 61.0908 30.5469 61.1437 27.8104 59.4008C25.081 57.6627 23.1302 53.7168 22.366 49.0376C22.0047 46.8248 21.8829 44.4244 21.815 42.1396C21.7288 39.2359 21.9134 36.776 21.1765 34.0376C20.5054 31.5439 19.2592 29.4203 17.7179 28.4531C16.069 27.4182 14.0702 27.5063 12.4668 28.7409C10.9748 29.8898 9.77633 32.1601 9.21425 34.7313C8.50774 37.9631 8.56963 42.0826 9.44565 45.21C10.1454 47.708 11.4316 49.7973 12.9917 50.7338C14.5876 51.6917 16.5091 51.6256 18.0478 50.3944C19.4407 49.2797 20.7342 47.043 21.252 44.5894C21.4954 47.9409 21.7928 50.7645 22.851 53.7337C23.1058 54.4485 23.3909 55.1873 23.7274 55.802C21.4064 59.2231 18.8366 60.8988 15.7236 60.5844C13.5791 60.3676 11.6413 59.0356 9.97357 56.7826C9.6498 56.3451 9.29383 55.8845 9.01776 55.3628L9.01727 59.6275C7.01151 59.6044 5.00575 59.607 3 59.6353C3.02972 57.7765 3.00546 55.9085 3.00539 54.0486L3.00545 43.5943L3.01185 4Z" fill="white"/>
</g>
<defs>
<clipPath id="clip0_8_66">
<rect width="64" height="64" fill="white"/>
</clipPath>
</defs>
</svg>
