<svg width="180" height="180" viewBox="0 0 180 180" fill="none" xmlns="http://www.w3.org/2000/svg">
<g clip-path="url(#clip0_33_11)">
<rect width="180" height="180" fill="black"/>
<g filter="url(#filter0_f_33_11)">
<rect width="180.039" height="179.998" rx="89.9988" transform="matrix(0.999985 0.00548631 -0.00398154 0.999992 0.680664 -0.983826)" fill="url(#paint0_linear_33_11)"/>
</g>
<path d="M13.07 136C13.07 121.664 13.07 107.157 13.07 92.48C13.07 77.8027 13.07 63.296 13.07 48.96C18.3607 48.96 23.6513 48.96 28.942 48.96C34.318 48.96 39.6087 48.96 44.814 48.96C50.702 48.96 55.8647 50.0267 60.302 52.16C64.7393 54.208 68.1953 57.1093 70.67 60.864C73.1447 64.5333 74.382 68.8853 74.382 73.92C74.382 77.504 73.6993 80.7467 72.334 83.648C70.9687 86.5493 68.9207 88.9813 66.19 90.944C69.774 93.0773 72.5047 95.8507 74.382 99.264C76.2593 102.592 77.198 106.304 77.198 110.4C77.198 115.52 75.8753 120 73.23 123.84C70.67 127.68 67.0433 130.667 62.35 132.8C57.742 134.933 52.3233 136 46.094 136C40.6327 136 35.1287 136 29.582 136C24.0353 136 18.5313 136 13.07 136ZM51.982 76.096C51.982 73.8773 51.2993 72.0853 49.934 70.72C48.5687 69.2693 46.7767 68.544 44.558 68.544C43.022 68.544 41.4433 68.544 39.822 68.544C38.286 68.544 36.75 68.544 35.214 68.544C35.214 70.9333 35.214 73.408 35.214 75.968C35.214 78.4427 35.214 80.9173 35.214 83.392C36.75 83.392 38.286 83.392 39.822 83.392C41.4433 83.392 43.022 83.392 44.558 83.392C46.7767 83.392 48.5687 82.752 49.934 81.472C51.2993 80.1067 51.982 78.3147 51.982 76.096ZM54.798 108.352C54.798 105.963 53.9873 104.085 52.366 102.72C50.83 101.269 48.6967 100.544 45.966 100.544C44.174 100.544 42.382 100.544 40.59 100.544C38.798 100.544 37.006 100.544 35.214 100.544C35.214 103.189 35.214 105.835 35.214 108.48C35.214 111.125 35.214 113.771 35.214 116.416C37.006 116.416 38.798 116.416 40.59 116.416C42.382 116.416 44.174 116.416 45.966 116.416C48.6967 116.416 50.83 115.691 52.366 114.24C53.9873 112.789 54.798 110.827 54.798 108.352ZM128.104 138.048C121.875 138.048 116.115 136.939 110.824 134.72C105.533 132.416 100.968 129.216 97.128 125.12C93.288 121.024 90.3013 116.203 88.168 110.656C86.0347 105.024 84.968 98.9227 84.968 92.352C84.968 85.7813 86.0347 79.7227 88.168 74.176C90.3013 68.6293 93.288 63.8507 97.128 59.84C100.968 55.744 105.533 52.5867 110.824 50.368C116.115 48.064 121.875 46.912 128.104 46.912C134.333 46.912 140.051 48.064 145.256 50.368C150.547 52.5867 155.112 55.744 158.952 59.84C162.877 63.8507 165.907 68.6293 168.04 74.176C170.173 79.7227 171.24 85.7813 171.24 92.352C171.24 98.9227 170.173 105.024 168.04 110.656C165.907 116.203 162.877 121.024 158.952 125.12C155.112 129.216 150.547 132.416 145.256 134.72C140.051 136.939 134.333 138.048 128.104 138.048ZM128.104 117.312C132.285 117.312 135.869 116.288 138.856 114.24C141.843 112.107 144.147 109.163 145.768 105.408C147.475 101.653 148.328 97.3013 148.328 92.352C148.328 87.4027 147.475 83.0933 145.768 79.424C144.147 75.7547 141.843 72.896 138.856 70.848C135.869 68.7147 132.285 67.648 128.104 67.648C124.008 67.648 120.424 68.672 117.352 70.72C114.365 72.768 112.019 75.6693 110.312 79.424C108.691 83.0933 107.88 87.4027 107.88 92.352C107.88 97.3013 108.691 101.653 110.312 105.408C112.019 109.163 114.365 112.107 117.352 114.24C120.424 116.288 124.008 117.312 128.104 117.312Z" fill="white"/>
</g>
<defs>
<filter id="filter0_f_33_11" x="-174.678" y="-175.491" width="530.038" height="529.999" filterUnits="userSpaceOnUse" color-interpolation-filters="sRGB">
<feFlood flood-opacity="0" result="BackgroundImageFix"/>
<feBlend mode="normal" in="SourceGraphic" in2="BackgroundImageFix" result="shape"/>
<feGaussianBlur stdDeviation="87.5" result="effect1_foregroundBlur_33_11"/>
</filter>
<linearGradient id="paint0_linear_33_11" x1="90.0194" y1="0" x2="90.0194" y2="179.998" gradientUnits="userSpaceOnUse">
<stop stop-color="#1900FF"/>
<stop offset="1" stop-color="#1900FF"/>
</linearGradient>
<clipPath id="clip0_33_11">
<rect width="180" height="180" fill="white"/>
</clipPath>
</defs>
</svg>
