<svg width="64" height="64" viewBox="0 0 64 64" fill="none" xmlns="http://www.w3.org/2000/svg">
<g clip-path="url(#clip0_8_66)">
<rect width="64" height="64" rx="8" fill="#2973B2"/>
<path d="M21.949 19.3237C22.7459 19.4767 23.6032 19.3748 24.4062 19.3772C25.5587 19.3806 26.7223 19.4491 27.8735 19.3784C27.8598 21.5984 27.8764 23.8218 27.8761 26.042C27.8759 27.8332 27.8489 29.6355 27.9063 31.4244L27.8766 31.4316C27.7813 31.2865 27.6896 30.6467 27.6354 30.4186C27.4587 29.6638 27.2603 28.9252 27.0404 28.2029C26.8406 27.5561 26.6217 26.9278 26.3837 26.3182C26.1457 25.7085 25.8899 25.1206 25.6163 24.5545C25.2758 23.861 24.9118 23.2041 24.5242 22.584C24.1365 21.9636 23.728 21.3845 23.2988 20.8467C23.0602 20.5518 22.0667 19.619 21.949 19.3237Z" fill="white"/>
<path d="M36.8713 19.365C37.7051 19.4358 42.5657 19.2225 42.8798 19.4754C42.8862 19.5403 42.8929 19.6096 42.8894 19.6755C42.8844 19.7645 42.8563 19.8577 42.8264 19.9301C42.6299 20.4055 42.1594 20.711 41.8759 21.0498C41.618 21.358 41.3657 21.6946 41.1182 22.0263C40.6608 22.6395 40.2086 23.3162 39.8047 24.0275C39.55 24.4757 39.3085 25.0847 39.0136 25.4487C39.0041 25.5641 38.336 27.0481 38.2385 27.297C37.6628 28.7674 37.2147 30.3544 36.8408 31.9946C36.9183 27.7896 36.8443 23.5724 36.8713 19.365Z" fill="white"/>
<path d="M3.05486 3.87619C3.72405 3.93839 4.41138 3.88302 5.08331 3.88356L9.05893 3.88581L9.05999 23.7655C10.3748 21.6017 11.9015 19.9719 13.6707 19.0748C16.2533 17.7653 19.2752 18.2943 21.6494 20.4229C22.574 21.2519 23.397 22.305 24.1479 23.5268C26.4699 27.3047 27.6288 32.1939 27.8423 37.5529C27.9575 40.443 27.8014 43.4659 28.3133 46.2732C28.6224 47.969 29.295 49.4805 30.2411 50.3139C31.3242 51.2683 32.7616 51.3249 33.9148 50.7219C33.996 50.6802 34.0762 50.6338 34.1554 50.5829C34.2347 50.5321 34.3128 50.4769 34.3897 50.4171C34.4667 50.3574 34.5425 50.2933 34.6169 50.2249C34.6913 50.1565 34.7642 50.084 34.8356 50.0073C34.9071 49.9307 34.9768 49.85 35.045 49.7654C35.1131 49.6809 35.1795 49.5925 35.2442 49.5003C35.3088 49.4081 35.3714 49.3123 35.4321 49.2131C35.4928 49.1137 35.5514 49.0111 35.6079 48.9051C37.3078 45.7226 36.6694 40.7715 36.9138 36.8524C36.9331 36.5267 36.9572 36.2018 36.986 35.878C37.0147 35.554 37.0481 35.2314 37.0862 34.9103C37.1243 34.5892 37.167 34.2699 37.2143 33.9522C37.2618 33.6344 37.3137 33.3188 37.3702 33.0054C37.4268 32.692 37.4878 32.381 37.5533 32.0725C37.6189 31.764 37.6889 31.4584 37.7633 31.1556C37.8377 30.8528 37.9165 30.5533 37.9996 30.2569C38.0828 29.9606 38.1702 29.6678 38.2618 29.3785C39.7862 24.5475 42.6572 20.6962 45.7598 19.0959C48.9598 17.4454 52.5256 18.264 55.4557 20.8716C55.5455 20.9513 55.6346 21.0329 55.7232 21.1163C55.8117 21.1996 55.8996 21.2847 55.9869 21.3717C56.0742 21.4586 56.1609 21.5474 56.247 21.638C56.333 21.7285 56.4183 21.8208 56.503 21.9148C56.5876 22.009 56.6715 22.1048 56.7548 22.2022C56.838 22.2998 56.9205 22.399 57.0023 22.4999C57.0841 22.6009 57.1651 22.7036 57.2454 22.8077C57.3257 22.9121 57.4052 23.018 57.4838 23.1255C57.5626 23.233 57.6405 23.3421 57.7176 23.4529C57.7948 23.5637 57.8711 23.676 57.9465 23.7898C58.022 23.9038 58.0966 24.0193 58.1703 24.1363C58.2442 24.2531 58.3171 24.3715 58.3891 24.4916C58.4611 24.6116 58.5322 24.733 58.6024 24.8559C58.6727 24.9789 58.7421 25.1032 58.8105 25.229C58.8789 25.3547 58.9464 25.4818 59.0129 25.6103C59.0794 25.7389 59.145 25.8688 59.2097 26.0001C59.2744 26.1313 59.338 26.2638 59.4006 26.3977C59.4634 26.5316 59.5251 26.6668 59.5857 26.8032C59.6465 26.9396 59.7062 27.0772 59.7649 27.2161C59.8235 27.355 59.8812 27.495 59.9378 27.6362C59.9944 27.7774 60.05 27.9198 60.1045 28.0634C60.1591 28.2069 60.2126 28.3516 60.2649 28.4973C60.3174 28.6431 60.3687 28.7899 60.419 28.9377C60.4692 29.0857 60.5184 29.2346 60.5664 29.3845C60.6145 29.5343 60.6614 29.6852 60.7073 29.837C60.7531 29.9888 60.7979 30.1415 60.8414 30.2951C60.885 30.4487 60.9275 30.6033 60.9688 30.7588C61.0102 30.9142 61.0504 31.0704 61.0894 31.2275C61.1284 31.3845 61.1662 31.5424 61.203 31.7011C61.2397 31.8596 61.2753 32.0189 61.3097 32.179C61.344 32.3391 61.3772 32.4999 61.4092 32.6615C61.4412 32.8229 61.4721 32.985 61.5017 33.1477C61.5318 33.3156 61.5607 33.484 61.5884 33.6531C61.6161 33.8222 61.6425 33.9918 61.6676 34.162C61.6928 34.3322 61.7167 34.503 61.7393 34.6742C61.7619 34.8452 61.7833 35.0168 61.8034 35.1889C61.8236 35.3609 61.8424 35.5333 61.8599 35.7062C61.8775 35.8791 61.8938 36.0523 61.9087 36.2259C61.9238 36.3993 61.9375 36.573 61.9499 36.7471C61.9624 36.9213 61.9736 37.0956 61.9835 37.2701C61.9933 37.4446 62.0019 37.6193 62.0092 37.7943C62.0165 37.9691 62.0225 38.1441 62.0272 38.3193C62.0319 38.4943 62.0353 38.6696 62.0375 38.8449C62.0396 39.0201 62.0404 39.1954 62.0399 39.3707C62.0395 39.5461 62.0378 39.7214 62.0347 39.8966C62.0317 40.0718 62.0274 40.2469 62.0217 40.422C62.0161 40.5971 62.0092 40.772 62.001 40.9468C61.9927 41.1216 61.9832 41.2962 61.9725 41.4706C61.9617 41.6449 61.9496 41.8191 61.9362 41.9931C61.9229 42.1669 61.9083 42.3405 61.8923 42.5138C61.8764 42.687 61.8592 42.86 61.8408 43.0326C61.8223 43.2052 61.8025 43.3773 61.7816 43.5489C61.7605 43.7207 61.7383 43.892 61.7147 44.063C61.6912 44.2338 61.6664 44.404 61.6404 44.5737C61.6143 44.7436 61.587 44.9129 61.5585 45.0816C61.5299 45.2502 61.5001 45.4183 61.4691 45.5858C61.4381 45.7531 61.4058 45.9199 61.3723 46.086C61.3388 46.2521 61.3042 46.4175 61.2682 46.5823C61.2323 46.7469 61.1952 46.9108 61.1569 47.0739C61.1185 47.2371 61.0789 47.3994 61.0382 47.5609C60.9975 47.7225 60.9555 47.8831 60.9125 48.0427C60.8694 48.2025 60.8251 48.3614 60.7797 48.5194C60.7342 48.6773 60.6876 48.8343 60.6398 48.9903C60.5921 49.1463 60.5431 49.3013 60.4931 49.4553C60.4455 49.6025 60.3968 49.7489 60.3472 49.8942C60.2975 50.0394 60.2467 50.1836 60.195 50.3269C60.1432 50.4702 60.0904 50.6124 60.0366 50.7534C59.9827 50.8945 59.9278 51.0345 59.8719 51.1734C59.8161 51.3122 59.7593 51.4499 59.7014 51.5865C59.6435 51.723 59.5847 51.8584 59.5248 51.9926C59.465 52.1268 59.4042 52.2596 59.3424 52.3912C59.2807 52.5229 59.218 52.6533 59.1544 52.7824C59.0907 52.9117 59.0262 53.0396 58.9607 53.166C58.8951 53.2925 58.8287 53.4177 58.7614 53.5416C58.6941 53.6653 58.6259 53.7877 58.5568 53.9089C58.4877 54.0298 58.4178 54.1494 58.347 54.2677C58.2762 54.3859 58.2045 54.5027 58.132 54.618C58.0595 54.7332 57.9861 54.847 57.912 54.9593C57.8378 55.0716 57.7629 55.1824 57.6872 55.2917C57.6114 55.4009 57.5348 55.5086 57.4575 55.6148C57.3802 55.721 57.3021 55.8256 57.2233 55.9286C57.1444 56.0315 57.0649 56.1329 56.9845 56.2327C56.9042 56.3325 56.8232 56.4306 56.7415 56.5271C56.6598 56.6234 56.5774 56.7182 56.4942 56.8114C56.4111 56.9044 56.3274 56.9958 56.2429 57.0855C56.1585 57.1753 56.0734 57.2633 55.9877 57.3496C55.902 57.4357 55.8157 57.5202 55.7288 57.6029C55.6419 57.6857 55.5543 57.7667 55.4663 57.8459C55.3782 57.925 55.2895 58.0024 55.2003 58.0779C55.111 58.1536 55.0213 58.2274 54.931 58.2992C54.8407 58.3712 54.7499 58.4414 54.6586 58.5096C54.5673 58.5779 54.4755 58.6442 54.3832 58.7086C54.291 58.7732 54.1983 58.8359 54.105 58.8967C54.0119 58.9574 53.9183 59.0163 53.8243 59.0732C53.7302 59.1301 53.6358 59.1851 53.541 59.2382C53.4461 59.2913 53.3509 59.3425 53.2554 59.3918C50.0219 61.0329 46.329 60.6691 43.3487 57.8963C42.8911 57.4703 42.4303 56.991 42.0141 56.4579C41.7133 56.0727 41.4057 55.5243 41.0726 55.2353C41.0653 55.2289 41.0579 55.2231 41.0505 55.2171C41.5324 54.6133 42.3546 51.763 42.5817 50.7691C42.7934 49.8424 43.5018 45.0758 43.2749 44.2296C43.5177 44.582 43.7469 45.6462 43.9493 46.1615C44.8513 48.4591 46.2263 50.1677 47.8478 50.7239C49.5691 51.3144 51.4635 50.907 52.9432 49.267C53.0343 49.1657 53.1238 49.0607 53.2118 48.9519C53.2997 48.8432 53.386 48.7309 53.4706 48.615C53.5553 48.499 53.6381 48.3796 53.7192 48.2568C53.8003 48.1341 53.8796 48.008 53.9569 47.8786C54.0342 47.7491 54.1096 47.6165 54.1831 47.481C54.2565 47.3453 54.3279 47.2066 54.3972 47.065C54.4665 46.9234 54.5336 46.779 54.5987 46.6318C54.6637 46.4846 54.7265 46.3348 54.7871 46.1824C54.8476 46.0299 54.9058 45.8751 54.9618 45.7179C55.0178 45.5606 55.0714 45.401 55.1227 45.2393C55.174 45.0776 55.2228 44.9138 55.2692 44.748C55.3156 44.5823 55.3595 44.4146 55.4009 44.2451C55.4424 44.0756 55.4813 43.9046 55.5176 43.732C55.5539 43.5593 55.5877 43.3852 55.6188 43.2097C55.6501 43.0342 55.6786 42.8576 55.7045 42.6797C55.7305 42.5018 55.7538 42.3229 55.7745 42.1432C55.8456 41.5523 56.063 39.2252 55.8741 38.7506C55.8832 38.7235 55.8873 38.713 55.8949 38.6818C56.0845 37.9084 55.5241 34.7621 55.3009 33.9311C54.6399 31.47 53.3816 29.3892 51.8665 28.4356C50.2496 27.4178 48.2317 27.437 46.6505 28.6417C44.7058 30.1234 43.3645 33.2325 42.9819 36.7164C42.8341 38.061 42.8497 39.4236 42.8159 40.7843C42.7397 43.858 42.6256 47.4415 41.9736 50.3436C41.1307 54.0965 39.4044 57.3052 37.2158 58.9535C34.5425 60.967 30.5899 61.0199 27.8534 59.277C25.124 57.5389 23.1732 53.593 22.409 48.9138C22.0477 46.701 21.9259 44.3006 21.858 42.0158C21.7718 39.1121 21.9564 36.6522 21.2195 33.9138C20.5484 31.4201 19.3022 29.2965 17.7609 28.3293C16.112 27.2943 14.1132 27.3825 12.5098 28.6171C11.0178 29.766 9.81934 32.0363 9.25727 34.6075C8.55075 37.8393 8.61264 41.9588 9.48866 45.0861C10.1884 47.5842 11.4746 49.6735 13.0347 50.61C14.6306 51.5679 16.5521 51.5018 18.0908 50.2706C19.4838 49.1559 20.7772 46.9192 21.295 44.4655C21.5384 47.8171 21.8358 50.6407 22.894 53.6099C23.1488 54.3246 23.4339 55.0635 23.7704 55.6781C21.4494 59.0993 18.8796 60.775 15.7666 60.4606C13.6221 60.2438 11.6843 58.9118 10.0166 56.6588C9.69281 56.2213 9.33684 55.7607 9.06078 55.239L9.06028 59.5037C7.05452 59.4806 5.04877 59.4832 3.04301 59.5115C3.07273 57.6526 3.04848 55.7847 3.0484 53.9247L3.04846 43.4704L3.05486 3.87619Z" fill="white"/>
</g>
<defs>
<clipPath id="clip0_8_66">
<rect width="64" height="64" fill="white"/>
</clipPath>
</defs>
</svg>
