<svg width="1598" height="568" viewBox="0 0 1598 568" fill="none" xmlns="http://www.w3.org/2000/svg">
<g filter="url(#filter0_d_29_13)">
<rect x="4.34375" y="7" width="1523.53" height="552.055" rx="50" fill="black"/>
<g filter="url(#filter1_df_29_13)">
<rect width="1386" height="362.015" rx="28.5997" transform="matrix(1 -0.000454137 0.00764843 0.999971 51.2363 80.6255)" fill="url(#paint0_linear_29_13)"/>
</g>
<path d="M53.4862 425.83C71.9148 377.718 90.5628 329.034 109.43 279.778C128.298 230.521 146.946 181.837 165.374 133.725C184.387 133.725 203.401 133.725 222.414 133.725C241.734 133.725 260.747 133.725 279.454 133.725C300.614 133.725 317.796 137.305 331.001 144.465C344.315 151.338 353.005 161.074 357.072 173.675C361.248 185.989 360.101 200.594 353.629 217.491C349.021 229.518 342.4 240.401 333.764 250.138C325.127 259.874 314.641 268.036 302.305 274.623C312.442 281.782 318.691 291.089 321.049 302.545C323.518 313.713 322.12 326.171 316.854 339.917C310.273 357.099 299.76 372.134 285.318 385.021C271.181 397.908 254.309 407.931 234.7 415.091C215.397 422.25 194.553 425.83 172.166 425.83C152.54 425.83 132.76 425.83 112.826 425.83C92.8928 425.83 73.1128 425.83 53.4862 425.83ZM270.331 224.793C273.183 217.347 273.034 211.334 269.882 206.752C266.84 201.883 261.333 199.449 253.359 199.449C247.839 199.449 242.166 199.449 236.339 199.449C230.819 199.449 225.299 199.449 219.779 199.449C216.708 207.467 213.527 215.772 210.236 224.364C207.055 232.669 203.874 240.974 200.693 249.278C206.213 249.278 211.733 249.278 217.253 249.278C223.079 249.278 228.753 249.278 234.273 249.278C242.246 249.278 249.509 247.131 256.061 242.835C262.722 238.253 267.479 232.239 270.331 224.793ZM238.987 333.044C242.059 325.025 241.558 318.725 237.487 314.143C233.832 309.274 227.097 306.84 217.284 306.84C210.844 306.84 204.404 306.84 197.964 306.84C191.524 306.84 185.084 306.84 178.644 306.84C175.244 315.718 171.843 324.596 168.443 333.473C165.042 342.351 161.641 351.229 158.241 360.106C164.681 360.106 171.121 360.106 177.561 360.106C184.001 360.106 190.441 360.106 196.881 360.106C206.694 360.106 215.293 357.672 222.678 352.804C230.37 347.935 235.806 341.349 238.987 333.044ZM624.341 315.002C617.431 333.044 607.805 349.367 595.464 363.972C583.539 378.291 569.622 390.605 553.713 400.915C538.111 411.225 521.294 419.1 503.263 424.541C485.539 429.982 467.477 432.703 449.077 432.703C430.37 432.703 414.239 429.982 400.683 424.541C387.127 419.1 376.442 411.368 368.628 401.345C361.231 391.035 357.054 378.721 356.099 364.402C355.144 350.083 358.121 333.903 365.032 315.861C376.55 285.792 388.178 255.436 399.915 224.793C411.652 194.151 423.28 163.795 434.798 133.725C448.291 133.725 461.784 133.725 475.278 133.725C488.771 133.725 502.111 133.725 515.298 133.725C503.999 163.222 492.646 192.862 481.238 222.645C469.829 252.429 458.476 282.069 447.178 311.565C441.254 327.03 441.082 339.487 446.662 348.938C452.243 358.388 462.239 363.113 476.653 363.113C491.066 363.113 504.529 358.388 517.042 348.938C529.862 339.487 539.234 327.03 545.158 311.565C556.456 282.069 567.809 252.429 579.218 222.645C590.626 192.862 601.979 163.222 613.278 133.725C626.771 133.725 640.264 133.725 653.758 133.725C667.251 133.725 680.591 133.725 693.778 133.725C682.369 163.509 670.797 193.721 659.059 224.364C647.322 255.006 635.749 285.219 624.341 315.002ZM704.641 425.83C711.333 408.361 718.079 390.749 724.88 372.993C731.681 355.238 738.427 337.626 745.118 320.157C740.602 289.514 735.944 258.443 731.144 226.941C726.344 195.44 721.685 164.368 717.169 133.725C731.276 133.725 745.536 133.725 759.949 133.725C774.363 133.725 788.623 133.725 802.729 133.725C804.931 151.194 807.232 168.807 809.631 186.562C812.446 204.031 814.955 221.5 817.157 238.969C832.741 221.5 848.479 204.031 864.371 186.562C880.372 168.807 896.165 151.194 911.749 133.725C925.856 133.725 939.963 133.725 954.069 133.725C968.176 133.725 982.283 133.725 996.389 133.725C968.399 164.368 939.937 195.44 911.004 226.941C882.071 258.443 853.609 289.514 825.618 320.157C818.927 337.626 812.181 355.238 805.38 372.993C798.579 390.749 791.833 408.361 785.141 425.83C771.955 425.83 758.615 425.83 745.121 425.83C731.628 425.83 718.135 425.83 704.641 425.83ZM1030.72 432.703C1008.34 432.703 989.061 428.98 972.9 421.534C956.848 413.802 944.555 403.063 936.02 389.317C927.486 375.571 922.95 359.39 922.414 340.776C921.987 321.875 925.997 301.399 934.443 279.348C942.889 257.297 954.511 236.964 969.308 218.35C984.105 199.735 1000.98 183.698 1019.94 170.239C1039 156.492 1059.47 145.896 1081.33 138.451C1103.31 130.719 1125.49 126.852 1147.88 126.852C1170.26 126.852 1189.33 130.719 1205.07 138.451C1221.23 145.896 1233.58 156.492 1242.12 170.239C1251.07 183.698 1255.81 199.735 1256.35 218.35C1256.88 236.964 1252.93 257.297 1244.48 279.348C1236.04 301.399 1224.36 321.875 1209.45 340.776C1194.66 359.39 1177.57 375.571 1158.2 389.317C1139.14 403.063 1118.61 413.802 1096.64 421.534C1075.08 428.98 1053.11 432.703 1030.72 432.703ZM1057.38 363.113C1072.4 363.113 1086.6 359.677 1099.97 352.804C1113.44 345.644 1125.51 335.764 1136.16 323.164C1147.12 310.563 1155.78 295.958 1162.14 279.348C1168.51 262.738 1170.98 248.276 1169.56 235.962C1168.45 223.648 1163.85 214.054 1155.75 207.181C1147.75 200.022 1136.25 196.442 1121.22 196.442C1106.5 196.442 1092.3 199.878 1078.63 206.752C1065.26 213.625 1053.1 223.361 1042.14 235.962C1031.6 248.276 1023.15 262.738 1016.78 279.348C1010.42 295.958 1007.74 310.563 1008.74 323.164C1010.05 335.764 1014.7 345.644 1022.69 352.804C1031.09 359.677 1042.66 363.113 1057.38 363.113ZM1232.69 425.83C1251.11 377.718 1269.76 329.034 1288.63 279.778C1307.5 230.521 1326.14 181.837 1344.57 133.725C1358.07 133.725 1371.56 133.725 1385.05 133.725C1398.55 133.725 1411.89 133.725 1425.07 133.725C1410.92 170.668 1396.61 208.04 1382.13 245.842C1367.76 283.357 1353.5 320.586 1339.35 357.529C1355.6 357.529 1372.01 357.529 1388.57 357.529C1405.13 357.529 1421.38 357.529 1437.33 357.529C1433.05 368.698 1428.66 380.153 1424.16 391.894C1419.78 403.349 1415.44 414.661 1411.17 425.83C1381.73 425.83 1351.98 425.83 1321.93 425.83C1291.87 425.83 1262.13 425.83 1232.69 425.83Z" fill="white"/>
</g>
<defs>
<filter id="filter0_d_29_13" x="0.34375" y="7" width="1531.53" height="560.055" filterUnits="userSpaceOnUse" color-interpolation-filters="sRGB">
<feFlood flood-opacity="0" result="BackgroundImageFix"/>
<feColorMatrix in="SourceAlpha" type="matrix" values="0 0 0 0 0 0 0 0 0 0 0 0 0 0 0 0 0 0 127 0" result="hardAlpha"/>
<feOffset dy="4"/>
<feGaussianBlur stdDeviation="2"/>
<feComposite in2="hardAlpha" operator="out"/>
<feColorMatrix type="matrix" values="0 0 0 0 0 0 0 0 0 0 0 0 0 0 0 0 0 0 0.25 0"/>
<feBlend mode="normal" in2="BackgroundImageFix" result="effect1_dropShadow_29_13"/>
<feBlend mode="normal" in="SourceGraphic" in2="effect1_dropShadow_29_13" result="shape"/>
</filter>
<filter id="filter1_df_29_13" x="1.4541" y="30.009" width="1488.33" height="462.607" filterUnits="userSpaceOnUse" color-interpolation-filters="sRGB">
<feFlood flood-opacity="0" result="BackgroundImageFix"/>
<feColorMatrix in="SourceAlpha" type="matrix" values="0 0 0 0 0 0 0 0 0 0 0 0 0 0 0 0 0 0 127 0" result="hardAlpha"/>
<feOffset dy="4"/>
<feGaussianBlur stdDeviation="2"/>
<feComposite in2="hardAlpha" operator="out"/>
<feColorMatrix type="matrix" values="0 0 0 0 0 0 0 0 0 0 0 0 0 0 0 0 0 0 0.25 0"/>
<feBlend mode="normal" in2="BackgroundImageFix" result="effect1_dropShadow_29_13"/>
<feBlend mode="normal" in="SourceGraphic" in2="effect1_dropShadow_29_13" result="shape"/>
<feGaussianBlur stdDeviation="25" result="effect2_foregroundBlur_29_13"/>
</filter>
<linearGradient id="paint0_linear_29_13" x1="692.998" y1="0" x2="692.998" y2="362.015" gradientUnits="userSpaceOnUse">
<stop stop-color="#0E0181"/>
<stop offset="1" stop-color="#0E0181"/>
</linearGradient>
</defs>
</svg>
