<svg width="409" height="95" viewBox="0 0 409 95" fill="none" xmlns="http://www.w3.org/2000/svg">
<g filter="url(#filter0_dd_23_189)">
<path d="M404.613 82C404.613 84.7614 402.375 87 399.613 87H9.61328C6.85186 87 4.61329 84.7614 4.61329 82V5C4.61329 2.23857 6.85186 -3.93391e-06 9.61329 -3.93391e-06H399.613C402.375 -3.93391e-06 404.613 2.23857 404.613 5V82Z" fill="black"/>
<path d="M86.4378 53.1671C85.6105 55.7246 84.7734 58.3126 83.9264 60.931C83.0794 63.5494 82.2422 66.1374 81.4149 68.6949C82.4069 68.6973 83.3989 68.6998 84.3909 68.7022C85.3989 68.7047 86.3909 68.7071 87.3669 68.7095C88.4709 68.7122 89.5005 68.5243 90.4556 68.1458C91.4057 67.7825 92.2212 67.2665 92.9018 66.5978C93.5776 65.9443 94.0607 65.1685 94.3513 64.2703C94.5581 63.631 94.6172 63.0522 94.5287 62.5339C94.4401 62.0157 94.1964 61.5809 93.7977 61.2295C94.5928 60.8506 95.2649 60.3571 95.8138 59.749C96.3579 59.1562 96.7481 58.4944 96.9845 57.7637C97.2799 56.8503 97.2905 56.0504 97.0161 55.3642C96.7577 54.6779 96.25 54.1434 95.4931 53.7607C94.7522 53.378 93.7978 53.1852 92.6298 53.1823C91.6058 53.1798 90.5738 53.1773 89.5338 53.1747C88.4938 53.1721 87.4618 53.1696 86.4378 53.1671ZM90.2769 63.8718C90.1488 64.2676 89.9174 64.587 89.5826 64.8299C89.2429 65.0881 88.8651 65.2167 88.4491 65.2157C88.1611 65.2149 87.8651 65.2142 87.5611 65.2135C87.2731 65.2128 86.9851 65.2121 86.6971 65.2113C86.8349 64.7851 86.9778 64.3436 87.1255 63.8869C87.2683 63.4454 87.4111 63.004 87.5539 62.5625C87.8419 62.5632 88.1299 62.5639 88.4179 62.5646C88.7219 62.5654 89.0179 62.5661 89.3059 62.5668C89.7219 62.5678 90.021 62.6828 90.2031 62.9118C90.3803 63.156 90.4049 63.476 90.2769 63.8718ZM92.6663 58.1187C92.5284 58.5449 92.2681 58.8795 91.8853 59.1223C91.5136 59.3804 91.0717 59.5088 90.5597 59.5076C90.2237 59.5067 89.8877 59.5059 89.5517 59.5051C89.2157 59.5042 88.8797 59.5034 88.5437 59.5026C88.6964 59.0307 88.849 58.5587 89.0017 58.0868C89.1543 57.6149 89.307 57.143 89.4597 56.6711C89.7957 56.6719 90.1317 56.6727 90.4677 56.6735C90.8037 56.6744 91.1397 56.6752 91.4757 56.676C91.9877 56.6773 92.3458 56.8077 92.5501 57.0672C92.7704 57.3267 92.8091 57.6772 92.6663 58.1187ZM112.101 59.1263C112.411 58.1672 112.516 57.2991 112.415 56.5218C112.325 55.7598 112.057 55.1041 111.61 54.5545C111.179 54.0049 110.595 53.5845 109.856 53.2932C109.134 53.002 108.293 52.8552 107.333 52.8528C106.357 52.8504 105.414 52.9928 104.504 53.2801C103.595 53.5673 102.75 53.9766 101.97 54.5079C101.2 55.0545 100.525 55.708 99.9424 56.4683C99.3602 57.2286 98.9139 58.0883 98.6037 59.0474C98.0866 60.6459 97.5646 62.2595 97.0377 63.8884C96.5108 65.5173 95.9888 67.131 95.4718 68.7295C96.1758 68.7312 96.8798 68.7329 97.5837 68.7347C98.2877 68.7364 98.9837 68.7381 99.6717 68.7398C100.179 67.1718 100.689 65.5962 101.201 64.0129C101.713 62.4297 102.223 60.8541 102.73 59.2861C102.996 58.464 103.45 57.8024 104.092 57.3012C104.735 56.8 105.432 56.5504 106.184 56.5522C106.936 56.5541 107.463 56.8067 107.764 57.3103C108.082 57.8138 108.108 58.4766 107.842 59.2987C107.335 60.8667 106.825 62.4423 106.313 64.0255C105.801 65.6087 105.291 67.1844 104.784 68.7524C105.488 68.7541 106.192 68.7558 106.896 68.7576C107.6 68.7593 108.296 68.761 108.984 68.7627C109.496 67.1795 110.015 65.5734 110.542 63.9445C111.069 62.3156 111.589 60.7095 112.101 59.1263ZM120.411 53.2506C120.111 54.1793 119.808 55.1155 119.502 56.0593C119.197 57.0032 118.894 57.9394 118.594 58.8681C117.219 60.4949 115.821 62.1445 114.399 63.8169C112.977 65.4893 111.579 67.1389 110.204 68.7657C110.94 68.7675 111.684 68.7693 112.436 68.7712C113.188 68.773 113.932 68.7749 114.668 68.7767C115.433 67.8492 116.207 66.9141 116.993 65.9715C117.789 65.044 118.569 64.1166 119.334 63.1891C119.497 64.1189 119.669 65.0487 119.849 65.9785C120.023 66.9235 120.193 67.8609 120.356 68.7907C121.092 68.7925 121.828 68.7943 122.564 68.7961C123.3 68.7979 124.036 68.7997 124.772 68.8015C124.451 67.1705 124.121 65.5167 123.783 63.84C123.445 62.1632 123.115 60.5094 122.794 58.8784C123.094 57.9498 123.397 57.0135 123.702 56.0697C124.008 55.1258 124.311 54.1896 124.611 53.261C123.923 53.2593 123.227 53.2576 122.523 53.2558C121.819 53.2541 121.115 53.2524 120.411 53.2506ZM137.679 52.9275C136.511 52.9246 135.367 53.1198 134.247 53.5132C133.122 53.9218 132.082 54.4906 131.125 55.2195C130.169 55.9485 129.331 56.8072 128.611 57.7957C127.886 58.7995 127.334 59.8875 126.954 61.0597C126.575 62.2319 126.426 63.3132 126.506 64.3037C126.585 65.2942 126.87 66.1481 127.358 66.8654C127.842 67.5979 128.516 68.1632 129.38 68.5615C130.239 68.9749 131.252 69.1831 132.42 69.186C133.588 69.1889 134.727 68.986 135.836 68.5773C136.956 68.184 137.994 67.6228 138.95 66.8939C139.918 66.1802 140.761 65.3291 141.481 64.3405C142.202 63.352 142.751 62.2716 143.13 61.0994C143.51 59.9272 143.662 58.8383 143.587 57.8326C143.507 56.8421 143.217 55.9805 142.717 55.248C142.234 54.5155 141.562 53.9425 140.703 53.5291C139.855 53.1309 138.847 52.9303 137.679 52.9275ZM136.483 56.6267C137.267 56.6287 137.88 56.813 138.321 57.1797C138.758 57.5617 139.02 58.088 139.108 58.7585C139.211 59.4291 139.12 60.2059 138.834 61.0889C138.549 61.9718 138.14 62.7402 137.608 63.394C137.093 64.0479 136.496 64.5568 135.817 64.9208C135.134 65.3 134.401 65.4886 133.617 65.4867C132.849 65.4848 132.236 65.3005 131.778 64.9337C131.336 64.567 131.064 64.0483 130.96 63.3777C130.868 62.7223 130.965 61.9532 131.25 61.0702C131.536 60.1873 131.939 59.4113 132.46 58.7422C132.997 58.0731 133.606 57.549 134.29 57.1698C134.984 56.8059 135.715 56.6248 136.483 56.6267ZM147.961 53.3184C147.134 55.8759 146.297 58.4639 145.45 61.0823C144.603 63.7007 143.765 66.2887 142.938 68.8462C143.642 68.8479 144.346 68.8497 145.05 68.8514C145.754 68.8531 146.45 68.8548 147.138 68.8565C147.773 66.8927 148.416 64.9061 149.066 62.8966C149.711 60.9023 150.351 58.9233 150.987 56.9595C151.835 56.9616 152.691 56.9637 153.555 56.9658C154.419 56.9679 155.267 56.97 156.099 56.9721C156.291 56.3784 156.488 55.7694 156.689 55.1453C156.886 54.5363 157.081 53.935 157.273 53.3413C155.737 53.3375 154.185 53.3337 152.617 53.3298C151.049 53.326 149.497 53.3222 147.961 53.3184Z" fill="white"/>
</g>
<defs>
<filter id="filter0_dd_23_189" x="0.613281" y="0" width="408" height="95" filterUnits="userSpaceOnUse" color-interpolation-filters="sRGB">
<feFlood flood-opacity="0" result="BackgroundImageFix"/>
<feColorMatrix in="SourceAlpha" type="matrix" values="0 0 0 0 0 0 0 0 0 0 0 0 0 0 0 0 0 0 127 0" result="hardAlpha"/>
<feOffset dy="4"/>
<feGaussianBlur stdDeviation="2"/>
<feComposite in2="hardAlpha" operator="out"/>
<feColorMatrix type="matrix" values="0 0 0 0 0 0 0 0 0 0 0 0 0 0 0 0 0 0 0.25 0"/>
<feBlend mode="normal" in2="BackgroundImageFix" result="effect1_dropShadow_23_189"/>
<feColorMatrix in="SourceAlpha" type="matrix" values="0 0 0 0 0 0 0 0 0 0 0 0 0 0 0 0 0 0 127 0" result="hardAlpha"/>
<feOffset dy="4"/>
<feGaussianBlur stdDeviation="2"/>
<feComposite in2="hardAlpha" operator="out"/>
<feColorMatrix type="matrix" values="0 0 0 0 0 0 0 0 0 0 0 0 0 0 0 0 0 0 0.25 0"/>
<feBlend mode="normal" in2="effect1_dropShadow_23_189" result="effect2_dropShadow_23_189"/>
<feBlend mode="normal" in="SourceGraphic" in2="effect2_dropShadow_23_189" result="shape"/>
</filter>
</defs>
</svg>
