<svg width="1150" height="345" viewBox="0 0 1150 345" fill="none" xmlns="http://www.w3.org/2000/svg">
<rect width="1150" height="345" rx="50" fill="black"/>
<g filter="url(#filter0_df_29_13)">
<rect width="761.294" height="62.0803" rx="28.5997" transform="matrix(1 -0.000375742 0.00924407 0.999957 34.834 98.1622)" fill="url(#paint0_linear_29_13)"/>
</g>
<path d="M233.661 141.785C239.072 130.097 244.548 118.269 250.088 106.303C255.628 94.3362 261.103 82.5089 266.514 70.8207C271.268 70.8207 276.021 70.8207 280.774 70.8207C285.604 70.8207 290.358 70.8207 295.034 70.8207C300.324 70.8207 304.56 71.6904 307.741 73.4297C310.955 75.0994 312.965 77.4649 313.771 80.5261C314.609 83.5177 314.078 87.0659 312.178 91.1707C310.825 94.0927 308.988 96.7365 306.666 99.102C304.344 101.467 301.587 103.45 298.392 105.05C300.807 106.79 302.214 109.051 302.612 111.834C303.042 114.547 302.485 117.573 300.939 120.913C299.006 125.087 296.127 128.74 292.301 131.871C288.551 135.001 284.166 137.436 279.144 139.176C274.199 140.915 268.928 141.785 263.331 141.785C258.424 141.785 253.479 141.785 248.496 141.785C243.513 141.785 238.568 141.785 233.661 141.785ZM291.232 92.9448C292.069 91.1359 292.132 89.6749 291.421 88.5617C290.742 87.379 289.406 86.7876 287.412 86.7876C286.032 86.7876 284.614 86.7876 283.157 86.7876C281.777 86.7876 280.397 86.7876 279.017 86.7876C278.115 88.7356 277.181 90.7532 276.215 92.8404C275.281 94.858 274.347 96.8756 273.413 98.8932C274.793 98.8932 276.173 98.8932 277.553 98.8932C279.01 98.8932 280.428 98.8932 281.808 98.8932C283.801 98.8932 285.653 98.3714 287.363 97.3279C289.105 96.2147 290.394 94.7537 291.232 92.9448ZM281.587 119.243C282.489 117.295 282.469 115.765 281.528 114.651C280.695 113.469 279.052 112.877 276.599 112.877C274.989 112.877 273.379 112.877 271.769 112.877C270.159 112.877 268.549 112.877 266.939 112.877C265.94 115.034 264.942 117.191 263.943 119.348C262.945 121.504 261.946 123.661 260.948 125.818C262.558 125.818 264.168 125.818 265.778 125.818C267.388 125.818 268.998 125.818 270.608 125.818C273.061 125.818 275.252 125.226 277.179 124.044C279.183 122.861 280.653 121.261 281.587 119.243ZM378.227 114.86C376.198 119.243 373.518 123.209 370.189 126.757C366.969 130.236 363.284 133.227 359.134 135.732C355.061 138.237 350.725 140.15 346.127 141.472C341.605 142.794 337.044 143.454 332.444 143.454C327.767 143.454 323.78 142.794 320.482 141.472C317.184 140.15 314.642 138.271 312.856 135.836C311.179 133.332 310.34 130.34 310.341 126.861C310.341 123.383 311.356 119.452 313.385 115.069C316.767 107.764 320.181 100.389 323.628 92.9448C327.074 85.5005 330.488 78.1258 333.87 70.8207C337.244 70.8207 340.617 70.8207 343.99 70.8207C347.364 70.8207 350.699 70.8207 353.995 70.8207C350.678 77.9867 347.344 85.1874 343.994 92.423C340.644 99.6585 337.311 106.859 333.993 114.025C332.254 117.782 332.003 120.809 333.24 123.104C334.477 125.4 336.897 126.548 340.501 126.548C344.104 126.548 347.549 125.4 350.835 123.104C354.198 120.809 356.749 117.782 358.488 114.025C361.806 106.859 365.139 99.6585 368.489 92.423C371.839 85.1874 375.173 77.9867 378.49 70.8207C381.864 70.8207 385.237 70.8207 388.61 70.8207C391.984 70.8207 395.319 70.8207 398.615 70.8207C395.265 78.0563 391.867 85.3962 388.421 92.8404C384.975 100.285 381.577 107.625 378.227 114.86ZM396.45 141.785C398.414 137.541 400.395 133.262 402.392 128.949C404.389 124.635 406.37 120.356 408.335 116.112C407.718 108.668 407.073 101.12 406.399 93.4666C405.725 85.8136 405.08 78.265 404.463 70.8207C407.99 70.8207 411.555 70.8207 415.158 70.8207C418.761 70.8207 422.326 70.8207 425.853 70.8207C426.112 75.0646 426.392 79.3433 426.696 83.6568C427.107 87.9008 427.443 92.1447 427.701 96.3886C431.889 92.1447 436.116 87.9008 440.381 83.6568C444.677 79.3433 448.92 75.0646 453.108 70.8207C456.635 70.8207 460.161 70.8207 463.688 70.8207C467.215 70.8207 470.741 70.8207 474.268 70.8207C466.758 78.265 459.124 85.8136 451.364 93.4666C443.604 101.12 435.97 108.668 428.46 116.112C426.495 120.356 424.514 124.635 422.517 128.949C420.52 133.262 418.539 137.541 416.575 141.785C413.278 141.785 409.943 141.785 406.57 141.785C403.196 141.785 399.823 141.785 396.45 141.785ZM477.855 143.454C472.258 143.454 467.502 142.55 463.586 140.741C459.702 138.863 456.809 136.254 454.905 132.914C453.001 129.575 452.137 125.644 452.314 121.122C452.523 116.53 453.868 111.555 456.348 106.198C458.828 100.841 462.073 95.9016 466.084 91.3794C470.094 86.8572 474.581 82.9611 479.545 79.6912C484.541 76.3517 489.834 73.7775 495.425 71.9687C501.048 70.0902 506.658 69.151 512.254 69.151C517.851 69.151 522.553 70.0902 526.36 71.9687C530.276 73.7775 533.186 76.3517 535.09 79.6912C537.103 82.9611 538.021 86.8572 537.844 91.3794C537.667 95.9016 536.338 100.841 533.858 106.198C531.378 111.555 528.117 116.53 524.074 121.122C520.064 125.644 515.522 129.575 510.45 132.914C505.454 136.254 500.144 138.863 494.521 140.741C489.007 142.55 483.452 143.454 477.855 143.454ZM485.682 126.548C489.438 126.548 493.045 125.713 496.501 124.044C499.99 122.304 503.171 119.904 506.045 116.843C508.996 113.782 511.405 110.234 513.273 106.198C515.141 102.163 516.001 98.6497 515.853 95.6581C515.781 92.6665 514.79 90.3358 512.88 88.6661C511.002 86.9268 508.184 86.0571 504.428 86.0571C500.748 86.0571 497.141 86.892 493.608 88.5617C490.152 90.2314 486.948 92.5969 483.998 95.6581C481.156 98.6497 478.801 102.163 476.933 106.198C475.065 110.234 474.151 113.782 474.19 116.843C474.306 119.904 475.303 122.304 477.181 124.044C479.168 125.713 482.002 126.548 485.682 126.548ZM528.461 141.785C533.872 130.097 539.347 118.269 544.887 106.303C550.427 94.3362 555.903 82.5089 561.314 70.8207C564.687 70.8207 568.061 70.8207 571.434 70.8207C574.807 70.8207 578.142 70.8207 581.439 70.8207C577.284 79.7956 573.081 88.8748 568.829 98.0584C564.61 107.172 560.423 116.217 556.268 125.192C560.331 125.192 564.433 125.192 568.573 125.192C572.713 125.192 576.776 125.192 580.763 125.192C579.506 127.905 578.218 130.688 576.898 133.54C575.609 136.323 574.337 139.071 573.081 141.785C565.721 141.785 558.284 141.785 550.771 141.785C543.257 141.785 535.821 141.785 528.461 141.785Z" fill="white"/>
<defs>
<filter id="filter0_df_29_13" x="5.09668" y="67.8869" width="821.342" height="122.342" filterUnits="userSpaceOnUse" color-interpolation-filters="sRGB">
<feFlood flood-opacity="0" result="BackgroundImageFix"/>
<feColorMatrix in="SourceAlpha" type="matrix" values="0 0 0 0 0 0 0 0 0 0 0 0 0 0 0 0 0 0 127 0" result="hardAlpha"/>
<feOffset dy="4"/>
<feGaussianBlur stdDeviation="2"/>
<feComposite in2="hardAlpha" operator="out"/>
<feColorMatrix type="matrix" values="0 0 0 0 0 0 0 0 0 0 0 0 0 0 0 0 0 0 0.25 0"/>
<feBlend mode="normal" in2="BackgroundImageFix" result="effect1_dropShadow_29_13"/>
<feBlend mode="normal" in="SourceGraphic" in2="effect1_dropShadow_29_13" result="shape"/>
<feGaussianBlur stdDeviation="15" result="effect2_foregroundBlur_29_13"/>
</filter>
<linearGradient id="paint0_linear_29_13" x1="380.647" y1="0" x2="380.647" y2="62.0803" gradientUnits="userSpaceOnUse">
<stop stop-color="#0A0064"/>
<stop offset="1" stop-color="#322889"/>
</linearGradient>
</defs>
</svg>
