<svg width="1494" height="668" viewBox="0 0 1494 668" fill="none" xmlns="http://www.w3.org/2000/svg">
<rect x="187.997" y="175" width="1125" height="345" rx="50" fill="black"/>
<g filter="url(#filter0_df_29_13)">
<rect width="1090.42" height="267.592" rx="28.5997" transform="matrix(1 -0.000384092 0.00904313 0.999959 200.58 200.419)" fill="url(#paint0_linear_29_13)"/>
</g>
<path d="M203.008 447.292C219.643 410.563 236.475 373.397 253.505 335.794C270.536 298.19 287.368 261.024 304.002 224.296C318.882 224.296 333.762 224.296 348.642 224.296C363.762 224.296 378.642 224.296 393.282 224.296C409.842 224.296 423.124 227.028 433.129 232.494C443.233 237.741 449.586 245.174 452.19 254.794C454.892 264.194 453.322 275.344 447.481 288.243C443.322 297.425 437.64 305.733 430.433 313.166C423.227 320.599 414.645 326.83 404.687 331.858C412.292 337.324 416.754 344.429 418.074 353.174C419.492 361.701 417.825 371.211 413.072 381.705C407.132 394.822 398.213 406.3 386.318 416.138C374.662 425.976 360.997 433.628 345.321 439.093C329.886 444.559 313.408 447.292 295.888 447.292C280.528 447.292 265.048 447.292 249.448 447.292C233.848 447.292 218.368 447.292 203.008 447.292ZM381.956 293.818C384.53 288.134 384.689 283.543 382.434 280.045C380.277 276.328 376.078 274.47 369.838 274.47C365.518 274.47 361.078 274.47 356.518 274.47C352.198 274.47 347.878 274.47 343.558 274.47C340.786 280.591 337.915 286.931 334.944 293.49C332.073 299.83 329.202 306.17 326.33 312.51C330.65 312.51 334.97 312.51 339.29 312.51C343.85 312.51 348.29 312.51 352.61 312.51C358.85 312.51 364.633 310.871 369.958 307.591C375.382 304.093 379.381 299.502 381.956 293.818ZM352.449 376.458C355.221 370.336 355.119 365.527 352.144 362.029C349.507 358.312 344.348 356.454 336.668 356.454C331.628 356.454 326.588 356.454 321.548 356.454C316.508 356.454 311.468 356.454 306.428 356.454C303.359 363.231 300.29 370.008 297.22 376.786C294.151 383.563 291.081 390.34 288.012 397.118C293.052 397.118 298.092 397.118 303.132 397.118C308.172 397.118 313.212 397.118 318.252 397.118C325.932 397.118 332.774 395.259 338.777 391.543C345.02 387.826 349.577 382.798 352.449 376.458ZM654.86 362.684C648.622 376.458 640.338 388.919 630.008 400.069C620.018 411 608.56 420.401 595.636 428.272C582.951 436.142 569.428 442.154 555.067 446.308C540.946 450.462 526.685 452.539 512.285 452.539C497.645 452.539 485.146 450.462 474.787 446.308C464.428 442.154 456.422 436.251 450.767 428.599C445.452 420.729 442.749 411.328 442.66 400.397C442.571 389.466 445.645 377.114 451.883 363.34C462.279 340.385 472.774 317.211 483.369 293.818C493.963 270.425 504.459 247.251 514.855 224.296C525.415 224.296 535.975 224.296 546.535 224.296C557.095 224.296 567.535 224.296 577.855 224.296C567.657 246.814 557.409 269.441 547.112 292.178C536.814 314.915 526.566 337.543 516.368 360.061C511.021 371.867 510.314 381.377 514.247 388.591C518.179 395.806 525.785 399.413 537.065 399.413C548.345 399.413 559.099 395.806 569.327 388.591C579.794 381.377 587.701 371.867 593.048 360.061C603.246 337.543 613.494 314.915 623.792 292.178C634.089 269.441 644.337 246.814 654.535 224.296C665.095 224.296 675.655 224.296 686.215 224.296C696.775 224.296 707.215 224.296 717.535 224.296C707.238 247.033 696.792 270.097 686.197 293.49C675.603 316.883 665.157 339.948 654.86 362.684ZM712.608 447.292C718.648 433.956 724.737 420.51 730.876 406.956C737.015 393.401 743.104 379.956 749.144 366.62C747.018 343.227 744.801 319.506 742.493 295.458C740.184 271.409 737.967 247.688 735.842 224.296C746.882 224.296 758.042 224.296 769.322 224.296C780.602 224.296 791.762 224.296 802.802 224.296C803.722 237.632 804.713 251.077 805.774 264.632C807.174 277.968 808.334 291.304 809.254 304.64C822.254 291.304 835.374 277.968 848.614 264.632C861.953 251.077 875.122 237.632 888.122 224.296C899.162 224.296 910.202 224.296 921.242 224.296C932.282 224.296 943.322 224.296 954.362 224.296C931.047 247.688 907.344 271.409 883.253 295.458C859.161 319.506 835.458 343.227 812.144 366.62C806.104 379.956 800.015 393.401 793.876 406.956C787.737 420.51 781.648 433.956 775.608 447.292C765.288 447.292 754.848 447.292 744.288 447.292C733.728 447.292 723.168 447.292 712.608 447.292ZM967.485 452.539C949.965 452.539 935.053 449.697 922.747 444.012C910.54 438.11 901.413 429.911 895.366 419.417C889.319 408.923 886.513 396.571 886.949 382.361C887.484 367.931 891.563 352.3 899.187 335.466C906.811 318.632 916.841 303.109 929.277 288.899C941.713 274.688 955.658 262.445 971.111 252.17C986.664 241.676 1003.17 233.587 1020.62 227.903C1038.18 222 1055.71 219.049 1073.23 219.049C1090.75 219.049 1105.5 222 1117.46 227.903C1129.77 233.587 1138.94 241.676 1144.99 252.17C1151.38 262.445 1154.35 274.688 1153.92 288.899C1153.48 303.109 1149.45 318.632 1141.83 335.466C1134.2 352.3 1124.12 367.931 1111.59 382.361C1099.15 396.571 1085.04 408.923 1069.25 419.417C1053.69 429.911 1037.14 438.11 1019.59 444.012C1002.37 449.697 985.005 452.539 967.485 452.539ZM991.546 399.413C1003.31 399.413 1014.57 396.79 1025.35 391.543C1036.23 386.077 1046.12 378.535 1055.04 368.915C1064.19 359.296 1071.64 348.146 1077.39 335.466C1083.13 322.786 1085.73 311.745 1085.19 302.344C1084.89 292.943 1081.72 285.62 1075.7 280.373C1069.77 274.907 1060.93 272.174 1049.17 272.174C1037.65 272.174 1026.38 274.798 1015.37 280.045C1004.59 285.292 994.624 292.725 985.468 302.344C976.65 311.745 969.37 322.786 963.627 335.466C957.884 348.146 955.115 359.296 955.318 368.915C955.761 378.535 958.946 386.077 964.87 391.543C971.134 396.79 980.026 399.413 991.546 399.413ZM1125.86 447.292C1142.49 410.563 1159.33 373.397 1176.36 335.794C1193.39 298.19 1210.22 261.024 1226.85 224.296C1237.41 224.296 1247.97 224.296 1258.53 224.296C1269.09 224.296 1279.53 224.296 1289.85 224.296C1277.08 252.498 1264.16 281.028 1251.09 309.887C1238.12 338.527 1225.25 366.948 1212.47 395.15C1225.19 395.15 1238.03 395.15 1250.99 395.15C1263.95 395.15 1276.67 395.15 1289.15 395.15C1285.29 403.676 1281.33 412.421 1277.27 421.385C1273.31 430.13 1269.4 438.765 1265.54 447.292C1242.5 447.292 1219.22 447.292 1195.7 447.292C1172.18 447.292 1148.9 447.292 1125.86 447.292Z" fill="white"/>
<defs>
<filter id="filter0_df_29_13" x="0.837891" y="0.0109863" width="1492.33" height="667.978" filterUnits="userSpaceOnUse" color-interpolation-filters="sRGB">
<feFlood flood-opacity="0" result="BackgroundImageFix"/>
<feColorMatrix in="SourceAlpha" type="matrix" values="0 0 0 0 0 0 0 0 0 0 0 0 0 0 0 0 0 0 127 0" result="hardAlpha"/>
<feOffset dy="4"/>
<feGaussianBlur stdDeviation="2"/>
<feComposite in2="hardAlpha" operator="out"/>
<feColorMatrix type="matrix" values="0 0 0 0 0 0 0 0 0 0 0 0 0 0 0 0 0 0 0.25 0"/>
<feBlend mode="normal" in2="BackgroundImageFix" result="effect1_dropShadow_29_13"/>
<feBlend mode="normal" in="SourceGraphic" in2="effect1_dropShadow_29_13" result="shape"/>
<feGaussianBlur stdDeviation="100" result="effect2_foregroundBlur_29_13"/>
</filter>
<linearGradient id="paint0_linear_29_13" x1="545.21" y1="0" x2="545.21" y2="267.592" gradientUnits="userSpaceOnUse">
<stop stop-color="#0A0064"/>
<stop offset="1" stop-color="#322889"/>
</linearGradient>
</defs>
</svg>
