<svg width="432" height="134" viewBox="0 0 432 134" fill="none" xmlns="http://www.w3.org/2000/svg">
<rect x="10" y="24" width="400" height="110" rx="20" fill="black"/>
<g filter="url(#filter0_df_29_13)">
<rect width="371.708" height="49.0012" rx="24.5006" transform="matrix(1 -0.000607442 0.0057182 0.999984 30.0117 47.2254)" fill="url(#paint0_linear_29_13)"/>
</g>
<path d="M33.2625 109.595C36.8084 97.2124 40.3965 84.6827 44.0269 72.0057C47.6572 59.3286 51.2453 46.7989 54.7912 34.4166C59.5446 34.4166 64.2979 34.4166 69.0512 34.4166C73.8812 34.4166 78.6346 34.4166 83.3112 34.4166C88.6012 34.4166 92.9757 35.3379 96.4347 37.1805C99.9149 38.9494 102.302 41.4553 103.597 44.6983C104.913 47.8676 104.948 51.6265 103.703 55.975C102.816 59.0706 101.401 61.8713 99.4564 64.3773C97.5121 66.8832 95.0706 68.9838 92.1318 70.679C94.8241 72.5216 96.5915 74.917 97.4339 77.8651C98.2974 80.7396 98.2226 83.9457 97.2095 87.4835C95.9431 91.9057 93.6466 95.7752 90.3202 99.0919C87.0704 102.409 83.0733 104.988 78.329 106.831C73.6613 108.673 68.5291 109.595 62.9325 109.595C58.0258 109.595 53.0808 109.595 48.0975 109.595C43.1141 109.595 38.1691 109.595 33.2625 109.595ZM83.0393 57.8545C83.5881 55.9382 83.418 54.3904 82.5291 53.2111C81.6612 51.9581 80.2306 51.3317 78.2373 51.3317C76.8573 51.3317 75.4389 51.3317 73.9823 51.3317C72.6023 51.3317 71.2223 51.3317 69.8423 51.3317C69.2513 53.3954 68.6392 55.5328 68.006 57.7439C67.3939 59.8813 66.7818 62.0188 66.1697 64.1562C67.5497 64.1562 68.9297 64.1562 70.3097 64.1562C71.7664 64.1562 73.1847 64.1562 74.5647 64.1562C76.558 64.1562 78.3263 63.6034 79.8696 62.4978C81.434 61.3186 82.4906 59.7708 83.0393 57.8545ZM77.591 85.7146C78.182 83.6509 77.918 82.0294 76.7991 80.8501C75.7779 79.5972 74.0406 78.9707 71.5873 78.9707C69.9773 78.9707 68.3673 78.9707 66.7573 78.9707C65.1473 78.9707 63.5373 78.9707 61.9273 78.9707C61.273 81.2555 60.6187 83.5403 59.9644 85.8252C59.3101 88.11 58.6558 90.3948 58.0014 92.6796C59.6114 92.6796 61.2214 92.6796 62.8314 92.6796C64.4414 92.6796 66.0515 92.6796 67.6615 92.6796C70.1148 92.6796 72.2109 92.0532 73.9497 90.8002C75.7651 89.5472 76.9789 87.852 77.591 85.7146ZM173.532 81.0712C172.202 85.7146 170.155 89.9157 167.392 93.6746C164.727 97.3598 161.519 100.529 157.77 103.182C154.096 105.836 150.066 107.863 145.678 109.263C141.367 110.663 136.912 111.364 132.312 111.364C127.635 111.364 123.542 110.663 120.033 109.263C116.524 107.863 113.683 105.873 111.508 103.293C109.431 100.64 108.115 97.4704 107.561 93.7852C107.006 90.1 107.394 85.9357 108.723 81.2924C110.939 73.5534 113.177 65.7408 115.435 57.8545C117.694 49.9681 119.931 42.1555 122.147 34.4166C125.52 34.4166 128.894 34.4166 132.267 34.4166C135.64 34.4166 138.975 34.4166 142.272 34.4166C140.098 42.0081 137.914 49.6365 135.718 57.3017C133.523 64.9669 131.339 72.5953 129.165 80.1868C128.025 84.1668 128.257 87.3729 129.86 89.8052C131.464 92.2374 134.067 93.4535 137.671 93.4535C141.274 93.4535 144.536 92.2374 147.455 89.8052C150.452 87.3729 152.52 84.1668 153.66 80.1868C155.834 72.5953 158.018 64.9669 160.213 57.3017C162.409 49.6365 164.593 42.0081 166.767 34.4166C170.14 34.4166 173.514 34.4166 176.887 34.4166C180.26 34.4166 183.595 34.4166 186.892 34.4166C184.697 42.0818 182.47 49.8576 180.212 57.7439C177.953 65.6303 175.727 73.406 173.532 81.0712ZM196.051 109.595C197.339 105.099 198.637 100.566 199.945 95.9963C201.254 91.4267 202.552 86.8939 203.84 82.3979C202.035 74.5116 200.185 66.5147 198.29 58.4073C196.395 50.2998 194.545 42.3029 192.74 34.4166C196.267 34.4166 199.832 34.4166 203.435 34.4166C207.038 34.4166 210.603 34.4166 214.13 34.4166C215.066 38.9125 216.029 43.4453 217.021 48.015C218.11 52.5109 219.123 57.0069 220.058 61.5028C223.569 57.0069 227.118 52.5109 230.706 48.015C234.314 43.4453 237.874 38.9125 241.385 34.4166C244.912 34.4166 248.438 34.4166 251.965 34.4166C255.492 34.4166 259.018 34.4166 262.545 34.4166C256.223 42.3029 249.793 50.2998 243.255 58.4073C236.716 66.5147 230.286 74.5116 223.965 82.3979C222.677 86.8939 221.379 91.4267 220.07 95.9963C218.762 100.566 217.464 105.099 216.176 109.595C212.88 109.595 209.545 109.595 206.171 109.595C202.798 109.595 199.425 109.595 196.051 109.595ZM277.723 111.364C272.126 111.364 267.226 110.405 263.021 108.489C258.838 106.499 255.528 103.735 253.091 100.197C250.654 96.6597 249.163 92.4954 248.618 87.7046C248.095 82.8401 248.645 77.5703 250.271 71.8951C251.896 66.2199 254.353 60.9869 257.641 56.1961C260.93 51.4054 264.795 47.2779 269.237 43.8139C273.7 40.2761 278.583 37.549 283.885 35.6327C289.208 33.6427 294.668 32.6477 300.265 32.6477C305.862 32.6477 310.713 33.6427 314.82 35.6327C319.025 37.549 322.345 40.2761 324.782 43.8139C327.317 47.2779 328.857 51.4054 329.401 56.1961C329.946 60.9869 329.406 66.2199 327.781 71.8951C326.155 77.5703 323.688 82.8401 320.378 87.7046C317.09 92.4954 313.175 96.6597 308.636 100.197C304.173 103.735 299.279 106.499 293.956 108.489C288.731 110.405 283.32 111.364 277.723 111.364ZM282.852 93.4535C286.609 93.4535 290.082 92.5691 293.272 90.8002C296.483 88.9576 299.281 86.4148 301.666 83.1718C304.128 79.9288 305.971 76.1699 307.196 71.8951C308.42 67.6203 308.719 63.8982 308.093 60.7289C307.544 57.5597 306.181 55.0906 304.004 53.3217C301.849 51.4791 298.893 50.5578 295.136 50.5578C291.456 50.5578 287.983 51.4422 284.716 53.2111C281.526 54.98 278.7 57.486 276.238 60.7289C273.874 63.8982 272.08 67.6203 270.856 71.8951C269.631 76.1699 269.283 79.9288 269.811 83.1718C270.416 86.4148 271.796 88.9576 273.952 90.8002C276.205 92.5691 279.172 93.4535 282.852 93.4535ZM328.062 109.595C331.608 97.2124 335.196 84.6827 338.827 72.0057C342.457 59.3286 346.045 46.7989 349.591 34.4166C352.964 34.4166 356.338 34.4166 359.711 34.4166C363.084 34.4166 366.419 34.4166 369.716 34.4166C366.993 43.9244 364.239 53.5428 361.453 63.2717C358.688 72.927 355.944 82.5085 353.221 92.0163C357.285 92.0163 361.386 92.0163 365.526 92.0163C369.666 92.0163 373.73 92.0163 377.716 92.0163C376.893 94.8908 376.049 97.8389 375.183 100.861C374.339 103.809 373.505 106.72 372.682 109.595C365.322 109.595 357.886 109.595 350.372 109.595C342.859 109.595 335.422 109.595 328.062 109.595Z" fill="white"/>
<defs>
<filter id="filter0_df_29_13" x="0.151367" y="17.0145" width="431.709" height="109.196" filterUnits="userSpaceOnUse" color-interpolation-filters="sRGB">
<feFlood flood-opacity="0" result="BackgroundImageFix"/>
<feColorMatrix in="SourceAlpha" type="matrix" values="0 0 0 0 0 0 0 0 0 0 0 0 0 0 0 0 0 0 127 0" result="hardAlpha"/>
<feOffset dy="4"/>
<feGaussianBlur stdDeviation="2"/>
<feComposite in2="hardAlpha" operator="out"/>
<feColorMatrix type="matrix" values="0 0 0 0 0 0 0 0 0 0 0 0 0 0 0 0 0 0 0.25 0"/>
<feBlend mode="normal" in2="BackgroundImageFix" result="effect1_dropShadow_29_13"/>
<feBlend mode="normal" in="SourceGraphic" in2="effect1_dropShadow_29_13" result="shape"/>
<feGaussianBlur stdDeviation="15" result="effect2_foregroundBlur_29_13"/>
</filter>
<linearGradient id="paint0_linear_29_13" x1="185.854" y1="0" x2="185.854" y2="49.0012" gradientUnits="userSpaceOnUse">
<stop stop-color="#0A0064"/>
<stop offset="1" stop-color="#322889"/>
</linearGradient>
</defs>
</svg>
