<svg width="417" height="122" viewBox="0 0 417 122" fill="none" xmlns="http://www.w3.org/2000/svg">
<g filter="url(#filter0_dd_23_189)">
<path d="M404.875 94C404.875 105.046 395.921 114 384.875 114H24.875C13.8293 114 4.87501 105.046 4.87501 94V47C4.87501 35.9543 13.8293 27 24.875 27H384.875C395.921 27 404.875 35.9543 404.875 47V94Z" fill="black"/>
<path d="M24.3838 109.844C29.5695 97.4452 34.8169 84.8983 40.1261 72.2038C45.4353 59.5093 50.6827 46.9624 55.8684 34.5631C60.8284 34.5775 65.7884 34.5918 70.7484 34.6062C75.7883 34.6207 80.7483 34.6351 85.6283 34.6492C91.1483 34.6652 95.6024 35.6017 98.9907 37.4589C102.41 39.2422 104.6 41.761 105.562 45.0151C106.555 48.1955 106.141 51.9629 104.319 56.3174C103.023 59.4172 101.21 62.22 98.8806 64.7256C96.5511 67.2313 93.7514 69.3292 90.4815 71.0193C93.0698 72.8742 94.6266 75.2802 95.1519 78.2375C95.7081 81.121 95.2453 84.3341 93.7637 87.8768C91.9117 92.3051 89.0511 96.1763 85.1821 99.4903C81.3931 102.805 76.9128 105.378 71.7411 107.21C66.6494 109.043 61.1836 109.951 55.3436 109.934C50.2237 109.919 45.0637 109.904 39.8637 109.889C34.6637 109.874 29.5037 109.859 24.3838 109.844ZM82.5325 58.1387C83.335 56.2198 83.3432 54.668 82.5571 53.4834C81.8019 52.225 80.3842 51.5928 78.3043 51.5868C76.8643 51.5826 75.3843 51.5784 73.8643 51.574C72.4243 51.5698 70.9843 51.5656 69.5443 51.5615C68.68 53.628 67.7849 55.7684 66.8588 57.9825C65.9637 60.1229 65.0685 62.2632 64.1734 64.4036C65.6134 64.4077 67.0534 64.4119 68.4934 64.4161C70.0134 64.4205 71.4933 64.4247 72.9333 64.4289C75.0133 64.4349 76.9248 63.8862 78.6678 62.7829C80.4417 61.6057 81.7299 60.0576 82.5325 58.1387ZM73.5046 86.0447C74.3689 83.9781 74.288 82.3522 73.2619 81.167C72.3466 79.9081 70.609 79.275 68.049 79.2676C66.369 79.2627 64.689 79.2578 63.009 79.253C61.329 79.2481 59.649 79.2433 57.969 79.2384C57.0122 81.5264 56.0553 83.8143 55.0984 86.1023C54.1415 88.3903 53.1846 90.6782 52.2277 92.9662C53.9077 92.971 55.5877 92.9759 57.2677 92.9808C58.9477 92.9856 60.6277 92.9905 62.3077 92.9953C64.8677 93.0027 67.13 92.3812 69.0948 91.1307C71.1395 89.8804 72.6095 88.185 73.5046 86.0447ZM174.173 81.6805C172.229 86.3302 169.589 90.5346 166.255 94.2936C163.032 97.979 159.304 101.146 155.073 103.794C150.922 106.442 146.473 108.461 141.727 109.851C137.06 111.242 132.327 111.93 127.527 111.916C122.647 111.902 118.46 111.188 114.967 109.774C111.473 108.36 108.747 106.357 106.787 103.765C104.938 101.099 103.945 97.9189 103.809 94.2238C103.672 90.5287 104.576 86.3562 106.521 81.7065C109.762 73.957 113.034 66.1336 116.337 58.2365C119.639 50.3393 122.911 42.516 126.153 34.7664C129.672 34.7766 133.192 34.7868 136.712 34.797C140.232 34.8071 143.712 34.8172 147.152 34.8271C143.973 42.4291 140.778 50.0679 137.568 57.7437C134.358 65.4194 131.163 73.0582 127.984 80.6602C126.317 84.6457 126.174 87.8597 127.556 90.3022C128.937 92.7447 131.508 93.9714 135.268 93.9822C139.028 93.9931 142.577 92.7841 145.916 90.3553C149.334 87.9266 151.877 84.7196 153.544 80.7341C156.723 73.1322 159.918 65.4933 163.128 57.8176C166.338 50.1418 169.533 42.503 172.712 34.9011C176.232 34.9113 179.752 34.9214 183.272 34.9316C186.792 34.9418 190.272 34.9519 193.712 34.9618C190.502 42.6376 187.246 50.424 183.943 58.3212C180.64 66.2183 177.383 74.0048 174.173 81.6805ZM194.25 110.336C196.132 105.834 198.031 101.295 199.945 96.7187C201.858 92.1428 203.757 87.6037 205.64 83.1016C204.702 75.1922 203.732 67.1718 202.727 59.0405C201.722 50.9092 200.752 42.8889 199.814 34.9795C203.494 34.9901 207.214 35.0009 210.974 35.0117C214.734 35.0226 218.454 35.0334 222.134 35.044C222.571 39.5528 223.033 44.0987 223.519 48.6815C224.116 53.1908 224.633 57.6999 225.07 62.2087C229.273 57.7133 233.516 53.218 237.799 48.7229C242.113 44.1539 246.371 39.6217 250.574 35.1263C254.254 35.1369 257.934 35.1476 261.614 35.1582C265.294 35.1688 268.974 35.1795 272.654 35.1901C265.111 43.075 257.442 51.0704 249.647 59.1762C241.851 67.2821 234.182 75.2775 226.64 83.1624C224.757 87.6645 222.858 92.2035 220.945 96.7794C219.031 101.355 217.132 105.894 215.25 110.396C211.81 110.387 208.33 110.376 204.81 110.366C201.29 110.356 197.77 110.346 194.25 110.336ZM279.26 112.355C273.42 112.338 268.421 111.363 264.264 109.43C260.137 107.423 257.015 104.643 254.896 101.09C252.778 97.5365 251.722 93.3584 251.728 88.5553C251.765 83.6784 252.972 78.3984 255.349 72.7154C257.726 67.0324 260.918 61.7951 264.924 57.0036C268.93 52.212 273.459 48.087 278.51 44.6286C283.591 41.0964 289.013 38.378 294.776 36.4734C300.569 34.495 306.386 33.5142 312.226 33.5311C318.066 33.548 323.009 34.5599 327.056 36.5667C331.213 38.5 334.351 41.2432 336.469 44.7963C338.699 48.2757 339.81 52.417 339.804 57.2202C339.797 62.0233 338.606 67.2664 336.229 72.9494C333.852 78.6324 330.645 83.9065 326.608 88.7719C322.602 93.5634 318.018 97.7252 312.856 101.257C307.774 104.789 302.337 107.545 296.543 109.523C290.861 111.428 285.1 112.372 279.26 112.355ZM286.76 94.4204C290.68 94.4317 294.411 93.5558 297.952 91.7926C301.523 89.9555 304.748 87.4155 307.626 84.1725C310.584 80.9297 312.959 77.1679 314.749 72.8872C316.539 68.6065 317.298 64.877 317.025 61.6988C316.833 58.5208 315.707 56.0421 313.648 54.2626C311.619 52.4094 308.645 51.4771 304.725 51.4658C300.885 51.4547 297.155 52.3306 293.534 54.0936C289.993 55.8568 286.744 58.3599 283.786 61.6027C280.938 64.7719 278.619 68.4968 276.829 72.7776C275.039 77.0583 274.225 80.8245 274.386 84.0763C274.628 87.3284 275.763 89.881 277.792 91.7343C279.931 93.5139 282.92 94.4093 286.76 94.4204ZM331.4 110.732C336.987 97.3737 342.62 83.9042 348.299 70.3241C353.979 56.7439 359.612 43.2745 365.199 29.9157C368.479 29.9252 371.799 29.9348 375.159 29.9445C378.519 29.9542 381.799 29.9637 384.999 29.973C379.412 43.3317 373.779 56.8012 368.099 70.3813C362.42 83.9615 356.787 97.4309 351.2 110.79C348 110.78 344.72 110.771 341.36 110.761C338 110.752 334.68 110.742 331.4 110.732Z" fill="white"/>
</g>
<defs>
<filter id="filter0_dd_23_189" x="0.875" y="27" width="408" height="95" filterUnits="userSpaceOnUse" color-interpolation-filters="sRGB">
<feFlood flood-opacity="0" result="BackgroundImageFix"/>
<feColorMatrix in="SourceAlpha" type="matrix" values="0 0 0 0 0 0 0 0 0 0 0 0 0 0 0 0 0 0 127 0" result="hardAlpha"/>
<feOffset dy="4"/>
<feGaussianBlur stdDeviation="2"/>
<feComposite in2="hardAlpha" operator="out"/>
<feColorMatrix type="matrix" values="0 0 0 0 0 0 0 0 0 0 0 0 0 0 0 0 0 0 0.25 0"/>
<feBlend mode="normal" in2="BackgroundImageFix" result="effect1_dropShadow_23_189"/>
<feColorMatrix in="SourceAlpha" type="matrix" values="0 0 0 0 0 0 0 0 0 0 0 0 0 0 0 0 0 0 127 0" result="hardAlpha"/>
<feOffset dy="4"/>
<feGaussianBlur stdDeviation="2"/>
<feComposite in2="hardAlpha" operator="out"/>
<feColorMatrix type="matrix" values="0 0 0 0 0 0 0 0 0 0 0 0 0 0 0 0 0 0 0.25 0"/>
<feBlend mode="normal" in2="effect1_dropShadow_23_189" result="effect2_dropShadow_23_189"/>
<feBlend mode="normal" in="SourceGraphic" in2="effect2_dropShadow_23_189" result="shape"/>
</filter>
</defs>
</svg>
