<svg width="1100" height="345" viewBox="0 0 1100 345" fill="none" xmlns="http://www.w3.org/2000/svg">
<rect width="1100" height="345" rx="50" fill="black"/>
<g filter="url(#filter0_df_29_13)">
<rect width="728.194" height="62.0801" rx="28.5997" transform="matrix(1 -0.000392822 0.00884219 0.999961 33.3193 98.1622)" fill="url(#paint0_linear_29_13)"/>
</g>
<path d="M215.862 142.57C221.077 130.793 226.354 118.876 231.693 106.819C237.033 94.7614 242.31 82.8443 247.525 71.0674C252.279 71.0674 257.032 71.0674 261.785 71.0674C266.615 71.0674 271.369 71.0674 276.045 71.0674C281.335 71.0674 285.586 71.9436 288.796 73.6962C292.038 75.3786 294.087 77.762 294.945 80.8464C295.833 83.8608 295.362 87.4359 293.53 91.5719C292.226 94.5161 290.433 97.1799 288.151 99.5634C285.869 101.947 283.144 103.945 279.977 105.557C282.421 107.309 283.866 109.588 284.311 112.392C284.787 115.126 284.279 118.175 282.789 121.54C280.927 125.746 278.109 129.426 274.335 132.581C270.638 135.735 266.293 138.189 261.301 139.941C256.385 141.694 251.128 142.57 245.532 142.57C240.625 142.57 235.68 142.57 230.697 142.57C225.713 142.57 220.768 142.57 215.862 142.57ZM272.614 93.3594C273.421 91.5368 273.459 90.0647 272.729 88.9431C272.03 87.7514 270.684 87.1555 268.691 87.1555C267.311 87.1555 265.893 87.1555 264.436 87.1555C263.056 87.1555 261.676 87.1555 260.296 87.1555C259.427 89.1183 258.526 91.1513 257.595 93.2543C256.695 95.2872 255.795 97.3201 254.894 99.3531C256.274 99.3531 257.654 99.3531 259.034 99.3531C260.491 99.3531 261.909 99.3531 263.289 99.3531C265.283 99.3531 267.126 98.8273 268.818 97.7758C270.541 96.6542 271.807 95.1821 272.614 93.3594ZM263.409 119.858C264.279 117.895 264.233 116.352 263.273 115.231C262.421 114.039 260.768 113.443 258.315 113.443C256.705 113.443 255.095 113.443 253.485 113.443C251.875 113.443 250.265 113.443 248.655 113.443C247.693 115.616 246.73 117.79 245.768 119.963C244.806 122.136 243.843 124.309 242.881 126.482C244.491 126.482 246.101 126.482 247.711 126.482C249.321 126.482 250.931 126.482 252.541 126.482C254.994 126.482 257.175 125.886 259.083 124.694C261.067 123.503 262.509 121.89 263.409 119.858ZM359.976 115.441C358.02 119.858 355.408 123.853 352.138 127.428C348.976 130.933 345.341 133.948 341.233 136.471C337.202 138.995 332.899 140.923 328.322 142.255C323.822 143.587 319.272 144.253 314.672 144.253C309.996 144.253 305.997 143.587 302.677 142.255C299.357 140.923 296.783 139.03 294.957 136.577C293.237 134.053 292.349 131.039 292.291 127.534C292.233 124.029 293.182 120.068 295.138 115.651C298.397 108.291 301.688 100.86 305.009 93.3594C308.331 85.8586 311.622 78.428 314.881 71.0674C318.254 71.0674 321.628 71.0674 325.001 71.0674C328.374 71.0674 331.709 71.0674 335.006 71.0674C331.809 78.2878 328.596 85.5432 325.367 92.8337C322.139 100.124 318.926 107.38 315.729 114.6C314.052 118.385 313.852 121.435 315.127 123.748C316.403 126.061 318.842 127.218 322.446 127.218C326.049 127.218 329.475 126.061 332.722 123.748C336.047 121.435 338.547 118.385 340.224 114.6C343.421 107.38 346.634 100.124 349.862 92.8337C353.091 85.5432 356.304 78.2878 359.501 71.0674C362.874 71.0674 366.248 71.0674 369.621 71.0674C372.994 71.0674 376.329 71.0674 379.626 71.0674C376.398 78.3579 373.123 85.7535 369.801 93.2543C366.479 100.755 363.204 108.151 359.976 115.441ZM378.65 142.57C380.544 138.294 382.453 133.983 384.378 129.637C386.302 125.29 388.212 120.979 390.105 116.703C389.363 109.202 388.592 101.596 387.79 93.8852C386.988 86.1741 386.216 78.5682 385.474 71.0674C389.001 71.0674 392.566 71.0674 396.169 71.0674C399.772 71.0674 403.337 71.0674 406.864 71.0674C407.194 75.3435 407.546 79.6547 407.922 84.001C408.405 88.2771 408.811 92.5533 409.141 96.8294C413.258 92.5533 417.413 88.2771 421.607 84.001C425.831 79.6547 430.002 75.3435 434.119 71.0674C437.646 71.0674 441.172 71.0674 444.699 71.0674C448.226 71.0674 451.752 71.0674 455.279 71.0674C447.894 78.5682 440.386 86.1741 432.755 93.8852C425.123 101.596 417.615 109.202 410.23 116.703C408.337 120.979 406.427 125.29 404.503 129.637C402.578 133.983 400.669 138.294 398.775 142.57C395.479 142.57 392.144 142.57 388.77 142.57C385.397 142.57 382.024 142.57 378.65 142.57ZM460.084 144.253C454.487 144.253 449.716 143.341 445.769 141.519C441.854 139.626 438.917 136.997 436.957 133.632C434.997 130.268 434.067 126.307 434.168 121.75C434.301 117.124 435.562 112.111 437.952 106.714C440.342 101.316 443.505 96.3387 447.439 91.7822C451.374 87.2256 455.795 83.3 460.704 80.0052C465.644 76.6404 470.895 74.0467 476.455 72.224C482.047 70.3313 487.641 69.385 493.237 69.385C498.834 69.385 503.552 70.3313 507.39 72.224C511.336 74.0467 514.289 76.6404 516.249 80.0052C518.317 83.3 519.3 87.2256 519.199 91.7822C519.098 96.3387 517.852 101.316 515.462 106.714C513.072 112.111 509.894 117.124 505.928 121.75C501.994 126.307 497.518 130.268 492.502 133.632C487.562 136.997 482.296 139.626 476.704 141.519C471.221 143.341 465.68 144.253 460.084 144.253ZM467.627 127.218C471.384 127.218 474.976 126.377 478.405 124.694C481.864 122.942 485.005 120.523 487.828 117.439C490.727 114.355 493.077 110.779 494.877 106.714C496.678 102.648 497.479 99.1077 497.28 96.0934C497.158 93.079 496.128 90.7307 494.19 89.0482C492.283 87.2957 489.451 86.4194 485.694 86.4194C482.014 86.4194 478.421 87.2607 474.916 88.9431C471.488 90.6255 468.324 93.0089 465.425 96.0934C462.634 99.1077 460.338 102.648 458.537 106.714C456.737 110.779 455.882 114.355 455.972 117.439C456.14 120.523 457.177 122.942 459.085 124.694C461.1 126.377 463.947 127.218 467.627 127.218ZM510.661 142.57C515.877 130.793 521.154 118.876 526.493 106.819C531.833 94.7614 537.11 82.8443 542.325 71.0674C545.698 71.0674 549.072 71.0674 552.445 71.0674C555.818 71.0674 559.153 71.0674 562.45 71.0674C558.446 80.1104 554.394 89.2585 550.297 98.5118C546.23 107.695 542.195 116.808 538.19 125.851C542.253 125.851 546.355 125.851 550.495 125.851C554.635 125.851 558.698 125.851 562.685 125.851C561.474 128.585 560.233 131.389 558.96 134.263C557.718 137.067 556.492 139.836 555.281 142.57C547.921 142.57 540.485 142.57 532.971 142.57C525.458 142.57 518.021 142.57 510.661 142.57Z" fill="white"/>
<defs>
<filter id="filter0_df_29_13" x="3.57129" y="67.8874" width="788.239" height="122.341" filterUnits="userSpaceOnUse" color-interpolation-filters="sRGB">
<feFlood flood-opacity="0" result="BackgroundImageFix"/>
<feColorMatrix in="SourceAlpha" type="matrix" values="0 0 0 0 0 0 0 0 0 0 0 0 0 0 0 0 0 0 127 0" result="hardAlpha"/>
<feOffset dy="4"/>
<feGaussianBlur stdDeviation="2"/>
<feComposite in2="hardAlpha" operator="out"/>
<feColorMatrix type="matrix" values="0 0 0 0 0 0 0 0 0 0 0 0 0 0 0 0 0 0 0.25 0"/>
<feBlend mode="normal" in2="BackgroundImageFix" result="effect1_dropShadow_29_13"/>
<feBlend mode="normal" in="SourceGraphic" in2="effect1_dropShadow_29_13" result="shape"/>
<feGaussianBlur stdDeviation="15" result="effect2_foregroundBlur_29_13"/>
</filter>
<linearGradient id="paint0_linear_29_13" x1="364.097" y1="0" x2="364.097" y2="62.0801" gradientUnits="userSpaceOnUse">
<stop stop-color="#0A0064"/>
<stop offset="1" stop-color="#322889"/>
</linearGradient>
</defs>
</svg>
