<svg width="987" height="320" viewBox="0 0 987 320" fill="none" xmlns="http://www.w3.org/2000/svg">
<rect width="987" height="320" rx="50" fill="black"/>
<g filter="url(#filter0_df_29_13)">
<rect width="653.389" height="57.5814" rx="28.5997" transform="matrix(1 -0.000406071 0.00855371 0.999963 29.8965 91.049)" fill="url(#paint0_linear_29_13)"/>
</g>
<path d="M172.985 140.345C178.057 128.506 183.189 116.526 188.381 104.404C193.574 92.283 198.706 80.3026 203.778 68.4632C208.531 68.4632 213.284 68.4632 218.038 68.4632C222.868 68.4632 227.621 68.4632 232.298 68.4632C237.588 68.4632 241.849 69.3441 245.081 71.1059C248.343 72.7973 250.421 75.1934 251.316 78.2941C252.241 81.3245 251.814 84.9186 250.032 89.0765C248.764 92.0363 247.004 94.7143 244.751 97.1103C242.498 99.5064 239.797 101.515 236.65 103.136C239.115 104.898 240.587 107.188 241.066 110.007C241.575 112.755 241.106 115.821 239.656 119.204C237.845 123.432 235.072 127.132 231.337 130.303C227.678 133.474 223.363 135.941 218.392 137.703C213.497 139.464 208.251 140.345 202.655 140.345C197.748 140.345 192.803 140.345 187.82 140.345C182.836 140.345 177.891 140.345 172.985 140.345ZM229.138 90.8735C229.922 89.0412 229.943 87.5613 229.199 86.4337C228.486 85.2357 227.133 84.6367 225.139 84.6367C223.759 84.6367 222.341 84.6367 220.884 84.6367C219.504 84.6367 218.124 84.6367 216.744 84.6367C215.899 86.6099 215.023 88.6536 214.118 90.7678C213.242 92.8115 212.367 94.8552 211.491 96.8989C212.871 96.8989 214.251 96.8989 215.631 96.8989C217.088 96.8989 218.506 96.8989 219.886 96.8989C221.88 96.8989 223.716 96.3704 225.396 95.3133C227.105 94.1857 228.353 92.7058 229.138 90.8735ZM220.256 117.512C221.101 115.539 221.037 113.989 220.064 112.861C219.197 111.663 217.537 111.064 215.083 111.064C213.473 111.064 211.863 111.064 210.253 111.064C208.643 111.064 207.033 111.064 205.423 111.064C204.487 113.249 203.552 115.433 202.616 117.618C201.68 119.803 200.744 121.987 199.808 124.172C201.418 124.172 203.028 124.172 204.638 124.172C206.248 124.172 207.858 124.172 209.468 124.172C211.921 124.172 214.095 123.573 215.988 122.375C217.958 121.177 219.381 119.556 220.256 117.512ZM316.769 113.072C314.867 117.512 312.303 121.529 309.076 125.123C305.957 128.647 302.359 131.677 298.282 134.214C294.282 136.751 290.002 138.689 285.441 140.028C280.958 141.367 276.416 142.037 271.816 142.037C267.139 142.037 263.133 141.367 259.796 140.028C256.46 138.689 253.863 136.786 252.007 134.32C250.257 131.783 249.332 128.753 249.231 125.229C249.131 121.705 250.031 117.724 251.933 113.284C255.103 105.884 258.303 98.4141 261.533 90.8735C264.764 83.3329 267.964 75.8628 271.134 68.4632C274.507 68.4632 277.88 68.4632 281.254 68.4632C284.627 68.4632 287.962 68.4632 291.259 68.4632C288.149 75.7219 285.024 83.0158 281.885 90.345C278.745 97.6741 275.621 104.968 272.511 112.227C270.881 116.032 270.718 119.098 272.021 121.423C273.325 123.749 275.779 124.912 279.382 124.912C282.985 124.912 286.397 123.749 289.616 121.423C292.913 119.098 295.376 116.032 297.006 112.227C300.116 104.968 303.24 97.6741 306.38 90.345C309.519 83.0158 312.644 75.7219 315.754 68.4632C319.127 68.4632 322.5 68.4632 325.874 68.4632C329.247 68.4632 332.582 68.4632 335.879 68.4632C332.739 75.7924 329.554 83.2272 326.324 90.7678C323.093 98.3084 319.908 105.743 316.769 113.072ZM335.774 140.345C337.615 136.046 339.472 131.712 341.343 127.343C343.215 122.974 345.072 118.64 346.913 114.341C346.08 106.8 345.216 99.154 344.32 91.4021C343.424 83.6501 342.56 76.0038 341.726 68.4632C345.253 68.4632 348.818 68.4632 352.421 68.4632C356.025 68.4632 359.59 68.4632 363.116 68.4632C363.498 72.762 363.903 77.0961 364.332 81.4654C364.867 85.7642 365.325 90.0631 365.707 94.3619C369.772 90.0631 373.875 85.7642 378.017 81.4654C382.188 77.0961 386.307 72.762 390.371 68.4632C393.898 68.4632 397.425 68.4632 400.951 68.4632C404.478 68.4632 408.005 68.4632 411.531 68.4632C404.238 76.0038 396.822 83.6501 389.285 91.4021C381.747 99.154 374.332 106.8 367.038 114.341C365.197 118.64 363.34 122.974 361.468 127.343C359.597 131.712 357.74 136.046 355.899 140.345C352.602 140.345 349.267 140.345 345.894 140.345C342.52 140.345 339.147 140.345 335.774 140.345ZM417.227 142.037C411.631 142.037 406.848 141.12 402.88 139.288C398.941 137.385 395.972 134.743 393.971 131.36C391.97 127.977 390.992 123.996 391.038 119.415C391.114 114.764 392.314 109.725 394.639 104.299C396.963 98.8722 400.065 93.8686 403.944 89.2879C407.823 84.7072 412.197 80.7607 417.066 77.4485C421.965 74.0658 427.183 71.4583 432.722 69.626C438.29 67.7233 443.873 66.7719 449.469 66.7719C455.066 66.7719 459.795 67.7233 463.657 69.626C467.625 71.4583 470.61 74.0658 472.611 77.4485C474.718 80.7607 475.749 84.7072 475.704 89.2879C475.658 93.8686 474.473 98.8722 472.149 104.299C469.824 109.725 466.707 114.764 462.798 119.415C458.919 123.996 454.492 127.977 449.516 131.36C444.617 134.743 439.383 137.385 433.815 139.288C428.353 141.12 422.824 142.037 417.227 142.037ZM424.563 124.912C428.32 124.912 431.902 124.066 435.31 122.375C438.748 120.613 441.86 118.182 444.645 115.081C447.506 111.98 449.813 108.386 451.564 104.299C453.315 100.211 454.072 96.6523 453.837 93.6219C453.679 90.5916 452.62 88.2308 450.661 86.5394C448.733 84.7776 445.89 83.8967 442.133 83.8967C438.453 83.8967 434.871 84.7424 431.387 86.4337C427.979 88.1251 424.844 90.5211 421.982 93.6219C419.227 96.6523 416.975 100.211 415.224 104.299C413.473 108.386 412.661 111.98 412.79 115.081C412.995 118.182 414.061 120.613 415.99 122.375C418.025 124.066 420.883 124.912 424.563 124.912ZM467.785 140.345C472.856 128.506 477.988 116.526 483.181 104.404C488.374 92.283 493.506 80.3026 498.577 68.4632C501.951 68.4632 505.324 68.4632 508.697 68.4632C512.071 68.4632 515.406 68.4632 518.702 68.4632C514.808 77.5542 510.868 86.7509 506.883 96.0532C502.929 105.285 499.004 114.447 495.11 123.538C499.173 123.538 503.275 123.538 507.415 123.538C511.555 123.538 515.618 123.538 519.605 123.538C518.427 126.286 517.22 129.105 515.982 131.994C514.774 134.813 513.582 137.597 512.405 140.345C505.045 140.345 497.608 140.345 490.095 140.345C482.581 140.345 475.145 140.345 467.785 140.345Z" fill="white"/>
<defs>
<filter id="filter0_df_29_13" x="0.141602" y="60.7953" width="713.391" height="117.821" filterUnits="userSpaceOnUse" color-interpolation-filters="sRGB">
<feFlood flood-opacity="0" result="BackgroundImageFix"/>
<feColorMatrix in="SourceAlpha" type="matrix" values="0 0 0 0 0 0 0 0 0 0 0 0 0 0 0 0 0 0 127 0" result="hardAlpha"/>
<feOffset dy="4"/>
<feGaussianBlur stdDeviation="2"/>
<feComposite in2="hardAlpha" operator="out"/>
<feColorMatrix type="matrix" values="0 0 0 0 0 0 0 0 0 0 0 0 0 0 0 0 0 0 0.25 0"/>
<feBlend mode="normal" in2="BackgroundImageFix" result="effect1_dropShadow_29_13"/>
<feBlend mode="normal" in="SourceGraphic" in2="effect1_dropShadow_29_13" result="shape"/>
<feGaussianBlur stdDeviation="15" result="effect2_foregroundBlur_29_13"/>
</filter>
<linearGradient id="paint0_linear_29_13" x1="326.694" y1="0" x2="326.694" y2="57.5814" gradientUnits="userSpaceOnUse">
<stop stop-color="#0A0064"/>
<stop offset="1" stop-color="#322889"/>
</linearGradient>
</defs>
</svg>
