<svg width="148" height="59" viewBox="0 0 148 59" fill="none" xmlns="http://www.w3.org/2000/svg">
<g filter="url(#filter0_dd_23_189)">
<path d="M135.303 44.97C135.303 47.7314 133.064 49.97 130.303 49.97H17.4427C14.6813 49.97 12.4427 47.7314 12.4427 44.97V18C12.4427 15.2386 14.6813 13 17.4427 13H130.303C133.064 13 135.303 15.2386 135.303 18V44.97Z" fill="black"/>
<g filter="url(#filter1_f_23_189)">
<rect width="117.208" height="27.9361" rx="13.9681" transform="matrix(0.999998 -0.0021683 0.00160196 0.999999 14.9844 16.0639)" fill="url(#paint0_linear_23_189)"/>
</g>
<path d="M21.4045 38.6918C22.2861 36.1525 23.1782 33.583 24.0807 30.9832C24.9833 28.3834 25.8754 25.8138 26.757 23.2745C27.749 23.2768 28.741 23.2791 29.733 23.2813C30.741 23.2837 31.733 23.2859 32.709 23.2882C33.813 23.2907 34.7154 23.4818 35.4162 23.8616C36.1222 24.2263 36.5918 24.7417 36.8249 25.4078C37.0633 26.0588 37.0277 26.8302 36.7181 27.722C36.4977 28.3568 36.1702 28.9309 35.7358 29.4442C35.3014 29.9576 34.7679 30.3875 34.1352 30.7339C34.676 31.1133 35.0174 31.6057 35.1595 32.2112C35.3069 32.8014 35.2546 33.4594 35.0027 34.1849C34.6879 35.0918 34.1644 35.8847 33.4322 36.5638C32.7161 37.2429 31.8524 37.7703 30.8412 38.1462C29.8461 38.5221 28.7645 38.7087 27.5965 38.706C26.5725 38.7037 25.5405 38.7013 24.5005 38.6989C23.4605 38.6965 22.4285 38.6942 21.4045 38.6918ZM32.3843 28.0978C32.5207 27.7048 32.5029 27.3871 32.3308 27.1447C32.1641 26.8871 31.8727 26.7579 31.4567 26.7569C31.1687 26.7563 30.8727 26.7556 30.5687 26.7549C30.2807 26.7542 29.9927 26.7536 29.7047 26.7529C29.5577 27.1761 29.4056 27.6145 29.2481 28.0679C29.096 28.5063 28.9438 28.9446 28.7916 29.3829C29.0796 29.3836 29.3676 29.3843 29.6556 29.3849C29.9596 29.3856 30.2556 29.3863 30.5436 29.387C30.9596 29.3879 31.3349 29.2753 31.6697 29.0492C32.0096 28.8079 32.2478 28.4908 32.3843 28.0978ZM30.9287 33.8125C31.0756 33.3893 31.0391 33.0564 30.819 32.8139C30.6202 32.5562 30.2648 32.4268 29.7528 32.4257C29.4168 32.4249 29.0808 32.4241 28.7448 32.4234C28.4088 32.4226 28.0728 32.4218 27.7368 32.4211C27.5742 32.8896 27.4115 33.3582 27.2488 33.8267C27.0861 34.2953 26.9235 34.7639 26.7608 35.2324C27.0968 35.2332 27.4328 35.234 27.7688 35.2348C28.1048 35.2355 28.4408 35.2363 28.7768 35.2371C29.2888 35.2382 29.7334 35.1107 30.1106 34.8544C30.5038 34.5981 30.7765 34.2508 30.9287 33.8125ZM51.0041 32.9055C50.6735 33.8577 50.1984 34.7189 49.5788 35.4889C48.9804 36.2439 48.2747 36.8928 47.4618 37.4355C46.6649 37.9782 45.8006 38.3922 44.8689 38.6775C43.9532 38.9628 43.0154 39.1044 42.0554 39.1022C41.0794 39.1 40.2332 38.9543 39.5169 38.6653C38.8006 38.3762 38.2303 37.9665 37.806 37.436C37.4029 36.8905 37.1645 36.2395 37.0909 35.483C37.0173 34.7265 37.1458 33.8721 37.4764 32.9199C38.0274 31.3328 38.5836 29.7306 39.1451 28.1133C39.7066 26.496 40.2628 24.8938 40.8138 23.3067C41.5178 23.3083 42.2218 23.31 42.9258 23.3116C43.6298 23.3132 44.3258 23.3148 45.0138 23.3164C44.4733 24.8732 43.9302 26.4376 43.3845 28.0096C42.8387 29.5815 42.2956 31.1459 41.7551 32.7028C41.4717 33.519 41.4835 34.177 41.7903 34.6769C42.0971 35.1768 42.6265 35.4276 43.3785 35.4294C44.1305 35.4311 44.8251 35.1831 45.4623 34.6853C46.1154 34.1876 46.5837 33.5307 46.8671 32.7145C47.4076 31.1576 47.9507 29.5932 48.4964 28.0213C49.0422 26.4493 49.5853 24.8849 50.1258 23.3281C50.8298 23.3297 51.5338 23.3313 52.2378 23.3329C52.9418 23.3345 53.6378 23.3361 54.3258 23.3377C53.78 24.9097 53.2264 26.5043 52.6649 28.1216C52.1035 29.7389 51.5498 31.3335 51.0041 32.9055ZM55.3777 38.7697C55.6978 37.8477 56.0205 36.9181 56.3459 35.981C56.6712 35.0438 56.994 34.1142 57.3141 33.1922C57.0275 31.573 56.7329 29.931 56.4301 28.2664C56.1274 26.6017 55.8327 24.9597 55.5462 23.3405C56.2822 23.3422 57.0262 23.3439 57.7782 23.3456C58.5302 23.3473 59.2742 23.349 60.0102 23.3507C60.1541 24.2738 60.3034 25.2045 60.458 26.1427C60.6339 27.0658 60.7938 27.9889 60.9377 28.912C61.7218 27.9911 62.5139 27.0701 63.314 26.1492C64.1194 25.2132 64.9141 24.2847 65.6982 23.3638C66.4342 23.3654 67.1702 23.3671 67.9062 23.3688C68.6422 23.3705 69.3782 23.3722 70.1142 23.3739C68.7047 24.9892 67.2713 26.6272 65.8141 28.2879C64.3569 29.9485 62.9235 31.5865 61.514 33.2019C61.1939 34.1239 60.8712 35.0534 60.5459 35.9906C60.2205 36.9277 59.8978 37.8573 59.5777 38.7793C58.8897 38.7777 58.1937 38.7761 57.4897 38.7745C56.7857 38.7729 56.0817 38.7713 55.3777 38.7697ZM72.402 39.1717C71.234 39.1691 70.2222 38.9701 69.3666 38.5748C68.5163 38.1644 67.8571 37.5957 67.389 36.8685C66.9209 36.1413 66.6574 35.286 66.5985 34.3027C66.5448 33.3041 66.72 32.223 67.1241 31.0591C67.5281 29.8953 68.1007 28.8226 68.8418 27.841C69.5829 26.8594 70.4367 26.0143 71.4034 25.3055C72.3752 24.5817 73.4254 24.0244 74.5538 23.6336C75.6875 23.2278 76.8384 23.0262 78.0064 23.0289C79.1744 23.0316 80.1755 23.2381 81.0098 23.6484C81.8654 24.0437 82.5272 24.6049 82.9953 25.3321C83.4847 26.0442 83.7588 26.8919 83.8177 27.8753C83.8767 28.8587 83.7041 29.9323 83.3 31.0962C82.896 32.26 82.3208 33.3403 81.5744 34.337C80.8333 35.3185 79.9688 36.1712 78.981 36.8951C78.0091 37.6189 76.9563 38.1838 75.8226 38.5896C74.7102 38.9804 73.57 39.1744 72.402 39.1717ZM73.6771 35.4988C74.4611 35.5006 75.1961 35.3207 75.882 34.9593C76.5732 34.5827 77.1863 34.0622 77.7212 33.3978C78.272 32.7335 78.6997 31.963 79.004 31.0863C79.3084 30.2097 79.4134 29.446 79.319 28.7953C79.2407 28.1447 78.9845 27.6373 78.5504 27.2733C78.1216 26.8941 77.5152 26.7037 76.7312 26.7019C75.9632 26.7001 75.2282 26.8799 74.5263 27.2414C73.8404 27.6029 73.2219 28.1158 72.671 28.7801C72.1414 29.4293 71.7244 30.1923 71.42 31.069C71.1157 31.9456 71.0001 32.7168 71.0732 33.3826C71.1623 34.0484 71.4212 34.5709 71.85 34.95C72.3001 35.3141 72.9091 35.497 73.6771 35.4988ZM82.9278 38.8328C83.8093 36.2935 84.7014 33.7239 85.604 31.1242C86.5066 28.5244 87.3987 25.9548 88.2803 23.4155C88.9843 23.4171 89.6883 23.4187 90.3923 23.4203C91.0963 23.422 91.7923 23.4235 92.4802 23.4251C91.8033 25.375 91.1185 27.3475 90.4258 29.3426C89.7384 31.3227 89.0562 33.2877 88.3793 35.2375C89.2273 35.2394 90.0833 35.2414 90.9473 35.2434C91.8113 35.2454 92.6593 35.2473 93.4913 35.2492C93.2866 35.8387 93.0767 36.4433 92.8616 37.063C92.6517 37.6676 92.4444 38.2647 92.2397 38.8541C90.7037 38.8506 89.1517 38.8471 87.5837 38.8435C86.0158 38.8399 84.4638 38.8363 82.9278 38.8328Z" fill="white"/>
</g>
<defs>
<filter id="filter0_dd_23_189" x="8.44238" y="13" width="130.86" height="44.97" filterUnits="userSpaceOnUse" color-interpolation-filters="sRGB">
<feFlood flood-opacity="0" result="BackgroundImageFix"/>
<feColorMatrix in="SourceAlpha" type="matrix" values="0 0 0 0 0 0 0 0 0 0 0 0 0 0 0 0 0 0 127 0" result="hardAlpha"/>
<feOffset dy="4"/>
<feGaussianBlur stdDeviation="2"/>
<feComposite in2="hardAlpha" operator="out"/>
<feColorMatrix type="matrix" values="0 0 0 0 0 0 0 0 0 0 0 0 0 0 0 0 0 0 0.25 0"/>
<feBlend mode="normal" in2="BackgroundImageFix" result="effect1_dropShadow_23_189"/>
<feColorMatrix in="SourceAlpha" type="matrix" values="0 0 0 0 0 0 0 0 0 0 0 0 0 0 0 0 0 0 127 0" result="hardAlpha"/>
<feOffset dy="4"/>
<feGaussianBlur stdDeviation="2"/>
<feComposite in2="hardAlpha" operator="out"/>
<feColorMatrix type="matrix" values="0 0 0 0 0 0 0 0 0 0 0 0 0 0 0 0 0 0 0.25 0"/>
<feBlend mode="normal" in2="effect1_dropShadow_23_189" result="effect2_dropShadow_23_189"/>
<feBlend mode="normal" in="SourceGraphic" in2="effect2_dropShadow_23_189" result="shape"/>
</filter>
<filter id="filter1_f_23_189" x="0.00683594" y="0.840027" width="147.208" height="58.1297" filterUnits="userSpaceOnUse" color-interpolation-filters="sRGB">
<feFlood flood-opacity="0" result="BackgroundImageFix"/>
<feBlend mode="normal" in="SourceGraphic" in2="BackgroundImageFix" result="shape"/>
<feGaussianBlur stdDeviation="7.5" result="effect1_foregroundBlur_23_189"/>
</filter>
<linearGradient id="paint0_linear_23_189" x1="58.6041" y1="0" x2="58.6041" y2="27.9361" gradientUnits="userSpaceOnUse">
<stop/>
<stop offset="1" stop-color="#1900FF"/>
</linearGradient>
</defs>
</svg>
