<svg width="885" height="315" viewBox="0 0 885 315" fill="none" xmlns="http://www.w3.org/2000/svg">
<rect x="4" width="881" height="315" rx="20" fill="black"/>
<g filter="url(#filter0_df_29_13)">
<rect width="583.217" height="56.6813" rx="28.3407" transform="matrix(1 -0.00044782 0.00775631 0.99997 30.6855 89.6263)" fill="url(#paint0_linear_29_13)"/>
</g>
<path d="M139.185 141.264C143.849 129.258 148.568 117.109 153.343 104.818C158.118 92.5257 162.837 80.3768 167.501 68.3708C172.254 68.3708 177.007 68.3708 181.761 68.3708C186.591 68.3708 191.344 68.3708 196.021 68.3708C201.311 68.3708 205.602 69.2641 208.895 71.0507C212.215 72.7658 214.376 75.1956 215.378 78.3401C216.408 81.413 216.104 85.0577 214.466 89.2741C213.3 92.2756 211.632 94.9913 209.461 97.421C207.291 99.8508 204.66 101.888 201.568 103.531C204.094 105.318 205.645 107.64 206.221 110.499C206.825 113.286 206.461 116.395 205.128 119.825C203.463 124.113 200.817 127.865 197.191 131.081C193.642 134.297 189.412 136.798 184.501 138.585C179.667 140.371 174.452 141.264 168.855 141.264C163.949 141.264 159.004 141.264 154.02 141.264C149.037 141.264 144.092 141.264 139.185 141.264ZM193.633 91.0964C194.355 89.2384 194.324 87.7376 193.542 86.5942C192.787 85.3793 191.413 84.7718 189.42 84.7718C188.04 84.7718 186.621 84.7718 185.165 84.7718C183.785 84.7718 182.405 84.7718 181.025 84.7718C180.247 86.7729 179.442 88.8453 178.61 90.9893C177.805 93.0617 177 95.1342 176.195 97.2067C177.575 97.2067 178.955 97.2067 180.335 97.2067C181.791 97.2067 183.21 97.2067 184.59 97.2067C186.583 97.2067 188.401 96.6707 190.044 95.5987C191.715 94.4553 192.911 92.9545 193.633 91.0964ZM185.67 118.11C186.447 116.109 186.329 114.537 185.317 113.393C184.409 112.178 182.728 111.571 180.275 111.571C178.665 111.571 177.055 111.571 175.445 111.571C173.835 111.571 172.225 111.571 170.615 111.571C169.754 113.786 168.894 116.002 168.033 118.217C167.173 120.433 166.312 122.648 165.451 124.863C167.061 124.863 168.671 124.863 170.281 124.863C171.891 124.863 173.501 124.863 175.111 124.863C177.565 124.863 179.717 124.256 181.569 123.041C183.498 121.826 184.865 120.182 185.67 118.11ZM282.029 113.608C280.281 118.11 277.855 122.183 274.752 125.828C271.754 129.401 268.261 132.474 264.271 135.047C260.359 137.62 256.145 139.585 251.631 140.943C247.194 142.301 242.675 142.98 238.075 142.98C233.398 142.98 229.369 142.301 225.986 140.943C222.604 139.585 219.942 137.656 218 135.154C216.163 132.582 215.133 129.509 214.911 125.935C214.689 122.362 215.452 118.324 217.201 113.822C220.116 106.318 223.059 98.7431 226.029 91.0964C228.999 83.4498 231.942 75.8745 234.857 68.3708C238.23 68.3708 241.603 68.3708 244.977 68.3708C248.35 68.3708 251.685 68.3708 254.982 68.3708C252.122 75.7316 249.249 83.1282 246.362 90.5605C243.475 97.9928 240.602 105.389 237.743 112.75C236.244 116.609 236.186 119.718 237.57 122.076C238.954 124.435 241.447 125.614 245.051 125.614C248.654 125.614 252.025 124.435 255.165 122.076C258.381 119.718 260.739 116.609 262.238 112.75C265.097 105.389 267.97 97.9928 270.857 90.5605C273.744 83.1282 276.617 75.7316 279.477 68.3708C282.85 68.3708 286.223 68.3708 289.597 68.3708C292.97 68.3708 296.305 68.3708 299.602 68.3708C296.714 75.8031 293.786 83.3426 290.815 90.9893C287.845 98.6359 284.916 106.175 282.029 113.608ZM301.974 141.264C303.668 136.905 305.375 132.51 307.096 128.079C308.817 123.648 310.524 119.253 312.218 114.894C311.125 107.247 309.997 99.4935 308.834 91.6324C307.67 83.7713 306.542 76.0175 305.449 68.3708C308.976 68.3708 312.541 68.3708 316.144 68.3708C319.748 68.3708 323.313 68.3708 326.839 68.3708C327.369 72.7301 327.924 77.1252 328.503 81.5559C329.186 85.9153 329.793 90.2746 330.323 94.6339C334.239 90.2746 338.194 85.9153 342.188 81.5559C346.209 77.1252 350.178 72.7301 354.094 68.3708C357.621 68.3708 361.148 68.3708 364.674 68.3708C368.201 68.3708 371.728 68.3708 375.254 68.3708C368.221 76.0175 361.069 83.7713 353.799 91.6324C346.528 99.4935 339.376 107.247 332.343 114.894C330.649 119.253 328.942 123.648 327.221 128.079C325.5 132.51 323.793 136.905 322.099 141.264C318.803 141.264 315.468 141.264 312.094 141.264C308.721 141.264 305.348 141.264 301.974 141.264ZM383.486 142.98C377.89 142.98 373.076 142.051 369.044 140.192C365.04 138.263 361.979 135.583 359.862 132.153C357.744 128.722 356.63 124.685 356.517 120.04C356.433 115.323 357.459 110.213 359.597 104.71C361.734 99.2077 364.664 94.1337 368.385 89.4885C372.106 84.8433 376.344 80.8413 381.098 77.4825C385.881 74.0522 391.01 71.408 396.485 69.5499C401.988 67.6204 407.537 66.6556 413.134 66.6556C418.731 66.6556 423.493 67.6204 427.42 69.5499C431.451 71.408 434.526 74.0522 436.643 77.4825C438.865 80.8413 440.032 84.8433 440.145 89.4885C440.257 94.1337 439.244 99.2077 437.107 104.71C434.969 110.213 432.026 115.323 428.277 120.04C424.556 124.685 420.266 128.722 415.407 132.153C410.624 135.583 405.482 138.263 399.979 140.192C394.581 142.051 389.083 142.98 383.486 142.98ZM390.232 125.614C393.989 125.614 397.542 124.756 400.891 123.041C404.269 121.254 407.296 118.789 409.975 115.644C412.729 112.5 414.912 108.855 416.522 104.71C418.132 100.565 418.767 96.9565 418.427 93.8836C418.164 90.8106 417.024 88.4165 415.007 86.7014C413.018 84.9148 410.145 84.0215 406.388 84.0215C402.708 84.0215 399.155 84.879 395.729 86.5942C392.379 88.3093 389.327 90.7391 386.572 93.8836C383.922 96.9565 381.792 100.565 380.182 104.71C378.572 108.855 377.884 112.5 378.12 115.644C378.431 118.789 379.582 121.254 381.571 123.041C383.665 124.756 386.552 125.614 390.232 125.614ZM433.985 141.264C438.649 129.258 443.368 117.109 448.143 104.818C452.918 92.5257 457.637 80.3768 462.3 68.3708C465.674 68.3708 469.047 68.3708 472.42 68.3708C475.794 68.3708 479.129 68.3708 482.425 68.3708C478.844 77.5897 475.222 86.9158 471.557 96.3491C467.921 105.711 464.312 115.001 460.731 124.22C464.794 124.22 468.896 124.22 473.036 124.22C477.176 124.22 481.239 124.22 485.226 124.22C484.143 127.007 483.033 129.866 481.895 132.796C480.784 135.655 479.688 138.477 478.605 141.264C471.245 141.264 463.809 141.264 456.295 141.264C448.782 141.264 441.345 141.264 433.985 141.264Z" fill="white"/>
<defs>
<filter id="filter0_df_29_13" x="0.904297" y="59.3779" width="643.22" height="116.915" filterUnits="userSpaceOnUse" color-interpolation-filters="sRGB">
<feFlood flood-opacity="0" result="BackgroundImageFix"/>
<feColorMatrix in="SourceAlpha" type="matrix" values="0 0 0 0 0 0 0 0 0 0 0 0 0 0 0 0 0 0 127 0" result="hardAlpha"/>
<feOffset dy="4"/>
<feGaussianBlur stdDeviation="2"/>
<feComposite in2="hardAlpha" operator="out"/>
<feColorMatrix type="matrix" values="0 0 0 0 0 0 0 0 0 0 0 0 0 0 0 0 0 0 0.25 0"/>
<feBlend mode="normal" in2="BackgroundImageFix" result="effect1_dropShadow_29_13"/>
<feBlend mode="normal" in="SourceGraphic" in2="effect1_dropShadow_29_13" result="shape"/>
<feGaussianBlur stdDeviation="15" result="effect2_foregroundBlur_29_13"/>
</filter>
<linearGradient id="paint0_linear_29_13" x1="291.609" y1="0" x2="291.609" y2="56.6813" gradientUnits="userSpaceOnUse">
<stop stop-color="#0A0064"/>
<stop offset="1" stop-color="#322889"/>
</linearGradient>
</defs>
</svg>
