<svg width="432" height="144" viewBox="0 0 432 144" fill="none" xmlns="http://www.w3.org/2000/svg">
<rect x="16" y="14" width="400" height="130" rx="20" fill="black"/>
<g filter="url(#filter0_df_29_13)">
<rect width="371.138" height="56.6803" rx="28.3401" transform="matrix(1 -0.000703717 0.00493592 0.999988 29.9814 54.6263)" fill="url(#paint0_linear_29_13)"/>
</g>
<path d="M36.9493 110.669C40.0401 98.1653 43.1677 85.5128 46.3321 72.7115C49.4965 59.9101 52.6241 47.2576 55.7149 34.7539C60.4683 34.7539 65.2216 34.7539 69.9749 34.7539C74.8049 34.7539 79.5583 34.7539 84.2349 34.7539C89.5249 34.7539 93.9333 35.6843 97.46 37.5449C101.005 39.3312 103.485 41.8617 104.898 45.1364C106.331 48.3368 106.504 52.1325 105.419 56.5237C104.646 59.6496 103.333 62.4778 101.481 65.0083C99.6291 67.5388 97.2648 69.66 94.3883 71.3718C97.1484 73.2324 99.0038 75.6513 99.9545 78.6284C100.924 81.531 100.967 84.7685 100.084 88.341C98.9798 92.8066 96.8256 96.714 93.621 100.063C90.4931 103.412 86.5909 106.017 81.9142 107.878C77.3143 109.739 72.216 110.669 66.6193 110.669C61.7127 110.669 56.7677 110.669 51.7843 110.669C46.801 110.669 41.856 110.669 36.9493 110.669ZM84.8245 58.4216C85.3028 56.4865 85.0758 54.9235 84.1435 53.7327C83.2296 52.4674 81.776 51.8348 79.7827 51.8348C78.4027 51.8348 76.9843 51.8348 75.5277 51.8348C74.1477 51.8348 72.7677 51.8348 71.3877 51.8348C70.8725 53.9188 70.339 56.0771 69.7871 58.3099C69.2535 60.4683 68.72 62.6267 68.1865 64.785C69.5665 64.785 70.9465 64.785 72.3265 64.785C73.7831 64.785 75.2015 64.785 76.5815 64.785C78.5748 64.785 80.3228 64.2268 81.8254 63.1104C83.3465 61.9196 84.3461 60.3567 84.8245 58.4216ZM80.4002 86.5548C80.9153 84.4708 80.5917 82.8335 79.4294 81.6426C78.3622 80.3774 76.6019 79.7448 74.1486 79.7448C72.5386 79.7448 70.9286 79.7448 69.3186 79.7448C67.7086 79.7448 66.0986 79.7448 64.4886 79.7448C63.9182 82.052 63.3479 84.3592 62.7776 86.6664C62.2072 88.9736 61.6369 91.2809 61.0666 93.5881C62.6766 93.5881 64.2866 93.5881 65.8966 93.5881C67.5066 93.5881 69.1166 93.5881 70.7266 93.5881C73.1799 93.5881 75.253 92.9555 76.9457 91.6902C78.7152 90.425 79.8666 88.7132 80.4002 86.5548ZM176.17 81.8659C175.011 86.5548 173.119 90.7971 170.494 94.5928C167.964 98.3142 164.873 101.515 161.221 104.194C157.645 106.873 153.689 108.92 149.353 110.334C145.093 111.748 140.664 112.455 136.064 112.455C131.387 112.455 127.268 111.748 123.708 110.334C120.148 108.92 117.233 106.91 114.963 104.306C112.789 101.626 111.357 98.4258 110.666 94.7045C109.976 90.9832 110.211 86.7781 111.37 82.0892C113.302 74.2744 115.252 66.3852 117.22 58.4216C119.189 50.4579 121.139 42.5687 123.071 34.7539C126.444 34.7539 129.817 34.7539 133.191 34.7539C136.564 34.7539 139.899 34.7539 143.196 34.7539C141.301 42.4199 139.397 50.123 137.483 57.8634C135.57 65.6037 133.666 73.3069 131.771 80.9728C130.777 84.9918 131.127 88.2294 132.82 90.6855C134.513 93.1415 137.161 94.3696 140.764 94.3696C144.368 94.3696 147.585 93.1415 150.415 90.6855C153.322 88.2294 155.272 84.9918 156.266 80.9728C158.161 73.3069 160.065 65.6037 161.978 57.8634C163.892 50.123 165.796 42.4199 167.691 34.7539C171.064 34.7539 174.437 34.7539 177.811 34.7539C181.184 34.7539 184.519 34.7539 187.816 34.7539C185.902 42.4943 183.961 50.3463 181.993 58.3099C180.024 66.2736 178.083 74.1256 176.17 81.8659ZM199.738 110.669C200.86 106.129 201.992 101.552 203.132 96.9373C204.273 92.3228 205.405 87.7456 206.527 83.2056C204.432 75.242 202.288 67.1667 200.095 58.9798C197.902 50.7928 195.759 42.7176 193.664 34.7539C197.19 34.7539 200.755 34.7539 204.359 34.7539C207.962 34.7539 211.527 34.7539 215.054 34.7539C216.155 39.294 217.285 43.8712 218.444 48.4856C219.699 53.0256 220.877 57.5657 221.978 62.1057C225.323 57.5657 228.707 53.0256 232.129 48.4856C235.57 43.8712 238.963 39.294 242.309 34.7539C245.835 34.7539 249.362 34.7539 252.889 34.7539C256.415 34.7539 259.942 34.7539 263.469 34.7539C257.437 42.7176 251.301 50.7928 245.06 58.9798C238.82 67.1667 232.684 75.242 226.652 83.2056C225.53 87.7456 224.398 92.3228 223.257 96.9373C222.117 101.552 220.985 106.129 219.863 110.669C216.566 110.669 213.231 110.669 209.858 110.669C206.485 110.669 203.111 110.669 199.738 110.669ZM281.475 112.455C275.878 112.455 270.942 111.488 266.667 109.553C262.411 107.543 258.999 104.752 256.432 101.18C253.865 97.6071 252.221 93.402 251.501 88.5643C250.798 83.6521 251.155 78.3307 252.572 72.5998C253.988 66.869 256.253 61.5847 259.365 56.747C262.478 51.9092 266.192 47.7414 270.506 44.2433C274.839 40.6708 279.622 37.9171 284.853 35.982C290.104 33.9725 295.527 32.9677 301.124 32.9677C306.72 32.9677 311.609 33.9725 315.788 35.982C320.063 37.9171 323.484 40.6708 326.051 44.2433C328.713 47.7414 330.405 51.9092 331.125 56.747C331.846 61.5847 331.498 66.869 330.082 72.5998C328.665 78.3307 326.391 83.6521 323.261 88.5643C320.148 93.402 316.387 97.6071 311.977 101.18C307.644 104.752 302.852 107.543 297.602 109.553C292.447 111.488 287.072 112.455 281.475 112.455ZM285.945 94.3696C289.702 94.3696 293.143 93.4764 296.268 91.6902C299.411 89.8295 302.116 87.2618 304.382 83.9871C306.725 80.7123 308.43 76.9165 309.497 72.5998C310.564 68.2831 310.726 64.5245 309.984 61.3242C309.318 58.1239 307.865 55.6306 305.623 53.8443C303.4 51.9837 300.41 51.0533 296.653 51.0533C292.973 51.0533 289.532 51.9465 286.331 53.7327C283.206 55.5189 280.472 58.0494 278.129 61.3242C275.881 64.5245 274.224 68.2831 273.157 72.5998C272.09 76.9165 271.88 80.7123 272.527 83.9871C273.251 87.2618 274.724 89.8295 276.948 91.6902C279.266 93.4764 282.265 94.3696 285.945 94.3696ZM331.749 110.669C334.84 98.1653 337.968 85.5128 341.132 72.7115C344.296 59.9101 347.424 47.2576 350.515 34.7539C353.888 34.7539 357.261 34.7539 360.635 34.7539C364.008 34.7539 367.343 34.7539 370.64 34.7539C368.266 44.355 365.866 54.0676 363.437 63.8919C361.027 73.6418 358.635 83.3172 356.262 92.9182C360.325 92.9182 364.427 92.9182 368.567 92.9182C372.707 92.9182 376.77 92.9182 380.757 92.9182C380.039 95.8209 379.304 98.7979 378.549 101.849C377.813 104.826 377.087 107.766 376.369 110.669C369.009 110.669 361.572 110.669 354.059 110.669C346.546 110.669 339.109 110.669 331.749 110.669Z" fill="white"/>
<defs>
<filter id="filter0_df_29_13" x="0.121094" y="24.3851" width="431.139" height="116.901" filterUnits="userSpaceOnUse" color-interpolation-filters="sRGB">
<feFlood flood-opacity="0" result="BackgroundImageFix"/>
<feColorMatrix in="SourceAlpha" type="matrix" values="0 0 0 0 0 0 0 0 0 0 0 0 0 0 0 0 0 0 127 0" result="hardAlpha"/>
<feOffset dy="4"/>
<feGaussianBlur stdDeviation="2"/>
<feComposite in2="hardAlpha" operator="out"/>
<feColorMatrix type="matrix" values="0 0 0 0 0 0 0 0 0 0 0 0 0 0 0 0 0 0 0.25 0"/>
<feBlend mode="normal" in2="BackgroundImageFix" result="effect1_dropShadow_29_13"/>
<feBlend mode="normal" in="SourceGraphic" in2="effect1_dropShadow_29_13" result="shape"/>
<feGaussianBlur stdDeviation="15" result="effect2_foregroundBlur_29_13"/>
</filter>
<linearGradient id="paint0_linear_29_13" x1="185.569" y1="0" x2="185.569" y2="56.6803" gradientUnits="userSpaceOnUse">
<stop stop-color="#0A0064"/>
<stop offset="1" stop-color="#322889"/>
</linearGradient>
</defs>
</svg>
