<svg width="1120" height="300" viewBox="0 0 1120 300" fill="none" xmlns="http://www.w3.org/2000/svg">
<rect width="1120" height="300" rx="20" fill="black"/>
<g filter="url(#filter0_df_29_13)">
<rect width="741.434" height="53.9835" rx="26.9917" transform="matrix(1 -0.000335484 0.0103532 0.999946 33.9248 85.3584)" fill="url(#paint0_linear_29_13)"/>
</g>
<path d="M217.358 134.538C223.287 123.103 229.286 111.533 235.356 99.8263C241.426 88.1197 247.426 76.5493 253.355 65.115C258.108 65.115 262.861 65.115 267.615 65.115C272.445 65.115 277.198 65.115 281.875 65.115C287.165 65.115 291.362 65.9658 294.466 67.6673C297.606 69.3008 299.511 71.6149 300.182 74.6096C300.887 77.5362 300.199 81.0073 298.117 85.0229C296.635 87.8815 294.681 90.4678 292.254 92.7819C289.827 95.096 286.982 97.0358 283.717 98.6012C286.054 100.303 287.361 102.515 287.636 105.237C287.946 107.892 287.254 110.852 285.56 114.119C283.443 118.203 280.402 121.776 276.437 124.839C272.549 127.902 268.055 130.284 262.957 131.985C257.934 133.687 252.625 134.538 247.028 134.538C242.121 134.538 237.176 134.538 232.193 134.538C227.21 134.538 222.265 134.538 217.358 134.538ZM277.092 86.7585C278.01 84.9889 278.138 83.5596 277.476 82.4706C276.849 81.3136 275.539 80.7351 273.545 80.7351C272.165 80.7351 270.747 80.7351 269.29 80.7351C267.91 80.7351 266.53 80.7351 265.15 80.7351C264.162 82.6408 263.139 84.6146 262.08 86.6564C261.057 88.6302 260.033 90.604 259.01 92.5777C260.39 92.5777 261.77 92.5777 263.15 92.5777C264.607 92.5777 266.025 92.5777 267.405 92.5777C269.398 92.5777 271.273 92.0673 273.029 91.0464C274.82 89.9574 276.175 88.5281 277.092 86.7585ZM266.282 112.486C267.27 110.58 267.319 109.083 266.427 107.994C265.646 106.837 264.03 106.258 261.576 106.258C259.966 106.258 258.356 106.258 256.746 106.258C255.136 106.258 253.526 106.258 251.916 106.258C250.822 108.368 249.728 110.478 248.634 112.588C247.54 114.698 246.446 116.808 245.352 118.917C246.962 118.917 248.572 118.917 250.182 118.917C251.792 118.917 253.402 118.917 255.012 118.917C257.466 118.917 259.682 118.339 261.662 117.182C263.719 116.025 265.259 114.459 266.282 112.486ZM363.117 108.198C360.893 112.486 358.038 116.365 354.552 119.836C351.177 123.239 347.36 126.166 343.099 128.616C338.916 131.066 334.495 132.938 329.838 134.231C325.257 135.524 320.667 136.171 316.067 136.171C311.39 136.171 307.432 135.524 304.193 134.231C300.953 132.938 298.495 131.1 296.816 128.718C295.25 126.268 294.544 123.341 294.699 119.938C294.853 116.535 296.042 112.69 298.266 108.402C301.971 101.256 305.712 94.0411 309.488 86.7585C313.264 79.4759 317.005 72.2614 320.711 65.115C324.084 65.115 327.457 65.115 330.831 65.115C334.204 65.115 337.539 65.115 340.836 65.115C337.201 72.1253 333.548 79.1697 329.878 86.248C326.208 93.3264 322.555 100.371 318.92 107.381C317.014 111.056 316.629 114.017 317.765 116.263C318.9 118.509 321.269 119.632 324.873 119.632C328.476 119.632 331.972 118.509 335.36 116.263C338.824 114.017 341.509 111.056 343.415 107.381C347.05 100.371 350.703 93.3264 354.373 86.248C358.043 79.1697 361.696 72.1253 365.331 65.115C368.704 65.115 372.077 65.115 375.451 65.115C378.824 65.115 382.159 65.115 385.456 65.115C381.785 72.1934 378.062 79.3738 374.286 86.6564C370.51 93.939 366.787 101.119 363.117 108.198ZM380.147 134.538C382.3 130.386 384.47 126.2 386.658 121.98C388.846 117.76 391.016 113.575 393.169 109.423C392.882 102.14 392.571 94.7557 392.236 87.269C391.902 79.7822 391.591 72.3976 391.303 65.115C394.83 65.115 398.395 65.115 401.998 65.115C405.602 65.115 409.167 65.115 412.693 65.115C412.764 69.2667 412.855 73.4525 412.967 77.6723C413.191 81.8241 413.339 85.9758 413.409 90.1275C417.785 85.9758 422.2 81.8241 426.652 77.6723C431.14 73.4525 435.572 69.2667 439.948 65.115C443.475 65.115 447.002 65.115 450.529 65.115C454.055 65.115 457.582 65.115 461.109 65.115C453.269 72.3976 445.3 79.7822 437.201 87.269C429.103 94.7557 421.134 102.14 413.294 109.423C411.141 113.575 408.971 117.76 406.783 121.98C404.595 126.2 402.425 130.386 400.272 134.538C396.975 134.538 393.64 134.538 390.267 134.538C386.894 134.538 383.52 134.538 380.147 134.538ZM461.478 136.171C455.882 136.171 451.165 135.286 447.33 133.517C443.529 131.679 440.751 129.127 438.995 125.86C437.239 122.593 436.549 118.747 436.927 114.323C437.339 109.831 438.904 104.965 441.621 99.7242C444.339 94.4835 447.803 89.6511 452.013 85.2271C456.224 80.8031 460.884 76.9917 465.992 73.7928C471.136 70.5259 476.544 68.0076 482.214 66.238C487.921 64.4004 493.572 63.4815 499.169 63.4815C504.765 63.4815 509.426 64.4004 513.149 66.238C516.985 68.0076 519.781 70.5259 521.537 73.7928C523.405 76.9917 524.151 80.8031 523.773 85.2271C523.396 89.6511 521.849 94.4835 519.131 99.7242C516.414 104.965 512.932 109.831 508.687 114.323C504.476 118.747 499.76 122.593 494.54 125.86C489.396 129.127 483.971 131.679 478.265 133.517C472.67 135.286 467.075 136.171 461.478 136.171ZM470.054 119.632C473.811 119.632 477.454 118.815 480.984 117.182C484.55 115.48 487.837 113.132 490.847 110.138C493.933 107.143 496.5 103.672 498.546 99.7242C500.593 95.7766 501.609 92.3395 501.593 89.4129C501.654 86.4863 500.766 84.2062 498.93 82.5727C497.129 80.8712 494.35 80.0204 490.593 80.0204C486.913 80.0204 483.27 80.8372 479.663 82.4706C476.132 84.1041 472.824 86.4182 469.738 89.4129C466.764 92.3395 464.253 95.7766 462.206 99.7242C460.16 103.672 459.088 107.143 458.992 110.138C458.972 113.132 459.863 115.48 461.664 117.182C463.577 118.815 466.374 119.632 470.054 119.632ZM512.158 134.538C518.087 123.103 524.086 111.533 530.156 99.8263C536.226 88.1197 542.226 76.5493 548.155 65.115C551.528 65.115 554.901 65.115 558.275 65.115C561.648 65.115 564.983 65.115 568.28 65.115C563.727 73.8949 559.122 82.7769 554.463 91.761C549.84 100.677 545.252 109.525 540.7 118.305C544.763 118.305 548.865 118.305 553.005 118.305C557.145 118.305 561.208 118.305 565.195 118.305C563.818 120.959 562.407 123.682 560.96 126.472C559.548 129.195 558.154 131.883 556.778 134.538C549.418 134.538 541.981 134.538 534.468 134.538C526.955 134.538 519.518 134.538 512.158 134.538Z" fill="white"/>
<defs>
<filter id="filter0_df_29_13" x="4.20312" y="55.1187" width="801.437" height="114.211" filterUnits="userSpaceOnUse" color-interpolation-filters="sRGB">
<feFlood flood-opacity="0" result="BackgroundImageFix"/>
<feColorMatrix in="SourceAlpha" type="matrix" values="0 0 0 0 0 0 0 0 0 0 0 0 0 0 0 0 0 0 127 0" result="hardAlpha"/>
<feOffset dy="4"/>
<feGaussianBlur stdDeviation="2"/>
<feComposite in2="hardAlpha" operator="out"/>
<feColorMatrix type="matrix" values="0 0 0 0 0 0 0 0 0 0 0 0 0 0 0 0 0 0 0.25 0"/>
<feBlend mode="normal" in2="BackgroundImageFix" result="effect1_dropShadow_29_13"/>
<feBlend mode="normal" in="SourceGraphic" in2="effect1_dropShadow_29_13" result="shape"/>
<feGaussianBlur stdDeviation="15" result="effect2_foregroundBlur_29_13"/>
</filter>
<linearGradient id="paint0_linear_29_13" x1="370.717" y1="0" x2="370.717" y2="53.9835" gradientUnits="userSpaceOnUse">
<stop stop-color="#0A0064"/>
<stop offset="1" stop-color="#322889"/>
</linearGradient>
</defs>
</svg>
