<svg width="1100" height="305" viewBox="0 0 1100 305" fill="none" xmlns="http://www.w3.org/2000/svg">
<rect width="1100" height="305" rx="40" fill="black"/>
<g filter="url(#filter0_df_29_13)">
<rect width="728.194" height="54.883" rx="27.4415" transform="matrix(1 -0.000347277 0.0100017 0.99995 33.3193 86.7811)" fill="url(#paint0_linear_29_13)"/>
</g>
<path d="M210.965 135.817C216.733 124.301 222.57 112.647 228.476 100.857C234.382 89.067 240.219 77.4138 245.987 65.8978C250.741 65.8978 255.494 65.8978 260.247 65.8978C265.077 65.8978 269.831 65.8978 274.507 65.8978C279.797 65.8978 284.006 66.7546 287.135 68.4683C290.297 70.1135 292.235 72.4441 292.947 75.4602C293.694 78.4078 293.055 81.9037 291.029 85.948C289.587 88.8271 287.669 91.4319 285.275 93.7625C282.881 96.0931 280.062 98.0467 276.819 99.6233C279.181 101.337 280.518 103.565 280.831 106.307C281.179 108.98 280.529 111.962 278.88 115.252C276.82 119.365 273.829 122.964 269.907 126.049C266.062 129.133 261.602 131.532 256.527 133.246C251.529 134.96 246.231 135.817 240.635 135.817C235.728 135.817 230.783 135.817 225.8 135.817C220.816 135.817 215.871 135.817 210.965 135.817ZM270.028 87.696C270.921 85.9138 271.029 84.4743 270.352 83.3775C269.709 82.2122 268.391 81.6295 266.397 81.6295C265.017 81.6295 263.599 81.6295 262.142 81.6295C260.762 81.6295 259.382 81.6295 258.002 81.6295C257.041 83.5489 256.045 85.5368 255.015 87.5932C254.019 89.5811 253.023 91.569 252.028 93.5569C253.408 93.5569 254.788 93.5569 256.168 93.5569C257.624 93.5569 259.043 93.5569 260.423 93.5569C262.416 93.5569 264.284 93.0427 266.025 92.0145C267.801 90.9178 269.136 89.4783 270.028 87.696ZM259.579 113.607C260.541 111.688 260.568 110.18 259.661 109.083C258.864 107.918 257.24 107.335 254.786 107.335C253.176 107.335 251.566 107.335 249.956 107.335C248.346 107.335 246.736 107.335 245.126 107.335C244.062 109.46 242.997 111.585 241.933 113.71C240.869 115.835 239.804 117.96 238.74 120.085C240.35 120.085 241.96 120.085 243.57 120.085C245.18 120.085 246.79 120.085 248.4 120.085C250.853 120.085 253.062 119.502 255.025 118.337C257.066 117.172 258.584 115.595 259.579 113.607ZM356.353 109.289C354.19 113.607 351.39 117.514 347.952 121.01C344.625 124.438 340.849 127.385 336.623 129.853C332.473 132.321 328.079 134.206 323.44 135.508C318.878 136.811 314.296 137.462 309.696 137.462C305.02 137.462 301.053 136.811 297.795 135.508C294.537 134.206 292.053 132.355 290.341 129.956C288.741 127.488 287.994 124.54 288.101 121.113C288.207 117.686 289.342 113.813 291.505 109.494C295.111 102.297 298.75 95.0306 302.424 87.696C306.098 80.3614 309.738 73.0953 313.343 65.8978C316.717 65.8978 320.09 65.8978 323.463 65.8978C326.837 65.8978 330.172 65.8978 333.468 65.8978C329.932 72.9582 326.378 80.0529 322.807 87.1819C319.236 94.3109 315.682 101.406 312.146 108.466C310.291 112.168 309.948 115.149 311.115 117.412C312.282 119.674 314.667 120.805 318.27 120.805C321.873 120.805 325.353 119.674 328.71 117.412C332.143 115.149 334.786 112.168 336.641 108.466C340.177 101.406 343.731 94.3109 347.302 87.1819C350.873 80.0529 354.427 72.9582 357.963 65.8978C361.337 65.8978 364.71 65.8978 368.083 65.8978C371.457 65.8978 374.792 65.8978 378.088 65.8978C374.517 73.0268 370.895 80.2586 367.221 87.5932C363.547 94.9278 359.924 102.16 356.353 109.289ZM373.753 135.817C375.848 131.635 377.96 127.42 380.088 123.17C382.217 118.92 384.329 114.704 386.423 110.522C386.034 103.188 385.619 95.7504 385.18 88.2101C384.74 80.6699 384.326 73.2324 383.936 65.8978C387.463 65.8978 391.028 65.8978 394.631 65.8978C398.234 65.8978 401.799 65.8978 405.326 65.8978C405.455 70.0792 405.605 74.2949 405.776 78.5449C406.058 82.7263 406.264 86.9077 406.393 91.0891C410.71 86.9077 415.067 82.7263 419.461 78.5449C423.89 74.2949 428.263 70.0792 432.581 65.8978C436.108 65.8978 439.634 65.8978 443.161 65.8978C446.688 65.8978 450.214 65.8978 453.741 65.8978C446.004 73.2324 438.138 80.6699 430.145 88.2101C422.151 95.7504 414.286 103.188 406.548 110.522C404.454 114.704 402.342 118.92 400.213 123.17C398.085 127.42 395.973 131.635 393.878 135.817C390.582 135.817 387.247 135.817 383.873 135.817C380.5 135.817 377.127 135.817 373.753 135.817ZM455.108 137.462C449.511 137.462 444.782 136.571 440.922 134.788C437.095 132.938 434.281 130.367 432.479 127.077C430.678 123.786 429.934 119.914 430.249 115.458C430.599 110.934 432.096 106.033 434.74 100.754C437.383 95.4762 440.78 90.6093 444.928 86.1537C449.077 81.6981 453.683 77.8594 458.747 74.6376C463.845 71.3473 469.217 68.8111 474.863 67.0288C480.543 65.178 486.182 64.2526 491.778 64.2526C497.375 64.2526 502.048 65.178 505.798 67.0288C509.658 68.8111 512.49 71.3473 514.292 74.6376C516.204 77.8594 517.003 81.6981 516.688 86.1537C516.373 90.6093 514.893 95.4762 512.25 100.754C509.606 106.033 506.192 110.934 502.009 115.458C497.861 119.914 493.199 123.786 488.024 127.077C482.926 130.367 477.537 132.938 471.857 134.788C466.287 136.571 460.704 137.462 455.108 137.462ZM463.451 120.805C467.208 120.805 470.84 119.982 474.347 118.337C477.889 116.623 481.144 114.258 484.111 111.242C487.155 108.226 489.673 104.73 491.665 100.754C493.656 96.7786 494.623 93.3169 494.566 90.3694C494.586 87.4218 493.666 85.1255 491.807 83.4803C489.982 81.7666 487.191 80.9098 483.435 80.9098C479.755 80.9098 476.123 81.7323 472.539 83.3775C469.031 85.0226 465.756 87.3533 462.711 90.3694C459.778 93.3169 457.316 96.7786 455.325 100.754C453.333 104.73 452.31 108.226 452.256 111.242C452.279 114.258 453.202 116.623 455.027 118.337C456.963 119.982 459.771 120.805 463.451 120.805ZM505.764 135.817C511.533 124.301 517.37 112.647 523.276 100.857C529.182 89.067 535.019 77.4138 540.787 65.8978C544.16 65.8978 547.534 65.8978 550.907 65.8978C554.28 65.8978 557.615 65.8978 560.912 65.8978C556.483 74.7405 552.002 83.686 547.47 92.7343C542.972 101.714 538.508 110.625 534.079 119.468C538.142 119.468 542.244 119.468 546.384 119.468C550.524 119.468 554.587 119.468 558.574 119.468C557.234 122.141 555.861 124.883 554.453 127.694C553.08 130.436 551.723 133.143 550.384 135.817C543.024 135.817 535.588 135.817 528.074 135.817C520.561 135.817 513.124 135.817 505.764 135.817Z" fill="white"/>
<defs>
<filter id="filter0_df_29_13" x="3.59277" y="56.5377" width="788.196" height="115.114" filterUnits="userSpaceOnUse" color-interpolation-filters="sRGB">
<feFlood flood-opacity="0" result="BackgroundImageFix"/>
<feColorMatrix in="SourceAlpha" type="matrix" values="0 0 0 0 0 0 0 0 0 0 0 0 0 0 0 0 0 0 127 0" result="hardAlpha"/>
<feOffset dy="4"/>
<feGaussianBlur stdDeviation="2"/>
<feComposite in2="hardAlpha" operator="out"/>
<feColorMatrix type="matrix" values="0 0 0 0 0 0 0 0 0 0 0 0 0 0 0 0 0 0 0.25 0"/>
<feBlend mode="normal" in2="BackgroundImageFix" result="effect1_dropShadow_29_13"/>
<feBlend mode="normal" in="SourceGraphic" in2="effect1_dropShadow_29_13" result="shape"/>
<feGaussianBlur stdDeviation="15" result="effect2_foregroundBlur_29_13"/>
</filter>
<linearGradient id="paint0_linear_29_13" x1="364.097" y1="0" x2="364.097" y2="54.883" gradientUnits="userSpaceOnUse">
<stop stop-color="#0A0064"/>
<stop offset="1" stop-color="#322889"/>
</linearGradient>
</defs>
</svg>
