<svg width="419" height="110" viewBox="0 0 419 110" fill="none" xmlns="http://www.w3.org/2000/svg">
<rect x="18.2295" y="23.8475" width="379.038" height="72.1525" rx="20" fill="black"/>
<g filter="url(#filter0_df_29_13)">
<rect width="310.418" height="48.5245" rx="24.2623" transform="matrix(0.999999 -0.000986538 0.00352091 0.999994 30.5693 30.7131)" fill="url(#paint0_linear_29_13)"/>
</g>
<path d="M32.5021 87.8021C40.6718 78.9143 48.9388 69.9208 57.3031 60.8214C65.6673 51.7221 73.9343 42.7286 82.1041 33.8408C86.5593 33.8467 91.0145 33.8526 95.4697 33.8584C99.9967 33.8644 104.452 33.8702 108.835 33.876C113.793 33.8825 117.533 34.5496 120.054 35.877C122.623 37.1516 123.88 38.9542 123.824 41.2847C123.817 43.5622 122.379 46.2617 119.51 49.383C117.467 51.6049 115.045 53.6144 112.242 55.4116C109.438 57.2088 106.328 58.7143 102.91 59.9281C104.712 61.2546 105.431 62.977 105.067 65.0952C104.751 67.1605 103.426 69.4628 101.092 72.0022C98.1743 75.1764 94.5075 77.9523 90.0916 80.33C85.7475 82.7078 80.9915 84.5554 75.8236 85.8728C70.7275 87.1903 65.5567 87.8456 60.3111 87.8387C55.7122 87.8326 51.0773 87.8265 46.4066 87.8204C41.7358 87.8142 37.101 87.8081 32.5021 87.8021ZM99.4071 50.7072C100.671 49.3317 101.118 48.22 100.746 47.372C100.423 46.4711 99.3275 46.0195 97.4592 46.017C96.1658 46.0153 94.8364 46.0136 93.4711 46.0118C92.1776 46.0101 90.8842 46.0084 89.5908 46.0067C88.2291 47.4879 86.8189 49.0221 85.36 50.6092C83.9497 52.1434 82.5395 53.6776 81.1292 55.2118C82.4227 55.2135 83.7161 55.2152 85.0096 55.2169C86.3749 55.2187 87.7042 55.2205 88.9977 55.2222C90.866 55.2246 92.7397 54.8298 94.6189 54.0378C96.5467 53.1929 98.1428 52.0826 99.4071 50.7072ZM83.3965 70.7077C84.7581 69.2264 85.1453 68.0616 84.5581 67.2134C84.0914 66.3123 82.7083 65.8603 80.4088 65.8573C78.8998 65.8553 77.3908 65.8533 75.8818 65.8513C74.3727 65.8493 72.8637 65.8473 71.3547 65.8453C69.8472 67.4853 68.3397 69.1253 66.8322 70.7653C65.3247 72.4053 63.8171 74.0453 62.3096 75.6853C63.8187 75.6873 65.3277 75.6893 66.8367 75.6913C68.3457 75.6933 69.8547 75.6953 71.3637 75.6972C73.6632 75.7003 75.873 75.253 77.9931 74.3553C80.1851 73.4577 81.9863 72.2419 83.3965 70.7077ZM175.137 67.4915C172.073 70.8244 168.511 73.8388 164.45 76.5348C160.509 79.178 156.263 81.45 151.709 83.3508C147.228 85.2517 142.657 86.7023 137.997 87.7025C133.408 88.7029 128.958 89.2002 124.646 89.1945C120.263 89.1888 116.701 88.6809 113.96 87.6709C111.219 86.6609 109.335 85.2283 108.306 83.3731C107.398 81.4651 107.405 79.1875 108.328 76.5404C109.25 73.8932 111.243 70.9032 114.307 67.5703C119.413 62.0155 124.568 56.4078 129.771 50.7471C134.974 45.0865 140.129 39.4787 145.235 33.9239C148.397 33.9281 151.559 33.9322 154.72 33.9364C157.882 33.9406 161.008 33.9447 164.098 33.9487C159.089 39.3978 154.056 44.8732 148.998 50.3752C143.941 55.8771 138.908 61.3526 133.899 66.8016C131.273 69.6584 130.235 71.9611 130.786 73.7097C131.337 75.4584 133.302 76.3349 136.679 76.3393C140.056 76.3438 143.589 75.4745 147.278 73.7314C151.038 71.9884 154.232 69.6886 156.858 66.8318C161.866 61.3828 166.9 55.9073 171.957 50.4054C177.014 44.9035 182.048 39.428 187.056 33.979C190.218 33.9831 193.38 33.9873 196.542 33.9914C199.703 33.9956 202.829 33.9997 205.919 34.0038C200.862 39.5057 195.731 45.087 190.528 50.7476C185.325 56.4083 180.194 61.9895 175.137 67.4915ZM185.08 88.0028C188.047 84.7758 191.037 81.5222 194.052 78.2422C197.067 74.9622 200.058 71.7087 203.024 68.4816C204.419 62.8159 205.815 57.0708 207.212 51.2463C208.609 45.4217 210.005 39.6766 211.4 34.011C214.706 34.0153 218.047 34.0197 221.424 34.0242C224.802 34.0286 228.143 34.033 231.449 34.0374C230.566 37.2672 229.695 40.5235 228.836 43.8064C228.097 47.0364 227.286 50.2663 226.404 53.4962C231.454 50.2718 236.54 47.0475 241.663 43.8232C246.833 40.5461 251.944 37.2953 256.994 34.071C260.3 34.0753 263.605 34.0797 266.911 34.084C270.216 34.0884 273.521 34.0927 276.827 34.0971C267.815 39.7527 258.658 45.4876 249.357 51.3017C240.056 57.1159 230.899 62.8508 221.887 68.5064C218.921 71.7335 215.93 74.987 212.915 78.267C209.9 81.547 206.909 84.8006 203.943 88.0277C200.853 88.0236 197.727 88.0195 194.565 88.0153C191.404 88.0112 188.242 88.007 185.08 88.0028ZM260.937 89.3739C255.691 89.367 251.473 88.6729 248.282 87.2915C245.14 85.8573 243.119 83.8683 242.22 81.3247C241.32 78.7811 241.553 75.7888 242.917 72.3477C244.331 68.8537 246.909 65.07 250.654 60.9964C254.398 56.9229 258.749 53.168 263.707 49.7316C268.664 46.2953 273.902 43.336 279.421 40.8538C284.989 38.3187 290.633 36.3664 296.352 34.9967C302.121 33.5742 307.628 32.8664 312.873 32.8733C318.119 32.8802 322.277 33.6007 325.347 35.0349C328.538 36.4162 330.583 38.3787 331.482 40.9223C332.502 43.4131 332.33 46.379 330.966 49.8201C329.601 53.2612 327.047 57.0185 323.302 61.092C319.558 65.1656 315.182 68.947 310.176 72.4362C305.219 75.8726 299.921 78.8582 294.281 81.3932C288.713 83.9283 283.045 85.9071 277.277 87.3297C271.629 88.6994 266.183 89.3808 260.937 89.3739ZM272.754 76.5184C276.275 76.523 279.877 75.8922 283.559 74.6258C287.289 73.3065 290.907 71.4839 294.412 69.158C297.989 66.8321 301.188 64.135 304.008 61.0666C306.829 57.9983 308.566 55.3257 309.22 53.049C309.946 50.7724 309.635 48.9975 308.287 47.7246C306.987 46.3987 304.577 45.7334 301.056 45.7288C297.607 45.7242 294.005 46.3551 290.251 47.6214C286.569 48.8877 282.94 50.6838 279.363 53.0097C275.907 55.2827 272.768 57.9534 269.948 61.0218C267.127 64.0902 265.33 66.7892 264.555 69.1187C263.853 71.4483 264.151 73.2761 265.45 74.602C266.87 75.8751 269.305 76.5139 272.754 76.5184ZM308.272 88.165C317.074 78.5895 325.949 68.9347 334.897 59.2005C343.845 49.4663 352.72 39.8115 361.521 30.236C364.468 30.2399 367.45 30.2438 370.468 30.2478C373.486 30.2517 376.432 30.2556 379.306 30.2594C370.504 39.8349 361.629 49.4897 352.682 59.2239C343.734 68.9581 334.859 78.6129 326.057 88.1884C323.183 88.1846 320.237 88.1807 317.219 88.1767C314.2 88.1728 311.218 88.1688 308.272 88.165Z" fill="white"/>
<defs>
<filter id="filter0_df_29_13" x="0.654297" y="0.430756" width="370.418" height="108.783" filterUnits="userSpaceOnUse" color-interpolation-filters="sRGB">
<feFlood flood-opacity="0" result="BackgroundImageFix"/>
<feColorMatrix in="SourceAlpha" type="matrix" values="0 0 0 0 0 0 0 0 0 0 0 0 0 0 0 0 0 0 127 0" result="hardAlpha"/>
<feOffset dy="4"/>
<feGaussianBlur stdDeviation="2"/>
<feComposite in2="hardAlpha" operator="out"/>
<feColorMatrix type="matrix" values="0 0 0 0 0 0 0 0 0 0 0 0 0 0 0 0 0 0 0.25 0"/>
<feBlend mode="normal" in2="BackgroundImageFix" result="effect1_dropShadow_29_13"/>
<feBlend mode="normal" in="SourceGraphic" in2="effect1_dropShadow_29_13" result="shape"/>
<feGaussianBlur stdDeviation="15" result="effect2_foregroundBlur_29_13"/>
</filter>
<linearGradient id="paint0_linear_29_13" x1="155.209" y1="0" x2="155.209" y2="48.5245" gradientUnits="userSpaceOnUse">
<stop stop-color="#0A0064"/>
<stop offset="1" stop-color="#322889"/>
</linearGradient>
</defs>
</svg>
