<svg width="1125" height="345" viewBox="0 0 1125 345" fill="none" xmlns="http://www.w3.org/2000/svg">
<rect width="1125" height="345" rx="50" fill="black"/>
<g filter="url(#filter0_df_29_13)">
<rect width="744.744" height="62.0802" rx="28.5997" transform="matrix(1 -0.000384092 0.00904313 0.999959 34.0771 98.1622)" fill="url(#paint0_linear_29_13)"/>
</g>
<path d="M224.756 142.18C230.07 130.447 235.447 118.574 240.887 106.562C246.328 94.55 251.705 82.6775 257.018 70.9447C261.772 70.9447 266.525 70.9447 271.278 70.9447C276.108 70.9447 280.862 70.9447 285.538 70.9447C290.828 70.9447 295.071 71.8177 298.267 73.5636C301.495 75.2398 303.524 77.6142 304.356 80.6871C305.219 83.6902 304.718 87.2519 302.852 91.3724C301.523 94.3056 299.708 96.9594 297.406 99.3339C295.104 101.708 292.362 103.699 289.182 105.305C291.611 107.051 293.036 109.321 293.458 112.114C293.911 114.838 293.378 117.876 291.86 121.228C289.962 125.418 287.113 129.085 283.314 132.228C279.59 135.37 275.225 137.815 270.217 139.561C265.287 141.307 260.023 142.18 254.426 142.18C249.52 142.18 244.575 142.18 239.591 142.18C234.608 142.18 229.663 142.18 224.756 142.18ZM281.92 93.1532C282.742 91.3374 282.793 89.8708 282.073 88.7534C281.384 87.5662 280.043 86.9726 278.049 86.9726C276.669 86.9726 275.251 86.9726 273.794 86.9726C272.414 86.9726 271.034 86.9726 269.654 86.9726C268.769 88.928 267.851 90.9533 266.903 93.0485C265.985 95.0738 265.068 97.0991 264.151 99.1244C265.531 99.1244 266.911 99.1244 268.291 99.1244C269.747 99.1244 271.166 99.1244 272.546 99.1244C274.539 99.1244 276.386 98.6006 278.087 97.553C279.82 96.4356 281.098 94.969 281.92 93.1532ZM272.494 119.552C273.38 117.597 273.347 116.06 272.397 114.943C271.554 113.755 269.907 113.162 267.453 113.162C265.843 113.162 264.233 113.162 262.623 113.162C261.013 113.162 259.403 113.162 257.793 113.162C256.813 115.327 255.832 117.492 254.852 119.657C253.871 121.822 252.891 123.987 251.91 126.152C253.52 126.152 255.13 126.152 256.74 126.152C258.35 126.152 259.96 126.152 261.57 126.152C264.024 126.152 266.209 125.558 268.127 124.371C270.121 123.184 271.577 121.577 272.494 119.552ZM369.098 115.152C367.105 119.552 364.459 123.533 361.159 127.095C357.968 130.586 354.308 133.59 350.179 136.104C346.127 138.618 341.807 140.538 337.22 141.865C332.709 143.192 328.153 143.856 323.553 143.856C318.876 143.856 314.884 143.192 311.575 141.865C308.265 140.538 305.708 138.653 303.901 136.208C302.203 133.694 301.34 130.691 301.312 127.199C301.283 123.707 302.265 119.762 304.258 115.362C307.579 108.029 310.932 100.626 314.316 93.1532C317.7 85.6806 321.053 78.2777 324.374 70.9447C327.747 70.9447 331.121 70.9447 334.494 70.9447C337.867 70.9447 341.202 70.9447 344.499 70.9447C341.241 78.138 337.968 85.3663 334.678 92.6294C331.389 99.8926 328.115 107.121 324.857 114.314C323.149 118.085 322.923 121.123 324.18 123.428C325.436 125.733 327.866 126.885 331.469 126.885C335.072 126.885 338.508 125.733 341.775 123.428C345.118 121.123 347.644 118.085 349.352 114.314C352.61 107.121 355.884 99.8926 359.173 92.6294C362.463 85.3663 365.736 78.138 368.994 70.9447C372.367 70.9447 375.741 70.9447 379.114 70.9447C382.487 70.9447 385.822 70.9447 389.119 70.9447C385.83 78.2079 382.493 85.5758 379.108 93.0485C375.724 100.521 372.387 107.889 369.098 115.152ZM387.545 142.18C389.475 137.919 391.42 133.624 393.381 129.294C395.342 124.965 397.287 120.669 399.216 116.409C398.537 108.937 397.829 101.359 397.092 93.677C396.354 85.9948 395.646 78.4174 394.967 70.9447C398.494 70.9447 402.059 70.9447 405.662 70.9447C409.265 70.9447 412.83 70.9447 416.357 70.9447C416.651 75.2048 416.967 79.4999 417.306 83.8298C417.754 88.09 418.124 92.3501 418.418 96.6102C422.571 92.3501 426.762 88.09 430.991 83.8298C435.252 79.4999 439.459 75.2048 443.612 70.9447C447.139 70.9447 450.665 70.9447 454.192 70.9447C457.719 70.9447 461.245 70.9447 464.772 70.9447C457.324 78.4174 449.753 85.9948 442.057 93.677C434.361 101.359 426.789 108.937 419.341 116.409C417.412 120.669 415.467 124.965 413.506 129.294C411.545 133.624 409.6 137.919 407.67 142.18C404.373 142.18 401.038 142.18 397.665 142.18C394.292 142.18 390.918 142.18 387.545 142.18ZM468.964 143.856C463.368 143.856 458.604 142.948 454.673 141.132C450.773 139.246 447.858 136.627 445.926 133.275C443.994 129.923 443.098 125.977 443.237 121.438C443.408 116.828 444.711 111.835 447.147 106.457C449.582 101.08 452.786 96.1214 456.759 91.5819C460.731 87.0424 465.186 83.1315 470.123 79.8491C475.091 76.4968 480.363 73.9128 485.938 72.097C491.546 70.2114 497.148 69.2686 502.744 69.2686C508.341 69.2686 513.051 70.2114 516.873 72.097C520.804 73.9128 523.736 76.4968 525.668 79.8491C527.708 83.1315 528.658 87.0424 528.519 91.5819C528.38 96.1214 527.092 101.08 524.657 106.457C522.221 111.835 519.002 116.828 514.997 121.438C511.025 125.977 506.516 129.923 501.471 133.275C496.503 136.627 491.215 139.246 485.608 141.132C480.109 142.948 474.561 143.856 468.964 143.856ZM476.65 126.885C480.407 126.885 484.006 126.047 487.449 124.371C490.923 122.625 494.084 120.216 496.933 117.143C499.858 114.07 502.237 110.508 504.072 106.457C505.906 102.407 506.737 98.88 506.564 95.8769C506.467 92.8739 505.457 90.5343 503.532 88.8582C501.64 87.1122 498.815 86.2393 495.058 86.2393C491.378 86.2393 487.779 87.0773 484.26 88.7534C480.817 90.4295 477.634 92.804 474.709 95.8769C471.892 98.88 469.566 102.407 467.732 106.457C465.897 110.508 465.013 114.07 465.078 117.143C465.219 120.216 466.236 122.625 468.129 124.371C470.13 126.047 472.97 126.885 476.65 126.885ZM519.556 142.18C524.87 130.447 530.247 118.574 535.687 106.562C541.127 94.55 546.504 82.6775 551.818 70.9447C555.191 70.9447 558.565 70.9447 561.938 70.9447C565.311 70.9447 568.646 70.9447 571.943 70.9447C567.863 79.9538 563.735 89.0677 559.56 98.2863C555.417 107.435 551.305 116.514 547.225 125.523C551.288 125.523 555.39 125.523 559.53 125.523C563.67 125.523 567.733 125.523 571.72 125.523C570.486 128.247 569.221 131.04 567.924 133.904C566.659 136.697 565.41 139.456 564.176 142.18C556.816 142.18 549.379 142.18 541.866 142.18C534.353 142.18 526.916 142.18 519.556 142.18Z" fill="white"/>
<defs>
<filter id="filter0_df_29_13" x="4.33496" y="67.8871" width="804.79" height="122.342" filterUnits="userSpaceOnUse" color-interpolation-filters="sRGB">
<feFlood flood-opacity="0" result="BackgroundImageFix"/>
<feColorMatrix in="SourceAlpha" type="matrix" values="0 0 0 0 0 0 0 0 0 0 0 0 0 0 0 0 0 0 127 0" result="hardAlpha"/>
<feOffset dy="4"/>
<feGaussianBlur stdDeviation="2"/>
<feComposite in2="hardAlpha" operator="out"/>
<feColorMatrix type="matrix" values="0 0 0 0 0 0 0 0 0 0 0 0 0 0 0 0 0 0 0.25 0"/>
<feBlend mode="normal" in2="BackgroundImageFix" result="effect1_dropShadow_29_13"/>
<feBlend mode="normal" in="SourceGraphic" in2="effect1_dropShadow_29_13" result="shape"/>
<feGaussianBlur stdDeviation="15" result="effect2_foregroundBlur_29_13"/>
</filter>
<linearGradient id="paint0_linear_29_13" x1="372.372" y1="0" x2="372.372" y2="62.0802" gradientUnits="userSpaceOnUse">
<stop stop-color="#0A0064"/>
<stop offset="1" stop-color="#322889"/>
</linearGradient>
</defs>
</svg>
