<svg width="1278" height="405" viewBox="0 0 1278 405" fill="none" xmlns="http://www.w3.org/2000/svg">
<g filter="url(#filter0_d_29_13)">
<rect x="24.998" y="52" width="1125" height="345" rx="50" fill="black"/>
<g filter="url(#filter1_df_29_13)">
<rect width="997.423" height="210.76" rx="28.5997" transform="matrix(1 -0.000384092 0.00904313 0.999959 68.8164 129.698)" fill="url(#paint0_linear_29_13)"/>
</g>
<path d="M40.0093 324.292C56.6436 287.563 73.4758 250.397 90.5062 212.794C107.536 175.19 124.369 138.024 141.003 101.296C155.883 101.296 170.763 101.296 185.643 101.296C200.763 101.296 215.643 101.296 230.283 101.296C246.843 101.296 260.125 104.028 270.13 109.494C280.234 114.741 286.587 122.174 289.191 131.794C291.893 141.194 290.323 152.344 284.482 165.243C280.323 174.425 274.641 182.733 267.434 190.166C260.228 197.599 251.646 203.83 241.688 208.858C249.293 214.324 253.755 221.429 255.075 230.174C256.493 238.701 254.826 248.211 250.073 258.705C244.133 271.822 235.214 283.3 223.319 293.138C211.663 302.976 197.998 310.628 182.322 316.093C166.887 321.559 150.409 324.292 132.889 324.292C117.529 324.292 102.049 324.292 86.4493 324.292C70.8493 324.292 55.3693 324.292 40.0093 324.292ZM218.957 170.818C221.531 165.134 221.69 160.543 219.435 157.045C217.278 153.328 213.079 151.47 206.839 151.47C202.519 151.47 198.079 151.47 193.519 151.47C189.199 151.47 184.879 151.47 180.559 151.47C177.787 157.591 174.916 163.931 171.945 170.49C169.074 176.83 166.203 183.17 163.331 189.51C167.651 189.51 171.971 189.51 176.291 189.51C180.851 189.51 185.291 189.51 189.611 189.51C195.851 189.51 201.634 187.871 206.959 184.591C212.383 181.093 216.382 176.502 218.957 170.818ZM189.45 253.458C192.222 247.336 192.12 242.527 189.145 239.029C186.508 235.312 181.349 233.454 173.669 233.454C168.629 233.454 163.589 233.454 158.549 233.454C153.509 233.454 148.469 233.454 143.429 233.454C140.36 240.231 137.291 247.008 134.221 253.786C131.152 260.563 128.082 267.34 125.013 274.118C130.053 274.118 135.093 274.118 140.133 274.118C145.173 274.118 150.213 274.118 155.253 274.118C162.933 274.118 169.774 272.259 175.778 268.543C182.021 264.826 186.578 259.798 189.45 253.458ZM491.861 239.684C485.623 253.458 477.339 265.919 467.009 277.069C457.019 288 445.561 297.401 432.637 305.272C419.952 313.142 406.429 319.154 392.068 323.308C377.947 327.462 363.686 329.539 349.286 329.539C334.646 329.539 322.147 327.462 311.788 323.308C301.429 319.154 293.423 313.251 287.768 305.599C282.453 297.729 279.75 288.328 279.661 277.397C279.571 266.466 282.646 254.114 288.884 240.34C299.28 217.385 309.775 194.211 320.37 170.818C330.964 147.425 341.46 124.251 351.856 101.296C362.416 101.296 372.976 101.296 383.536 101.296C394.096 101.296 404.536 101.296 414.856 101.296C404.658 123.814 394.41 146.441 384.112 169.178C373.815 191.915 363.567 214.543 353.369 237.061C348.022 248.867 347.315 258.377 351.248 265.591C355.18 272.806 362.786 276.413 374.066 276.413C385.346 276.413 396.1 272.806 406.328 265.591C416.795 258.377 424.702 248.867 430.049 237.061C440.247 214.543 450.495 191.915 460.792 169.178C471.09 146.441 481.338 123.814 491.536 101.296C502.096 101.296 512.656 101.296 523.216 101.296C533.776 101.296 544.216 101.296 554.536 101.296C544.239 124.033 533.793 147.097 523.198 170.49C512.604 193.883 502.158 216.948 491.861 239.684ZM549.609 324.292C555.649 310.956 561.738 297.51 567.877 283.956C574.016 270.401 580.105 256.956 586.145 243.62C584.019 220.227 581.802 196.506 579.494 172.458C577.185 148.409 574.968 124.688 572.843 101.296C583.883 101.296 595.043 101.296 606.323 101.296C617.603 101.296 628.763 101.296 639.803 101.296C640.723 114.632 641.714 128.077 642.775 141.632C644.175 154.968 645.335 168.304 646.255 181.64C659.255 168.304 672.375 154.968 685.615 141.632C698.954 128.077 712.123 114.632 725.123 101.296C736.163 101.296 747.203 101.296 758.243 101.296C769.283 101.296 780.323 101.296 791.363 101.296C768.048 124.688 744.345 148.409 720.254 172.458C696.162 196.506 672.459 220.227 649.145 243.62C643.105 256.956 637.016 270.401 630.877 283.956C624.738 297.51 618.649 310.956 612.609 324.292C602.289 324.292 591.849 324.292 581.289 324.292C570.729 324.292 560.169 324.292 549.609 324.292ZM804.486 329.539C786.966 329.539 772.054 326.697 759.748 321.012C747.541 315.11 738.414 306.911 732.367 296.417C726.32 285.923 723.514 273.571 723.95 259.361C724.485 244.931 728.564 229.3 736.188 212.466C743.812 195.632 753.842 180.109 766.278 165.899C778.714 151.688 792.659 139.445 808.112 129.17C823.665 118.676 840.168 110.587 857.623 104.903C875.176 99.0001 892.713 96.0487 910.233 96.0487C927.753 96.0487 942.496 99.0001 954.463 104.903C966.768 110.587 975.945 118.676 981.992 129.17C988.379 139.445 991.354 151.688 990.918 165.899C990.482 180.109 986.452 195.632 978.828 212.466C971.204 229.3 961.125 244.931 948.59 259.361C936.154 273.571 922.04 285.923 906.247 296.417C890.694 306.911 874.141 315.11 856.588 321.012C839.374 326.697 822.006 329.539 804.486 329.539ZM828.547 276.413C840.307 276.413 851.575 273.79 862.351 268.543C873.227 263.077 883.122 255.535 892.039 245.915C901.196 236.296 908.645 225.146 914.388 212.466C920.131 199.786 922.731 188.745 922.189 179.344C921.886 169.943 918.723 162.62 912.7 157.373C906.775 151.907 897.933 149.174 886.173 149.174C874.653 149.174 863.384 151.798 852.368 157.045C841.592 162.292 831.625 169.725 822.469 179.344C813.651 188.745 806.371 199.786 800.628 212.466C794.885 225.146 792.116 236.296 792.319 245.915C792.762 255.535 795.947 263.077 801.871 268.543C808.135 273.79 817.027 276.413 828.547 276.413ZM962.861 324.292C979.495 287.563 996.327 250.397 1013.36 212.794C1030.39 175.19 1047.22 138.024 1063.85 101.296C1074.41 101.296 1084.97 101.296 1095.53 101.296C1106.09 101.296 1116.53 101.296 1126.85 101.296C1114.08 129.498 1101.16 158.028 1088.09 186.887C1075.12 215.527 1062.25 243.948 1049.48 272.15C1062.2 272.15 1075.04 272.15 1088 272.15C1100.96 272.15 1113.68 272.15 1126.16 272.15C1122.29 280.676 1118.33 289.421 1114.27 298.385C1110.31 307.13 1106.4 315.765 1102.54 324.292C1079.5 324.292 1056.22 324.292 1032.7 324.292C1009.18 324.292 985.901 324.292 962.861 324.292Z" fill="white"/>
</g>
<defs>
<filter id="filter0_d_29_13" x="20.998" y="52" width="1188.91" height="353" filterUnits="userSpaceOnUse" color-interpolation-filters="sRGB">
<feFlood flood-opacity="0" result="BackgroundImageFix"/>
<feColorMatrix in="SourceAlpha" type="matrix" values="0 0 0 0 0 0 0 0 0 0 0 0 0 0 0 0 0 0 127 0" result="hardAlpha"/>
<feOffset dy="4"/>
<feGaussianBlur stdDeviation="2"/>
<feComposite in2="hardAlpha" operator="out"/>
<feColorMatrix type="matrix" values="0 0 0 0 0 0 0 0 0 0 0 0 0 0 0 0 0 0 0.25 0"/>
<feBlend mode="normal" in2="BackgroundImageFix" result="effect1_dropShadow_29_13"/>
<feBlend mode="normal" in="SourceGraphic" in2="effect1_dropShadow_29_13" result="shape"/>
</filter>
<filter id="filter1_df_29_13" x="19.0742" y="79.3262" width="1098.81" height="311.113" filterUnits="userSpaceOnUse" color-interpolation-filters="sRGB">
<feFlood flood-opacity="0" result="BackgroundImageFix"/>
<feColorMatrix in="SourceAlpha" type="matrix" values="0 0 0 0 0 0 0 0 0 0 0 0 0 0 0 0 0 0 127 0" result="hardAlpha"/>
<feOffset dy="4"/>
<feGaussianBlur stdDeviation="2"/>
<feComposite in2="hardAlpha" operator="out"/>
<feColorMatrix type="matrix" values="0 0 0 0 0 0 0 0 0 0 0 0 0 0 0 0 0 0 0.25 0"/>
<feBlend mode="normal" in2="BackgroundImageFix" result="effect1_dropShadow_29_13"/>
<feBlend mode="normal" in="SourceGraphic" in2="effect1_dropShadow_29_13" result="shape"/>
<feGaussianBlur stdDeviation="25" result="effect2_foregroundBlur_29_13"/>
</filter>
<linearGradient id="paint0_linear_29_13" x1="498.712" y1="0" x2="498.712" y2="210.76" gradientUnits="userSpaceOnUse">
<stop stop-color="#0A0063"/>
<stop offset="1" stop-color="#0A0063"/>
</linearGradient>
</defs>
</svg>
