<svg width="1200" height="345" viewBox="0 0 1200 345" fill="none" xmlns="http://www.w3.org/2000/svg">
<rect width="1200" height="345" rx="50" fill="black"/>
<g filter="url(#filter0_df_29_13)">
<rect width="794.394" height="62.0806" rx="28.5997" transform="matrix(1 -0.000360086 0.00964595 0.999953 36.3486 98.1622)" fill="url(#paint0_linear_29_13)"/>
</g>
<path d="M251.5 140.983C257.102 129.385 262.772 117.65 268.508 105.776C274.244 93.9022 279.913 82.1665 285.516 70.5689C290.269 70.5689 295.023 70.5689 299.776 70.5689C304.606 70.5689 309.359 70.5689 314.036 70.5689C319.326 70.5689 323.547 71.4319 326.7 73.1577C329.887 74.8145 331.858 77.1616 332.614 80.1991C333.403 83.1675 332.814 86.6882 330.846 90.7612C329.446 93.6606 327.565 96.2839 325.204 98.631C322.844 100.978 320.053 102.946 316.833 104.533C319.219 106.259 320.589 108.503 320.942 111.264C321.328 113.956 320.72 116.959 319.119 120.273C317.118 124.415 314.179 128.039 310.302 131.146C306.501 134.252 302.076 136.668 297.025 138.394C292.052 140.12 286.766 140.983 281.17 140.983C276.263 140.983 271.318 140.983 266.335 140.983C261.351 140.983 256.406 140.983 251.5 140.983ZM309.871 92.5216C310.738 90.7267 310.825 89.277 310.132 88.1724C309.472 86.9989 308.146 86.4121 306.152 86.4121C304.772 86.4121 303.354 86.4121 301.897 86.4121C300.517 86.4121 299.137 86.4121 297.757 86.4121C296.823 88.345 295.856 90.347 294.856 92.418C293.889 94.42 292.922 96.4219 291.954 98.4239C293.334 98.4239 294.714 98.4239 296.094 98.4239C297.551 98.4239 298.969 98.4239 300.349 98.4239C302.343 98.4239 304.203 97.9062 305.93 96.8707C307.69 95.7661 309.004 94.3164 309.871 92.5216ZM299.795 118.616C300.729 116.683 300.734 115.165 299.811 114.06C298.998 112.886 297.365 112.3 294.911 112.3C293.301 112.3 291.691 112.3 290.081 112.3C288.471 112.3 286.861 112.3 285.251 112.3C284.217 114.44 283.184 116.58 282.15 118.72C281.116 120.86 280.082 123 279.048 125.14C280.658 125.14 282.268 125.14 283.878 125.14C285.488 125.14 287.098 125.14 288.708 125.14C291.162 125.14 293.362 124.553 295.309 123.379C297.332 122.206 298.828 120.618 299.795 118.616ZM396.507 114.267C394.406 118.616 391.661 122.551 388.274 126.072C384.997 129.523 381.262 132.492 377.072 134.977C372.958 137.462 368.591 139.361 363.971 140.672C359.427 141.984 354.855 142.64 350.255 142.64C345.578 142.64 341.602 141.984 338.326 140.672C335.049 139.361 332.538 137.497 330.792 135.081C329.156 132.595 328.366 129.627 328.424 126.175C328.481 122.724 329.561 118.823 331.662 114.474C335.163 107.226 338.698 99.9081 342.267 92.5216C345.835 85.135 349.37 77.8174 352.872 70.5689C356.245 70.5689 359.618 70.5689 362.992 70.5689C366.365 70.5689 369.7 70.5689 372.997 70.5689C369.562 77.6794 366.11 84.8243 362.642 92.0038C359.173 99.1833 355.722 106.328 352.287 113.439C350.486 117.166 350.185 120.169 351.385 122.448C352.584 124.726 354.986 125.865 358.589 125.865C362.192 125.865 365.656 124.726 368.98 122.448C372.38 120.169 374.981 117.166 376.782 113.439C380.217 106.328 383.668 99.1833 387.137 92.0038C390.605 84.8243 394.057 77.6794 397.492 70.5689C400.865 70.5689 404.238 70.5689 407.612 70.5689C410.985 70.5689 414.32 70.5689 417.617 70.5689C414.148 77.7484 410.63 85.0314 407.062 92.418C403.493 99.8046 399.975 107.088 396.507 114.267ZM414.288 140.983C416.323 136.772 418.374 132.526 420.441 128.246C422.509 123.966 424.56 119.721 426.594 115.51C426.099 108.123 425.578 100.633 425.029 93.0393C424.481 85.4456 423.96 77.9555 423.465 70.5689C426.991 70.5689 430.556 70.5689 434.16 70.5689C437.763 70.5689 441.328 70.5689 444.855 70.5689C445.044 74.78 445.254 79.0255 445.487 83.3056C445.829 87.5166 446.095 91.7277 446.284 95.9387C450.541 91.7277 454.837 87.5166 459.172 83.3056C463.539 79.0255 467.852 74.78 472.11 70.5689C475.636 70.5689 479.163 70.5689 482.69 70.5689C486.216 70.5689 489.743 70.5689 493.27 70.5689C485.638 77.9555 477.88 85.4456 469.994 93.0393C462.109 100.633 454.351 108.123 446.719 115.51C444.685 119.721 442.634 123.966 440.566 128.246C438.499 132.526 436.448 136.772 434.413 140.983C431.117 140.983 427.782 140.983 424.408 140.983C421.035 140.983 417.662 140.983 414.288 140.983ZM495.666 142.64C490.07 142.64 485.328 141.742 481.442 139.947C477.589 138.084 474.738 135.495 472.889 132.181C471.04 128.868 470.24 124.967 470.491 120.48C470.776 115.924 472.202 110.988 474.77 105.672C477.338 100.357 480.664 95.4555 484.748 90.9683C488.833 86.4811 493.383 82.6153 498.401 79.3707C503.452 76.0571 508.787 73.5029 514.408 71.708C520.061 69.8441 525.687 68.9121 531.283 68.9121C536.88 68.9121 541.566 69.8441 545.343 71.708C549.229 73.5029 552.097 76.0571 553.946 79.3707C555.905 82.6153 556.759 86.4811 556.508 90.9683C556.257 95.4555 554.848 100.357 552.28 105.672C549.712 110.988 546.369 115.924 542.251 120.48C538.167 124.967 533.561 128.868 528.434 132.181C523.383 135.495 518.031 138.084 512.377 139.947C506.833 141.742 501.263 142.64 495.666 142.64ZM503.77 125.865C507.527 125.865 511.147 125.036 514.631 123.379C518.148 121.654 521.368 119.272 524.292 116.235C527.293 113.197 529.761 109.676 531.695 105.672C533.629 101.668 534.547 98.1823 534.447 95.2139C534.425 92.2454 533.472 89.9328 531.589 88.276C529.739 86.5502 526.936 85.6872 523.179 85.6872C519.499 85.6872 515.879 86.5156 512.319 88.1724C508.835 89.8292 505.593 92.1764 502.592 95.2139C499.702 98.1823 497.289 101.668 495.355 105.672C493.421 109.676 492.448 113.197 492.437 116.235C492.503 119.272 493.461 121.654 495.311 123.379C497.27 125.036 500.09 125.865 503.77 125.865ZM546.299 140.983C551.902 129.385 557.572 117.65 563.308 105.776C569.044 93.9022 574.713 82.1665 580.316 70.5689C583.689 70.5689 587.062 70.5689 590.436 70.5689C593.809 70.5689 597.144 70.5689 600.441 70.5689C596.139 79.4742 591.787 88.4831 587.384 97.5955C583.016 106.639 578.68 115.613 574.378 124.519C578.442 124.519 582.543 124.519 586.683 124.519C590.823 124.519 594.887 124.519 598.873 124.519C597.573 127.211 596.239 129.972 594.871 132.803C593.537 135.564 592.22 138.291 590.919 140.983C583.559 140.983 576.123 140.983 568.609 140.983C561.096 140.983 553.659 140.983 546.299 140.983Z" fill="white"/>
<defs>
<filter id="filter0_df_29_13" x="6.62305" y="67.8864" width="854.443" height="122.343" filterUnits="userSpaceOnUse" color-interpolation-filters="sRGB">
<feFlood flood-opacity="0" result="BackgroundImageFix"/>
<feColorMatrix in="SourceAlpha" type="matrix" values="0 0 0 0 0 0 0 0 0 0 0 0 0 0 0 0 0 0 127 0" result="hardAlpha"/>
<feOffset dy="4"/>
<feGaussianBlur stdDeviation="2"/>
<feComposite in2="hardAlpha" operator="out"/>
<feColorMatrix type="matrix" values="0 0 0 0 0 0 0 0 0 0 0 0 0 0 0 0 0 0 0.25 0"/>
<feBlend mode="normal" in2="BackgroundImageFix" result="effect1_dropShadow_29_13"/>
<feBlend mode="normal" in="SourceGraphic" in2="effect1_dropShadow_29_13" result="shape"/>
<feGaussianBlur stdDeviation="15" result="effect2_foregroundBlur_29_13"/>
</filter>
<linearGradient id="paint0_linear_29_13" x1="397.197" y1="0" x2="397.197" y2="62.0806" gradientUnits="userSpaceOnUse">
<stop stop-color="#0A0064"/>
<stop offset="1" stop-color="#322889"/>
</linearGradient>
</defs>
</svg>
