<svg width="6080" height="3944" viewBox="0 0 6080 3944" fill="none" xmlns="http://www.w3.org/2000/svg">
<g filter="url(#filter0_dd_23_156)">
<path d="M1602.89 1639.76H4482.89V2383.76H1602.89V1639.76Z" fill="black"/>
<g filter="url(#filter1_f_23_156)">
<rect width="2877.14" height="728.252" rx="170.5" transform="matrix(0.999985 0.00547569 -0.00398926 0.999992 1602.91 1600)" fill="url(#paint0_linear_23_156)"/>
</g>
<path d="M1783.93 2233.23C1796.57 2161.54 1809.36 2088.99 1822.3 2015.59C1835.24 1942.19 1848.04 1869.64 1860.68 1797.95C1887.55 1797.95 1914.41 1797.95 1941.28 1797.95C1968.58 1797.95 1995.45 1797.95 2021.88 1797.95C2051.78 1797.95 2077.05 1803.28 2097.71 1813.95C2118.43 1824.19 2133.43 1838.7 2142.68 1857.48C2152.01 1875.83 2154.46 1897.59 2150.02 1922.77C2146.86 1940.69 2140.53 1956.91 2131.04 1971.42C2121.55 1985.93 2109 1998.09 2093.41 2007.91C2109.73 2018.58 2121.15 2032.45 2127.67 2049.52C2134.27 2066.16 2135.76 2084.72 2132.15 2105.21C2127.64 2130.81 2116.97 2153.22 2100.15 2172.42C2083.76 2191.62 2062.71 2206.56 2037 2217.23C2011.72 2227.9 1983.26 2233.23 1951.63 2233.23C1923.89 2233.23 1895.94 2233.23 1867.78 2233.23C1839.61 2233.23 1811.66 2233.23 1783.93 2233.23ZM2034.35 1933.65C2036.31 1922.56 2034.42 1913.6 2028.69 1906.77C2023.04 1899.51 2014.58 1895.89 2003.31 1895.89C1995.51 1895.89 1987.49 1895.89 1979.26 1895.89C1971.46 1895.89 1963.66 1895.89 1955.86 1895.89C1953.75 1907.83 1951.57 1920.21 1949.31 1933.01C1947.13 1945.39 1944.95 1957.76 1942.77 1970.14C1950.57 1970.14 1958.37 1970.14 1966.17 1970.14C1974.4 1970.14 1982.42 1970.14 1990.22 1970.14C2001.48 1970.14 2011.15 1966.94 2019.21 1960.54C2027.35 1953.71 2032.39 1944.75 2034.35 1933.65ZM2020.21 2094.96C2022.31 2083.02 2019.85 2073.63 2012.82 2066.8C2006.3 2059.54 1996.11 2055.92 1982.24 2055.92C1973.14 2055.92 1964.04 2055.92 1954.94 2055.92C1945.84 2055.92 1936.74 2055.92 1927.64 2055.92C1925.31 2069.15 1922.98 2082.38 1920.64 2095.6C1918.31 2108.83 1915.98 2122.06 1913.65 2135.29C1922.75 2135.29 1931.85 2135.29 1940.95 2135.29C1950.05 2135.29 1959.15 2135.29 1968.25 2135.29C1982.11 2135.29 1993.58 2131.66 2002.66 2124.41C2012.18 2117.16 2018.02 2107.34 2020.21 2094.96ZM2536.94 1902.29C2527.31 1956.91 2517.56 2012.17 2507.7 2068.08C2497.92 2123.56 2488.21 2178.61 2478.58 2233.23C2461.25 2233.23 2443.48 2233.23 2425.28 2233.23C2407.08 2233.23 2389.1 2233.23 2371.33 2233.23C2371.86 2230.24 2372.35 2227.47 2372.8 2224.91C2373.25 2222.35 2373.74 2219.58 2374.27 2216.59C2361.14 2224.7 2346.83 2230.88 2331.34 2235.15C2316.22 2239.85 2300.2 2242.19 2283.3 2242.19C2258.6 2242.19 2237.7 2236.65 2220.59 2225.55C2203.91 2214.45 2192 2198.45 2184.85 2177.54C2178.14 2156.63 2177.3 2131.88 2182.35 2103.29C2188.22 2070 2194.12 2036.5 2200.07 2002.79C2206.01 1969.07 2211.92 1935.57 2217.79 1902.29C2235.55 1902.29 2253.54 1902.29 2271.74 1902.29C2289.94 1902.29 2307.7 1902.29 2325.04 1902.29C2319.62 1933.01 2314.13 1964.17 2308.56 1995.74C2302.99 2027.32 2297.5 2058.48 2292.08 2089.2C2289.07 2106.27 2290.52 2120.14 2296.44 2130.81C2302.87 2141.05 2314.75 2146.17 2332.08 2146.17C2349.42 2146.17 2363.72 2141.27 2374.98 2131.45C2386.24 2121.64 2393.49 2107.55 2396.73 2089.2C2402.15 2058.48 2407.64 2027.32 2413.21 1995.74C2418.78 1964.17 2424.27 1933.01 2429.69 1902.29C2447.45 1902.29 2465.44 1902.29 2483.64 1902.29C2501.84 1902.29 2519.6 1902.29 2536.94 1902.29ZM2563.08 2335.65C2575.73 2313.03 2588.64 2290.2 2601.8 2267.16C2615.33 2244.54 2628.38 2222.14 2640.96 2199.94C2629.24 2150.87 2617.17 2101.37 2604.74 2051.44C2592.82 2001.08 2581 1951.36 2569.29 1902.29C2588.36 1902.29 2607.42 1902.29 2626.49 1902.29C2645.56 1902.29 2664.41 1902.29 2683.04 1902.29C2689.49 1929.6 2695.87 1957.34 2702.17 1985.5C2708.9 2013.67 2715.46 2041.62 2721.83 2069.36C2737.12 2041.62 2752.67 2013.67 2768.47 1985.5C2784.27 1957.34 2799.77 1929.6 2814.99 1902.29C2833.62 1902.29 2852.26 1902.29 2870.89 1902.29C2889.52 1902.29 2908.16 1902.29 2926.79 1902.29C2885.19 1973.55 2843.19 2045.89 2800.78 2119.29C2758.88 2192.26 2717.13 2264.38 2675.53 2335.65C2656.89 2335.65 2638.04 2335.65 2618.98 2335.65C2600.34 2335.65 2581.71 2335.65 2563.08 2335.65ZM3052.06 2243.47C3026.92 2243.47 3004.28 2239.21 2984.12 2230.67C2964.03 2221.71 2947.36 2209.33 2934.11 2193.54C2920.94 2177.33 2911.68 2158.55 2906.34 2137.21C2901.44 2115.88 2901.21 2092.62 2905.65 2067.44C2910.09 2042.26 2918.52 2019 2930.95 1997.67C2943.81 1976.33 2959.65 1957.76 2978.47 1941.97C2997.29 1926.18 3018.28 1914.02 3041.45 1905.49C3064.7 1896.53 3088.89 1892.04 3114.02 1892.04C3139.59 1892.04 3162.2 1896.53 3181.85 1905.49C3202.02 1914.02 3218.72 1926.18 3231.97 1941.97C3245.22 1957.76 3254.3 1976.33 3259.2 1997.67C3264.54 2019 3264.99 2042.26 3260.55 2067.44C3256.11 2092.62 3247.46 2115.88 3234.59 2137.21C3222.17 2158.55 3206.5 2177.33 3187.61 2193.54C3168.79 2209.33 3147.76 2221.71 3124.52 2230.67C3101.78 2239.21 3077.62 2243.47 3052.06 2243.47ZM3068.88 2148.09C3090.11 2148.09 3108.33 2140.63 3123.53 2125.69C3139.23 2110.33 3149.16 2090.91 3153.3 2067.44C3157.51 2043.54 3154.4 2024.34 3143.96 2009.83C3134.02 1994.89 3118.44 1987.42 3097.21 1987.42C3075.97 1987.42 3057.54 1994.89 3041.91 2009.83C3026.78 2024.34 3017.11 2043.54 3012.9 2067.44C3008.76 2090.91 3011.62 2110.33 3021.48 2125.69C3031.84 2140.63 3047.64 2148.09 3068.88 2148.09ZM3287.61 2233.23C3301.23 2155.99 3314.96 2078.11 3328.81 1999.59C3342.65 1921.06 3356.39 1843.18 3370.01 1765.94C3387.77 1765.94 3405.76 1765.94 3423.96 1765.94C3442.16 1765.94 3459.92 1765.94 3477.26 1765.94C3463.64 1843.18 3449.9 1921.06 3436.06 1999.59C3422.21 2078.11 3408.48 2155.99 3394.86 2233.23C3377.53 2233.23 3359.76 2233.23 3341.56 2233.23C3323.36 2233.23 3305.38 2233.23 3287.61 2233.23ZM3527.06 2243.47C3514.49 2243.47 3503.32 2240.49 3493.54 2234.51C3484.19 2228.54 3477.39 2220.43 3473.12 2210.19C3468.86 2199.94 3467.79 2188.85 3469.89 2176.9C3472 2164.95 3476.95 2154.07 3484.75 2144.25C3492.62 2134.01 3502.29 2125.9 3513.74 2119.93C3525.63 2113.95 3537.85 2110.97 3550.42 2110.97C3562.99 2110.97 3573.73 2113.95 3582.64 2119.93C3591.99 2125.9 3598.79 2134.01 3603.05 2144.25C3607.82 2154.07 3609.15 2164.95 3607.04 2176.9C3604.94 2188.85 3599.73 2199.94 3591.42 2210.19C3583.55 2220.43 3573.89 2228.54 3562.44 2234.51C3551.42 2240.49 3539.62 2243.47 3527.06 2243.47ZM3658.87 2233.23C3668.5 2178.61 3678.21 2123.56 3687.99 2068.08C3697.85 2012.17 3707.59 1956.91 3717.23 1902.29C3734.99 1902.29 3752.98 1902.29 3771.18 1902.29C3789.38 1902.29 3807.14 1902.29 3824.48 1902.29C3823.95 1905.27 3823.42 1908.26 3822.9 1911.25C3822.37 1914.24 3821.84 1917.22 3821.32 1920.21C3836.4 1910.82 3852.81 1903.78 3870.54 1899.09C3888.27 1894.39 3906.91 1893.11 3926.47 1895.25C3923.46 1912.32 3920.41 1929.6 3917.32 1947.1C3914.24 1964.59 3911.19 1981.88 3908.18 1998.95C3874.78 1994.25 3848.9 1997.24 3830.55 2007.91C3812.28 2018.15 3801.07 2035.01 3796.94 2058.48C3791.89 2087.07 3786.78 2116.09 3781.58 2145.53C3776.39 2174.98 3771.24 2204.21 3766.12 2233.23C3748.79 2233.23 3731.02 2233.23 3712.82 2233.23C3694.62 2233.23 3676.64 2233.23 3658.87 2233.23ZM4287.62 1902.29C4277.99 1956.91 4268.24 2012.17 4258.39 2068.08C4248.61 2123.56 4238.9 2178.61 4229.27 2233.23C4211.93 2233.23 4194.17 2233.23 4175.97 2233.23C4157.77 2233.23 4139.78 2233.23 4122.02 2233.23C4122.54 2230.24 4123.03 2227.47 4123.48 2224.91C4123.94 2222.35 4124.42 2219.58 4124.95 2216.59C4111.82 2224.7 4097.51 2230.88 4082.03 2235.15C4066.9 2239.85 4050.89 2242.19 4033.99 2242.19C4009.29 2242.19 3988.38 2236.65 3971.27 2225.55C3954.59 2214.45 3942.68 2198.45 3935.54 2177.54C3928.82 2156.63 3927.99 2131.88 3933.03 2103.29C3938.9 2070 3944.81 2036.5 3950.75 2002.79C3956.69 1969.07 3962.6 1935.57 3968.47 1902.29C3986.24 1902.29 4004.22 1902.29 4022.42 1902.29C4040.62 1902.29 4058.39 1902.29 4075.72 1902.29C4070.3 1933.01 4064.81 1964.17 4059.24 1995.74C4053.67 2027.32 4048.18 2058.48 4042.76 2089.2C4039.75 2106.27 4041.21 2120.14 4047.13 2130.81C4053.55 2141.05 4065.43 2146.17 4082.77 2146.17C4100.1 2146.17 4114.4 2141.27 4125.66 2131.45C4136.93 2121.64 4144.18 2107.55 4147.41 2089.2C4152.83 2058.48 4158.32 2027.32 4163.89 1995.74C4169.46 1964.17 4174.95 1933.01 4180.37 1902.29C4198.14 1902.29 4216.12 1902.29 4234.32 1902.29C4252.52 1902.29 4270.29 1902.29 4287.62 1902.29Z" fill="white"/>
</g>
<defs>
<filter id="filter0_dd_23_156" x="1596.68" y="1600.93" width="2890.21" height="790.825" filterUnits="userSpaceOnUse" color-interpolation-filters="sRGB">
<feFlood flood-opacity="0" result="BackgroundImageFix"/>
<feColorMatrix in="SourceAlpha" type="matrix" values="0 0 0 0 0 0 0 0 0 0 0 0 0 0 0 0 0 0 127 0" result="hardAlpha"/>
<feOffset dy="4"/>
<feGaussianBlur stdDeviation="2"/>
<feComposite in2="hardAlpha" operator="out"/>
<feColorMatrix type="matrix" values="0 0 0 0 0 0 0 0 0 0 0 0 0 0 0 0 0 0 0.25 0"/>
<feBlend mode="normal" in2="BackgroundImageFix" result="effect1_dropShadow_23_156"/>
<feColorMatrix in="SourceAlpha" type="matrix" values="0 0 0 0 0 0 0 0 0 0 0 0 0 0 0 0 0 0 127 0" result="hardAlpha"/>
<feOffset dy="4"/>
<feGaussianBlur stdDeviation="2"/>
<feComposite in2="hardAlpha" operator="out"/>
<feColorMatrix type="matrix" values="0 0 0 0 0 0 0 0 0 0 0 0 0 0 0 0 0 0 0.25 0"/>
<feBlend mode="normal" in2="effect1_dropShadow_23_156" result="effect2_dropShadow_23_156"/>
<feBlend mode="normal" in="SourceGraphic" in2="effect2_dropShadow_23_156" result="shape"/>
</filter>
<filter id="filter1_f_23_156" x="0.678955" y="0.930908" width="6078.64" height="3942.14" filterUnits="userSpaceOnUse" color-interpolation-filters="sRGB">
<feFlood flood-opacity="0" result="BackgroundImageFix"/>
<feBlend mode="normal" in="SourceGraphic" in2="BackgroundImageFix" result="shape"/>
<feGaussianBlur stdDeviation="800" result="effect1_foregroundBlur_23_156"/>
</filter>
<linearGradient id="paint0_linear_23_156" x1="1438.57" y1="0" x2="1438.57" y2="728.252" gradientUnits="userSpaceOnUse">
<stop stop-color="#1900FF"/>
<stop offset="1" stop-color="#1900FF"/>
</linearGradient>
</defs>
</svg>
