<svg width="1945" height="708" viewBox="0 0 1945 708" fill="none" xmlns="http://www.w3.org/2000/svg">
<g filter="url(#filter0_d_29_13)">
<rect x="4" width="1900" height="700" rx="50" fill="black"/>
<g filter="url(#filter1_df_29_13)">
<rect width="1684.89" height="363.07" rx="28.5997" transform="matrix(1 -0.000454137 0.00764843 0.999971 110 144.765)" fill="url(#paint0_linear_29_13)"/>
</g>
<path d="M108.495 508.007C130.53 450.483 152.826 392.274 175.385 333.38C197.944 274.486 220.24 216.277 242.274 158.752C265.008 158.752 287.741 158.752 310.474 158.752C333.574 158.752 356.308 158.752 378.674 158.752C403.974 158.752 424.518 163.032 440.306 171.593C456.225 179.81 466.616 191.452 471.478 206.518C476.472 221.242 475.1 238.704 467.361 258.906C461.853 273.287 453.936 286.299 443.61 297.941C433.284 309.583 420.746 319.341 405.996 327.217C418.117 335.777 425.588 346.905 428.408 360.601C431.36 373.955 429.688 388.85 423.392 405.285C415.523 425.83 402.954 443.806 385.685 459.214C368.783 474.623 348.609 486.607 325.164 495.167C302.085 503.727 277.162 508.007 250.395 508.007C226.929 508.007 203.279 508.007 179.445 508.007C155.612 508.007 131.962 508.007 108.495 508.007ZM367.767 267.638C371.177 258.735 370.998 251.545 367.23 246.066C363.593 240.245 357.007 237.335 347.474 237.335C340.874 237.335 334.091 237.335 327.124 237.335C320.524 237.335 313.924 237.335 307.324 237.335C303.652 246.922 299.848 256.852 295.914 267.124C292.11 277.054 288.307 286.984 284.503 296.914C291.103 296.914 297.703 296.914 304.303 296.914C311.27 296.914 318.053 296.914 324.653 296.914C334.186 296.914 342.87 294.345 350.704 289.209C358.669 283.731 364.357 276.54 367.767 267.638ZM330.29 397.068C333.962 387.48 333.364 379.947 328.496 374.469C324.126 368.648 316.074 365.737 304.341 365.737C296.641 365.737 288.941 365.737 281.241 365.737C273.541 365.737 265.841 365.737 258.141 365.737C254.075 376.352 250.009 386.967 245.943 397.581C241.877 408.196 237.811 418.81 233.746 429.425C241.446 429.425 249.146 429.425 256.846 429.425C264.546 429.425 272.246 429.425 279.946 429.425C291.679 429.425 301.96 426.515 310.79 420.694C319.986 414.873 326.486 406.997 330.29 397.068ZM791.039 375.496C782.777 397.068 771.267 416.585 756.512 434.048C742.254 451.168 725.614 465.891 706.593 478.218C687.938 490.545 667.831 499.961 646.272 506.467C625.08 512.972 603.484 516.225 581.484 516.225C559.118 516.225 539.83 512.972 523.622 506.467C507.414 499.961 494.639 490.716 485.296 478.732C476.451 466.405 471.457 451.681 470.315 434.561C469.173 417.441 472.733 398.095 480.996 376.523C494.767 340.57 508.67 304.275 522.704 267.638C536.737 231 550.64 194.705 564.411 158.752C580.544 158.752 596.678 158.752 612.811 158.752C628.944 158.752 644.894 158.752 660.661 158.752C647.152 194.02 633.577 229.459 619.937 265.07C606.297 300.68 592.722 336.119 579.213 371.387C572.131 389.877 571.926 404.772 578.597 416.071C585.269 427.371 597.222 433.02 614.455 433.02C631.689 433.02 647.786 427.371 662.747 416.071C678.076 404.772 689.281 389.877 696.363 371.387C709.872 336.119 723.447 300.68 737.087 265.07C750.727 229.459 764.302 194.02 777.811 158.752C793.945 158.752 810.078 158.752 826.211 158.752C842.345 158.752 858.295 158.752 874.061 158.752C860.421 194.363 846.584 230.487 832.55 267.124C818.517 303.762 804.68 339.886 791.039 375.496ZM887.05 508.007C895.051 487.121 903.117 466.063 911.249 444.833C919.38 423.604 927.446 402.546 935.447 381.659C930.047 345.022 924.478 307.871 918.738 270.206C912.999 232.541 907.429 195.39 902.03 158.752C918.896 158.752 935.946 158.752 953.18 158.752C970.413 158.752 987.463 158.752 1004.33 158.752C1006.96 179.639 1009.71 200.697 1012.58 221.926C1015.95 242.813 1018.95 263.7 1021.58 284.587C1040.21 263.7 1059.03 242.813 1078.03 221.926C1097.16 200.697 1116.05 179.639 1134.68 158.752C1151.55 158.752 1168.41 158.752 1185.28 158.752C1202.15 158.752 1219.01 158.752 1235.88 158.752C1202.41 195.39 1168.38 232.541 1133.79 270.206C1099.19 307.871 1065.16 345.022 1031.7 381.659C1023.7 402.546 1015.63 423.604 1007.5 444.833C999.367 466.063 991.301 487.121 983.3 508.007C967.534 508.007 951.584 508.007 935.45 508.007C919.317 508.007 903.184 508.007 887.05 508.007ZM1276.93 516.225C1250.16 516.225 1227.12 511.774 1207.79 502.871C1188.6 493.626 1173.9 480.786 1163.7 464.351C1153.49 447.915 1148.07 428.569 1147.43 406.313C1146.92 383.714 1151.71 359.232 1161.81 332.866C1171.91 306.501 1185.81 282.19 1203.5 259.934C1221.19 237.677 1241.37 218.502 1264.03 202.409C1286.83 185.974 1311.3 173.305 1337.44 164.402C1363.72 155.157 1390.24 150.535 1417 150.535C1443.77 150.535 1466.57 155.157 1485.39 164.402C1504.72 173.305 1519.48 185.974 1529.68 202.409C1540.39 218.502 1546.06 237.677 1546.7 259.934C1547.34 282.19 1542.61 306.501 1532.51 332.866C1522.41 359.232 1508.45 383.714 1490.63 406.313C1472.94 428.569 1452.51 447.915 1429.35 464.351C1406.55 480.786 1382.02 493.626 1355.74 502.871C1329.97 511.774 1303.7 516.225 1276.93 516.225ZM1308.8 433.02C1326.77 433.02 1343.74 428.911 1359.72 420.694C1375.83 412.133 1390.26 400.32 1403 385.255C1416.1 370.189 1426.46 352.726 1434.06 332.866C1441.67 313.007 1444.63 295.715 1442.93 280.992C1441.61 266.268 1436.1 254.797 1426.41 246.58C1416.86 238.02 1403.1 233.739 1385.13 233.739C1367.53 233.739 1350.56 237.848 1334.21 246.066C1318.23 254.284 1303.69 265.926 1290.58 280.992C1277.98 295.715 1267.87 313.007 1260.26 332.866C1252.66 352.726 1249.45 370.189 1250.65 385.255C1252.21 400.32 1257.77 412.133 1267.32 420.694C1277.37 428.911 1291.2 433.02 1308.8 433.02ZM1518.41 508.007C1540.44 450.483 1562.74 392.274 1585.3 333.38C1607.86 274.486 1630.15 216.277 1652.19 158.752C1668.32 158.752 1684.45 158.752 1700.59 158.752C1716.72 158.752 1732.67 158.752 1748.44 158.752C1731.52 202.923 1714.4 247.607 1697.09 292.805C1679.91 337.66 1662.86 382.173 1645.94 426.343C1665.37 426.343 1684.99 426.343 1704.79 426.343C1724.59 426.343 1744.02 426.343 1763.09 426.343C1757.97 439.697 1752.73 453.394 1747.35 467.432C1742.1 481.128 1736.92 494.654 1731.81 508.007C1696.61 508.007 1661.04 508.007 1625.11 508.007C1589.17 508.007 1553.61 508.007 1518.41 508.007Z" fill="white"/>
</g>
<defs>
<filter id="filter0_d_29_13" x="0" y="0" width="1908" height="708" filterUnits="userSpaceOnUse" color-interpolation-filters="sRGB">
<feFlood flood-opacity="0" result="BackgroundImageFix"/>
<feColorMatrix in="SourceAlpha" type="matrix" values="0 0 0 0 0 0 0 0 0 0 0 0 0 0 0 0 0 0 127 0" result="hardAlpha"/>
<feOffset dy="4"/>
<feGaussianBlur stdDeviation="2"/>
<feComposite in2="hardAlpha" operator="out"/>
<feColorMatrix type="matrix" values="0 0 0 0 0 0 0 0 0 0 0 0 0 0 0 0 0 0 0.25 0"/>
<feBlend mode="normal" in2="BackgroundImageFix" result="effect1_dropShadow_29_13"/>
<feBlend mode="normal" in="SourceGraphic" in2="effect1_dropShadow_29_13" result="shape"/>
</filter>
<filter id="filter1_df_29_13" x="60.2178" y="94.0129" width="1787.23" height="463.799" filterUnits="userSpaceOnUse" color-interpolation-filters="sRGB">
<feFlood flood-opacity="0" result="BackgroundImageFix"/>
<feColorMatrix in="SourceAlpha" type="matrix" values="0 0 0 0 0 0 0 0 0 0 0 0 0 0 0 0 0 0 127 0" result="hardAlpha"/>
<feOffset dy="4"/>
<feGaussianBlur stdDeviation="2"/>
<feComposite in2="hardAlpha" operator="out"/>
<feColorMatrix type="matrix" values="0 0 0 0 0 0 0 0 0 0 0 0 0 0 0 0 0 0 0.25 0"/>
<feBlend mode="normal" in2="BackgroundImageFix" result="effect1_dropShadow_29_13"/>
<feBlend mode="normal" in="SourceGraphic" in2="effect1_dropShadow_29_13" result="shape"/>
<feGaussianBlur stdDeviation="25" result="effect2_foregroundBlur_29_13"/>
</filter>
<linearGradient id="paint0_linear_29_13" x1="842.444" y1="0" x2="842.444" y2="363.07" gradientUnits="userSpaceOnUse">
<stop stop-color="#0E0181"/>
<stop offset="1" stop-color="#0E0181"/>
</linearGradient>
</defs>
</svg>
