<svg width="1050" height="335" viewBox="0 0 1050 335" fill="none" xmlns="http://www.w3.org/2000/svg">
<rect width="1050" height="335" rx="50" fill="black"/>
<g filter="url(#filter0_df_29_13)">
<rect width="695.095" height="60.2806" rx="28.5997" transform="matrix(1 -0.000399599 0.00869223 0.999962 31.8047 95.3169)" fill="url(#paint0_linear_29_13)"/>
</g>
<path d="M196.985 141.748C202.126 129.938 207.328 117.988 212.591 105.897C217.855 93.8066 223.057 81.8564 228.198 70.0469C232.951 70.0469 237.704 70.0469 242.458 70.0469C247.288 70.0469 252.041 70.0469 256.718 70.0469C262.008 70.0469 266.264 70.9256 269.485 72.6829C272.738 74.37 274.802 76.76 275.679 79.853C276.586 82.8757 276.138 86.4607 274.332 90.6081C273.047 93.5605 271.271 96.2317 269.004 98.6218C266.736 101.012 264.024 103.015 260.867 104.632C263.322 106.389 264.781 108.674 265.244 111.486C265.737 114.227 265.249 117.285 263.78 120.659C261.944 124.877 259.149 128.567 255.396 131.731C251.719 134.894 247.389 137.354 242.408 139.112C237.503 140.869 232.252 141.748 226.655 141.748C221.748 141.748 216.803 141.748 211.82 141.748C206.837 141.748 201.892 141.748 196.985 141.748ZM253.427 92.4007C254.222 90.573 254.252 89.0968 253.515 87.9721C252.808 86.7771 251.458 86.1796 249.465 86.1796C248.085 86.1796 246.667 86.1796 245.21 86.1796C243.83 86.1796 242.45 86.1796 241.07 86.1796C240.213 88.1478 239.326 90.1864 238.408 92.2952C237.52 94.3338 236.633 96.3723 235.745 98.4109C237.125 98.4109 238.505 98.4109 239.885 98.4109C241.342 98.4109 242.76 98.4109 244.14 98.4109C246.134 98.4109 247.973 97.8837 249.659 96.8292C251.375 95.7045 252.631 94.2283 253.427 92.4007ZM244.39 118.972C245.246 117.004 245.191 115.457 244.224 114.333C243.365 113.138 241.708 112.54 239.255 112.54C237.645 112.54 236.035 112.54 234.425 112.54C232.815 112.54 231.205 112.54 229.595 112.54C228.646 114.719 227.697 116.898 226.749 119.078C225.8 121.257 224.852 123.436 223.903 125.615C225.513 125.615 227.123 125.615 228.733 125.615C230.343 125.615 231.953 125.615 233.563 125.615C236.016 125.615 238.193 125.017 240.093 123.822C242.07 122.627 243.502 121.011 244.39 118.972ZM340.928 114.544C339.001 118.972 336.413 122.979 333.166 126.564C330.026 130.079 326.41 133.101 322.318 135.632C318.303 138.163 314.012 140.096 309.444 141.431C304.952 142.767 300.406 143.435 295.806 143.435C291.13 143.435 287.127 142.767 283.799 141.431C280.47 140.096 277.885 138.198 276.042 135.737C274.307 133.207 273.4 130.184 273.32 126.669C273.24 123.155 274.164 119.183 276.092 114.754C279.305 107.373 282.548 99.9222 285.823 92.4007C289.097 84.8791 292.341 77.4278 295.554 70.0469C298.927 70.0469 302.3 70.0469 305.674 70.0469C309.047 70.0469 312.382 70.0469 315.679 70.0469C312.527 77.2873 309.36 84.5628 306.177 91.8734C302.995 99.1841 299.827 106.46 296.676 113.7C295.023 117.496 294.842 120.554 296.132 122.873C297.422 125.193 299.869 126.353 303.472 126.353C307.076 126.353 310.494 125.193 313.727 122.873C317.037 120.554 319.518 117.496 321.171 113.7C324.322 106.46 327.49 99.1841 330.672 91.8734C333.855 84.5628 337.022 77.2873 340.174 70.0469C343.547 70.0469 346.92 70.0469 350.294 70.0469C353.667 70.0469 357.002 70.0469 360.299 70.0469C357.116 77.3576 353.888 84.7737 350.614 92.2952C347.339 99.8168 344.111 107.233 340.928 114.544ZM359.774 141.748C361.64 137.46 363.522 133.137 365.42 128.778C367.317 124.42 369.199 120.097 371.065 115.809C370.276 108.287 369.457 100.66 368.606 92.9279C367.755 85.1954 366.936 77.5684 366.147 70.0469C369.673 70.0469 373.238 70.0469 376.842 70.0469C380.445 70.0469 384.01 70.0469 387.537 70.0469C387.893 74.3349 388.273 78.658 388.676 83.0163C389.186 87.3043 389.619 91.5923 389.976 95.8803C394.066 91.5923 398.194 87.3043 402.361 83.0163C406.558 78.658 410.702 74.3349 414.792 70.0469C418.318 70.0469 421.845 70.0469 425.372 70.0469C428.898 70.0469 432.425 70.0469 435.952 70.0469C428.614 77.5684 421.154 85.1954 413.571 92.9279C405.988 100.66 398.528 108.287 391.19 115.809C389.324 120.097 387.442 124.42 385.545 128.778C383.647 133.137 381.765 137.46 379.899 141.748C376.602 141.748 373.267 141.748 369.894 141.748C366.52 141.748 363.147 141.748 359.774 141.748ZM441.218 143.435C435.621 143.435 430.844 142.521 426.886 140.693C422.959 138.795 420.005 136.159 418.024 132.785C416.043 129.411 415.088 125.439 415.161 120.87C415.263 116.231 416.493 111.205 418.849 105.792C421.206 100.379 424.337 95.3882 428.242 90.819C432.148 86.2499 436.545 82.3133 441.433 79.0095C446.352 75.6353 451.586 73.0344 457.135 71.2067C462.714 69.3088 468.303 68.3598 473.899 68.3598C479.496 68.3598 484.219 69.3088 488.07 71.2067C492.028 73.0344 494.997 75.6353 496.978 79.0095C499.067 82.3133 500.075 86.2499 500.002 90.819C499.93 95.3882 498.716 100.379 496.359 105.792C494.003 111.205 490.857 116.231 486.921 120.87C483.015 125.439 478.564 129.411 473.569 132.785C468.65 136.159 463.401 138.795 457.821 140.693C452.349 142.521 446.814 143.435 441.218 143.435ZM448.654 126.353C452.41 126.353 455.998 125.51 459.415 123.822C462.864 122.065 465.989 119.64 468.792 116.547C471.672 113.454 474 109.869 475.774 105.792C477.549 101.715 478.328 98.1648 478.11 95.1422C477.97 92.1195 476.925 89.7646 474.976 88.0775C473.057 86.3201 470.22 85.4415 466.463 85.4415C462.783 85.4415 459.196 86.285 455.702 87.9721C452.284 89.6592 449.135 92.0492 446.255 95.1422C443.483 98.1648 441.209 101.715 439.434 105.792C437.66 109.869 436.827 113.454 436.937 116.547C437.124 119.64 438.177 122.065 440.095 123.822C442.121 125.51 444.974 126.353 448.654 126.353ZM491.785 141.748C496.926 129.938 502.128 117.988 507.391 105.897C512.655 93.8066 517.857 81.8564 522.998 70.0469C526.371 70.0469 529.744 70.0469 533.118 70.0469C536.491 70.0469 539.826 70.0469 543.123 70.0469C539.175 79.1149 535.182 88.2884 531.142 97.5673C527.134 106.776 523.156 115.914 519.208 124.982C523.271 124.982 527.373 124.982 531.513 124.982C535.653 124.982 539.716 124.982 543.703 124.982C542.51 127.724 541.286 130.536 540.031 133.418C538.807 136.23 537.598 139.006 536.405 141.748C529.045 141.748 521.608 141.748 514.095 141.748C506.581 141.748 499.145 141.748 491.785 141.748Z" fill="white"/>
<defs>
<filter id="filter0_df_29_13" x="2.05176" y="65.0506" width="755.124" height="120.533" filterUnits="userSpaceOnUse" color-interpolation-filters="sRGB">
<feFlood flood-opacity="0" result="BackgroundImageFix"/>
<feColorMatrix in="SourceAlpha" type="matrix" values="0 0 0 0 0 0 0 0 0 0 0 0 0 0 0 0 0 0 127 0" result="hardAlpha"/>
<feOffset dy="4"/>
<feGaussianBlur stdDeviation="2"/>
<feComposite in2="hardAlpha" operator="out"/>
<feColorMatrix type="matrix" values="0 0 0 0 0 0 0 0 0 0 0 0 0 0 0 0 0 0 0.25 0"/>
<feBlend mode="normal" in2="BackgroundImageFix" result="effect1_dropShadow_29_13"/>
<feBlend mode="normal" in="SourceGraphic" in2="effect1_dropShadow_29_13" result="shape"/>
<feGaussianBlur stdDeviation="15" result="effect2_foregroundBlur_29_13"/>
</filter>
<linearGradient id="paint0_linear_29_13" x1="347.547" y1="0" x2="347.547" y2="60.2806" gradientUnits="userSpaceOnUse">
<stop stop-color="#0A0064"/>
<stop offset="1" stop-color="#322889"/>
</linearGradient>
</defs>
</svg>
