<svg width="434" height="118" viewBox="0 0 434 118" fill="none" xmlns="http://www.w3.org/2000/svg">
<g filter="url(#filter0_dd_23_189)">
<path d="M429.303 97.97C429.303 100.731 427.064 102.97 424.303 102.97H34.3027C31.5413 102.97 29.3027 100.731 29.3027 97.97V20.97C29.3027 18.2086 31.5413 15.97 34.3027 15.97H424.303C427.064 15.97 429.303 18.2086 429.303 20.97V97.97Z" fill="black"/>
<g filter="url(#filter1_f_23_189)">
<rect width="365.015" height="87" rx="31.8403" transform="matrix(0.999998 -0.0021683 0.00160196 0.999999 51 15.7915)" fill="url(#paint0_linear_23_189)"/>
</g>
<path d="M173.393 40.0225C174.275 37.4832 175.167 34.9136 176.07 32.3138C176.972 29.7141 177.864 27.1445 178.746 24.6052C179.738 24.6075 180.73 24.6097 181.722 24.612C182.73 24.6143 183.722 24.6166 184.698 24.6188C185.802 24.6214 186.704 24.8125 187.405 25.1923C188.111 25.557 188.581 26.0723 188.814 26.7385C189.052 27.3895 189.017 28.1609 188.707 29.0527C188.486 29.6875 188.159 30.2616 187.725 30.7749C187.29 31.2882 186.757 31.7181 186.124 32.0646C186.665 32.444 187.006 32.9364 187.148 33.5418C187.296 34.1321 187.243 34.79 186.992 35.5155C186.677 36.4224 186.153 37.2154 185.421 37.8944C184.705 38.5735 183.841 39.101 182.83 39.4768C181.835 39.8527 180.753 40.0393 179.585 40.0367C178.561 40.0343 177.529 40.032 176.489 40.0296C175.449 40.0272 174.417 40.0248 173.393 40.0225ZM184.373 29.4285C184.51 29.0355 184.492 28.7178 184.32 28.4753C184.153 28.2178 183.862 28.0886 183.446 28.0876C183.158 28.0869 182.862 28.0863 182.558 28.0856C182.27 28.0849 181.982 28.0842 181.694 28.0836C181.547 28.5068 181.394 28.9451 181.237 29.3986C181.085 29.8369 180.933 30.2753 180.78 30.7136C181.068 30.7143 181.356 30.7149 181.644 30.7156C181.948 30.7163 182.244 30.717 182.532 30.7176C182.948 30.7186 183.324 30.606 183.659 30.3798C183.998 30.1386 184.237 29.8215 184.373 29.4285ZM182.918 35.1431C183.064 34.7199 183.028 34.3871 182.808 34.1445C182.609 33.8869 182.254 33.7575 181.742 33.7563C181.406 33.7556 181.07 33.7548 180.734 33.754C180.398 33.7533 180.062 33.7525 179.726 33.7517C179.563 34.2203 179.4 34.6888 179.238 35.1574C179.075 35.626 178.912 36.0945 178.75 36.5631C179.086 36.5639 179.422 36.5646 179.758 36.5654C180.094 36.5662 180.43 36.567 180.766 36.5677C181.278 36.5689 181.722 36.4413 182.099 36.185C182.493 35.9288 182.765 35.5815 182.918 35.1431ZM202.993 34.2361C202.662 35.1884 202.187 36.0495 201.568 36.8196C200.969 37.5746 200.264 38.2234 199.451 38.7661C198.654 39.3089 197.789 39.7229 196.858 40.0082C195.942 40.2935 195.004 40.4351 194.044 40.4329C193.068 40.4306 192.222 40.285 191.506 39.9959C190.789 39.7069 190.219 39.2971 189.795 38.7667C189.392 38.2212 189.153 37.5702 189.08 36.8137C189.006 36.0572 189.135 35.2028 189.465 34.2505C190.016 32.6635 190.572 31.0613 191.134 29.444C191.695 27.8267 192.252 26.2245 192.803 24.6374C193.507 24.639 194.211 24.6406 194.915 24.6422C195.619 24.6438 196.315 24.6454 197.003 24.647C196.462 26.2039 195.919 27.7683 195.373 29.3402C194.828 30.9122 194.284 32.4766 193.744 34.0334C193.461 34.8496 193.472 35.5077 193.779 36.0076C194.086 36.5075 194.615 36.7583 195.367 36.76C196.119 36.7617 196.814 36.5137 197.451 36.016C198.104 35.5183 198.573 34.8614 198.856 34.0451C199.396 32.4883 199.94 30.9239 200.485 29.3519C201.031 27.78 201.574 26.2156 202.115 24.6587C202.819 24.6603 203.523 24.662 204.227 24.6636C204.931 24.6652 205.627 24.6668 206.315 24.6684C205.769 26.2403 205.215 27.8349 204.654 29.4523C204.092 31.0696 203.539 32.6642 202.993 34.2361ZM207.367 40.1003C207.687 39.1783 208.009 38.2487 208.335 37.3116C208.66 36.3745 208.983 35.4449 209.303 34.5229C209.016 32.9036 208.722 31.2617 208.419 29.597C208.116 27.9324 207.822 26.2904 207.535 24.6712C208.271 24.6728 209.015 24.6745 209.767 24.6763C210.519 24.678 211.263 24.6797 211.999 24.6814C212.143 25.6045 212.292 26.5351 212.447 27.4733C212.623 28.3965 212.783 29.3196 212.927 30.2427C213.711 29.3217 214.503 28.4008 215.303 27.4799C216.108 26.5439 216.903 25.6154 217.687 24.6944C218.423 24.6961 219.159 24.6978 219.895 24.6995C220.631 24.7012 221.367 24.7028 222.103 24.7045C220.694 26.3199 219.26 27.9579 217.803 29.6185C216.346 31.2792 214.912 32.9172 213.503 34.5325C213.183 35.4545 212.86 36.3841 212.535 37.3212C212.209 38.2584 211.887 39.1879 211.567 40.11C210.879 40.1084 210.183 40.1068 209.479 40.1052C208.775 40.1036 208.071 40.1019 207.367 40.1003ZM224.391 40.5024C223.223 40.4997 222.211 40.3007 221.355 39.9055C220.505 39.4951 219.846 38.9263 219.378 38.1992C218.91 37.472 218.646 36.6167 218.587 35.6333C218.534 34.6348 218.709 33.5536 219.113 32.3898C219.517 31.2259 220.09 30.1532 220.831 29.1717C221.572 28.1901 222.426 27.3449 223.392 26.6362C224.364 25.9123 225.414 25.355 226.543 24.9643C227.676 24.5585 228.827 24.3569 229.995 24.3596C231.163 24.3622 232.164 24.5688 232.999 24.9791C233.854 25.3744 234.516 25.9356 234.984 26.6627C235.474 27.3748 235.748 28.2226 235.807 29.206C235.865 30.1894 235.693 31.263 235.289 32.4268C234.885 33.5907 234.31 34.671 233.563 35.6676C232.822 36.6492 231.958 37.5019 230.97 38.2257C229.998 38.9496 228.945 39.5144 227.811 39.9203C226.699 40.311 225.559 40.5051 224.391 40.5024ZM225.666 36.8294C226.45 36.8312 227.185 36.6514 227.871 36.2899C228.562 35.9133 229.175 35.3929 229.71 34.7285C230.261 34.0642 230.689 33.2937 230.993 32.417C231.297 31.5403 231.402 30.7767 231.308 30.126C231.23 29.4753 230.973 28.968 230.539 28.6039C230.11 28.2248 229.504 28.0343 228.72 28.0325C227.952 28.0308 227.217 28.2106 226.515 28.572C225.829 28.9335 225.211 29.4464 224.66 30.1107C224.13 30.76 223.713 31.5229 223.409 32.3996C223.105 33.2763 222.989 34.0475 223.062 34.7133C223.151 35.3791 223.41 35.9015 223.839 36.2807C224.289 36.6448 224.898 36.8277 225.666 36.8294ZM234.917 40.1635C235.798 37.6241 236.69 35.0546 237.593 32.4548C238.495 29.855 239.388 27.2855 240.269 24.7462C240.973 24.7478 241.677 24.7494 242.381 24.751C243.085 24.7526 243.781 24.7542 244.469 24.7558C243.792 26.7056 243.107 28.6781 242.415 30.6733C241.727 32.6534 241.045 34.6183 240.368 36.5682C241.216 36.5701 242.072 36.5721 242.936 36.574C243.8 36.576 244.648 36.578 245.48 36.5799C245.275 37.1694 245.066 37.774 244.85 38.3937C244.641 38.9983 244.433 39.5953 244.229 40.1848C242.693 40.1813 241.141 40.1777 239.573 40.1741C238.005 40.1705 236.453 40.167 234.917 40.1635Z" fill="white"/>
</g>
<defs>
<filter id="filter0_dd_23_189" x="25.3027" y="15.069" width="408" height="95.901" filterUnits="userSpaceOnUse" color-interpolation-filters="sRGB">
<feFlood flood-opacity="0" result="BackgroundImageFix"/>
<feColorMatrix in="SourceAlpha" type="matrix" values="0 0 0 0 0 0 0 0 0 0 0 0 0 0 0 0 0 0 127 0" result="hardAlpha"/>
<feOffset dy="4"/>
<feGaussianBlur stdDeviation="2"/>
<feComposite in2="hardAlpha" operator="out"/>
<feColorMatrix type="matrix" values="0 0 0 0 0 0 0 0 0 0 0 0 0 0 0 0 0 0 0.25 0"/>
<feBlend mode="normal" in2="BackgroundImageFix" result="effect1_dropShadow_23_189"/>
<feColorMatrix in="SourceAlpha" type="matrix" values="0 0 0 0 0 0 0 0 0 0 0 0 0 0 0 0 0 0 127 0" result="hardAlpha"/>
<feOffset dy="4"/>
<feGaussianBlur stdDeviation="2"/>
<feComposite in2="hardAlpha" operator="out"/>
<feColorMatrix type="matrix" values="0 0 0 0 0 0 0 0 0 0 0 0 0 0 0 0 0 0 0.25 0"/>
<feBlend mode="normal" in2="effect1_dropShadow_23_189" result="effect2_dropShadow_23_189"/>
<feBlend mode="normal" in="SourceGraphic" in2="effect2_dropShadow_23_189" result="shape"/>
</filter>
<filter id="filter1_f_23_189" x="36.0508" y="0.0689697" width="395.052" height="117.653" filterUnits="userSpaceOnUse" color-interpolation-filters="sRGB">
<feFlood flood-opacity="0" result="BackgroundImageFix"/>
<feBlend mode="normal" in="SourceGraphic" in2="BackgroundImageFix" result="shape"/>
<feGaussianBlur stdDeviation="7.5" result="effect1_foregroundBlur_23_189"/>
</filter>
<linearGradient id="paint0_linear_23_189" x1="182.508" y1="0" x2="182.508" y2="87" gradientUnits="userSpaceOnUse">
<stop/>
<stop offset="1" stop-color="#1900FF"/>
</linearGradient>
</defs>
</svg>
