<svg width="2888" height="752" viewBox="0 0 2888 752" fill="none" xmlns="http://www.w3.org/2000/svg">
<g filter="url(#filter0_dd_23_156)">
<path d="M4 0.491943H2884V744H4V0.491943Z" fill="black"/>
<path d="M70.3237 603.687C83.4515 529.236 96.7356 453.898 110.176 377.674C123.616 301.45 136.9 226.112 150.028 151.66C177.928 151.66 205.828 151.66 233.728 151.66C262.078 151.66 289.978 151.66 317.428 151.66C348.478 151.66 374.726 157.2 396.173 168.279C417.698 178.915 433.266 193.982 442.877 213.482C452.567 232.538 455.107 255.139 450.497 281.286C447.215 299.899 440.645 316.739 430.789 331.806C420.932 346.874 407.905 359.504 391.708 369.697C408.654 380.776 420.514 395.179 427.289 412.905C434.141 430.189 435.692 449.466 431.941 470.738C427.253 497.328 416.175 520.594 398.709 540.536C381.693 560.479 359.833 575.989 333.129 587.069C306.876 598.148 277.324 603.687 244.474 603.687C215.674 603.687 186.649 603.687 157.399 603.687C128.149 603.687 99.1237 603.687 70.3237 603.687ZM330.379 292.586C332.411 281.064 330.452 271.758 324.502 264.667C318.631 257.133 309.845 253.366 298.145 253.366C290.045 253.366 281.72 253.366 273.17 253.366C265.07 253.366 256.97 253.366 248.87 253.366C246.682 265.775 244.416 278.627 242.071 291.922C239.805 304.773 237.539 317.625 235.273 330.477C243.373 330.477 251.473 330.477 259.573 330.477C268.123 330.477 276.448 330.477 284.548 330.477C296.248 330.477 306.284 327.153 314.656 320.506C323.107 313.415 328.347 304.109 330.379 292.586ZM315.692 460.102C317.88 447.694 315.324 437.944 308.024 430.853C301.252 423.32 290.667 419.553 276.267 419.553C266.817 419.553 257.367 419.553 247.917 419.553C238.467 419.553 229.017 419.553 219.567 419.553C217.144 433.291 214.722 447.029 212.299 460.767C209.877 474.505 207.455 488.243 205.032 501.981C214.482 501.981 223.932 501.981 233.382 501.981C242.832 501.981 252.282 501.981 261.732 501.981C276.132 501.981 288.046 498.214 297.475 490.68C307.353 483.147 313.426 472.954 315.692 460.102ZM852.297 260.014C842.295 316.739 832.176 374.128 821.939 432.183C811.781 489.794 801.7 546.962 791.698 603.687C773.698 603.687 755.248 603.687 736.348 603.687C717.448 603.687 698.773 603.687 680.323 603.687C680.87 600.585 681.378 597.704 681.847 595.045C682.316 592.387 682.824 589.506 683.371 586.404C669.736 594.824 654.878 601.25 638.797 605.681C623.087 610.556 606.457 612.994 588.907 612.994C563.257 612.994 541.548 607.232 523.78 595.71C506.462 584.188 494.092 567.569 486.671 545.854C479.7 524.139 478.832 498.436 484.067 468.744C490.163 434.177 496.297 399.389 502.47 364.379C508.643 329.369 514.777 294.581 520.872 260.014C539.322 260.014 557.997 260.014 576.897 260.014C595.797 260.014 614.247 260.014 632.247 260.014C626.621 291.922 620.917 324.273 615.134 357.067C609.352 389.861 603.647 422.212 598.021 454.119C594.895 471.846 596.406 486.249 602.552 497.328C609.227 507.964 621.564 513.282 639.564 513.282C657.564 513.282 672.413 508.185 684.11 497.993C695.807 487.8 703.336 473.176 706.696 454.119C712.322 422.212 718.027 389.861 723.809 357.067C729.592 324.273 735.296 291.922 740.922 260.014C759.372 260.014 778.047 260.014 796.947 260.014C815.847 260.014 834.297 260.014 852.297 260.014ZM879.441 710.046C892.583 686.559 905.988 662.85 919.658 638.919C933.7 615.431 947.252 592.165 960.315 569.12C948.152 518.157 935.616 466.75 922.709 414.9C910.329 362.606 898.058 310.978 885.894 260.014C905.694 260.014 925.494 260.014 945.294 260.014C965.094 260.014 984.669 260.014 1004.02 260.014C1010.72 288.376 1017.34 317.182 1023.88 346.431C1030.87 375.68 1037.68 404.707 1044.3 433.512C1060.18 404.707 1076.32 375.68 1092.73 346.431C1109.14 317.182 1125.24 288.376 1141.04 260.014C1160.39 260.014 1179.74 260.014 1199.09 260.014C1218.44 260.014 1237.79 260.014 1257.14 260.014C1213.94 334.022 1170.32 409.138 1126.28 485.363C1082.77 561.143 1039.42 636.038 996.216 710.046C976.866 710.046 957.291 710.046 937.491 710.046C918.141 710.046 898.791 710.046 879.441 710.046ZM1387.23 614.323C1361.13 614.323 1337.61 609.891 1316.67 601.028C1295.81 591.722 1278.51 578.87 1264.75 562.473C1251.07 545.633 1241.45 526.134 1235.91 503.975C1230.82 481.817 1230.58 457.665 1235.19 431.518C1239.8 405.371 1248.56 381.219 1261.46 359.061C1274.82 336.903 1291.27 317.625 1310.81 301.228C1330.35 284.831 1352.15 272.201 1376.22 263.338C1400.36 254.031 1425.48 249.378 1451.58 249.378C1478.13 249.378 1501.61 254.031 1522.02 263.338C1542.95 272.201 1560.3 284.831 1574.06 301.228C1587.82 317.625 1597.25 336.903 1602.34 359.061C1607.88 381.219 1608.35 405.371 1603.74 431.518C1599.13 457.665 1590.14 481.817 1576.79 503.975C1563.88 526.134 1547.62 545.633 1528 562.473C1508.46 578.87 1486.61 591.722 1462.47 601.028C1438.86 609.891 1413.78 614.323 1387.23 614.323ZM1404.69 515.276C1426.74 515.276 1445.66 507.521 1461.45 492.01C1477.76 476.056 1488.07 455.892 1492.36 431.518C1496.74 406.701 1493.51 386.759 1482.66 371.691C1472.35 356.18 1456.16 348.425 1434.11 348.425C1412.06 348.425 1392.92 356.18 1376.69 371.691C1360.98 386.759 1350.94 406.701 1346.56 431.518C1342.27 455.892 1345.23 476.056 1355.47 492.01C1366.24 507.521 1382.64 515.276 1404.69 515.276ZM1631.84 603.687C1645.98 523.475 1660.25 442.597 1674.62 361.055C1689 279.513 1703.26 198.636 1717.41 118.423C1735.86 118.423 1754.53 118.423 1773.43 118.423C1792.33 118.423 1810.78 118.423 1828.78 118.423C1814.64 198.636 1800.38 279.513 1786 361.055C1771.62 442.597 1757.36 523.475 1743.22 603.687C1725.22 603.687 1706.77 603.687 1687.87 603.687C1668.97 603.687 1650.29 603.687 1631.84 603.687ZM1880.5 614.323C1867.45 614.323 1855.84 611.221 1845.69 605.017C1835.98 598.812 1828.92 590.392 1824.49 579.756C1820.07 569.12 1818.95 557.598 1821.14 545.19C1823.32 532.781 1828.47 521.48 1836.56 511.288C1844.74 500.652 1854.77 492.232 1866.67 486.027C1879.01 479.823 1891.71 476.721 1904.76 476.721C1917.81 476.721 1928.96 479.823 1938.22 486.027C1947.92 492.232 1954.99 500.652 1959.41 511.288C1964.37 521.48 1965.75 532.781 1963.56 545.19C1961.37 557.598 1955.97 569.12 1947.34 579.756C1939.17 590.392 1929.13 598.812 1917.24 605.017C1905.79 611.221 1893.55 614.323 1880.5 614.323ZM2017.38 603.687C2027.38 546.962 2037.46 489.794 2047.62 432.183C2057.86 374.128 2067.98 316.739 2077.98 260.014C2096.43 260.014 2115.11 260.014 2134.01 260.014C2152.91 260.014 2171.36 260.014 2189.36 260.014C2188.81 263.116 2188.26 266.218 2187.72 269.32C2187.17 272.422 2186.62 275.525 2186.07 278.627C2201.74 268.877 2218.78 261.565 2237.19 256.69C2255.6 251.815 2274.96 250.486 2295.27 252.702C2292.14 270.428 2288.98 288.376 2285.78 306.546C2282.57 324.716 2279.41 342.664 2276.28 360.39C2241.59 355.516 2214.72 358.618 2195.67 369.697C2176.69 380.333 2165.05 397.838 2160.76 422.212C2155.52 451.904 2150.21 482.039 2144.82 512.617C2139.42 543.195 2134.07 573.552 2128.76 603.687C2110.76 603.687 2092.31 603.687 2073.41 603.687C2054.51 603.687 2035.83 603.687 2017.38 603.687ZM2670.31 260.014C2660.31 316.739 2650.19 374.128 2639.96 432.183C2629.8 489.794 2619.72 546.962 2609.72 603.687C2591.72 603.687 2573.27 603.687 2554.37 603.687C2535.47 603.687 2516.79 603.687 2498.34 603.687C2498.89 600.585 2499.4 597.704 2499.86 595.045C2500.33 592.387 2500.84 589.506 2501.39 586.404C2487.75 594.824 2472.9 601.25 2456.81 605.681C2441.1 610.556 2424.47 612.994 2406.92 612.994C2381.27 612.994 2359.57 607.232 2341.8 595.71C2324.48 584.188 2312.11 567.569 2304.69 545.854C2297.72 524.139 2296.85 498.436 2302.09 468.744C2308.18 434.177 2314.31 399.389 2320.49 364.379C2326.66 329.369 2332.79 294.581 2338.89 260.014C2357.34 260.014 2376.01 260.014 2394.91 260.014C2413.81 260.014 2432.26 260.014 2450.26 260.014C2444.64 291.922 2438.93 324.273 2433.15 357.067C2427.37 389.861 2421.66 422.212 2416.04 454.119C2412.91 471.846 2414.42 486.249 2420.57 497.328C2427.24 507.964 2439.58 513.282 2457.58 513.282C2475.58 513.282 2490.43 508.185 2502.13 497.993C2513.82 487.8 2521.35 473.176 2524.71 454.119C2530.34 422.212 2536.04 389.861 2541.83 357.067C2547.61 324.273 2553.31 291.922 2558.94 260.014C2577.39 260.014 2596.06 260.014 2614.96 260.014C2633.86 260.014 2652.31 260.014 2670.31 260.014Z" fill="white"/>
</g>
<defs>
<filter id="filter0_dd_23_156" x="0" y="0.491943" width="2888" height="751.508" filterUnits="userSpaceOnUse" color-interpolation-filters="sRGB">
<feFlood flood-opacity="0" result="BackgroundImageFix"/>
<feColorMatrix in="SourceAlpha" type="matrix" values="0 0 0 0 0 0 0 0 0 0 0 0 0 0 0 0 0 0 127 0" result="hardAlpha"/>
<feOffset dy="4"/>
<feGaussianBlur stdDeviation="2"/>
<feComposite in2="hardAlpha" operator="out"/>
<feColorMatrix type="matrix" values="0 0 0 0 0 0 0 0 0 0 0 0 0 0 0 0 0 0 0.25 0"/>
<feBlend mode="normal" in2="BackgroundImageFix" result="effect1_dropShadow_23_156"/>
<feColorMatrix in="SourceAlpha" type="matrix" values="0 0 0 0 0 0 0 0 0 0 0 0 0 0 0 0 0 0 127 0" result="hardAlpha"/>
<feOffset dy="4"/>
<feGaussianBlur stdDeviation="2"/>
<feComposite in2="hardAlpha" operator="out"/>
<feColorMatrix type="matrix" values="0 0 0 0 0 0 0 0 0 0 0 0 0 0 0 0 0 0 0.25 0"/>
<feBlend mode="normal" in2="effect1_dropShadow_23_156" result="effect2_dropShadow_23_156"/>
<feBlend mode="normal" in="SourceGraphic" in2="effect2_dropShadow_23_156" result="shape"/>
</filter>
</defs>
</svg>
