<svg width="124" height="37" viewBox="0 0 124 37" fill="none" xmlns="http://www.w3.org/2000/svg">
<path d="M123.474 31.97C123.474 34.7314 121.235 36.97 118.474 36.97H5.61363C2.8522 36.97 0.613632 34.7314 0.613632 31.97V8.68999C0.613632 5.92857 2.85221 3.69 5.61363 3.69H118.474C121.235 3.69 123.474 5.92857 123.474 8.69V31.97Z" fill="black"/>
<path d="M30.0221 8.93048C29.4102 11.5479 28.7909 14.1965 28.1643 16.8762C27.5378 19.5559 26.9185 22.2045 26.3065 24.8219C27.2985 24.8253 28.2905 24.8286 29.2825 24.832C30.2905 24.8354 31.2825 24.8388 32.2585 24.8421C33.3625 24.8459 34.376 24.6544 35.2991 24.2678C36.2185 23.8967 36.9904 23.3692 37.6146 22.6853C38.2353 22.0169 38.6531 21.2231 38.868 20.3039C39.021 19.6496 39.0314 19.0571 38.8993 18.5265C38.7671 17.9959 38.4869 17.5506 38.0587 17.1905C38.8218 16.8033 39.4522 16.2987 39.9499 15.6767C40.4439 15.0703 40.7784 14.3932 40.9532 13.6453C41.1718 12.7106 41.1151 11.8918 40.783 11.189C40.4669 10.4863 39.9144 9.93866 39.1255 9.54617C38.3526 9.15373 37.3821 8.95553 36.2141 8.95155C35.1901 8.94807 34.1581 8.94456 33.1181 8.94102C32.0781 8.93748 31.0461 8.93397 30.0221 8.93048ZM34.7609 19.8923C34.6662 20.2974 34.4617 20.6242 34.1474 20.8726C33.8295 21.1365 33.4625 21.2678 33.0465 21.2664C32.7585 21.2654 32.4625 21.2644 32.1585 21.2634C31.8705 21.2624 31.5825 21.2614 31.2945 21.2605C31.3965 20.8242 31.5022 20.3724 31.6114 19.905C31.7171 19.4532 31.8227 19.0014 31.9284 18.5496C32.2164 18.5505 32.5044 18.5515 32.7924 18.5525C33.0964 18.5535 33.3924 18.5545 33.6804 18.5555C34.0964 18.5569 34.405 18.6749 34.6064 18.9095C34.8041 19.1596 34.8556 19.4873 34.7609 19.8923ZM36.6658 14.005C36.5638 14.4412 36.3317 14.7834 35.9694 15.0317C35.6195 15.2956 35.1885 15.4266 34.6765 15.4249C34.3405 15.4237 34.0045 15.4226 33.6685 15.4215C33.3326 15.4203 32.9966 15.4192 32.6606 15.418C32.7735 14.935 32.8864 14.4521 32.9993 13.9691C33.1123 13.4861 33.2252 13.0032 33.3381 12.5202C33.6741 12.5213 34.0101 12.5225 34.3461 12.5236C34.6821 12.5248 35.0181 12.5259 35.3541 12.527C35.8661 12.5288 36.2351 12.6626 36.4612 12.9284C36.7033 13.1943 36.7715 13.5531 36.6658 14.005ZM56.1811 15.0537C56.4106 14.0721 56.4422 13.1835 56.276 12.3877C56.1222 11.6076 55.7988 10.936 55.3059 10.373C54.8291 9.81009 54.2093 9.3792 53.4465 9.08035C52.6997 8.78156 51.8463 8.63053 50.8863 8.62726C49.9103 8.62394 48.9797 8.7689 48.0945 9.06214C47.2093 9.35538 46.399 9.77361 45.6635 10.3168C44.9403 10.8757 44.3197 11.544 43.8016 12.3219C43.2834 13.0997 42.9096 13.9794 42.6801 14.961C42.2976 16.5968 41.9115 18.2483 41.5217 19.9153C41.132 21.5824 40.7458 23.2338 40.3633 24.8697C41.0673 24.8721 41.7713 24.8745 42.4753 24.8769C43.1793 24.8793 43.8753 24.8817 44.5633 24.884C44.9385 23.2793 45.3155 21.6668 45.6944 20.0465C46.0732 18.4262 46.4503 16.8137 46.8255 15.2089C47.0222 14.3676 47.4206 13.6907 48.0208 13.1782C48.621 12.6657 49.2971 12.4108 50.0491 12.4133C50.8011 12.4159 51.349 12.675 51.6928 13.1907C52.0526 13.7065 52.1341 14.385 51.9374 15.2263C51.5622 16.8311 51.1852 18.4436 50.8064 20.0639C50.4275 21.6842 50.0505 23.2967 49.6753 24.9014C50.3793 24.9038 51.0833 24.9062 51.7873 24.9086C52.4913 24.911 53.1873 24.9134 53.8753 24.9157C54.2541 23.2954 54.6384 21.6517 55.0282 19.9847C55.418 18.3176 55.8023 16.674 56.1811 15.0537ZM63.9952 9.04608C63.773 9.99645 63.549 10.9546 63.3232 11.9206C63.0973 12.8865 62.8733 13.8447 62.6511 14.795C61.4133 16.4592 60.1541 18.1467 58.8734 19.8574C57.5927 21.5682 56.3335 23.2557 55.0957 24.9198C55.8317 24.9224 56.5757 24.9249 57.3277 24.9274C58.0797 24.93 58.8237 24.9325 59.5597 24.935C60.2459 23.9862 60.9419 23.0297 61.6477 22.0654C62.3659 21.1167 63.0681 20.168 63.7544 19.2192C63.9961 20.1711 64.2459 21.1231 64.5037 22.0751C64.7579 23.0427 65.0058 24.0024 65.2476 24.9544C65.9836 24.9569 66.7196 24.9594 67.4556 24.9619C68.1916 24.9644 68.9276 24.9669 69.6636 24.9694C69.2054 23.2995 68.7366 21.6061 68.2573 19.8894C67.778 18.1726 67.3093 16.4792 66.8511 14.8093C67.0733 13.859 67.2973 12.9008 67.5231 11.9348C67.749 10.9689 67.973 10.0107 68.1952 9.06037C67.5072 9.05803 66.8112 9.05566 66.1072 9.05326C65.4032 9.05087 64.6992 9.04847 63.9952 9.04608ZM81.2328 8.73052C80.0648 8.72654 78.9375 8.92541 77.8508 9.32711C76.7604 9.74438 75.7678 10.3257 74.873 11.0711C73.9781 11.8165 73.2123 12.6948 72.5755 13.7062C71.9351 14.7331 71.4747 15.8463 71.1942 17.046C70.9137 18.2456 70.8551 19.3525 71.0183 20.3665C71.1815 21.3806 71.5375 22.255 72.0863 22.9897C72.6314 23.7399 73.3527 24.3193 74.2499 24.7277C75.1436 25.1518 76.1744 25.3658 77.3424 25.3698C78.5104 25.3737 79.6315 25.167 80.7059 24.7497C81.7926 24.348 82.7834 23.7745 83.6782 23.0291C84.5854 22.2993 85.3574 21.4288 85.9942 20.4175C86.631 19.4062 87.0896 18.3007 87.3701 17.101C87.6506 15.9014 87.711 14.7867 87.5515 13.7571C87.3882 12.7431 87.0261 11.8609 86.4649 11.1105C85.9198 10.3603 85.2004 9.7731 84.3067 9.34907C83.4255 8.94068 82.4008 8.73449 81.2328 8.73052ZM80.3476 12.5164C81.1316 12.5191 81.7599 12.7083 82.2325 13.0841C82.7014 13.4755 83.0077 14.0145 83.1515 14.7011C83.3112 15.3877 83.2854 16.1828 83.0741 17.0864C82.8628 17.99 82.5189 18.7763 82.0422 19.4451C81.5816 20.114 81.0276 20.6345 80.3802 21.0065C79.7291 21.3941 79.0116 21.5865 78.2276 21.5839C77.4596 21.5812 76.8313 21.392 76.3427 21.0161C75.8701 20.6403 75.554 20.1091 75.3943 19.4225C75.2469 18.7515 75.2789 17.9642 75.4902 17.0606C75.7014 16.157 76.0392 15.3629 76.5035 14.6784C76.9838 13.994 77.5494 13.458 78.2005 13.0704C78.8639 12.6985 79.5796 12.5138 80.3476 12.5164ZM91.5452 9.13982C90.9332 11.7572 90.314 14.4058 89.6874 17.0855C89.0609 19.7652 88.4416 22.4138 87.8296 25.0312C88.5336 25.0336 89.2376 25.036 89.9416 25.0384C90.6456 25.0408 91.3416 25.0432 92.0296 25.0455C92.4995 23.0357 92.9749 21.0026 93.4557 18.946C93.9329 16.9051 94.4065 14.8797 94.8764 12.8699C95.7244 12.8728 96.5804 12.8757 97.4444 12.8786C98.3084 12.8816 99.1564 12.8845 99.9884 12.8873C100.13 12.2797 100.276 11.6565 100.425 11.0177C100.571 10.3945 100.715 9.77911 100.857 9.1715C99.3212 9.16628 97.7692 9.161 96.2012 9.15566C94.6332 9.15032 93.0812 9.14504 91.5452 9.13982Z" fill="white"/>
</svg>
