<svg width="1385" height="446" viewBox="0 0 1385 446" fill="none" xmlns="http://www.w3.org/2000/svg">
<g filter="url(#filter0_d_29_13)">
<rect x="3.99707" y="35" width="1315" height="403" rx="50" fill="black"/>
<g filter="url(#filter1_df_29_13)">
<rect width="1170.04" height="264.019" rx="28.5997" transform="matrix(1 -0.000384092 0.00904313 0.999959 57.5713 88.4408)" fill="url(#paint0_linear_29_13)"/>
</g>
<path d="M74.0884 342.51C91.6468 303.741 109.414 264.51 127.391 224.818C145.367 185.126 163.135 145.895 180.693 107.126C196.4 107.126 212.106 107.126 227.813 107.126C243.773 107.126 259.48 107.126 274.933 107.126C292.413 107.126 306.433 110.01 316.994 115.779C327.659 121.318 334.365 129.164 337.113 139.318C339.966 149.241 338.309 161.01 332.143 174.626C327.753 184.318 321.755 193.087 314.148 200.933C306.541 208.78 297.482 215.356 286.972 220.664C294.999 226.433 299.709 233.933 301.102 243.164C302.599 252.164 300.839 262.203 295.823 273.28C289.552 287.126 280.138 299.241 267.582 309.626C255.279 320.01 240.854 328.087 224.308 333.857C208.015 339.626 190.622 342.51 172.128 342.51C155.915 342.51 139.575 342.51 123.108 342.51C106.642 342.51 90.3018 342.51 74.0884 342.51ZM262.977 180.51C265.695 174.51 265.863 169.664 263.482 165.972C261.205 162.049 256.774 160.087 250.187 160.087C245.627 160.087 240.94 160.087 236.127 160.087C231.567 160.087 227.007 160.087 222.447 160.087C219.521 166.549 216.49 173.241 213.354 180.164C210.323 186.856 207.292 193.549 204.261 200.241C208.821 200.241 213.381 200.241 217.941 200.241C222.755 200.241 227.441 200.241 232.001 200.241C238.588 200.241 244.692 198.51 250.313 195.049C256.039 191.356 260.26 186.51 262.977 180.51ZM231.831 267.741C234.757 261.28 234.65 256.203 231.509 252.51C228.726 248.587 223.281 246.626 215.174 246.626C209.854 246.626 204.534 246.626 199.214 246.626C193.894 246.626 188.574 246.626 183.254 246.626C180.014 253.78 176.774 260.933 173.534 268.087C170.294 275.241 167.054 282.395 163.814 289.549C169.134 289.549 174.454 289.549 179.774 289.549C185.094 289.549 190.414 289.549 195.734 289.549C203.841 289.549 211.063 287.587 217.4 283.664C223.99 279.741 228.8 274.433 231.831 267.741ZM551.043 253.203C544.458 267.741 535.714 280.895 524.811 292.664C514.265 304.203 502.171 314.126 488.528 322.434C475.139 330.741 460.865 337.087 445.706 341.472C430.8 345.857 415.747 348.049 400.547 348.049C385.094 348.049 371.9 345.857 360.966 341.472C350.032 337.087 341.58 330.857 335.612 322.78C330.001 314.472 327.148 304.549 327.054 293.01C326.96 281.472 330.205 268.433 336.789 253.895C347.763 229.664 358.842 205.203 370.025 180.51C381.208 155.818 392.286 131.356 403.26 107.126C414.407 107.126 425.553 107.126 436.7 107.126C447.847 107.126 458.867 107.126 469.76 107.126C458.995 130.895 448.178 154.779 437.308 178.78C426.439 202.78 415.622 226.664 404.857 250.433C399.213 262.895 398.467 272.933 402.618 280.549C406.769 288.164 414.798 291.972 426.704 291.972C438.611 291.972 449.962 288.164 460.758 280.549C471.807 272.933 480.153 262.895 485.797 250.433C496.562 226.664 507.379 202.78 518.248 178.78C529.118 154.779 539.935 130.895 550.7 107.126C561.847 107.126 572.993 107.126 584.14 107.126C595.287 107.126 606.307 107.126 617.2 107.126C606.331 131.126 595.304 155.472 584.121 180.164C572.938 204.856 561.912 229.203 551.043 253.203ZM611.999 342.51C618.375 328.434 624.802 314.241 631.282 299.933C637.762 285.626 644.19 271.433 650.565 257.357C648.321 232.664 645.981 207.626 643.544 182.241C641.108 156.856 638.767 131.818 636.524 107.126C648.177 107.126 659.957 107.126 671.864 107.126C683.77 107.126 695.55 107.126 707.204 107.126C708.175 121.203 709.221 135.395 710.341 149.703C711.819 163.78 713.043 177.856 714.015 191.933C727.737 177.856 741.586 163.78 755.561 149.703C769.641 135.395 783.542 121.203 797.264 107.126C808.917 107.126 820.57 107.126 832.224 107.126C843.877 107.126 855.53 107.126 867.184 107.126C842.574 131.818 817.554 156.856 792.124 182.241C766.694 207.626 741.675 232.664 717.065 257.357C710.69 271.433 704.262 285.626 697.782 299.933C691.302 314.241 684.875 328.434 678.499 342.51C667.606 342.51 656.586 342.51 645.439 342.51C634.293 342.51 623.146 342.51 611.999 342.51ZM881.037 348.049C862.543 348.049 846.802 345.049 833.813 339.049C820.928 332.818 811.294 324.164 804.91 313.087C798.527 302.01 795.565 288.972 796.026 273.972C796.59 258.741 800.896 242.241 808.944 224.472C816.991 206.703 827.579 190.318 840.705 175.318C853.832 160.318 868.552 147.395 884.864 136.549C901.28 125.472 918.701 116.933 937.125 110.933C955.653 104.703 974.164 101.587 992.658 101.587C1011.15 101.587 1026.71 104.703 1039.34 110.933C1052.33 116.933 1062.02 125.472 1068.4 136.549C1075.14 147.395 1078.29 160.318 1077.83 175.318C1077.37 190.318 1073.11 206.703 1065.06 224.472C1057.02 242.241 1046.38 258.741 1033.15 273.972C1020.02 288.972 1005.12 302.01 988.45 313.087C972.034 324.164 954.561 332.818 936.033 339.049C917.862 345.049 899.53 348.049 881.037 348.049ZM906.433 291.972C918.847 291.972 930.741 289.203 942.116 283.664C953.596 277.895 964.041 269.933 973.453 259.78C983.119 249.626 990.982 237.857 997.044 224.472C1003.11 211.087 1005.85 199.433 1005.28 189.51C1004.96 179.587 1001.62 171.856 995.261 166.318C989.008 160.549 979.674 157.664 967.261 157.664C955.101 157.664 943.207 160.433 931.578 165.972C920.203 171.51 909.683 179.356 900.018 189.51C890.71 199.433 883.026 211.087 876.964 224.472C870.902 237.857 867.978 249.626 868.193 259.78C868.661 269.933 872.022 277.895 878.276 283.664C884.888 289.203 894.273 291.972 906.433 291.972ZM1048.21 342.51C1065.77 303.741 1083.54 264.51 1101.51 224.818C1119.49 185.126 1137.26 145.895 1154.81 107.126C1165.96 107.126 1177.11 107.126 1188.25 107.126C1199.4 107.126 1210.42 107.126 1221.31 107.126C1207.83 136.895 1194.19 167.01 1180.4 197.472C1166.71 227.703 1153.12 257.703 1139.64 287.472C1153.06 287.472 1166.62 287.472 1180.3 287.472C1193.98 287.472 1207.4 287.472 1220.58 287.472C1216.5 296.472 1212.32 305.703 1208.03 315.164C1203.85 324.395 1199.73 333.51 1195.65 342.51C1171.33 342.51 1146.76 342.51 1121.93 342.51C1097.1 342.51 1072.53 342.51 1048.21 342.51Z" fill="white"/>
</g>
<defs>
<filter id="filter0_d_29_13" x="-0.00292969" y="35" width="1323" height="411" filterUnits="userSpaceOnUse" color-interpolation-filters="sRGB">
<feFlood flood-opacity="0" result="BackgroundImageFix"/>
<feColorMatrix in="SourceAlpha" type="matrix" values="0 0 0 0 0 0 0 0 0 0 0 0 0 0 0 0 0 0 127 0" result="hardAlpha"/>
<feOffset dy="4"/>
<feGaussianBlur stdDeviation="2"/>
<feComposite in2="hardAlpha" operator="out"/>
<feColorMatrix type="matrix" values="0 0 0 0 0 0 0 0 0 0 0 0 0 0 0 0 0 0 0.25 0"/>
<feBlend mode="normal" in2="BackgroundImageFix" result="effect1_dropShadow_29_13"/>
<feBlend mode="normal" in="SourceGraphic" in2="effect1_dropShadow_29_13" result="shape"/>
</filter>
<filter id="filter1_df_29_13" x="7.8291" y="38.0023" width="1271.91" height="364.436" filterUnits="userSpaceOnUse" color-interpolation-filters="sRGB">
<feFlood flood-opacity="0" result="BackgroundImageFix"/>
<feColorMatrix in="SourceAlpha" type="matrix" values="0 0 0 0 0 0 0 0 0 0 0 0 0 0 0 0 0 0 127 0" result="hardAlpha"/>
<feOffset dy="4"/>
<feGaussianBlur stdDeviation="2"/>
<feComposite in2="hardAlpha" operator="out"/>
<feColorMatrix type="matrix" values="0 0 0 0 0 0 0 0 0 0 0 0 0 0 0 0 0 0 0.25 0"/>
<feBlend mode="normal" in2="BackgroundImageFix" result="effect1_dropShadow_29_13"/>
<feBlend mode="normal" in="SourceGraphic" in2="effect1_dropShadow_29_13" result="shape"/>
<feGaussianBlur stdDeviation="25" result="effect2_foregroundBlur_29_13"/>
</filter>
<linearGradient id="paint0_linear_29_13" x1="585.021" y1="0" x2="585.021" y2="264.019" gradientUnits="userSpaceOnUse">
<stop stop-color="#0E0181"/>
<stop offset="1" stop-color="#0E0181"/>
</linearGradient>
</defs>
</svg>
