<svg width="713" height="270" viewBox="0 0 713 270" fill="none" xmlns="http://www.w3.org/2000/svg">
<rect x="13" width="700" height="270" rx="20" fill="black"/>
<g filter="url(#filter0_df_29_13)">
<rect width="371.138" height="56.6803" rx="28.3401" transform="matrix(1 -0.000703717 0.00493592 0.999988 29.9814 89.6263)" fill="url(#paint0_linear_29_13)"/>
</g>
<path d="M36.9493 145.669C40.0401 133.165 43.1677 120.513 46.3321 107.711C49.4965 94.9101 52.6241 82.2576 55.7149 69.7539C60.4683 69.7539 65.2216 69.7539 69.9749 69.7539C74.8049 69.7539 79.5583 69.7539 84.2349 69.7539C89.5249 69.7539 93.9333 70.6843 97.46 72.5449C101.005 74.3312 103.485 76.8617 104.898 80.1364C106.331 83.3368 106.504 87.1325 105.419 91.5237C104.646 94.6496 103.333 97.4778 101.481 100.008C99.6291 102.539 97.2648 104.66 94.3883 106.372C97.1484 108.232 99.0038 110.651 99.9545 113.628C100.924 116.531 100.967 119.769 100.084 123.341C98.9798 127.807 96.8256 131.714 93.621 135.063C90.4931 138.412 86.5909 141.017 81.9142 142.878C77.3143 144.739 72.216 145.669 66.6193 145.669C61.7127 145.669 56.7677 145.669 51.7843 145.669C46.801 145.669 41.856 145.669 36.9493 145.669ZM84.8245 93.4216C85.3028 91.4865 85.0758 89.9235 84.1435 88.7327C83.2296 87.4674 81.776 86.8348 79.7827 86.8348C78.4027 86.8348 76.9843 86.8348 75.5277 86.8348C74.1477 86.8348 72.7677 86.8348 71.3877 86.8348C70.8725 88.9188 70.339 91.0771 69.7871 93.3099C69.2535 95.4683 68.72 97.6267 68.1865 99.785C69.5665 99.785 70.9465 99.785 72.3265 99.785C73.7831 99.785 75.2015 99.785 76.5815 99.785C78.5748 99.785 80.3228 99.2268 81.8254 98.1104C83.3465 96.9196 84.3461 95.3567 84.8245 93.4216ZM80.4002 121.555C80.9153 119.471 80.5917 117.833 79.4294 116.643C78.3622 115.377 76.6019 114.745 74.1486 114.745C72.5386 114.745 70.9286 114.745 69.3186 114.745C67.7086 114.745 66.0986 114.745 64.4886 114.745C63.9182 117.052 63.3479 119.359 62.7776 121.666C62.2072 123.974 61.6369 126.281 61.0666 128.588C62.6766 128.588 64.2866 128.588 65.8966 128.588C67.5066 128.588 69.1166 128.588 70.7266 128.588C73.1799 128.588 75.253 127.955 76.9457 126.69C78.7152 125.425 79.8666 123.713 80.4002 121.555ZM176.17 116.866C175.011 121.555 173.119 125.797 170.494 129.593C167.964 133.314 164.873 136.515 161.221 139.194C157.645 141.873 153.689 143.92 149.353 145.334C145.093 146.748 140.664 147.455 136.064 147.455C131.387 147.455 127.268 146.748 123.708 145.334C120.148 143.92 117.233 141.91 114.963 139.306C112.789 136.626 111.357 133.426 110.666 129.704C109.976 125.983 110.211 121.778 111.37 117.089C113.302 109.274 115.252 101.385 117.22 93.4216C119.189 85.4579 121.139 77.5687 123.071 69.7539C126.444 69.7539 129.817 69.7539 133.191 69.7539C136.564 69.7539 139.899 69.7539 143.196 69.7539C141.301 77.4199 139.397 85.123 137.483 92.8634C135.57 100.604 133.666 108.307 131.771 115.973C130.777 119.992 131.127 123.229 132.82 125.685C134.513 128.142 137.161 129.37 140.764 129.37C144.368 129.37 147.585 128.142 150.415 125.685C153.322 123.229 155.272 119.992 156.266 115.973C158.161 108.307 160.065 100.604 161.978 92.8634C163.892 85.123 165.796 77.4199 167.691 69.7539C171.064 69.7539 174.437 69.7539 177.811 69.7539C181.184 69.7539 184.519 69.7539 187.816 69.7539C185.902 77.4943 183.961 85.3463 181.993 93.3099C180.024 101.274 178.083 109.126 176.17 116.866ZM199.738 145.669C200.86 141.129 201.992 136.552 203.132 131.937C204.273 127.323 205.405 122.746 206.527 118.206C204.432 110.242 202.288 102.167 200.095 93.9798C197.902 85.7928 195.759 77.7176 193.664 69.7539C197.19 69.7539 200.755 69.7539 204.359 69.7539C207.962 69.7539 211.527 69.7539 215.054 69.7539C216.155 74.294 217.285 78.8712 218.444 83.4856C219.699 88.0256 220.877 92.5657 221.978 97.1057C225.323 92.5657 228.707 88.0256 232.129 83.4856C235.57 78.8712 238.963 74.294 242.309 69.7539C245.835 69.7539 249.362 69.7539 252.889 69.7539C256.415 69.7539 259.942 69.7539 263.469 69.7539C257.437 77.7176 251.301 85.7928 245.06 93.9798C238.82 102.167 232.684 110.242 226.652 118.206C225.53 122.746 224.398 127.323 223.257 131.937C222.117 136.552 220.985 141.129 219.863 145.669C216.566 145.669 213.231 145.669 209.858 145.669C206.485 145.669 203.111 145.669 199.738 145.669ZM281.475 147.455C275.878 147.455 270.942 146.488 266.667 144.553C262.411 142.543 258.999 139.752 256.432 136.18C253.865 132.607 252.221 128.402 251.501 123.564C250.798 118.652 251.155 113.331 252.572 107.6C253.988 101.869 256.253 96.5847 259.365 91.747C262.478 86.9092 266.192 82.7414 270.506 79.2433C274.839 75.6708 279.622 72.9171 284.853 70.982C290.104 68.9725 295.527 67.9677 301.124 67.9677C306.72 67.9677 311.609 68.9725 315.788 70.982C320.063 72.9171 323.484 75.6708 326.051 79.2433C328.713 82.7414 330.405 86.9092 331.125 91.747C331.846 96.5847 331.498 101.869 330.082 107.6C328.665 113.331 326.391 118.652 323.261 123.564C320.148 128.402 316.387 132.607 311.977 136.18C307.644 139.752 302.852 142.543 297.602 144.553C292.447 146.488 287.072 147.455 281.475 147.455ZM285.945 129.37C289.702 129.37 293.143 128.476 296.268 126.69C299.411 124.83 302.116 122.262 304.382 118.987C306.725 115.712 308.43 111.917 309.497 107.6C310.564 103.283 310.726 99.5245 309.984 96.3242C309.318 93.1239 307.865 90.6306 305.623 88.8443C303.4 86.9837 300.41 86.0533 296.653 86.0533C292.973 86.0533 289.532 86.9465 286.331 88.7327C283.206 90.5189 280.472 93.0494 278.129 96.3242C275.881 99.5245 274.224 103.283 273.157 107.6C272.09 111.917 271.88 115.712 272.527 118.987C273.251 122.262 274.724 124.83 276.948 126.69C279.266 128.476 282.265 129.37 285.945 129.37ZM331.749 145.669C334.84 133.165 337.968 120.513 341.132 107.711C344.296 94.9101 347.424 82.2576 350.515 69.7539C353.888 69.7539 357.261 69.7539 360.635 69.7539C364.008 69.7539 367.343 69.7539 370.64 69.7539C368.266 79.355 365.866 89.0676 363.437 98.8919C361.027 108.642 358.635 118.317 356.262 127.918C360.325 127.918 364.427 127.918 368.567 127.918C372.707 127.918 376.77 127.918 380.757 127.918C380.039 130.821 379.304 133.798 378.549 136.849C377.813 139.826 377.087 142.766 376.369 145.669C369.009 145.669 361.572 145.669 354.059 145.669C346.546 145.669 339.109 145.669 331.749 145.669Z" fill="white"/>
<defs>
<filter id="filter0_df_29_13" x="0.121094" y="59.3851" width="431.139" height="116.901" filterUnits="userSpaceOnUse" color-interpolation-filters="sRGB">
<feFlood flood-opacity="0" result="BackgroundImageFix"/>
<feColorMatrix in="SourceAlpha" type="matrix" values="0 0 0 0 0 0 0 0 0 0 0 0 0 0 0 0 0 0 127 0" result="hardAlpha"/>
<feOffset dy="4"/>
<feGaussianBlur stdDeviation="2"/>
<feComposite in2="hardAlpha" operator="out"/>
<feColorMatrix type="matrix" values="0 0 0 0 0 0 0 0 0 0 0 0 0 0 0 0 0 0 0.25 0"/>
<feBlend mode="normal" in2="BackgroundImageFix" result="effect1_dropShadow_29_13"/>
<feBlend mode="normal" in="SourceGraphic" in2="effect1_dropShadow_29_13" result="shape"/>
<feGaussianBlur stdDeviation="15" result="effect2_foregroundBlur_29_13"/>
</filter>
<linearGradient id="paint0_linear_29_13" x1="185.569" y1="0" x2="185.569" y2="56.6803" gradientUnits="userSpaceOnUse">
<stop stop-color="#0A0064"/>
<stop offset="1" stop-color="#322889"/>
</linearGradient>
</defs>
</svg>
