<svg width="136" height="64" viewBox="0 0 136 64" fill="none" xmlns="http://www.w3.org/2000/svg">
<g filter="url(#filter0_dd_23_189)">
<path d="M104.282 44.97C104.282 47.7314 102.044 49.97 99.2822 49.97H18.0002C15.2388 49.97 13.0002 47.7314 13.0002 44.97V19.7605C13.0002 16.9991 15.2388 14.7605 18.0002 14.7605H99.2822C102.044 14.7605 104.282 16.9991 104.282 19.7605V44.97Z" fill="black"/>
<g filter="url(#filter1_f_23_189)">
<rect width="85.805" height="32.683" rx="16.3415" transform="matrix(0.999998 -0.0021683 0.00160196 0.999999 15.3594 15.9958)" fill="url(#paint0_linear_23_189)"/>
</g>
<path d="M17.549 35.6761C18.4306 33.1368 19.3227 30.5672 20.2253 27.9674C21.1279 25.3676 22.0199 22.7981 22.9015 20.2588C23.8935 20.261 24.8855 20.2633 25.8775 20.2656C26.8855 20.2679 27.8775 20.2702 28.8535 20.2724C29.9575 20.2749 30.8599 20.4661 31.5607 20.8459C32.2668 21.2105 32.7364 21.7259 32.9695 22.3921C33.2078 23.0431 33.1722 23.8145 32.8626 24.7063C32.6422 25.3411 32.3148 25.9152 31.8804 26.4285C31.4459 26.9418 30.9124 27.3717 30.2797 27.7182C30.8205 28.0976 31.162 28.59 31.3041 29.1954C31.4514 29.7857 31.3991 30.4436 31.1473 31.1691C30.8324 32.076 30.3089 32.869 29.5768 33.548C28.8606 34.2271 27.997 34.7546 26.9858 35.1304C25.9906 35.5063 24.909 35.6929 23.741 35.6903C22.717 35.6879 21.685 35.6856 20.645 35.6832C19.605 35.6808 18.573 35.6784 17.549 35.6761ZM28.5288 25.0821C28.6652 24.6891 28.6474 24.3714 28.4754 24.1289C28.3086 23.8714 28.0172 23.7421 27.6012 23.7412C27.3132 23.7405 27.0172 23.7399 26.7132 23.7392C26.4252 23.7385 26.1372 23.7378 25.8492 23.7372C25.7023 24.1604 25.5501 24.5987 25.3927 25.0522C25.2405 25.4905 25.0883 25.9289 24.9361 26.3672C25.2241 26.3679 25.5121 26.3685 25.8001 26.3692C26.1041 26.3699 26.4001 26.3705 26.6881 26.3712C27.1041 26.3722 27.4795 26.2596 27.8142 26.0334C28.1541 25.7922 28.3923 25.4751 28.5288 25.0821ZM27.0732 30.7967C27.2201 30.3735 27.1836 30.0406 26.9635 29.7981C26.7648 29.5405 26.4094 29.4111 25.8974 29.4099C25.5614 29.4092 25.2254 29.4084 24.8894 29.4076C24.5534 29.4068 24.2174 29.4061 23.8814 29.4053C23.7187 29.8739 23.556 30.3424 23.3933 30.811C23.2307 31.2796 23.068 31.7481 22.9053 32.2167C23.2413 32.2175 23.5773 32.2182 23.9133 32.219C24.2493 32.2198 24.5853 32.2205 24.9213 32.2213C25.4333 32.2225 25.8779 32.0949 26.2551 31.8386C26.6483 31.5824 26.921 31.2351 27.0732 30.7967ZM47.1486 29.8897C46.818 30.842 46.3429 31.7031 45.7233 32.4732C45.1249 33.2282 44.4193 33.877 43.6064 34.4197C42.8095 34.9625 41.9451 35.3765 41.0134 35.6618C40.0977 35.9471 39.1599 36.0886 38.1999 36.0864C37.2239 36.0842 36.3778 35.9386 35.6615 35.6495C34.9452 35.3605 34.3749 34.9507 33.9505 34.4203C33.5474 33.8748 33.3091 33.2238 33.2355 32.4673C33.1618 31.7108 33.2903 30.8564 33.6209 29.9041C34.1719 28.317 34.7282 26.7149 35.2896 25.0976C35.8511 23.4802 36.4074 21.8781 36.9584 20.291C37.6624 20.2926 38.3664 20.2942 39.0704 20.2958C39.7744 20.2974 40.4704 20.299 41.1583 20.3006C40.6179 21.8575 40.0747 23.4219 39.529 24.9938C38.9832 26.5658 38.4401 28.1302 37.8996 29.687C37.6163 30.5032 37.628 31.1613 37.9348 31.6612C38.2416 32.1611 38.7711 32.4119 39.5231 32.4136C40.2751 32.4153 40.9696 32.1673 41.6068 31.6696C42.26 31.1719 42.7282 30.5149 43.0116 29.6987C43.5521 28.1419 44.0952 26.5775 44.641 25.0055C45.1867 23.4336 45.7298 21.8692 46.2703 20.3123C46.9743 20.3139 47.6783 20.3155 48.3823 20.3172C49.0863 20.3188 49.7823 20.3204 50.4703 20.3219C49.9246 21.8939 49.371 23.4885 48.8095 25.1058C48.248 26.7231 47.6944 28.3178 47.1486 29.8897ZM51.5222 35.7539C51.8423 34.8319 52.1651 33.9023 52.4904 32.9652C52.8158 32.0281 53.1385 31.0985 53.4586 30.1765C53.1721 28.5572 52.8774 26.9153 52.5747 25.2506C52.2719 23.5859 51.9773 21.944 51.6908 20.3247C52.4268 20.3264 53.1708 20.3281 53.9228 20.3299C54.6747 20.3316 55.4187 20.3333 56.1547 20.335C56.2986 21.2581 56.4479 22.1887 56.6026 23.1269C56.7785 24.0501 56.9384 24.9732 57.0823 25.8963C57.8664 24.9753 58.6585 24.0544 59.4586 23.1335C60.2639 22.1974 61.0586 21.269 61.8427 20.348C62.5787 20.3497 63.3147 20.3514 64.0507 20.3531C64.7867 20.3548 65.5227 20.3564 66.2587 20.3581C64.8492 21.9735 63.4159 23.6115 61.9586 25.2721C60.5014 26.9328 59.0681 28.5707 57.6586 30.1861C57.3385 31.1081 57.0158 32.0377 56.6904 32.9748C56.3651 33.912 56.0423 34.8415 55.7222 35.7635C55.0342 35.762 54.3382 35.7604 53.6342 35.7588C52.9302 35.7571 52.2262 35.7555 51.5222 35.7539ZM68.5465 36.156C67.3785 36.1533 66.3667 35.9543 65.5112 35.5591C64.6609 35.1487 64.0016 34.5799 63.5335 33.8528C63.0654 33.1256 62.8019 32.2703 62.743 31.2869C62.6893 30.2884 62.8645 29.2072 63.2686 28.0434C63.6727 26.8795 64.2452 25.8068 64.9863 24.8252C65.7274 23.8437 66.5813 22.9985 67.5479 22.2898C68.5198 21.5659 69.5699 21.0086 70.6984 20.6179C71.8321 20.2121 72.9829 20.0105 74.1509 20.0132C75.3189 20.0158 76.32 20.2223 77.1544 20.6327C78.0099 21.028 78.6718 21.5892 79.1399 22.3163C79.6292 23.0284 79.9034 23.8762 79.9623 24.8596C80.0212 25.843 79.8486 26.9166 79.4445 28.0804C79.0405 29.2443 78.4653 30.3246 77.7189 31.3212C76.9779 32.3028 76.1134 33.1555 75.1255 33.8793C74.1536 34.6032 73.1008 35.168 71.9672 35.5739C70.8547 35.9646 69.7145 36.1587 68.5465 36.156ZM69.8217 32.483C70.6057 32.4848 71.3406 32.305 72.0266 31.9435C72.7178 31.5669 73.3308 31.0464 73.8657 30.3821C74.4166 29.7178 74.8442 28.9473 75.1486 28.0706C75.4529 27.1939 75.5579 26.4302 75.4636 25.7796C75.3852 25.1289 75.129 24.6216 74.6949 24.2575C74.2661 23.8784 73.6597 23.6879 72.8757 23.6861C72.1077 23.6843 71.3728 23.8642 70.6708 24.2256C69.9849 24.5871 69.3665 25.1 68.8156 25.7643C68.2859 26.4136 67.8689 27.1765 67.5646 28.0532C67.2602 28.9299 67.1446 29.7011 67.2177 30.3669C67.3068 31.0326 67.5658 31.5551 67.9946 31.9343C68.4446 32.2984 69.0537 32.4813 69.8217 32.483ZM79.0723 35.8171C79.9539 33.2777 80.846 30.7082 81.7485 28.1084C82.6511 25.5086 83.5432 22.9391 84.4248 20.3998C85.1288 20.4014 85.8328 20.403 86.5368 20.4046C87.2408 20.4062 87.9368 20.4078 88.6248 20.4094C87.9478 22.3592 87.263 24.3317 86.5704 26.3269C85.8829 28.307 85.2008 30.2719 84.5238 32.2217C85.3718 32.2237 86.2278 32.2257 87.0918 32.2276C87.9558 32.2296 88.8038 32.2316 89.6358 32.2335C89.4312 32.8229 89.2213 33.4275 89.0061 34.0473C88.7962 34.6519 88.5889 35.2489 88.3843 35.8384C86.8483 35.8349 85.2963 35.8313 83.7283 35.8277C82.1603 35.8241 80.6083 35.8206 79.0723 35.8171Z" fill="white"/>
</g>
<defs>
<filter id="filter0_dd_23_189" x="9" y="14.7605" width="99.2822" height="43.2095" filterUnits="userSpaceOnUse" color-interpolation-filters="sRGB">
<feFlood flood-opacity="0" result="BackgroundImageFix"/>
<feColorMatrix in="SourceAlpha" type="matrix" values="0 0 0 0 0 0 0 0 0 0 0 0 0 0 0 0 0 0 127 0" result="hardAlpha"/>
<feOffset dy="4"/>
<feGaussianBlur stdDeviation="2"/>
<feComposite in2="hardAlpha" operator="out"/>
<feColorMatrix type="matrix" values="0 0 0 0 0 0 0 0 0 0 0 0 0 0 0 0 0 0 0.25 0"/>
<feBlend mode="normal" in2="BackgroundImageFix" result="effect1_dropShadow_23_189"/>
<feColorMatrix in="SourceAlpha" type="matrix" values="0 0 0 0 0 0 0 0 0 0 0 0 0 0 0 0 0 0 127 0" result="hardAlpha"/>
<feOffset dy="4"/>
<feGaussianBlur stdDeviation="2"/>
<feComposite in2="hardAlpha" operator="out"/>
<feColorMatrix type="matrix" values="0 0 0 0 0 0 0 0 0 0 0 0 0 0 0 0 0 0 0.25 0"/>
<feBlend mode="normal" in2="effect1_dropShadow_23_189" result="effect2_dropShadow_23_189"/>
<feBlend mode="normal" in="SourceGraphic" in2="effect2_dropShadow_23_189" result="shape"/>
</filter>
<filter id="filter1_f_23_189" x="0.385742" y="0.845154" width="115.805" height="62.7982" filterUnits="userSpaceOnUse" color-interpolation-filters="sRGB">
<feFlood flood-opacity="0" result="BackgroundImageFix"/>
<feBlend mode="normal" in="SourceGraphic" in2="BackgroundImageFix" result="shape"/>
<feGaussianBlur stdDeviation="7.5" result="effect1_foregroundBlur_23_189"/>
</filter>
<linearGradient id="paint0_linear_23_189" x1="42.9025" y1="0" x2="42.9025" y2="32.683" gradientUnits="userSpaceOnUse">
<stop/>
<stop offset="1" stop-color="#1900FF"/>
</linearGradient>
</defs>
</svg>
