<svg width="406" height="100" viewBox="0 0 406 100" fill="none" xmlns="http://www.w3.org/2000/svg">
<path d="M366.14 81.6894C366.14 84.4508 363.901 86.6894 361.14 86.6894H11.0004C8.23898 86.6894 6.0004 84.4508 6.0004 81.6894V27.831C6.0004 25.0695 8.23898 22.831 11.0004 22.831H361.14C363.901 22.831 366.14 25.0695 366.14 27.831V81.6894Z" fill="black"/>
<g filter="url(#filter0_f_23_179)">
<rect width="338.53" height="59.2765" rx="29.6382" transform="matrix(0.999999 -0.000996763 0.00348479 0.999994 15.3086 25.0715)" fill="url(#paint0_linear_23_179)"/>
</g>
<path d="M54.8333 80.9521C57.3745 71.7775 59.9459 62.4937 62.5476 53.1007C65.1493 43.7077 67.7207 34.4239 70.2619 25.2494C73.7752 25.2494 77.2886 25.2494 80.8019 25.2494C84.3719 25.2494 87.8852 25.2494 91.3419 25.2494C95.2519 25.2494 98.4911 25.932 101.06 27.2972C103.643 28.6079 105.424 30.4647 106.402 32.8675C107.395 35.2158 107.445 38.0009 106.553 41.2229C105.917 43.5166 104.889 45.5918 103.468 47.4485C102.047 49.3053 100.256 50.8617 98.0949 52.1177C100.097 53.483 101.418 55.2578 102.06 57.4423C102.717 59.5721 102.682 61.9476 101.956 64.5689C101.049 67.8456 99.3761 70.7126 96.9388 73.1701C94.5581 75.6276 91.6203 77.539 88.1255 78.9042C84.6874 80.2695 80.9 80.9521 76.7633 80.9521C73.1366 80.9521 69.4816 80.9521 65.7983 80.9521C62.115 80.9521 58.46 80.9521 54.8333 80.9521ZM91.2918 42.6155C91.6851 41.1956 91.5494 40.0488 90.8847 39.175C90.2352 38.2467 89.1738 37.7825 87.7005 37.7825C86.6805 37.7825 85.6321 37.7825 84.5555 37.7825C83.5355 37.7825 82.5155 37.7825 81.4955 37.7825C81.0719 39.3116 80.6333 40.8953 80.1795 42.5336C79.7408 44.1173 79.3022 45.701 78.8635 47.2847C79.8835 47.2847 80.9035 47.2847 81.9235 47.2847C83.0002 47.2847 84.0485 47.2847 85.0685 47.2847C86.5419 47.2847 87.8453 46.8751 88.9789 46.056C90.1275 45.1822 90.8985 44.0354 91.2918 42.6155ZM87.4441 63.2583C87.8677 61.7292 87.6621 60.5278 86.8275 59.654C86.0646 58.7256 84.7765 58.2614 82.9632 58.2614C81.7732 58.2614 80.5832 58.2614 79.3932 58.2614C78.2032 58.2614 77.0132 58.2614 75.8232 58.2614C75.3543 59.9544 74.8854 61.6473 74.4165 63.3402C73.9475 65.0331 73.4786 66.7261 73.0097 68.419C74.1997 68.419 75.3897 68.419 76.5797 68.419C77.7697 68.419 78.9597 68.419 80.1497 68.419C81.9631 68.419 83.5083 67.9548 84.7854 67.0264C86.1193 66.098 87.0055 64.842 87.4441 63.2583ZM158.327 59.8178C157.374 63.2583 155.888 66.3711 153.87 69.1562C151.924 71.8868 149.574 74.235 146.819 76.201C144.121 78.167 141.155 79.6688 137.921 80.7064C134.744 81.744 131.455 82.2628 128.055 82.2628C124.598 82.2628 121.569 81.744 118.966 80.7064C116.364 79.6688 114.25 78.1943 112.626 76.2829C111.074 74.3169 110.081 71.9687 109.648 69.2382C109.214 66.5076 109.474 63.4221 110.426 59.9817C112.015 54.2476 113.618 48.4588 115.237 42.6155C116.855 36.7722 118.458 30.9835 120.047 25.2494C122.54 25.2494 125.033 25.2494 127.527 25.2494C130.02 25.2494 132.485 25.2494 134.922 25.2494C133.364 30.8742 131.798 36.5264 130.225 42.2059C128.652 47.8854 127.086 53.5376 125.528 59.1625C124.712 62.1115 124.904 64.487 126.104 66.2892C127.305 68.0913 129.237 68.9924 131.901 68.9924C134.564 68.9924 136.967 68.0913 139.109 66.2892C141.309 64.487 142.817 62.1115 143.633 59.1625C145.191 53.5376 146.757 47.8854 148.33 42.2059C149.903 36.5264 151.469 30.8742 153.027 25.2494C155.52 25.2494 158.013 25.2494 160.507 25.2494C163 25.2494 165.465 25.2494 167.902 25.2494C166.329 30.9288 164.733 36.6903 163.114 42.5336C161.496 48.3769 159.9 54.1383 158.327 59.8178ZM175.155 80.9521C176.078 77.6209 177.008 74.2623 177.946 70.8765C178.884 67.4906 179.814 64.1321 180.737 60.8008C179.352 54.9575 177.933 49.0322 176.481 43.0251C175.028 37.0179 173.609 31.0927 172.224 25.2494C174.831 25.2494 177.466 25.2494 180.129 25.2494C182.792 25.2494 185.427 25.2494 188.034 25.2494C188.755 28.5806 189.496 31.9391 190.258 35.325C191.092 38.6562 191.87 41.9875 192.59 45.3187C195.156 41.9875 197.751 38.6562 200.373 35.325C203.011 31.9391 205.613 28.5806 208.179 25.2494C210.786 25.2494 213.392 25.2494 215.999 25.2494C218.606 25.2494 221.212 25.2494 223.819 25.2494C219.197 31.0927 214.496 37.0179 209.716 43.0251C204.935 49.0322 200.234 54.9575 195.612 60.8008C194.689 64.1321 193.759 67.4906 192.821 70.8765C191.883 74.2623 190.953 77.6209 190.03 80.9521C187.594 80.9521 185.129 80.9521 182.635 80.9521C180.142 80.9521 177.649 80.9521 175.155 80.9521ZM235.533 82.2628C231.396 82.2628 227.768 81.5528 224.648 80.133C221.543 78.6585 219.078 76.6106 217.254 73.9893C215.431 71.368 214.302 68.2825 213.868 64.7328C213.45 61.1285 213.823 57.2238 214.988 53.0188C216.153 48.8138 217.935 44.9365 220.335 41.3868C222.735 37.8371 225.565 34.7789 228.826 32.2122C232.102 29.5909 235.693 27.5703 239.6 26.1504C243.522 24.6759 247.551 23.9387 251.688 23.9387C255.824 23.9387 259.417 24.6759 262.465 26.1504C265.585 27.5703 268.057 29.5909 269.881 32.2122C271.777 34.7789 272.941 37.8371 273.375 41.3868C273.808 44.9365 273.443 48.8138 272.278 53.0188C271.113 57.2238 269.323 61.1285 266.908 64.7328C264.508 68.2825 261.642 71.368 258.309 73.9893C255.033 76.6106 251.435 78.6585 247.513 80.133C243.663 81.5528 239.67 82.2628 235.533 82.2628ZM239.209 68.9924C241.985 68.9924 244.547 68.3371 246.893 67.0264C249.255 65.6612 251.306 63.7771 253.049 61.3742C254.847 58.9714 256.186 56.1862 257.063 53.0188C257.94 49.8514 258.137 47.0936 257.655 44.7453C257.228 42.3971 256.205 40.5676 254.585 39.257C252.979 37.8917 250.789 37.2091 248.012 37.2091C245.292 37.2091 242.73 37.8644 240.327 39.175C237.981 40.4857 235.908 42.3425 234.11 44.7453C232.382 47.0936 231.08 49.8514 230.203 53.0188C229.326 56.1862 229.092 58.9714 229.504 61.3742C229.971 63.7771 231.008 65.6612 232.613 67.0264C234.29 68.3371 236.489 68.9924 239.209 68.9924ZM272.729 80.9521C275.27 71.7775 277.841 62.4937 280.443 53.1007C283.045 43.7077 285.616 34.4239 288.157 25.2494C290.651 25.2494 293.144 25.2494 295.637 25.2494C298.131 25.2494 300.596 25.2494 303.032 25.2494C301.081 32.2941 299.107 39.4208 297.111 46.6294C295.129 53.7834 293.163 60.8827 291.211 67.9275C294.215 67.9275 297.246 67.9275 300.306 67.9275C303.366 67.9275 306.37 67.9275 309.316 67.9275C308.726 70.0573 308.121 72.2417 307.501 74.4808C306.896 76.6652 306.299 78.8223 305.709 80.9521C300.269 80.9521 294.772 80.9521 289.219 80.9521C283.665 80.9521 278.169 80.9521 272.729 80.9521Z" fill="white"/>
<defs>
<filter id="filter0_f_23_179" x="0.412109" y="9.76355" width="368.53" height="89.5545" filterUnits="userSpaceOnUse" color-interpolation-filters="sRGB">
<feFlood flood-opacity="0" result="BackgroundImageFix"/>
<feBlend mode="normal" in="SourceGraphic" in2="BackgroundImageFix" result="shape"/>
<feGaussianBlur stdDeviation="7.5" result="effect1_foregroundBlur_23_179"/>
</filter>
<linearGradient id="paint0_linear_23_179" x1="169.265" y1="0" x2="169.265" y2="59.2765" gradientUnits="userSpaceOnUse">
<stop/>
<stop offset="1" stop-color="#1900FF"/>
</linearGradient>
</defs>
</svg>
