<svg width="1134" height="361" viewBox="0 0 1134 361" fill="none" xmlns="http://www.w3.org/2000/svg">
<g filter="url(#filter0_d_29_13)">
<rect x="4.30273" y="0.20166" width="1125" height="345" rx="50" fill="black"/>
<g filter="url(#filter1_df_29_13)">
<rect width="988.042" height="241.008" rx="28.5997" transform="matrix(1 -0.000307326 0.0113017 0.999936 66.2344 69.3113)" fill="url(#paint0_linear_29_13)"/>
</g>
<path d="M71.2542 289.807C76.6957 253.25 82.2019 216.257 87.7729 178.83C93.3439 141.402 98.8501 104.41 104.292 67.8525C117.932 67.8525 131.572 67.8525 145.212 67.8525C159.072 67.8525 172.712 67.8525 186.132 67.8525C201.312 67.8525 214.217 70.5725 224.847 76.0126C235.51 81.235 243.318 88.6335 248.273 98.208C253.26 107.565 254.799 118.663 252.888 131.501C251.527 140.641 248.536 148.909 243.915 156.308C239.294 163.706 233.091 169.908 225.306 174.913C233.736 180.353 239.723 187.425 243.268 196.129C246.845 204.616 247.856 214.081 246.301 224.526C244.358 237.583 239.247 249.007 230.97 258.799C222.912 268.591 212.429 276.207 199.519 281.647C186.829 287.087 172.454 289.807 156.394 289.807C142.314 289.807 128.124 289.807 113.824 289.807C99.5242 289.807 85.3342 289.807 71.2542 289.807ZM194.312 137.05C195.154 131.392 194.074 126.823 191.072 123.341C188.103 119.642 183.758 117.792 178.038 117.792C174.078 117.792 170.008 117.792 165.828 117.792C161.868 117.792 157.908 117.792 153.948 117.792C153.041 123.885 152.102 130.196 151.13 136.724C150.191 143.034 149.252 149.345 148.312 155.655C152.272 155.655 156.232 155.655 160.192 155.655C164.372 155.655 168.442 155.655 172.402 155.655C178.122 155.655 182.985 154.023 186.991 150.759C191.029 147.277 193.47 142.708 194.312 137.05ZM189.328 219.304C190.235 213.211 188.858 208.424 185.196 204.942C181.787 201.243 176.562 199.393 169.522 199.393C164.902 199.393 160.282 199.393 155.662 199.393C151.042 199.393 146.422 199.393 141.802 199.393C140.798 206.139 139.794 212.885 138.79 219.63C137.786 226.376 136.782 233.122 135.778 239.867C140.398 239.867 145.018 239.867 149.638 239.867C154.258 239.867 158.878 239.867 163.498 239.867C170.538 239.867 176.313 238.018 180.824 234.319C185.554 230.619 188.389 225.614 189.328 219.304ZM462.861 205.595C460.82 219.304 456.554 231.707 450.062 242.805C443.823 253.685 435.83 263.042 426.084 270.876C416.558 278.709 405.767 284.694 393.712 288.828C381.877 292.962 369.359 295.03 356.159 295.03C342.739 295.03 330.727 292.962 320.122 288.828C309.517 284.694 300.602 278.818 293.376 271.202C286.402 263.368 281.414 254.012 278.414 243.131C275.413 232.251 274.933 219.957 276.974 206.248C280.375 183.399 283.808 160.334 287.274 137.05C290.739 113.767 294.173 90.7007 297.574 67.8525C307.254 67.8525 316.934 67.8525 326.614 67.8525C336.294 67.8525 345.864 67.8525 355.324 67.8525C351.987 90.2655 348.635 112.787 345.267 135.418C341.898 158.049 338.546 180.571 335.21 202.984C333.461 214.734 335.352 224.2 340.883 231.381C346.414 238.562 354.35 242.152 364.69 242.152C375.03 242.152 383.924 238.562 391.373 231.381C399.042 224.2 403.751 214.734 405.5 202.984C408.836 180.571 412.188 158.049 415.557 135.418C418.925 112.787 422.277 90.2655 425.614 67.8525C435.294 67.8525 444.974 67.8525 454.654 67.8525C464.334 67.8525 473.904 67.8525 483.364 67.8525C479.995 90.4831 476.578 113.44 473.112 136.724C469.647 160.007 466.23 182.964 462.861 205.595ZM538.387 289.807C540.363 276.533 542.355 263.151 544.363 249.659C546.371 236.168 548.363 222.786 550.339 209.512C542.145 186.228 533.779 162.618 525.242 138.682C516.705 114.746 508.339 91.1359 500.145 67.8525C510.265 67.8525 520.495 67.8525 530.835 67.8525C541.175 67.8525 551.405 67.8525 561.525 67.8525C565.929 81.1262 570.427 94.5088 575.019 108C579.863 121.274 584.487 134.548 588.891 147.821C597.247 134.548 605.713 121.274 614.289 108C622.897 94.5088 631.379 81.1262 639.735 67.8525C649.855 67.8525 659.975 67.8525 670.095 67.8525C680.215 67.8525 690.335 67.8525 700.455 67.8525C685.329 91.1359 669.935 114.746 654.272 138.682C638.609 162.618 623.215 186.228 608.089 209.512C606.113 222.786 604.121 236.168 602.113 249.659C600.105 263.151 598.113 276.533 596.137 289.807C586.677 289.807 577.107 289.807 567.427 289.807C557.747 289.807 548.067 289.807 538.387 289.807ZM773.426 295.03C757.366 295.03 742.937 292.201 730.139 286.543C717.374 280.668 706.818 272.508 698.473 262.063C690.128 251.618 684.258 239.323 680.863 225.179C677.501 210.817 677.066 195.259 679.56 178.503C682.054 161.748 687.104 146.298 694.709 132.154C702.315 118.01 711.829 105.824 723.251 95.5968C734.706 85.1519 747.674 77.1006 762.156 71.4429C776.671 65.5676 791.958 62.63 808.018 62.63C824.078 62.63 838.381 65.5676 850.926 71.4429C863.724 77.1006 874.296 85.1519 882.641 95.5968C891.239 105.824 897.235 118.01 900.629 132.154C904.024 146.298 904.474 161.748 901.98 178.503C899.486 195.259 894.421 210.817 886.783 225.179C879.178 239.323 869.538 251.618 857.863 262.063C846.408 272.508 833.424 280.668 818.909 286.543C804.647 292.201 789.486 295.03 773.426 295.03ZM781.297 242.152C792.077 242.152 801.705 239.541 810.183 234.319C818.692 228.878 825.75 221.371 831.355 211.797C837.18 202.222 841.032 191.124 842.91 178.503C844.789 165.882 844.225 154.894 841.217 145.537C838.43 136.18 833.575 128.89 826.653 123.668C819.762 118.227 810.927 115.507 800.147 115.507C789.587 115.507 779.959 118.119 771.261 123.341C762.784 128.564 755.633 135.962 749.807 145.537C744.235 154.894 740.509 165.882 738.63 178.503C736.752 191.124 737.19 202.222 739.945 211.797C742.92 221.371 747.852 228.878 754.743 234.319C761.885 239.541 770.737 242.152 781.297 242.152ZM917.201 289.807C922.643 253.25 928.149 216.257 933.72 178.83C939.291 141.402 944.797 104.41 950.239 67.8525C959.919 67.8525 969.599 67.8525 979.279 67.8525C988.959 67.8525 998.529 67.8525 1007.99 67.8525C1003.81 95.9232 999.584 124.32 995.308 153.044C991.065 181.55 986.855 209.838 982.676 237.909C994.336 237.909 1006.11 237.909 1017.99 237.909C1029.87 237.909 1041.53 237.909 1052.97 237.909C1051.7 246.395 1050.41 255.1 1049.08 264.021C1047.78 272.725 1046.5 281.321 1045.24 289.807C1024.12 289.807 1002.78 289.807 981.221 289.807C959.661 289.807 938.321 289.807 917.201 289.807Z" fill="white"/>
</g>
<defs>
<filter id="filter0_d_29_13" x="0.302734" y="0.20166" width="1133" height="353" filterUnits="userSpaceOnUse" color-interpolation-filters="sRGB">
<feFlood flood-opacity="0" result="BackgroundImageFix"/>
<feColorMatrix in="SourceAlpha" type="matrix" values="0 0 0 0 0 0 0 0 0 0 0 0 0 0 0 0 0 0 127 0" result="hardAlpha"/>
<feOffset dy="4"/>
<feGaussianBlur stdDeviation="2"/>
<feComposite in2="hardAlpha" operator="out"/>
<feColorMatrix type="matrix" values="0 0 0 0 0 0 0 0 0 0 0 0 0 0 0 0 0 0 0.25 0"/>
<feBlend mode="normal" in2="BackgroundImageFix" result="effect1_dropShadow_29_13"/>
<feBlend mode="normal" in="SourceGraphic" in2="effect1_dropShadow_29_13" result="shape"/>
</filter>
<filter id="filter1_df_29_13" x="16.5557" y="19.0164" width="1090.12" height="341.279" filterUnits="userSpaceOnUse" color-interpolation-filters="sRGB">
<feFlood flood-opacity="0" result="BackgroundImageFix"/>
<feColorMatrix in="SourceAlpha" type="matrix" values="0 0 0 0 0 0 0 0 0 0 0 0 0 0 0 0 0 0 127 0" result="hardAlpha"/>
<feOffset dy="4"/>
<feGaussianBlur stdDeviation="2"/>
<feComposite in2="hardAlpha" operator="out"/>
<feColorMatrix type="matrix" values="0 0 0 0 0 0 0 0 0 0 0 0 0 0 0 0 0 0 0.25 0"/>
<feBlend mode="normal" in2="BackgroundImageFix" result="effect1_dropShadow_29_13"/>
<feBlend mode="normal" in="SourceGraphic" in2="effect1_dropShadow_29_13" result="shape"/>
<feGaussianBlur stdDeviation="25" result="effect2_foregroundBlur_29_13"/>
</filter>
<linearGradient id="paint0_linear_29_13" x1="494.021" y1="0" x2="494.021" y2="241.008" gradientUnits="userSpaceOnUse">
<stop stop-color="#0E0181"/>
<stop offset="1" stop-color="#0E0181"/>
</linearGradient>
</defs>
</svg>
