<svg width="2508" height="1081" viewBox="0 0 2508 1081" fill="none" xmlns="http://www.w3.org/2000/svg">
<g filter="url(#filter0_d_29_13)">
<rect x="4" width="2500" height="1000" rx="50" fill="black"/>
<g filter="url(#filter1_df_29_13)">
<rect width="1953.22" height="421.125" rx="28.5997" transform="matrix(1 -0.000454137 0.00764843 0.999971 254.779 259.887)" fill="url(#paint0_linear_29_13)"/>
</g>
<path d="M253.036 681.457C279.076 613.474 305.427 544.681 332.087 475.079C358.748 405.477 385.098 336.685 411.138 268.701C438.005 268.701 464.872 268.701 491.738 268.701C519.038 268.701 545.905 268.701 572.338 268.701C602.238 268.701 626.518 273.76 645.176 283.876C663.989 293.588 676.269 307.347 682.016 325.152C687.917 342.552 686.295 363.19 677.15 387.065C670.64 404.061 661.283 419.438 649.08 433.197C636.876 446.955 622.059 458.488 604.627 467.795C618.952 477.912 627.781 491.063 631.114 507.25C634.603 523.032 632.627 540.635 625.187 560.058C615.886 584.338 601.032 605.583 580.624 623.793C560.649 642.003 536.807 656.166 509.098 666.282C481.823 676.399 452.369 681.457 420.736 681.457C393.003 681.457 365.053 681.457 336.886 681.457C308.719 681.457 280.769 681.457 253.036 681.457ZM559.448 397.384C563.478 386.863 563.266 378.365 558.813 371.89C554.515 365.011 546.732 361.571 535.465 361.571C527.665 361.571 519.649 361.571 511.415 361.571C503.615 361.571 495.815 361.571 488.015 361.571C483.675 372.902 479.18 384.637 474.53 396.777C470.035 408.512 465.54 420.247 461.045 431.983C468.845 431.983 476.645 431.983 484.445 431.983C492.678 431.983 500.695 431.983 508.495 431.983C519.762 431.983 530.024 428.948 539.282 422.878C548.696 416.403 555.418 407.905 559.448 397.384ZM515.157 550.347C519.497 539.016 518.79 530.113 513.037 523.639C507.872 516.76 498.356 513.32 484.489 513.32C475.389 513.32 466.289 513.32 457.189 513.32C448.089 513.32 438.989 513.32 429.889 513.32C425.084 525.864 420.279 538.409 415.474 550.954C410.669 563.498 405.864 576.043 401.059 588.587C410.159 588.587 419.259 588.587 428.359 588.587C437.459 588.587 446.559 588.587 455.659 588.587C469.526 588.587 481.676 585.148 492.111 578.268C502.98 571.389 510.662 562.082 515.157 550.347ZM1059.68 524.853C1049.91 550.347 1036.31 573.412 1018.87 594.05C1002.02 614.283 982.358 631.684 959.878 646.252C937.831 660.82 914.069 671.948 888.59 679.636C863.545 687.325 838.023 691.169 812.023 691.169C785.589 691.169 762.795 687.325 743.64 679.636C724.485 671.948 709.387 661.022 698.346 646.859C687.892 632.291 681.991 614.89 680.641 594.657C679.291 574.424 683.499 551.561 693.264 526.067C709.539 483.577 725.969 440.683 742.555 397.384C759.14 354.085 775.57 311.191 791.845 268.701C810.912 268.701 829.979 268.701 849.045 268.701C868.112 268.701 886.962 268.701 905.595 268.701C889.63 310.382 873.587 352.264 857.467 394.349C841.347 436.434 825.304 478.317 809.339 519.997C800.969 541.849 800.726 559.451 808.611 572.805C816.496 586.159 830.622 592.836 850.988 592.836C871.355 592.836 890.379 586.159 908.061 572.805C926.176 559.451 939.419 541.849 947.789 519.997C963.754 478.317 979.797 436.434 995.917 394.349C1012.04 352.264 1028.08 310.382 1044.05 268.701C1063.11 268.701 1082.18 268.701 1101.25 268.701C1120.31 268.701 1139.16 268.701 1157.8 268.701C1141.68 310.786 1125.32 353.478 1108.74 396.777C1092.15 440.076 1075.8 482.768 1059.68 524.853ZM1173.15 681.457C1182.6 656.773 1192.13 631.886 1201.74 606.797C1211.35 581.708 1220.89 556.821 1230.34 532.137C1223.96 488.838 1217.38 444.932 1210.6 400.419C1203.81 355.906 1197.23 312 1190.85 268.701C1210.78 268.701 1230.93 268.701 1251.3 268.701C1271.67 268.701 1291.82 268.701 1311.75 268.701C1314.86 293.386 1318.11 318.272 1321.5 343.362C1325.48 368.046 1329.02 392.73 1332.14 417.415C1354.16 392.73 1376.4 368.046 1398.85 343.362C1421.46 318.272 1443.78 293.386 1465.8 268.701C1485.73 268.701 1505.67 268.701 1525.6 268.701C1545.53 268.701 1565.47 268.701 1585.4 268.701C1545.85 312 1505.63 355.906 1464.75 400.419C1423.86 444.932 1383.64 488.838 1344.09 532.137C1334.64 556.821 1325.1 581.708 1315.49 606.797C1305.88 631.886 1296.35 656.773 1286.9 681.457C1268.26 681.457 1249.41 681.457 1230.35 681.457C1211.28 681.457 1192.21 681.457 1173.15 681.457ZM1633.91 691.169C1602.28 691.169 1575.04 685.909 1552.21 675.387C1529.53 664.461 1512.16 649.287 1500.1 629.863C1488.04 610.439 1481.63 587.576 1480.87 561.272C1480.26 534.565 1485.93 505.631 1497.87 474.472C1509.8 443.313 1526.22 414.582 1547.13 388.279C1568.04 361.976 1591.89 339.315 1618.67 320.296C1645.61 300.872 1674.53 285.899 1705.43 275.378C1736.48 264.452 1767.82 258.989 1799.46 258.989C1831.09 258.989 1858.03 264.452 1880.28 275.378C1903.11 285.899 1920.56 300.872 1932.62 320.296C1945.27 339.315 1951.97 361.976 1952.73 388.279C1953.49 414.582 1947.9 443.313 1935.97 474.472C1924.03 505.631 1907.53 534.565 1886.47 561.272C1865.56 587.576 1841.42 610.439 1814.05 629.863C1787.11 649.287 1758.11 664.461 1727.06 675.387C1696.59 685.909 1665.55 691.169 1633.91 691.169ZM1671.58 592.836C1692.81 592.836 1712.87 587.98 1731.76 578.268C1750.8 568.152 1767.85 554.191 1782.9 536.386C1798.39 518.581 1810.63 497.943 1819.62 474.472C1828.61 451.002 1832.1 430.566 1830.1 413.166C1828.53 395.765 1822.02 382.209 1810.58 372.497C1799.29 362.381 1783.02 357.322 1761.79 357.322C1740.99 357.322 1720.93 362.178 1701.61 371.89C1682.72 381.602 1665.54 395.361 1650.05 413.166C1635.15 430.566 1623.21 451.002 1614.22 474.472C1605.23 497.943 1601.44 518.581 1602.85 536.386C1604.7 554.191 1611.27 568.152 1622.56 578.268C1634.44 587.98 1650.78 592.836 1671.58 592.836ZM1919.3 681.457C1945.34 613.474 1971.69 544.681 1998.35 475.079C2025.01 405.477 2051.36 336.685 2077.4 268.701C2096.46 268.701 2115.53 268.701 2134.6 268.701C2153.66 268.701 2172.51 268.701 2191.15 268.701C2171.15 320.903 2150.93 373.711 2130.46 427.127C2110.16 480.138 2090.01 532.744 2070.01 584.945C2092.98 584.945 2116.16 584.945 2139.56 584.945C2162.96 584.945 2185.93 584.945 2208.46 584.945C2202.42 600.727 2196.22 616.914 2189.86 633.505C2183.66 649.691 2177.54 665.675 2171.5 681.457C2129.9 681.457 2087.86 681.457 2045.4 681.457C2002.93 681.457 1960.9 681.457 1919.3 681.457Z" fill="white"/>
</g>
<defs>
<filter id="filter0_d_29_13" x="0" y="0" width="2508" height="1008" filterUnits="userSpaceOnUse" color-interpolation-filters="sRGB">
<feFlood flood-opacity="0" result="BackgroundImageFix"/>
<feColorMatrix in="SourceAlpha" type="matrix" values="0 0 0 0 0 0 0 0 0 0 0 0 0 0 0 0 0 0 127 0" result="hardAlpha"/>
<feOffset dy="4"/>
<feGaussianBlur stdDeviation="2"/>
<feComposite in2="hardAlpha" operator="out"/>
<feColorMatrix type="matrix" values="0 0 0 0 0 0 0 0 0 0 0 0 0 0 0 0 0 0 0.25 0"/>
<feBlend mode="normal" in2="BackgroundImageFix" result="effect1_dropShadow_29_13"/>
<feBlend mode="normal" in="SourceGraphic" in2="effect1_dropShadow_29_13" result="shape"/>
</filter>
<filter id="filter1_df_29_13" x="204.997" y="209.013" width="2056.01" height="521.974" filterUnits="userSpaceOnUse" color-interpolation-filters="sRGB">
<feFlood flood-opacity="0" result="BackgroundImageFix"/>
<feColorMatrix in="SourceAlpha" type="matrix" values="0 0 0 0 0 0 0 0 0 0 0 0 0 0 0 0 0 0 127 0" result="hardAlpha"/>
<feOffset dy="4"/>
<feGaussianBlur stdDeviation="2"/>
<feComposite in2="hardAlpha" operator="out"/>
<feColorMatrix type="matrix" values="0 0 0 0 0 0 0 0 0 0 0 0 0 0 0 0 0 0 0.25 0"/>
<feBlend mode="normal" in2="BackgroundImageFix" result="effect1_dropShadow_29_13"/>
<feBlend mode="normal" in="SourceGraphic" in2="effect1_dropShadow_29_13" result="shape"/>
<feGaussianBlur stdDeviation="25" result="effect2_foregroundBlur_29_13"/>
</filter>
<linearGradient id="paint0_linear_29_13" x1="976.61" y1="0" x2="976.61" y2="421.125" gradientUnits="userSpaceOnUse">
<stop stop-color="#0E0181"/>
<stop offset="1" stop-color="#0E0181"/>
</linearGradient>
</defs>
</svg>
