<svg width="1072" height="337" viewBox="0 0 1072 337" fill="none" xmlns="http://www.w3.org/2000/svg">
<path d="M844.489 218.853C844.489 221.615 842.251 223.853 839.489 223.853H5.00035C2.23892 223.853 0.00032568 221.615 0.00032568 218.853V14.0718C0.00032568 11.3104 2.2389 9.07178 5.00033 9.07178H839.489C842.251 9.07178 844.489 11.3104 844.489 14.0718V218.853Z" fill="black"/>
<g filter="url(#filter0_f_23_179)">
<rect width="793.818" height="199.37" rx="31.8403" transform="matrix(0.999999 -0.00142971 0.00242954 0.999997 21.8271 16.6075)" fill="url(#paint0_linear_23_179)"/>
</g>
<path d="M216.511 143.974C218.892 131.886 221.302 119.654 223.74 107.279C226.178 94.9033 228.587 82.6717 230.969 70.584C235.515 70.6024 240.062 70.6207 244.608 70.6391C249.228 70.6577 253.775 70.6761 258.248 70.6942C263.308 70.7146 267.568 71.6319 271.027 73.4461C274.5 75.1883 276.988 77.6466 278.491 80.821C280.008 83.9235 280.349 87.5972 279.512 91.8423C278.917 94.8642 277.792 97.596 276.136 100.038C274.481 102.479 272.317 104.523 269.645 106.168C272.37 107.979 274.256 110.327 275.303 113.212C276.363 116.024 276.553 119.157 275.873 122.611C275.023 126.928 273.142 130.701 270.231 133.929C267.393 137.158 263.78 139.664 259.392 141.446C255.078 143.229 250.244 144.11 244.891 144.088C240.198 144.069 235.468 144.05 230.701 144.031C225.934 144.012 221.205 143.992 216.511 143.974ZM259.901 93.5993C260.269 91.7286 259.98 90.2153 259.034 89.0593C258.102 87.8314 256.682 87.2136 254.775 87.2059C253.455 87.2006 252.099 87.1951 250.705 87.1895C249.385 87.1842 248.065 87.1788 246.745 87.1735C246.349 89.1881 245.938 91.2747 245.512 93.4332C245.101 95.5198 244.69 97.6063 244.279 99.6929C245.599 99.6982 246.919 99.7035 248.239 99.7089C249.633 99.7145 250.989 99.72 252.309 99.7253C254.216 99.733 255.862 99.1996 257.248 98.1251C258.648 96.9786 259.532 95.47 259.901 93.5993ZM256.963 120.806C257.36 118.792 256.975 117.206 255.809 116.049C254.73 114.821 253.017 114.202 250.67 114.192C249.13 114.186 247.59 114.18 246.05 114.174C244.51 114.167 242.97 114.161 241.43 114.155C240.991 116.385 240.552 118.616 240.112 120.846C239.673 123.077 239.233 125.307 238.794 127.538C240.334 127.544 241.874 127.55 243.414 127.556C244.954 127.563 246.494 127.569 248.034 127.575C250.381 127.585 252.334 126.98 253.895 125.763C255.53 124.545 256.552 122.893 256.963 120.806ZM348.353 116.639C347.46 121.172 345.845 125.27 343.509 128.933C341.26 132.524 338.451 135.609 335.081 138.188C331.784 140.767 328.094 142.732 324.011 144.084C320.002 145.436 315.798 146.103 311.398 146.085C306.924 146.067 302.952 145.367 299.482 143.985C296.011 142.602 293.13 140.647 290.84 138.117C288.637 135.516 287.12 132.413 286.288 128.81C285.457 125.206 285.488 121.138 286.381 116.605C287.869 109.05 289.371 101.423 290.888 93.7244C292.405 86.0257 293.907 78.399 295.395 70.8442C298.622 70.8572 301.849 70.8702 305.075 70.8833C308.302 70.8963 311.492 70.9092 314.645 70.9219C313.185 78.3328 311.718 85.7797 310.244 93.2626C308.77 100.745 307.303 108.192 305.843 115.603C305.078 119.489 305.561 122.623 307.294 125.006C309.026 127.389 311.615 128.588 315.062 128.602C318.509 128.616 321.529 127.44 324.123 125.074C326.791 122.709 328.508 119.583 329.273 115.698C330.733 108.287 332.2 100.84 333.674 93.3572C335.148 85.8743 336.615 78.4274 338.075 71.0165C341.302 71.0296 344.528 71.0426 347.755 71.0556C350.982 71.0687 354.172 71.0815 357.325 71.0943C355.851 78.5771 354.355 86.1679 352.839 93.8666C351.322 101.565 349.827 109.156 348.353 116.639ZM372.221 144.602C373.086 140.213 373.957 135.788 374.836 131.327C375.715 126.867 376.587 122.442 377.451 118.053C375.081 110.338 372.659 102.516 370.185 94.5847C367.711 86.6539 365.288 78.8313 362.918 71.1169C366.292 71.1305 369.702 71.1443 373.148 71.1582C376.595 71.1721 380.005 71.1859 383.378 71.1995C384.64 75.5971 385.932 80.0308 387.253 84.5006C388.662 88.8987 389.997 93.2966 391.259 97.6942C394.251 93.3138 397.278 88.9335 400.343 84.5534C403.422 80.1014 406.457 75.6852 409.448 71.3048C412.821 71.3184 416.195 71.332 419.568 71.3456C422.941 71.3593 426.315 71.3729 429.688 71.3865C424.285 79.0695 418.787 86.8602 413.194 94.7584C407.602 102.657 402.104 110.447 396.701 118.13C395.836 122.519 394.965 126.944 394.086 131.405C393.207 135.866 392.335 140.291 391.471 144.68C388.318 144.667 385.128 144.654 381.901 144.641C378.674 144.628 375.448 144.615 372.221 144.602ZM450.485 146.647C445.132 146.625 440.366 145.67 436.188 143.781C432.024 141.82 428.633 139.106 426.013 135.639C423.393 132.172 421.628 128.096 420.716 123.412C419.818 118.656 419.914 113.508 421.006 107.967C422.097 102.427 424.02 97.3224 426.775 92.653C429.529 87.9837 432.89 83.9648 436.856 80.5964C440.836 77.1561 445.284 74.5098 450.199 72.6575C455.128 70.7332 460.27 69.7818 465.623 69.8034C470.976 69.8251 475.698 70.8162 479.789 72.777C483.967 74.666 487.366 77.3441 489.986 80.811C492.693 84.2063 494.502 88.246 495.414 92.9302C496.326 97.6144 496.237 102.727 495.145 108.267C494.054 113.807 492.124 118.948 489.355 123.689C486.6 128.358 483.196 132.413 479.143 135.853C475.162 139.293 470.707 141.976 465.778 143.9C460.936 145.753 455.839 146.668 450.485 146.647ZM453.93 129.163C457.523 129.177 460.773 128.326 463.68 126.61C466.601 124.821 469.07 122.347 471.087 119.187C473.177 116.027 474.633 112.36 475.455 108.187C476.277 104.014 476.26 100.378 475.403 97.2779C474.619 94.1784 473.114 91.7601 470.887 90.0229C468.675 88.2138 465.772 87.3019 462.179 87.2874C458.659 87.2732 455.409 88.1242 452.429 89.8403C449.522 91.5568 447.023 93.995 444.933 97.1549C442.93 100.243 441.518 103.874 440.696 108.047C439.874 112.22 439.847 115.892 440.617 119.064C441.46 122.236 442.988 124.726 445.2 126.535C447.5 128.273 450.41 129.148 453.93 129.163ZM498.491 145.112C500.873 133.025 503.282 120.793 505.72 108.418C508.158 96.042 510.567 83.8104 512.949 71.7228C516.175 71.7358 519.402 71.7488 522.629 71.7618C525.855 71.7749 529.045 71.7878 532.198 71.8005C530.37 81.0821 528.52 90.4717 526.649 99.9691C524.793 109.395 522.95 118.748 521.122 128.03C525.008 128.046 528.932 128.061 532.892 128.077C536.852 128.093 540.738 128.109 544.551 128.124C543.999 130.931 543.432 133.809 542.851 136.759C542.284 139.637 541.724 142.479 541.171 145.285C534.131 145.256 527.018 145.228 519.831 145.198C512.645 145.169 505.531 145.141 498.491 145.112Z" fill="white"/>
<defs>
<filter id="filter0_f_23_179" x="6.9043" y="0.518127" width="824.147" height="230.413" filterUnits="userSpaceOnUse" color-interpolation-filters="sRGB">
<feFlood flood-opacity="0" result="BackgroundImageFix"/>
<feBlend mode="normal" in="SourceGraphic" in2="BackgroundImageFix" result="shape"/>
<feGaussianBlur stdDeviation="7.5" result="effect1_foregroundBlur_23_179"/>
</filter>
<linearGradient id="paint0_linear_23_179" x1="396.909" y1="0" x2="396.909" y2="199.37" gradientUnits="userSpaceOnUse">
<stop/>
<stop offset="1" stop-color="#1900FF"/>
</linearGradient>
</defs>
</svg>
