<svg width="254" height="60" viewBox="0 0 254 60" fill="none" xmlns="http://www.w3.org/2000/svg">
<rect x="143" width="111" height="60" rx="8" fill="#2973B2"/>
<path d="M224.77 44.1522H238.552L247.052 53.9348L214.252 53.9348V6H224.77V44.1522Z" fill="white"/>
<path fill-rule="evenodd" clip-rule="evenodd" d="M151.252 29.2974C151.252 15.2529 160.299 6 175.752 6C191.206 6 200.252 15.2529 200.252 29.2974C200.252 43.342 191.405 53.9348 175.752 53.9348C160.099 53.9348 151.252 43.435 151.252 29.2974ZM175.752 15.7826C184.127 15.7826 190.252 21.2055 190.252 29.2974C190.252 37.4824 184.027 44.1522 175.752 44.1522C167.477 44.1522 161.252 37.3894 161.252 29.2974C161.252 21.2055 167.378 15.7826 175.752 15.7826Z" fill="white"/>
<path d="M107.752 6.06519L112.841 15.0542L116.752 22.7608C116.752 22.7608 119.8 27.8486 121.752 31.1087C121.752 41.2963 121.752 53.9347 121.752 53.9347H111.752V31.1087L95.7524 6.06519H107.752Z" fill="black"/>
<path fill-rule="evenodd" clip-rule="evenodd" d="M118.752 19.472C120.778 22.7517 121.727 24.8323 123.752 28.112C129.342 19.0803 137.252 6.06519 137.252 6.06519H125.752L120.757 14.8838C120.757 14.8838 119.926 17.1639 118.752 19.472Z" fill="black"/>
<path fill-rule="evenodd" clip-rule="evenodd" d="M45 6.06519V37.6669C45 47.746 52.0612 54 63.3762 54C74.6912 54 81.7524 47.6684 81.7524 37.5893V6.06519L71.2031 6.06519V36.814C71.2031 42.0862 68.4807 44.8773 63.3762 44.8773C58.2717 44.8773 55.5493 42.0862 55.5493 36.814V6.06519H45Z" fill="black"/>
<path d="M10.3513 6.06519V54H0V6.06519H10.3513Z" fill="black"/>
<path d="M31 20.25C31 11.8429 27.0227 6.06519 17 6.06519H10.3513V13.8896H16C20.3541 13.8896 23 15.9815 23 19.7608C23 23.5402 20.3541 26.16 16 26.16L10.3513 26.117V33.8465H16.7593C26.782 33.8465 31 28.657 31 20.25Z" fill="black"/>
<path d="M31 40.3043C31 31.8973 26.782 26.16 16.7593 26.16H14.1304V33.8465H15.9583C20.3124 33.8465 23 36.0359 23 39.8152C23 43.5945 20.3541 46.1739 16 46.1739H10.3513V54H17C27.0227 54 31 48.7114 31 40.3043Z" fill="black"/>
</svg>
