<svg width="454" height="151" viewBox="0 0 454 151" fill="none" xmlns="http://www.w3.org/2000/svg">
<path d="M426.245 134.609C426.245 137.371 424.007 139.609 421.245 139.609H9.00065C6.23923 139.609 4.00065 137.371 4.00065 134.609V37.2186C4.00065 34.4572 6.23923 32.2186 9.00065 32.2186H421.245C424.007 32.2186 426.245 34.4572 426.245 37.2186V134.609Z" fill="black"/>
<g filter="url(#filter0_f_23_179)">
<rect width="396.909" height="99.6849" rx="31.8403" transform="matrix(0.999999 -0.00142971 0.00242954 0.999997 14.9141 35.9865)" fill="url(#paint0_linear_23_179)"/>
</g>
<path d="M19.2974 107.339C21.6786 95.2514 24.0881 83.0198 26.526 70.6443C28.9639 58.2688 31.3734 46.0372 33.7546 33.9495C38.3013 33.9679 42.8479 33.9862 47.3945 34.0046C52.0145 34.0232 56.5611 34.0416 61.0344 34.0597C66.0944 34.0801 70.3538 34.9974 73.8128 36.8116C77.2859 38.5538 79.774 41.0121 81.277 44.1865C82.7942 47.289 83.1346 50.9627 82.2984 55.2078C81.7031 58.2297 80.5778 60.9615 78.9226 63.4031C77.2673 65.8447 75.1034 67.8881 72.4308 69.5335C75.1564 71.3447 77.0424 73.6926 78.0888 76.5771C79.1493 79.3897 79.3394 82.5228 78.6591 85.9764C77.8086 90.2935 75.9279 94.0663 73.0167 97.2949C70.1789 100.524 66.5662 103.029 62.1785 104.812C57.8642 106.595 53.0304 107.475 47.6771 107.454C42.9838 107.435 38.2539 107.416 33.4873 107.396C28.7206 107.377 23.9907 107.358 19.2974 107.339ZM62.6871 56.9648C63.0556 55.0941 62.7666 53.5808 61.8201 52.4248C60.8877 51.1969 59.4682 50.5791 57.5615 50.5714C56.2415 50.5661 54.8849 50.5606 53.4916 50.555C52.1716 50.5497 50.8516 50.5443 49.5316 50.539C49.1347 52.5536 48.7237 54.6402 48.2985 56.7987C47.8874 58.8853 47.4764 60.9718 47.0654 63.0584C48.3854 63.0637 49.7053 63.0691 51.0253 63.0744C52.4187 63.08 53.7753 63.0855 55.0953 63.0908C57.0019 63.0985 58.6482 62.5651 60.0342 61.4906C61.4343 60.3441 62.3186 58.8355 62.6871 56.9648ZM59.7494 84.1719C60.1463 82.1573 59.7614 80.5716 58.5949 79.4147C57.5158 78.1862 55.803 77.5672 53.4564 77.5578C51.9164 77.5515 50.3764 77.5453 48.8364 77.5391C47.2964 77.5329 45.7564 77.5267 44.2164 77.5205C43.777 79.7509 43.3377 81.9814 42.8983 84.2119C42.4589 86.4423 42.0195 88.6728 41.5801 90.9033C43.1201 90.9095 44.6601 90.9157 46.2001 90.9219C47.7401 90.9281 49.28 90.9344 50.82 90.9406C53.1667 90.95 55.1205 90.3459 56.6814 89.128C58.3157 87.9105 59.3384 86.2585 59.7494 84.1719ZM151.139 80.0045C150.246 84.5374 148.631 88.6353 146.295 92.2982C144.047 95.8896 141.237 98.9745 137.867 101.553C134.57 104.132 130.88 106.097 126.798 107.449C122.788 108.801 118.584 109.468 114.184 109.45C109.71 109.432 105.738 108.732 102.268 107.35C98.7972 105.968 95.9165 104.012 93.626 101.483C91.4229 98.8814 89.9057 95.7789 89.0744 92.1752C88.2432 88.5714 88.274 84.5031 89.1669 79.9702C90.6552 72.4154 92.1576 64.7887 93.6742 57.09C95.1908 49.3912 96.6932 41.7645 98.1815 34.2097C101.408 34.2227 104.635 34.2357 107.861 34.2488C111.088 34.2618 114.278 34.2747 117.431 34.2874C115.971 41.6983 114.504 49.1452 113.03 56.6281C111.556 64.1109 110.089 71.5578 108.629 78.9687C107.864 82.854 108.347 85.9883 110.08 88.3716C111.812 90.7548 114.401 91.9534 117.848 91.9673C121.295 91.9813 124.315 90.8053 126.91 88.4396C129.577 86.0741 131.294 82.9487 132.059 79.0633C133.519 71.6524 134.986 64.2055 136.46 56.7227C137.934 49.2398 139.401 41.7929 140.861 34.382C144.088 34.3951 147.314 34.4081 150.541 34.4211C153.768 34.4342 156.958 34.447 160.111 34.4598C158.637 41.9426 157.142 49.5334 155.625 57.2321C154.108 64.9308 152.613 72.5216 151.139 80.0045ZM175.007 107.968C175.872 103.579 176.743 99.1539 177.622 94.693C178.501 90.2321 179.373 85.8071 180.237 81.4181C177.867 73.7037 175.445 65.8811 172.971 57.9502C170.497 50.0194 168.075 42.1968 165.705 34.4824C169.078 34.496 172.488 34.5098 175.934 34.5237C179.381 34.5376 182.791 34.5514 186.164 34.565C187.426 38.9626 188.718 43.3963 190.039 47.8661C191.448 52.2642 192.783 56.6621 194.045 61.0597C197.037 56.6793 200.065 52.299 203.129 47.9189C206.208 43.4669 209.243 39.0507 212.234 34.6703C215.608 34.6839 218.981 34.6975 222.354 34.7111C225.727 34.7248 229.101 34.7384 232.474 34.752C227.071 42.435 221.573 50.2257 215.981 58.1239C210.388 66.0222 204.89 73.8129 199.487 81.4959C198.622 85.8849 197.751 90.3098 196.872 94.7707C195.993 99.2317 195.122 103.657 194.257 108.046C191.104 108.033 187.914 108.02 184.687 108.007C181.46 107.994 178.234 107.981 175.007 107.968ZM253.272 110.012C247.918 109.991 243.153 109.035 238.975 107.146C234.811 105.185 231.419 102.471 228.799 99.0041C226.18 95.5372 224.414 91.4616 223.502 86.7774C222.604 82.0213 222.701 76.8731 223.792 71.3329C224.883 65.7927 226.806 60.6879 229.561 56.0186C232.316 51.3492 235.676 47.3303 239.642 43.962C243.622 40.5217 248.07 37.8753 252.985 36.023C257.915 34.0987 263.056 33.1473 268.409 33.1689C273.763 33.1906 278.484 34.1817 282.575 36.1425C286.753 38.0316 290.152 40.7096 292.772 44.1765C295.479 47.5718 297.288 51.6116 298.2 56.2957C299.112 60.9799 299.023 66.0921 297.931 71.6323C296.84 77.1725 294.91 82.3133 292.141 87.0546C289.386 91.724 285.982 95.7787 281.929 99.2187C277.948 102.659 273.494 105.341 268.564 107.266C263.722 109.118 258.625 110.034 253.272 110.012ZM256.716 92.5282C260.309 92.5427 263.559 91.6917 266.466 89.9752C269.387 88.1868 271.856 85.7126 273.873 82.5524C275.963 79.3925 277.419 75.7259 278.242 71.5528C279.064 67.3797 279.046 63.7432 278.189 60.6434C277.405 57.5439 275.9 55.1256 273.673 53.3884C271.461 51.5793 268.558 50.6674 264.965 50.6529C261.445 50.6387 258.195 51.4897 255.215 53.2058C252.308 54.9223 249.809 57.3605 247.719 60.5204C245.716 63.6086 244.304 67.2393 243.482 71.4124C242.66 75.5856 242.634 79.2579 243.403 82.4293C244.246 85.601 245.774 88.0915 247.986 89.9006C250.286 91.6381 253.196 92.5139 256.716 92.5282ZM301.277 108.478C303.659 96.3901 306.068 84.1585 308.506 71.783C310.944 59.4075 313.354 47.176 315.735 35.0883C318.961 35.1013 322.188 35.1143 325.415 35.1274C328.641 35.1404 331.831 35.1533 334.985 35.166C333.156 44.4476 331.306 53.8372 329.436 63.3346C327.579 72.7602 325.736 82.1137 323.908 91.3954C327.794 91.411 331.718 91.4269 335.678 91.4429C339.638 91.4589 343.524 91.4746 347.338 91.49C346.785 94.296 346.218 97.1741 345.637 100.124C345.07 103.002 344.51 105.844 343.957 108.65C336.917 108.622 329.804 108.593 322.617 108.564C315.431 108.535 308.317 108.506 301.277 108.478Z" fill="white"/>
<defs>
<filter id="filter0_f_23_179" x="-0.00878906" y="20.4645" width="426.996" height="130.161" filterUnits="userSpaceOnUse" color-interpolation-filters="sRGB">
<feFlood flood-opacity="0" result="BackgroundImageFix"/>
<feBlend mode="normal" in="SourceGraphic" in2="BackgroundImageFix" result="shape"/>
<feGaussianBlur stdDeviation="7.5" result="effect1_foregroundBlur_23_179"/>
</filter>
<linearGradient id="paint0_linear_23_179" x1="198.455" y1="0" x2="198.455" y2="99.6849" gradientUnits="userSpaceOnUse">
<stop/>
<stop offset="1" stop-color="#1900FF"/>
</linearGradient>
</defs>
</svg>
