<svg width="390" height="127" viewBox="0 0 390 127" fill="none" xmlns="http://www.w3.org/2000/svg">
<path d="M366.14 109.572C366.14 112.333 363.901 114.572 361.14 114.572H11.0004C8.23898 114.572 6.0004 112.333 6.0004 109.572V31.4911C6.0004 28.7296 8.23898 26.4911 11.0004 26.4911H361.14C363.901 26.4911 366.14 28.7296 366.14 31.4911V109.572Z" fill="black"/>
<g filter="url(#filter0_f_23_179)">
<rect width="338.53" height="81.7604" rx="31.8403" transform="matrix(0.999999 -0.00137485 0.00252648 0.999997 15.3086 29.5814)" fill="url(#paint0_linear_23_179)"/>
</g>
<path d="M16.1921 107.176C18.6646 95.1064 21.1665 82.8933 23.6978 70.5366C26.2291 58.1799 28.731 45.9668 31.2035 33.8975C35.7501 33.9151 40.2967 33.9328 44.8434 33.9505C49.4633 33.9684 54.01 33.9861 58.4833 34.0034C63.5432 34.0231 67.7959 34.9383 71.2413 36.7492C74.7014 38.4882 77.171 40.9423 78.6501 44.1116C80.1439 47.209 80.4566 50.8771 79.5883 55.1157C78.9702 58.1331 77.8243 60.8608 76.1506 63.2988C74.4769 65.7369 72.2975 67.7775 69.6123 69.4207C72.3244 71.2287 74.1927 73.5727 75.2174 76.4526C76.2567 79.2607 76.4232 82.3889 75.7168 85.8373C74.8338 90.1478 72.9245 93.9151 69.9889 97.1391C67.1266 100.363 63.4949 102.866 59.0937 104.646C54.7658 106.427 49.9252 107.307 44.5719 107.286C39.8786 107.268 35.1486 107.249 30.382 107.231C25.6154 107.212 20.8854 107.194 16.1921 107.176ZM59.9632 56.8729C60.3458 55.005 60.0682 53.4941 59.1304 52.3401C58.2072 51.1142 56.7924 50.4976 54.8857 50.4902C53.5657 50.4851 52.2091 50.4798 50.8157 50.4744C49.4957 50.4692 48.1758 50.4641 46.8558 50.459C46.4437 52.4706 46.0169 54.554 45.5754 56.7092C45.1486 58.7926 44.7218 60.876 44.295 62.9594C45.615 62.9645 46.935 62.9696 48.255 62.9748C49.6483 62.9802 51.005 62.9855 52.3249 62.9906C54.2316 62.998 55.882 62.4652 57.276 61.3921C58.6848 60.2472 59.5806 58.7408 59.9632 56.8729ZM56.8202 84.0384C57.2322 82.0268 56.8593 80.4436 55.7015 79.2887C54.6317 78.0623 52.9235 77.4445 50.5768 77.4354C49.0368 77.4294 47.4968 77.4234 45.9568 77.4175C44.4169 77.4115 42.8769 77.4055 41.3369 77.3995C40.8807 79.6266 40.4244 81.8537 39.9682 84.0808C39.512 86.3079 39.0557 88.5349 38.5995 90.762C40.1395 90.768 41.6795 90.774 43.2195 90.78C44.7595 90.7859 46.2995 90.7919 47.8394 90.7979C50.1861 90.807 52.1445 90.2035 53.7147 88.9873C55.3582 87.7714 56.3934 86.1218 56.8202 84.0384ZM148.244 79.8638C147.317 84.3898 145.671 88.4816 143.307 92.1393C141.032 95.7254 138.199 98.806 134.809 101.381C131.492 103.957 127.788 105.919 123.695 107.27C119.675 108.62 115.465 109.287 111.066 109.27C106.592 109.252 102.625 108.554 99.165 107.174C95.7047 105.795 92.8388 103.842 90.5672 101.317C88.3837 98.7204 86.8899 95.623 86.0857 92.0249C85.2816 88.4269 85.3431 84.3648 86.2703 79.8388C87.8156 72.2955 89.3756 64.6803 90.9503 56.9933C92.525 49.3062 94.085 41.691 95.6303 34.1477C98.857 34.1602 102.084 34.1728 105.31 34.1853C108.537 34.1978 111.727 34.2102 114.88 34.2224C113.364 41.6221 111.841 49.0577 110.311 56.5292C108.78 64.0007 107.257 71.4363 105.741 78.836C104.946 82.7154 105.406 85.8448 107.12 88.2241C108.835 90.6034 111.415 91.7997 114.862 91.8131C118.308 91.8265 121.338 90.6519 123.95 88.2894C126.636 85.9272 128.376 82.8064 129.171 78.9269C130.687 71.5273 132.21 64.0917 133.74 56.6202C135.271 49.1487 136.794 41.7131 138.31 34.3134C141.537 34.326 144.763 34.3385 147.99 34.351C151.217 34.3636 154.407 34.3759 157.56 34.3882C156.029 41.8597 154.477 49.439 152.902 57.126C151.327 64.813 149.775 72.3923 148.244 79.8638ZM171.902 107.78C172.8 103.398 173.705 98.9798 174.617 94.5257C175.53 90.0715 176.435 85.6533 177.333 81.2709C175.021 73.5688 172.657 65.7586 170.243 57.8404C167.829 49.9222 165.465 42.112 163.153 34.4099C166.527 34.423 169.937 34.4363 173.383 34.4496C176.83 34.463 180.24 34.4763 183.613 34.4894C184.842 38.88 186.1 43.3066 187.388 47.7693C188.764 52.1605 190.066 56.5513 191.295 60.9419C194.319 56.5679 197.38 52.1939 200.478 47.8201C203.59 43.3745 206.659 38.9647 209.683 34.5906C213.056 34.6037 216.43 34.6168 219.803 34.6299C223.176 34.643 226.55 34.6561 229.923 34.6692C224.462 42.3412 218.905 50.1206 213.253 58.0075C207.601 65.8943 202.044 73.6738 196.582 81.3457C195.685 85.728 194.78 90.1463 193.867 94.6004C192.955 99.0546 192.05 103.473 191.152 107.855C187.998 107.843 184.809 107.831 181.582 107.818C178.355 107.805 175.129 107.793 171.902 107.78ZM250.153 109.81C244.8 109.789 240.042 108.836 235.878 106.95C231.728 104.993 228.357 102.284 225.763 98.8225C223.17 95.3613 221.435 91.2923 220.558 86.6155C219.696 81.8668 219.831 76.7266 220.965 71.1948C222.098 65.6631 224.059 60.5659 226.849 55.9033C229.639 51.2407 233.03 47.2276 237.022 43.8638C241.028 40.4283 245.496 37.7854 250.425 35.9352C255.369 34.0131 260.518 33.0625 265.871 33.0833C271.225 33.104 275.939 34.093 280.015 36.0501C284.179 37.9356 287.558 40.609 290.151 44.0702C292.833 47.4598 294.612 51.493 295.489 56.1699C296.366 60.8467 296.237 65.951 295.104 71.4828C293.971 77.0145 292.002 82.1476 289.197 86.8821C286.407 91.5446 282.973 95.5936 278.893 99.0288C274.886 102.464 270.411 105.143 265.467 107.065C260.611 108.916 255.507 109.831 250.153 109.81ZM253.73 92.3524C257.323 92.3664 260.58 91.5162 263.499 89.802C266.434 88.0159 268.922 85.5451 270.963 82.3895C273.077 79.2342 274.561 75.5731 275.414 71.4063C276.268 67.2395 276.278 63.6087 275.444 60.5138C274.683 57.4192 273.196 55.0048 270.983 53.2707C268.784 51.4646 265.888 50.5547 262.295 50.5407C258.775 50.527 255.518 51.3772 252.525 53.0911C249.605 54.8053 247.088 57.2401 244.974 60.3954C242.948 63.4792 241.508 67.1045 240.655 71.2713C239.801 75.4381 239.747 79.1047 240.493 82.2712C241.312 85.4379 242.821 87.9242 245.02 89.7302C247.306 91.4647 250.21 92.3387 253.73 92.3524ZM298.172 108.271C300.645 96.2014 303.147 83.9884 305.678 71.6317C308.209 59.2749 310.711 47.0619 313.184 34.9926C316.41 35.0051 319.637 35.0176 322.864 35.0301C326.09 35.0427 329.28 35.0551 332.434 35.0673C330.535 44.3349 328.615 53.7102 326.672 63.1932C324.744 72.6044 322.831 81.9438 320.932 91.2114C324.819 91.2265 328.742 91.2417 332.702 91.2571C336.662 91.2725 340.549 91.2875 344.362 91.3024C343.788 94.1042 343.199 96.9778 342.596 99.9233C342.007 102.797 341.426 105.635 340.852 108.437C333.812 108.409 326.699 108.382 319.512 108.354C312.326 108.326 305.212 108.298 298.172 108.271Z" fill="white"/>
<defs>
<filter id="filter0_f_23_179" x="0.388672" y="14.1597" width="368.576" height="112.138" filterUnits="userSpaceOnUse" color-interpolation-filters="sRGB">
<feFlood flood-opacity="0" result="BackgroundImageFix"/>
<feBlend mode="normal" in="SourceGraphic" in2="BackgroundImageFix" result="shape"/>
<feGaussianBlur stdDeviation="7.5" result="effect1_foregroundBlur_23_179"/>
</filter>
<linearGradient id="paint0_linear_23_179" x1="169.265" y1="0" x2="169.265" y2="81.7604" gradientUnits="userSpaceOnUse">
<stop/>
<stop offset="1" stop-color="#1900FF"/>
</linearGradient>
</defs>
</svg>
