<svg width="400" height="95" viewBox="0 0 400 95" fill="none" xmlns="http://www.w3.org/2000/svg">
<path d="M360.66 76.7072C360.66 79.4686 358.422 81.7072 355.66 81.7072H11.0004C8.23896 81.7072 6.0004 79.4686 6.0004 76.7072V26.5188C6.0004 23.7574 8.23897 21.5188 11.0004 21.5188H355.66C358.422 21.5188 360.66 23.7574 360.66 26.5188V76.7072Z" fill="black"/>
<g filter="url(#filter0_f_23_179)">
<rect width="333.379" height="55.8698" rx="27.9349" transform="matrix(1 -0.000953993 0.00364103 0.999993 15.167 23.6306)" fill="url(#paint0_linear_23_179)"/>
</g>
<path d="M52.9042 80.689C55.5507 71.5443 58.2287 62.2906 60.9381 52.9282C63.6476 43.5657 66.3256 34.312 68.9721 25.1673C72.4854 25.1673 75.9988 25.1673 79.5121 25.1673C83.0821 25.1673 86.5954 25.1673 90.0521 25.1673C93.9621 25.1673 97.1935 25.8477 99.7464 27.2085C102.315 28.5149 104.074 30.3656 105.025 32.7607C105.991 35.1013 106.009 37.8774 105.079 41.089C104.418 43.3751 103.366 45.4436 101.924 47.2943C100.481 49.1451 98.6723 50.6964 96.4967 51.9484C98.4829 53.3092 99.7842 55.0783 100.401 57.2556C101.033 59.3785 100.971 61.7463 100.215 64.3591C99.2699 67.6251 97.5645 70.4828 95.099 72.9323C92.6901 75.3818 89.7304 77.2869 86.2199 78.6478C82.7661 80.0086 78.9709 80.689 74.8342 80.689C71.2075 80.689 67.5525 80.689 63.8692 80.689C60.1859 80.689 56.5309 80.689 52.9042 80.689ZM89.8027 42.477C90.2123 41.0617 90.0897 39.9186 89.4351 39.0477C88.7962 38.1224 87.7401 37.6597 86.2668 37.6597C85.2468 37.6597 84.1985 37.6597 83.1218 37.6597C82.1018 37.6597 81.0818 37.6597 80.0618 37.6597C79.6207 39.1838 79.1639 40.7624 78.6913 42.3954C78.2345 43.9739 77.7777 45.5525 77.3208 47.131C78.3408 47.131 79.3608 47.131 80.3808 47.131C81.4575 47.131 82.5058 47.131 83.5258 47.131C84.9992 47.131 86.3073 46.7228 87.4503 45.9063C88.609 45.0354 89.3931 43.8923 89.8027 42.477ZM85.7181 63.0527C86.1592 61.5286 85.9674 60.331 85.1428 59.4601C84.3906 58.5348 83.1078 58.0721 81.2945 58.0721C80.1045 58.0721 78.9145 58.0721 77.7245 58.0721C76.5345 58.0721 75.3445 58.0721 74.1545 58.0721C73.6662 59.7595 73.1778 61.4469 72.6895 63.1344C72.2011 64.8218 71.7128 66.5092 71.2245 68.1966C72.4145 68.1966 73.6045 68.1966 74.7945 68.1966C75.9845 68.1966 77.1745 68.1966 78.3645 68.1966C80.1778 68.1966 81.7284 67.7339 83.0162 66.8086C84.3606 65.8832 85.2613 64.6313 85.7181 63.0527ZM156.64 59.6234C155.648 63.0527 154.127 66.1554 152.077 68.9315C150.099 71.6531 147.722 73.9937 144.944 75.9533C142.224 77.9129 139.241 79.4098 135.995 80.4441C132.806 81.4783 129.511 81.9954 126.111 81.9954C122.654 81.9954 119.631 81.4783 117.04 80.4441C114.449 79.4098 112.353 77.9401 110.751 76.035C109.221 74.0754 108.255 71.7348 107.853 69.0131C107.451 66.2915 107.746 63.216 108.738 59.7867C110.392 54.0712 112.062 48.3013 113.747 42.477C115.433 36.6527 117.103 30.8828 118.757 25.1673C121.25 25.1673 123.744 25.1673 126.237 25.1673C128.73 25.1673 131.195 25.1673 133.632 25.1673C132.009 30.7739 130.379 36.4077 128.741 42.0688C127.102 47.7298 125.472 53.3636 123.849 58.9702C122.999 61.9096 123.163 64.2774 124.344 66.0737C125.524 67.87 127.445 68.7682 130.109 68.7682C132.772 68.7682 135.185 67.87 137.349 66.0737C139.568 64.2774 141.104 61.9096 141.954 58.9702C143.577 53.3636 145.207 47.7298 146.846 42.0688C148.484 36.4077 150.114 30.7739 151.737 25.1673C154.23 25.1673 156.724 25.1673 159.217 25.1673C161.71 25.1673 164.175 25.1673 166.612 25.1673C164.974 30.8283 163.312 36.571 161.626 42.3954C159.941 48.2197 158.279 53.9624 156.64 59.6234ZM173.226 80.689C174.187 77.3686 175.156 74.021 176.133 70.6461C177.109 67.2713 178.078 63.9236 179.039 60.6032C177.721 54.7789 176.371 48.8729 174.987 42.8852C173.603 36.8976 172.252 30.9916 170.934 25.1673C173.541 25.1673 176.176 25.1673 178.839 25.1673C181.503 25.1673 184.138 25.1673 186.744 25.1673C187.427 28.4877 188.13 31.8353 188.853 35.2102C189.649 38.5306 190.388 41.851 191.07 45.1714C193.674 41.851 196.307 38.5306 198.968 35.2102C201.645 31.8353 204.285 28.4877 206.889 25.1673C209.496 25.1673 212.103 25.1673 214.709 25.1673C217.316 25.1673 219.923 25.1673 222.529 25.1673C217.84 30.9916 213.071 36.8976 208.222 42.8852C203.372 48.8729 198.603 54.7789 193.914 60.6032C192.953 63.9236 191.984 67.2713 191.008 70.6461C190.031 74.021 189.062 77.3686 188.101 80.689C185.665 80.689 183.2 80.689 180.706 80.689C178.213 80.689 175.72 80.689 173.226 80.689ZM233.589 81.9954C229.452 81.9954 225.832 81.2878 222.728 79.8725C219.64 78.4028 217.199 76.3616 215.405 73.7488C213.611 71.136 212.518 68.0605 212.125 64.5224C211.748 60.9298 212.166 57.0378 213.379 52.8465C214.592 48.6552 216.419 44.7904 218.86 41.2523C221.3 37.7141 224.166 34.6659 227.456 32.1075C230.762 29.4947 234.377 27.4807 238.3 26.0654C242.238 24.5957 246.276 23.8609 250.413 23.8609C254.549 23.8609 258.133 24.5957 261.165 26.0654C264.269 27.4807 266.717 29.4947 268.511 32.1075C270.378 34.6659 271.507 37.7141 271.9 41.2523C272.292 44.7904 271.882 48.6552 270.669 52.8465C269.456 57.0378 267.622 60.9298 265.165 64.5224C262.725 68.0605 259.823 71.136 256.46 73.7488C253.154 76.3616 249.532 78.4028 245.593 79.8725C241.727 81.2878 237.725 81.9954 233.589 81.9954ZM237.417 68.7682C240.193 68.7682 242.762 68.115 245.124 66.8086C247.501 65.4478 249.574 63.5698 251.344 61.1748C253.171 58.7797 254.541 56.0036 255.454 52.8465C256.368 49.6894 256.597 46.9405 256.141 44.5999C255.742 42.2593 254.739 40.4358 253.134 39.1294C251.545 37.7685 249.362 37.0881 246.585 37.0881C243.865 37.0881 241.296 37.7413 238.878 39.0477C236.516 40.3541 234.422 42.2048 232.596 44.5999C230.842 46.9405 229.508 49.6894 228.594 52.8465C227.681 56.0036 227.416 58.7797 227.799 61.1748C228.239 63.5698 229.254 65.4478 230.844 66.8086C232.506 68.115 234.697 68.7682 237.417 68.7682ZM270.8 80.689C273.446 71.5443 276.124 62.2906 278.834 52.9282C281.543 43.5657 284.221 34.312 286.868 25.1673C289.361 25.1673 291.854 25.1673 294.348 25.1673C296.841 25.1673 299.306 25.1673 301.743 25.1673C299.71 32.1892 297.655 39.2927 295.575 46.4778C293.512 53.6086 291.464 60.6849 289.432 67.7067C292.435 67.7067 295.467 67.7067 298.527 67.7067C301.587 67.7067 304.59 67.7067 307.537 67.7067C306.922 69.8296 306.292 72.0069 305.646 74.2387C305.016 76.416 304.394 78.5661 303.78 80.689C298.34 80.689 292.843 80.689 287.29 80.689C281.736 80.689 276.24 80.689 270.8 80.689Z" fill="white"/>
<defs>
<filter id="filter0_f_23_179" x="0.268555" y="8.33917" width="363.38" height="86.1342" filterUnits="userSpaceOnUse" color-interpolation-filters="sRGB">
<feFlood flood-opacity="0" result="BackgroundImageFix"/>
<feBlend mode="normal" in="SourceGraphic" in2="BackgroundImageFix" result="shape"/>
<feGaussianBlur stdDeviation="7.5" result="effect1_foregroundBlur_23_179"/>
</filter>
<linearGradient id="paint0_linear_23_179" x1="166.69" y1="0" x2="166.69" y2="55.8698" gradientUnits="userSpaceOnUse">
<stop/>
<stop offset="1" stop-color="#1900FF"/>
</linearGradient>
</defs>
</svg>
