<svg width="1278" height="405" viewBox="0 0 1278 405" fill="none" xmlns="http://www.w3.org/2000/svg">
<g filter="url(#filter0_d_29_13)">
<rect x="24.9971" y="52" width="1125" height="345" rx="50" fill="black"/>
<path d="M40.0083 324.292C56.6426 287.563 73.4749 250.397 90.5052 212.794C107.536 175.19 124.368 138.024 141.002 101.296C155.882 101.296 170.762 101.296 185.642 101.296C200.762 101.296 215.642 101.296 230.282 101.296C246.842 101.296 260.124 104.028 270.129 109.494C280.233 114.741 286.586 122.174 289.19 131.794C291.892 141.194 290.322 152.344 284.481 165.243C280.322 174.425 274.64 182.733 267.433 190.166C260.227 197.599 251.645 203.83 241.687 208.858C249.292 214.324 253.754 221.429 255.074 230.174C256.492 238.701 254.825 248.211 250.072 258.705C244.132 271.822 235.213 283.3 223.318 293.138C211.662 302.976 197.997 310.628 182.321 316.093C166.886 321.559 150.408 324.292 132.888 324.292C117.528 324.292 102.048 324.292 86.4483 324.292C70.8483 324.292 55.3683 324.292 40.0083 324.292ZM218.956 170.818C221.53 165.134 221.689 160.543 219.434 157.045C217.277 153.328 213.078 151.47 206.838 151.47C202.518 151.47 198.078 151.47 193.518 151.47C189.198 151.47 184.878 151.47 180.558 151.47C177.786 157.591 174.915 163.931 171.944 170.49C169.073 176.83 166.202 183.17 163.33 189.51C167.65 189.51 171.97 189.51 176.29 189.51C180.85 189.51 185.29 189.51 189.61 189.51C195.85 189.51 201.633 187.871 206.958 184.591C212.382 181.093 216.381 176.502 218.956 170.818ZM189.449 253.458C192.221 247.336 192.119 242.527 189.144 239.029C186.507 235.312 181.348 233.454 173.668 233.454C168.628 233.454 163.588 233.454 158.548 233.454C153.508 233.454 148.468 233.454 143.428 233.454C140.359 240.231 137.29 247.008 134.22 253.786C131.151 260.563 128.081 267.34 125.012 274.118C130.052 274.118 135.092 274.118 140.132 274.118C145.172 274.118 150.212 274.118 155.252 274.118C162.932 274.118 169.774 272.259 175.777 268.543C182.02 264.826 186.577 259.798 189.449 253.458ZM491.86 239.684C485.622 253.458 477.338 265.919 467.008 277.069C457.018 288 445.56 297.401 432.636 305.272C419.951 313.142 406.428 319.154 392.067 323.308C377.946 327.462 363.685 329.539 349.285 329.539C334.645 329.539 322.146 327.462 311.787 323.308C301.428 319.154 293.422 313.251 287.767 305.599C282.452 297.729 279.749 288.328 279.66 277.397C279.571 266.466 282.645 254.114 288.883 240.34C299.279 217.385 309.774 194.211 320.369 170.818C330.963 147.425 341.459 124.251 351.855 101.296C362.415 101.296 372.975 101.296 383.535 101.296C394.095 101.296 404.535 101.296 414.855 101.296C404.657 123.814 394.409 146.441 384.112 169.178C373.814 191.915 363.566 214.543 353.368 237.061C348.021 248.867 347.314 258.377 351.247 265.591C355.179 272.806 362.785 276.413 374.065 276.413C385.345 276.413 396.099 272.806 406.327 265.591C416.794 258.377 424.701 248.867 430.048 237.061C440.246 214.543 450.494 191.915 460.792 169.178C471.089 146.441 481.337 123.814 491.535 101.296C502.095 101.296 512.655 101.296 523.215 101.296C533.775 101.296 544.215 101.296 554.535 101.296C544.238 124.033 533.792 147.097 523.197 170.49C512.603 193.883 502.157 216.948 491.86 239.684ZM549.608 324.292C555.648 310.956 561.737 297.51 567.876 283.956C574.015 270.401 580.104 256.956 586.144 243.62C584.018 220.227 581.801 196.506 579.493 172.458C577.184 148.409 574.967 124.688 572.842 101.296C583.882 101.296 595.042 101.296 606.322 101.296C617.602 101.296 628.762 101.296 639.802 101.296C640.722 114.632 641.713 128.077 642.774 141.632C644.174 154.968 645.334 168.304 646.254 181.64C659.254 168.304 672.374 154.968 685.614 141.632C698.953 128.077 712.122 114.632 725.122 101.296C736.162 101.296 747.202 101.296 758.242 101.296C769.282 101.296 780.322 101.296 791.362 101.296C768.047 124.688 744.344 148.409 720.253 172.458C696.161 196.506 672.458 220.227 649.144 243.62C643.104 256.956 637.015 270.401 630.876 283.956C624.737 297.51 618.648 310.956 612.608 324.292C602.288 324.292 591.848 324.292 581.288 324.292C570.728 324.292 560.168 324.292 549.608 324.292ZM804.485 329.539C786.965 329.539 772.053 326.697 759.747 321.012C747.54 315.11 738.413 306.911 732.366 296.417C726.319 285.923 723.513 273.571 723.949 259.361C724.484 244.931 728.563 229.3 736.187 212.466C743.811 195.632 753.841 180.109 766.277 165.899C778.713 151.688 792.658 139.445 808.111 129.17C823.664 118.676 840.167 110.587 857.622 104.903C875.175 99.0001 892.712 96.0487 910.232 96.0487C927.752 96.0487 942.495 99.0001 954.462 104.903C966.767 110.587 975.944 118.676 981.991 129.17C988.378 139.445 991.353 151.688 990.917 165.899C990.481 180.109 986.451 195.632 978.827 212.466C971.203 229.3 961.124 244.931 948.589 259.361C936.153 273.571 922.039 285.923 906.246 296.417C890.693 306.911 874.14 315.11 856.587 321.012C839.373 326.697 822.005 329.539 804.485 329.539ZM828.546 276.413C840.306 276.413 851.574 273.79 862.35 268.543C873.226 263.077 883.121 255.535 892.038 245.915C901.195 236.296 908.644 225.146 914.387 212.466C920.13 199.786 922.73 188.745 922.188 179.344C921.885 169.943 918.722 162.62 912.699 157.373C906.774 151.907 897.932 149.174 886.172 149.174C874.652 149.174 863.383 151.798 852.367 157.045C841.591 162.292 831.624 169.725 822.468 179.344C813.65 188.745 806.37 199.786 800.627 212.466C794.884 225.146 792.115 236.296 792.318 245.915C792.761 255.535 795.946 263.077 801.87 268.543C808.134 273.79 817.026 276.413 828.546 276.413ZM962.86 324.292C979.494 287.563 996.326 250.397 1013.36 212.794C1030.39 175.19 1047.22 138.024 1063.85 101.296C1074.41 101.296 1084.97 101.296 1095.53 101.296C1106.09 101.296 1116.53 101.296 1126.85 101.296C1114.08 129.498 1101.16 158.028 1088.09 186.887C1075.12 215.527 1062.25 243.948 1049.47 272.15C1062.19 272.15 1075.03 272.15 1087.99 272.15C1100.95 272.15 1113.67 272.15 1126.15 272.15C1122.29 280.676 1118.33 289.421 1114.27 298.385C1110.31 307.13 1106.4 315.765 1102.54 324.292C1079.5 324.292 1056.22 324.292 1032.7 324.292C1009.18 324.292 985.9 324.292 962.86 324.292Z" fill="white"/>
</g>
<defs>
<filter id="filter0_d_29_13" x="20.9971" y="52" width="1188.91" height="353" filterUnits="userSpaceOnUse" color-interpolation-filters="sRGB">
<feFlood flood-opacity="0" result="BackgroundImageFix"/>
<feColorMatrix in="SourceAlpha" type="matrix" values="0 0 0 0 0 0 0 0 0 0 0 0 0 0 0 0 0 0 127 0" result="hardAlpha"/>
<feOffset dy="4"/>
<feGaussianBlur stdDeviation="2"/>
<feComposite in2="hardAlpha" operator="out"/>
<feColorMatrix type="matrix" values="0 0 0 0 0 0 0 0 0 0 0 0 0 0 0 0 0 0 0.25 0"/>
<feBlend mode="normal" in2="BackgroundImageFix" result="effect1_dropShadow_29_13"/>
<feBlend mode="normal" in="SourceGraphic" in2="effect1_dropShadow_29_13" result="shape"/>
</filter>
</defs>
</svg>
