<svg fill="none" xmlns="http://www.w3.org/2000/svg">
              <path fill-rule="evenodd" clip-rule="evenodd"
                    d="M52.962 4.808c-.112-.45-.436-.79-.917-.79-5.76-.02-39.675-.02-39.675-.02-3.94 0-7.774 3.22-8.475 7.2l-3.81 21.6c-.7 3.97 1.998 7.2 5.937 7.2h102.704c3.939 0 7.775-3.23 8.475-7.2l3.809-21.6c.702-3.98-1.997-7.2-5.936-7.2H66.46c-.48 0-.926.35-.911.81-.36 3.13-3.09 5.54-6.261 5.54a6.356 6.356 0 0 1-6.326-5.54Z"
                    fill="#100E15"></path>
              <path
                  d="M14.571 18.705c.304-1.723 1.265-3.126 2.884-4.207 1.618-1.082 3.589-1.622 5.912-1.622 2.324 0 4.125.566 5.404 1.698 1.278 1.132 1.81 2.315 1.592 3.548a.657.657 0 0 1-.234.393.61.61 0 0 1-.397.165h-5.069c-.388 0-.718-.144-.989-.431-.27-.287-.675-.43-1.215-.43-.812 0-1.26.236-1.343.709-.045.253.117.465.483.633.369.17 1.08.322 2.138.457 2.462.32 4.153.908 5.076 1.761.923.854 1.231 2.146.926 3.878-.305 1.732-1.344 3.143-3.117 4.233-1.772 1.09-3.933 1.635-6.486 1.635-2.55 0-4.461-.524-5.729-1.572-1.269-1.047-1.77-2.323-1.505-3.827a.655.655 0 0 1 .234-.393.64.64 0 0 1 .422-.164h4.816c.354 0 .718.168 1.09.506.37.338.936.507 1.697.507 1.267 0 1.942-.236 2.026-.71.053-.303-.133-.536-.562-.696-.428-.16-1.26-.326-2.498-.495-4.258-.574-6.11-2.433-5.556-5.576ZM45.412 13.129h4.968a.567.567 0 0 1 .563.684l-2.887 16.374a.804.804 0 0 1-.287.482.784.784 0 0 1-.517.202h-4.968a.55.55 0 0 1-.447-.202.567.567 0 0 1-.117-.482l.965-5.475H38.58l-.966 5.475a.804.804 0 0 1-.287.482.784.784 0 0 1-.517.202h-4.968a.572.572 0 0 1-.448-.19c-.113-.127-.151-.291-.116-.494l2.887-16.374a.804.804 0 0 1 .288-.481.785.785 0 0 1 .518-.203h4.968a.567.567 0 0 1 .563.684l-.939 5.323h4.106l.939-5.323a.804.804 0 0 1 .287-.481.785.785 0 0 1 .518-.203Z"
                  fill="#FFBE00"></path>
              <path d="M59.248 7.996a3.996 3.996 0 1 0 0-7.991 3.996 3.996 0 0 0 0 7.99Z"
                    fill="red"></path>
              <path
                  d="M57.086 30.871h-5.172a.566.566 0 0 1-.563-.684l2.888-16.374a.804.804 0 0 1 .287-.481.784.784 0 0 1 .517-.203h5.171a.567.567 0 0 1 .563.684L57.89 30.187a.804.804 0 0 1-.287.482.784.784 0 0 1-.517.202ZM74.89 13.129h4.587a.567.567 0 0 1 .564.684l-2.888 16.374a.804.804 0 0 1-.287.482.785.785 0 0 1-.518.202h-4.004c-.44 0-.751-.194-.936-.583l-3.145-6.463-1.122 6.362a.804.804 0 0 1-.287.482.784.784 0 0 1-.517.202h-4.588a.567.567 0 0 1-.564-.684l2.888-16.374a.804.804 0 0 1 .287-.481.785.785 0 0 1 .518-.203h4.005c.473 0 .784.194.935.583l3.046 7.02 1.22-6.919a.806.806 0 0 1 .288-.481.782.782 0 0 1 .517-.203ZM84.14 13.129h7.554c2.433 0 4.242.524 5.426 1.572 1.184 1.047 1.595 2.593 1.234 4.638-.36 2.044-1.307 3.557-2.84 4.537-1.532.98-3.524 1.47-5.974 1.47h-1.648l-.853 4.841a.804.804 0 0 1-.288.482.785.785 0 0 1-.517.202h-5.222a.567.567 0 0 1-.564-.684l2.887-16.374a.806.806 0 0 1 .289-.481.782.782 0 0 1 .517-.203Zm4.948 4.714-.496 2.814h1.775c.304 0 .594-.114.871-.342.277-.229.453-.554.527-.976.075-.423.043-.777-.09-1.065-.136-.287-.407-.43-.812-.43h-1.775ZM104.585 30.871h-5.172a.566.566 0 0 1-.563-.684l2.888-16.374a.805.805 0 0 1 .287-.481.784.784 0 0 1 .517-.203h5.171a.55.55 0 0 1 .446.203c.111.135.15.295.117.481l-2.887 16.374a.805.805 0 0 1-.287.482.784.784 0 0 1-.517.202Z"
                  fill="#FFBE00"></path>
</svg>