<svg width="123" height="37" viewBox="0 0 123 37" fill="none" xmlns="http://www.w3.org/2000/svg">
<path fill-rule="evenodd" clip-rule="evenodd" d="M53.738 4.44021C53.6244 4.02424 53.2958 3.70995 52.808 3.70995C46.9665 3.69147 12.5712 3.69147 12.5712 3.69147C8.57538 3.69147 4.68708 6.66794 3.97616 10.3469L0.1122 30.3133C-0.597714 33.9831 2.13849 36.9688 6.13328 36.9688H110.292C114.287 36.9688 118.177 33.9831 118.887 30.3133L122.75 10.3469C123.462 6.66794 120.724 3.69147 116.73 3.69147H67.4272C66.9404 3.69147 66.4881 4.015 66.5033 4.44021C66.1382 7.33348 63.3695 9.56121 60.1536 9.56121C58.5834 9.5663 57.0652 9.04882 55.8839 8.10592C54.7026 7.16302 53.9396 5.85955 53.738 4.44021Z" fill="#100E15"/>
<path d="M14.9469 17.405C15.2552 15.8123 16.2298 14.5154 17.8718 13.5161C19.5127 12.516 21.5116 12.0168 23.8675 12.0168C26.2244 12.0168 28.0509 12.54 29.348 13.5864C30.6441 14.6328 31.1837 15.7263 30.9626 16.8661C30.9338 17.0091 30.8495 17.1381 30.7253 17.2293C30.6158 17.323 30.4727 17.3772 30.3226 17.3819H25.1818C24.7884 17.3819 24.4537 17.2487 24.1788 16.9835C23.905 16.7182 23.4943 16.586 22.9466 16.586C22.1231 16.586 21.6688 16.8041 21.5846 17.2414C21.539 17.4752 21.7033 17.6712 22.0745 17.8265C22.4487 17.9836 23.1697 18.1241 24.2427 18.2489C26.7396 18.5447 28.4545 19.0882 29.3906 19.8767C30.3267 20.6661 30.6391 21.8604 30.3297 23.4614C30.0204 25.0624 28.9667 26.3667 27.1686 27.3743C25.3715 28.3819 23.1799 28.8856 20.5907 28.8856C18.0046 28.8856 16.0666 28.4013 14.7806 27.4325C13.4936 26.4647 12.9855 25.2852 13.2543 23.895C13.2829 23.7518 13.3672 23.6229 13.4916 23.5317C13.6092 23.4353 13.7614 23.3814 13.9196 23.3801H18.8038C19.1628 23.3801 19.532 23.5354 19.9092 23.8478C20.2845 24.1603 20.8585 24.3165 21.6303 24.3165C22.9152 24.3165 23.5998 24.0983 23.6849 23.6602C23.7387 23.3801 23.5501 23.1647 23.115 23.0168C22.6809 22.8689 21.8371 22.7155 20.5816 22.5593C16.2633 22.0287 14.3851 20.3103 14.9469 17.405ZM46.2247 12.2507H51.263C51.3493 12.2495 51.4348 12.2661 51.5131 12.2992C51.5914 12.3322 51.6605 12.3809 51.7154 12.4417C51.7702 12.5024 51.8093 12.5736 51.8299 12.65C51.8504 12.7264 51.8518 12.806 51.834 12.8829L48.9061 28.0186C48.8709 28.1941 48.7676 28.3523 48.6151 28.4641C48.4711 28.5826 48.2847 28.649 48.0907 28.6508H43.0524C42.9661 28.6538 42.8803 28.6385 42.8016 28.6061C42.723 28.5737 42.6536 28.5251 42.5991 28.4641C42.5435 28.4029 42.504 28.331 42.4834 28.2538C42.4629 28.1766 42.4619 28.0962 42.4804 28.0186L43.4591 22.9577H39.2959L38.3163 28.0186C38.2811 28.1941 38.1778 28.3523 38.0252 28.4641C37.8812 28.5826 37.6948 28.649 37.5009 28.6508H32.4625C32.3773 28.6538 32.2924 28.6396 32.2138 28.6093C32.1353 28.5789 32.0651 28.5331 32.0082 28.4752C31.8936 28.3578 31.855 28.2062 31.8905 28.0186L34.8184 12.8829C34.8541 12.7076 34.9578 12.5498 35.1105 12.4383C35.2546 12.3194 35.4415 12.2527 35.6358 12.2507H40.6742C40.7605 12.2495 40.8459 12.2661 40.9242 12.2992C41.0025 12.3322 41.0716 12.3809 41.1265 12.4417C41.1813 12.5024 41.2205 12.5736 41.241 12.65C41.2616 12.7264 41.263 12.806 41.2452 12.8829L40.2929 17.8034H44.457L45.4093 12.8829C45.4447 12.7077 45.548 12.5499 45.7004 12.4383C45.8445 12.3194 46.0303 12.2527 46.2247 12.2507Z" fill="#FFBE00"/>
<path d="M60.1133 7.3871C60.6508 7.39485 61.1847 7.30505 61.6837 7.12292C62.1828 6.94079 62.6371 6.66998 63.0203 6.32626C63.4034 5.98253 63.7077 5.57276 63.9154 5.12082C64.123 4.66887 64.23 4.18377 64.23 3.69378C64.23 3.20379 64.123 2.7187 63.9154 2.26675C63.7077 1.8148 63.4034 1.40503 63.0203 1.06131C62.6371 0.717581 62.1828 0.446769 61.6837 0.264642C61.1847 0.0825143 60.6508 -0.00728886 60.1133 0.00046222C59.0545 0.0220574 58.0469 0.420609 57.3065 1.1108C56.566 1.80099 56.1514 2.72798 56.1514 3.69332C56.1514 4.65866 56.566 5.58565 57.3065 6.27584C58.0469 6.96603 59.0545 7.36551 60.1133 7.3871Z" fill="#FF0000"/>
<path d="M57.9206 28.5321H52.6754C52.5891 28.5334 52.5035 28.5169 52.4251 28.4839C52.3467 28.4509 52.2775 28.4022 52.2226 28.3414C52.1677 28.2807 52.1286 28.2094 52.1081 28.1329C52.0877 28.0565 52.0864 27.9768 52.1044 27.8998L55.0333 12.7642C55.0687 12.5889 55.172 12.4312 55.3244 12.3195C55.4682 12.2008 55.6547 12.134 55.8487 12.1319H61.0929C61.1792 12.1308 61.2647 12.1473 61.343 12.1804C61.4213 12.2135 61.4904 12.2622 61.5452 12.3229C61.6001 12.3836 61.6392 12.4548 61.6598 12.5312C61.6803 12.6076 61.6817 12.6872 61.6639 12.7642L58.736 27.8998C58.7008 28.0753 58.5975 28.2335 58.445 28.3453C58.301 28.4638 58.1146 28.5302 57.9206 28.5321ZM75.9768 12.1319H80.6287C80.7151 12.1306 80.8007 12.1471 80.8791 12.1801C80.9575 12.2131 81.0268 12.2618 81.0817 12.3225C81.1367 12.3833 81.1759 12.4545 81.1965 12.531C81.2171 12.6074 81.2186 12.6871 81.2007 12.7642L78.2718 27.8998C78.2366 28.0753 78.1333 28.2335 77.9808 28.3453C77.8365 28.4639 77.6497 28.5303 77.4554 28.5321H73.3947C72.9485 28.5321 72.6331 28.3527 72.4455 27.9932L69.2559 22.019L68.118 27.8998C68.0829 28.0753 67.9795 28.2335 67.827 28.3453C67.683 28.4638 67.4966 28.5302 67.3027 28.5321H62.6497C62.5633 28.5333 62.4777 28.5169 62.3993 28.4839C62.3209 28.4509 62.2516 28.4022 62.1967 28.3414C62.1417 28.2807 62.1025 28.2095 62.0819 28.133C62.0613 28.0565 62.0599 27.9768 62.0777 27.8998L63.5421 20.332L65.0066 12.7642C65.042 12.5889 65.1453 12.4312 65.2977 12.3195C65.4418 12.2006 65.6286 12.1339 65.823 12.1319H69.8847C70.3644 12.1319 70.6798 12.3112 70.833 12.6708L73.9221 19.1599L75.1594 12.7642C75.1952 12.5889 75.2988 12.4311 75.4514 12.3195C75.5951 12.2006 75.7827 12.1339 75.9768 12.1319ZM85.3578 12.1319H93.0188C95.4862 12.1319 97.3208 12.6163 98.5216 13.585C99.7224 14.5528 100.139 15.9819 99.7731 17.8722C99.408 19.7616 98.4476 21.1602 96.8928 22.0661C95.3392 22.972 93.3189 23.4249 90.8342 23.4249H89.1629L88.2978 27.8998C88.2624 28.0755 88.1587 28.2336 88.0058 28.3453C87.8618 28.4637 87.6753 28.5301 87.4814 28.5321H82.1855C82.0991 28.5333 82.0135 28.5169 81.9351 28.4839C81.8567 28.4509 81.7874 28.4022 81.7325 28.3414C81.6775 28.2807 81.6383 28.2095 81.6177 28.133C81.5971 28.0565 81.5957 27.9768 81.6135 27.8998L84.5414 12.7642C84.5775 12.5887 84.6815 12.431 84.8345 12.3195C84.9782 12.2006 85.1637 12.1339 85.3578 12.1319ZM90.3758 16.4894L89.8728 19.0906H91.673C91.9813 19.0906 92.2754 18.9852 92.5563 18.7744C92.8372 18.5627 93.0157 18.2623 93.0908 17.8722C93.1668 17.4812 93.1344 17.154 92.9995 16.8878C92.8616 16.6225 92.5867 16.4903 92.176 16.4903L90.3758 16.4894ZM106.092 28.5321H100.847C100.761 28.5334 100.675 28.5169 100.597 28.4839C100.518 28.4509 100.449 28.4022 100.394 28.3414C100.339 28.2807 100.3 28.2094 100.28 28.1329C100.259 28.0565 100.258 27.9768 100.276 27.8998L103.205 12.7642C103.24 12.589 103.344 12.4312 103.496 12.3195C103.64 12.2008 103.826 12.134 104.02 12.1319H109.265C109.351 12.1292 109.436 12.1447 109.515 12.1773C109.593 12.2098 109.663 12.2585 109.717 12.3195C109.829 12.4443 109.869 12.5922 109.836 12.7642L106.908 27.8998C106.872 28.0753 106.769 28.2334 106.617 28.3453C106.473 28.4638 106.286 28.5302 106.092 28.5321Z" fill="#FFBE00"/>
</svg>
