<svg width="146" height="61" viewBox="0 0 146 61" fill="none" xmlns="http://www.w3.org/2000/svg">
<path d="M131.222 42.2178C131.222 44.9792 128.983 47.2178 126.222 47.2178H16.9997C14.2383 47.2178 11.9997 44.9792 11.9997 42.2178V19.0104C11.9997 16.249 14.2383 14.0104 16.9997 14.0104H126.222C128.983 14.0104 131.222 16.249 131.222 19.0104V42.2178Z" fill="black"/>
<g filter="url(#filter0_f_23_179)">
<rect width="112.068" height="30.8246" rx="15.4123" transform="matrix(0.999999 -0.00156575 0.00221844 0.999998 15.0811 15.1755)" fill="url(#paint0_linear_23_179)"/>
</g>
<path d="M15.3352 43.4227C16.0743 39.2314 16.8221 34.9901 17.5788 30.699C18.3354 26.4078 19.0833 22.1666 19.8223 17.9753C21.393 17.9753 22.9636 17.9753 24.5343 17.9753C26.1303 17.9753 27.701 17.9753 29.2463 17.9753C30.9943 17.9753 32.472 18.2871 33.6793 18.9108C34.8911 19.5096 35.7675 20.3578 36.3086 21.4556C36.8541 22.5284 36.9971 23.8007 36.7376 25.2727C36.5528 26.3205 36.183 27.2686 35.6281 28.1168C35.0732 28.9651 34.3398 29.6761 33.428 30.2499C34.382 30.8736 35.0497 31.6844 35.431 32.6824C35.8168 33.6554 35.9041 34.7406 35.693 35.9382C35.429 37.4351 34.8054 38.7449 33.8221 39.8675C32.8641 40.9902 31.6335 41.8634 30.1302 42.4871C28.6522 43.1108 26.9886 43.4227 25.1392 43.4227C23.5179 43.4227 21.8839 43.4227 20.2372 43.4227C18.5906 43.4227 16.9566 43.4227 15.3352 43.4227ZM29.9754 25.9089C30.0898 25.2602 29.9795 24.7363 29.6445 24.3371C29.314 23.913 28.8194 23.7009 28.1607 23.7009C27.7047 23.7009 27.236 23.7009 26.7547 23.7009C26.2987 23.7009 25.8427 23.7009 25.3867 23.7009C25.2635 24.3995 25.136 25.123 25.004 25.8714C24.8764 26.595 24.7488 27.3185 24.6213 28.042C25.0773 28.042 25.5333 28.042 25.9893 28.042C26.4706 28.042 26.9393 28.042 27.3953 28.042C28.0539 28.042 28.6189 27.8549 29.0903 27.4806C29.566 27.0814 29.861 26.5575 29.9754 25.9089ZM29.1485 35.3394C29.2717 34.6408 29.1278 34.092 28.7169 33.6928C28.3357 33.2687 27.7397 33.0566 26.9291 33.0566C26.3971 33.0566 25.8651 33.0566 25.3331 33.0566C24.8011 33.0566 24.2691 33.0566 23.7371 33.0566C23.6007 33.83 23.4643 34.6034 23.3279 35.3768C23.1916 36.1502 23.0552 36.9236 22.9188 37.697C23.4508 37.697 23.9828 37.697 24.5148 37.697C25.0468 37.697 25.5788 37.697 26.1108 37.697C26.9215 37.697 27.5922 37.485 28.123 37.0608C28.6791 36.6367 29.021 36.0629 29.1485 35.3394ZM60.6884 33.7676C60.4113 35.3394 59.8818 36.7615 59.1002 38.0338C58.3482 39.2812 57.399 40.354 56.2527 41.2522C55.1316 42.1503 53.8707 42.8364 52.4698 43.3104C51.0942 43.7844 49.6464 44.0215 48.1264 44.0215C46.581 44.0215 45.2042 43.7844 43.9958 43.3104C42.7873 42.8364 41.7788 42.1628 40.9701 41.2896C40.1911 40.3915 39.6456 39.3187 39.3336 38.0712C39.0215 36.8238 39.0041 35.4142 39.2812 33.8425C39.7431 31.2229 40.2094 28.5784 40.6801 25.9089C41.1508 23.2394 41.6171 20.5948 42.079 17.9753C43.1937 17.9753 44.3084 17.9753 45.423 17.9753C46.5377 17.9753 47.6397 17.9753 48.729 17.9753C48.2759 20.545 47.8206 23.1271 47.3631 25.7218C46.9056 28.3164 46.4503 30.8986 45.9972 33.4683C45.7596 34.8155 45.9483 35.9007 46.5631 36.724C47.1779 37.5473 48.0807 37.959 49.2714 37.959C50.462 37.959 51.4973 37.5473 52.3771 36.724C53.2823 35.9007 53.8536 34.8155 54.0912 33.4683C54.5443 30.8986 54.9996 28.3164 55.4571 25.7218C55.9146 23.1271 56.3699 20.545 56.823 17.9753C57.9377 17.9753 59.0524 17.9753 60.167 17.9753C61.2817 17.9753 62.3837 17.9753 63.473 17.9753C63.0155 20.5699 62.5514 23.202 62.0807 25.8714C61.61 28.5409 61.1459 31.173 60.6884 33.7676ZM69.1263 43.4227C69.3947 41.9008 69.6652 40.3665 69.9379 38.8197C70.2107 37.2729 70.4812 35.7386 70.7496 34.2167C69.8776 31.5472 68.9869 28.8403 68.0775 26.096C67.168 23.3517 66.2773 20.6447 65.4054 17.9753C66.5707 17.9753 67.7487 17.9753 68.9394 17.9753C70.1301 17.9753 71.3081 17.9753 72.4734 17.9753C72.9397 19.4971 73.4165 21.0314 73.9038 22.5783C74.4207 24.1001 74.9124 25.622 75.3787 27.1438C76.3817 25.622 77.3974 24.1001 78.4258 22.5783C79.4585 21.0314 80.4764 19.4971 81.4794 17.9753C82.6447 17.9753 83.8101 17.9753 84.9754 17.9753C86.1407 17.9753 87.3061 17.9753 88.4714 17.9753C86.658 20.6447 84.8127 23.3517 82.9355 26.096C81.0582 28.8403 79.2129 31.5472 77.3996 34.2167C77.1312 35.7386 76.8607 37.2729 76.5879 38.8197C76.3152 40.3665 76.0447 41.9008 75.7763 43.4227C74.687 43.4227 73.585 43.4227 72.4703 43.4227C71.3556 43.4227 70.241 43.4227 69.1263 43.4227ZM96.1753 44.0215C94.326 44.0215 92.6732 43.6971 91.2169 43.0485C89.765 42.3749 88.5746 41.4393 87.6458 40.2418C86.7169 39.0442 86.0788 37.6347 85.7314 36.013C85.3884 34.3664 85.3863 32.5826 85.725 30.6616C86.0637 28.7405 86.6927 26.9692 87.612 25.3475C88.5313 23.7259 89.6643 22.3288 91.0111 21.1562C92.3622 19.9587 93.8803 19.0356 95.5654 18.3869C97.2548 17.7133 99.0242 17.3765 100.874 17.3765C102.723 17.3765 104.361 17.7133 105.787 18.3869C107.244 19.0356 108.436 19.9587 109.365 21.1562C110.324 22.3288 110.977 23.7259 111.324 25.3475C111.671 26.9692 111.676 28.7405 111.337 30.6616C110.998 32.5826 110.367 34.3664 109.443 36.013C108.524 37.6347 107.376 39.0442 106 40.2418C104.649 41.4393 103.128 42.3749 101.439 43.0485C99.7792 43.6971 98.0246 44.0215 96.1753 44.0215ZM97.2443 37.959C98.4856 37.959 99.6024 37.6596 100.595 37.0608C101.591 36.4371 102.427 35.5764 103.102 34.4787C103.802 33.3809 104.28 32.1086 104.535 30.6616C104.79 29.2145 104.759 27.9546 104.441 26.8819C104.149 25.8091 103.613 24.9733 102.832 24.3745C102.055 23.7508 101.046 23.439 99.8045 23.439C98.5885 23.439 97.4718 23.7384 96.4542 24.3371C95.4619 24.9359 94.6157 25.7841 93.9155 26.8819C93.245 27.9546 92.7822 29.2145 92.527 30.6616C92.2719 32.1086 92.2882 33.3809 92.576 34.4787C92.8891 35.5764 93.434 36.4371 94.2106 37.0608C95.0171 37.6596 96.0283 37.959 97.2443 37.959ZM112.747 43.4227C113.486 39.2314 114.234 34.9901 114.991 30.699C115.748 26.4078 116.495 22.1666 117.234 17.9753C118.349 17.9753 119.464 17.9753 120.578 17.9753C121.693 17.9753 122.795 17.9753 123.884 17.9753C123.317 21.1936 122.743 24.4494 122.162 27.7426C121.586 31.0108 121.014 34.2541 120.447 37.4725C121.789 37.4725 123.145 37.4725 124.513 37.4725C125.881 37.4725 127.223 37.4725 128.541 37.4725C128.369 38.4455 128.193 39.4434 128.013 40.4663C127.837 41.4642 127.663 42.4497 127.491 43.4227C125.059 43.4227 122.602 43.4227 120.119 43.4227C117.637 43.4227 115.179 43.4227 112.747 43.4227Z" fill="white"/>
<defs>
<filter id="filter0_f_23_179" x="0.115234" y="0.0241089" width="142.068" height="60.9518" filterUnits="userSpaceOnUse" color-interpolation-filters="sRGB">
<feFlood flood-opacity="0" result="BackgroundImageFix"/>
<feBlend mode="normal" in="SourceGraphic" in2="BackgroundImageFix" result="shape"/>
<feGaussianBlur stdDeviation="7.5" result="effect1_foregroundBlur_23_179"/>
</filter>
<linearGradient id="paint0_linear_23_179" x1="56.0342" y1="0" x2="56.0342" y2="30.8246" gradientUnits="userSpaceOnUse">
<stop/>
<stop offset="1" stop-color="#1900FF"/>
</linearGradient>
</defs>
</svg>
