<svg width="6080" height="3944" viewBox="0 0 6080 3944" fill="none" xmlns="http://www.w3.org/2000/svg">
<g filter="url(#filter0_dd_23_156)">
<path d="M1602.97 1639.76H4459.31V2344H1602.97V1639.76Z" fill="black"/>
<g filter="url(#filter1_f_23_156)">
<rect width="2877.14" height="728.252" rx="170.5" transform="matrix(0.999985 0.00547569 -0.00398926 0.999992 1602.99 1600)" fill="url(#paint0_linear_23_156)"/>
</g>
<path d="M1753.93 2187.23C1766.57 2115.54 1779.36 2042.99 1792.3 1969.59C1805.24 1896.19 1818.04 1823.64 1830.68 1751.95C1857.55 1751.95 1884.41 1751.95 1911.28 1751.95C1938.58 1751.95 1965.45 1751.95 1991.88 1751.95C2021.78 1751.95 2047.05 1757.28 2067.71 1767.95C2088.43 1778.19 2103.43 1792.7 2112.68 1811.48C2122.01 1829.83 2124.46 1851.59 2120.02 1876.77C2116.86 1894.69 2110.53 1910.91 2101.04 1925.42C2091.55 1939.93 2079 1952.09 2063.41 1961.91C2079.73 1972.58 2091.15 1986.45 2097.67 2003.52C2104.27 2020.16 2105.76 2038.72 2102.15 2059.21C2097.64 2084.81 2086.97 2107.22 2070.15 2126.42C2053.76 2145.62 2032.71 2160.56 2007 2171.23C1981.72 2181.9 1953.26 2187.23 1921.63 2187.23C1893.89 2187.23 1865.94 2187.23 1837.78 2187.23C1809.61 2187.23 1781.66 2187.23 1753.93 2187.23ZM2004.35 1887.65C2006.31 1876.56 2004.42 1867.6 1998.69 1860.77C1993.04 1853.51 1984.58 1849.89 1973.31 1849.89C1965.51 1849.89 1957.49 1849.89 1949.26 1849.89C1941.46 1849.89 1933.66 1849.89 1925.86 1849.89C1923.75 1861.83 1921.57 1874.21 1919.31 1887.01C1917.13 1899.39 1914.95 1911.76 1912.77 1924.14C1920.57 1924.14 1928.37 1924.14 1936.17 1924.14C1944.4 1924.14 1952.42 1924.14 1960.22 1924.14C1971.48 1924.14 1981.15 1920.94 1989.21 1914.54C1997.35 1907.71 2002.39 1898.75 2004.35 1887.65ZM1990.21 2048.96C1992.31 2037.02 1989.85 2027.63 1982.82 2020.8C1976.3 2013.54 1966.11 2009.92 1952.24 2009.92C1943.14 2009.92 1934.04 2009.92 1924.94 2009.92C1915.84 2009.92 1906.74 2009.92 1897.64 2009.92C1895.31 2023.15 1892.98 2036.38 1890.64 2049.6C1888.31 2062.83 1885.98 2076.06 1883.65 2089.29C1892.75 2089.29 1901.85 2089.29 1910.95 2089.29C1920.05 2089.29 1929.15 2089.29 1938.25 2089.29C1952.11 2089.29 1963.58 2085.66 1972.66 2078.41C1982.18 2071.16 1988.02 2061.34 1990.21 2048.96ZM2506.94 1856.29C2497.31 1910.91 2487.56 1966.17 2477.7 2022.08C2467.92 2077.56 2458.21 2132.61 2448.58 2187.23C2431.25 2187.23 2413.48 2187.23 2395.28 2187.23C2377.08 2187.23 2359.1 2187.23 2341.33 2187.23C2341.86 2184.24 2342.35 2181.47 2342.8 2178.91C2343.25 2176.35 2343.74 2173.58 2344.27 2170.59C2331.14 2178.7 2316.83 2184.88 2301.34 2189.15C2286.22 2193.85 2270.2 2196.19 2253.3 2196.19C2228.6 2196.19 2207.7 2190.65 2190.59 2179.55C2173.91 2168.45 2162 2152.45 2154.85 2131.54C2148.14 2110.63 2147.3 2085.88 2152.35 2057.29C2158.22 2024 2164.12 1990.5 2170.07 1956.79C2176.01 1923.07 2181.92 1889.57 2187.79 1856.29C2205.55 1856.29 2223.54 1856.29 2241.74 1856.29C2259.94 1856.29 2277.7 1856.29 2295.04 1856.29C2289.62 1887.01 2284.13 1918.17 2278.56 1949.74C2272.99 1981.32 2267.5 2012.48 2262.08 2043.2C2259.07 2060.27 2260.52 2074.14 2266.44 2084.81C2272.87 2095.05 2284.75 2100.17 2302.08 2100.17C2319.42 2100.17 2333.72 2095.27 2344.98 2085.45C2356.24 2075.64 2363.49 2061.55 2366.73 2043.2C2372.15 2012.48 2377.64 1981.32 2383.21 1949.74C2388.78 1918.17 2394.27 1887.01 2399.69 1856.29C2417.45 1856.29 2435.44 1856.29 2453.64 1856.29C2471.84 1856.29 2489.6 1856.29 2506.94 1856.29ZM2533.08 2289.65C2545.73 2267.03 2558.64 2244.2 2571.8 2221.16C2585.33 2198.54 2598.38 2176.14 2610.96 2153.94C2599.24 2104.87 2587.17 2055.37 2574.74 2005.44C2562.82 1955.08 2551 1905.36 2539.29 1856.29C2558.36 1856.29 2577.42 1856.29 2596.49 1856.29C2615.56 1856.29 2634.41 1856.29 2653.04 1856.29C2659.49 1883.6 2665.87 1911.34 2672.17 1939.5C2678.9 1967.67 2685.46 1995.62 2691.83 2023.36C2707.12 1995.62 2722.67 1967.67 2738.47 1939.5C2754.27 1911.34 2769.77 1883.6 2784.99 1856.29C2803.62 1856.29 2822.26 1856.29 2840.89 1856.29C2859.52 1856.29 2878.16 1856.29 2896.79 1856.29C2855.19 1927.55 2813.19 1999.89 2770.78 2073.29C2728.88 2146.26 2687.13 2218.38 2645.53 2289.65C2626.89 2289.65 2608.04 2289.65 2588.98 2289.65C2570.34 2289.65 2551.71 2289.65 2533.08 2289.65ZM3022.06 2197.47C2996.92 2197.47 2974.28 2193.21 2954.12 2184.67C2934.03 2175.71 2917.36 2163.33 2904.11 2147.54C2890.94 2131.33 2881.68 2112.55 2876.34 2091.21C2871.44 2069.88 2871.21 2046.62 2875.65 2021.44C2880.09 1996.26 2888.52 1973 2900.95 1951.67C2913.81 1930.33 2929.65 1911.76 2948.47 1895.97C2967.29 1880.18 2988.28 1868.02 3011.45 1859.49C3034.7 1850.53 3058.89 1846.04 3084.02 1846.04C3109.59 1846.04 3132.2 1850.53 3151.85 1859.49C3172.02 1868.02 3188.72 1880.18 3201.97 1895.97C3215.22 1911.76 3224.3 1930.33 3229.2 1951.67C3234.54 1973 3234.99 1996.26 3230.55 2021.44C3226.11 2046.62 3217.46 2069.88 3204.59 2091.21C3192.17 2112.55 3176.5 2131.33 3157.61 2147.54C3138.79 2163.33 3117.76 2175.71 3094.52 2184.67C3071.78 2193.21 3047.62 2197.47 3022.06 2197.47ZM3038.88 2102.09C3060.11 2102.09 3078.33 2094.63 3093.53 2079.69C3109.23 2064.33 3119.16 2044.91 3123.3 2021.44C3127.51 1997.54 3124.4 1978.34 3113.96 1963.83C3104.02 1948.89 3088.44 1941.42 3067.21 1941.42C3045.97 1941.42 3027.54 1948.89 3011.91 1963.83C2996.78 1978.34 2987.11 1997.54 2982.9 2021.44C2978.76 2044.91 2981.62 2064.33 2991.48 2079.69C3001.84 2094.63 3017.64 2102.09 3038.88 2102.09ZM3257.61 2187.23C3271.23 2109.99 3284.96 2032.11 3298.81 1953.59C3312.65 1875.06 3326.39 1797.18 3340.01 1719.94C3357.77 1719.94 3375.76 1719.94 3393.96 1719.94C3412.16 1719.94 3429.92 1719.94 3447.26 1719.94C3433.64 1797.18 3419.9 1875.06 3406.06 1953.59C3392.21 2032.11 3378.48 2109.99 3364.86 2187.23C3347.53 2187.23 3329.76 2187.23 3311.56 2187.23C3293.36 2187.23 3275.38 2187.23 3257.61 2187.23ZM3497.06 2197.47C3484.49 2197.47 3473.32 2194.49 3463.54 2188.51C3454.19 2182.54 3447.39 2174.43 3443.12 2164.19C3438.86 2153.94 3437.79 2142.85 3439.89 2130.9C3442 2118.95 3446.95 2108.07 3454.75 2098.25C3462.62 2088.01 3472.29 2079.9 3483.74 2073.93C3495.63 2067.95 3507.85 2064.97 3520.42 2064.97C3532.99 2064.97 3543.73 2067.95 3552.64 2073.93C3561.99 2079.9 3568.79 2088.01 3573.05 2098.25C3577.82 2108.07 3579.15 2118.95 3577.04 2130.9C3574.94 2142.85 3569.73 2153.94 3561.42 2164.19C3553.55 2174.43 3543.89 2182.54 3532.44 2188.51C3521.42 2194.49 3509.62 2197.47 3497.06 2197.47ZM3628.87 2187.23C3638.5 2132.61 3648.21 2077.56 3657.99 2022.08C3667.85 1966.17 3677.59 1910.91 3687.23 1856.29C3704.99 1856.29 3722.98 1856.29 3741.18 1856.29C3759.38 1856.29 3777.14 1856.29 3794.48 1856.29C3793.95 1859.27 3793.42 1862.26 3792.9 1865.25C3792.37 1868.24 3791.84 1871.22 3791.32 1874.21C3806.4 1864.82 3822.81 1857.78 3840.54 1853.09C3858.27 1848.39 3876.91 1847.11 3896.47 1849.25C3893.46 1866.32 3890.41 1883.6 3887.32 1901.1C3884.24 1918.59 3881.19 1935.88 3878.18 1952.95C3844.78 1948.25 3818.9 1951.24 3800.55 1961.91C3782.28 1972.15 3771.07 1989.01 3766.94 2012.48C3761.89 2041.07 3756.78 2070.09 3751.58 2099.53C3746.39 2128.98 3741.24 2158.21 3736.12 2187.23C3718.79 2187.23 3701.02 2187.23 3682.82 2187.23C3664.62 2187.23 3646.64 2187.23 3628.87 2187.23ZM4257.62 1856.29C4247.99 1910.91 4238.24 1966.17 4228.39 2022.08C4218.61 2077.56 4208.9 2132.61 4199.27 2187.23C4181.93 2187.23 4164.17 2187.23 4145.97 2187.23C4127.77 2187.23 4109.78 2187.23 4092.02 2187.23C4092.54 2184.24 4093.03 2181.47 4093.48 2178.91C4093.94 2176.35 4094.42 2173.58 4094.95 2170.59C4081.82 2178.7 4067.51 2184.88 4052.03 2189.15C4036.9 2193.85 4020.89 2196.19 4003.99 2196.19C3979.29 2196.19 3958.38 2190.65 3941.27 2179.55C3924.59 2168.45 3912.68 2152.45 3905.54 2131.54C3898.82 2110.63 3897.99 2085.88 3903.03 2057.29C3908.9 2024 3914.81 1990.5 3920.75 1956.79C3926.69 1923.07 3932.6 1889.57 3938.47 1856.29C3956.24 1856.29 3974.22 1856.29 3992.42 1856.29C4010.62 1856.29 4028.39 1856.29 4045.72 1856.29C4040.3 1887.01 4034.81 1918.17 4029.24 1949.74C4023.67 1981.32 4018.18 2012.48 4012.76 2043.2C4009.75 2060.27 4011.21 2074.14 4017.13 2084.81C4023.55 2095.05 4035.43 2100.17 4052.77 2100.17C4070.1 2100.17 4084.4 2095.27 4095.66 2085.45C4106.93 2075.64 4114.18 2061.55 4117.41 2043.2C4122.83 2012.48 4128.32 1981.32 4133.89 1949.74C4139.46 1918.17 4144.95 1887.01 4150.37 1856.29C4168.14 1856.29 4186.12 1856.29 4204.32 1856.29C4222.52 1856.29 4240.29 1856.29 4257.62 1856.29Z" fill="white"/>
</g>
<defs>
<filter id="filter0_dd_23_156" x="1596.77" y="1600.93" width="2886.64" height="751.069" filterUnits="userSpaceOnUse" color-interpolation-filters="sRGB">
<feFlood flood-opacity="0" result="BackgroundImageFix"/>
<feColorMatrix in="SourceAlpha" type="matrix" values="0 0 0 0 0 0 0 0 0 0 0 0 0 0 0 0 0 0 127 0" result="hardAlpha"/>
<feOffset dy="4"/>
<feGaussianBlur stdDeviation="2"/>
<feComposite in2="hardAlpha" operator="out"/>
<feColorMatrix type="matrix" values="0 0 0 0 0 0 0 0 0 0 0 0 0 0 0 0 0 0 0.25 0"/>
<feBlend mode="normal" in2="BackgroundImageFix" result="effect1_dropShadow_23_156"/>
<feColorMatrix in="SourceAlpha" type="matrix" values="0 0 0 0 0 0 0 0 0 0 0 0 0 0 0 0 0 0 127 0" result="hardAlpha"/>
<feOffset dy="4"/>
<feGaussianBlur stdDeviation="2"/>
<feComposite in2="hardAlpha" operator="out"/>
<feColorMatrix type="matrix" values="0 0 0 0 0 0 0 0 0 0 0 0 0 0 0 0 0 0 0.25 0"/>
<feBlend mode="normal" in2="effect1_dropShadow_23_156" result="effect2_dropShadow_23_156"/>
<feBlend mode="normal" in="SourceGraphic" in2="effect2_dropShadow_23_156" result="shape"/>
</filter>
<filter id="filter1_f_23_156" x="0.767578" y="0.930969" width="6078.64" height="3942.14" filterUnits="userSpaceOnUse" color-interpolation-filters="sRGB">
<feFlood flood-opacity="0" result="BackgroundImageFix"/>
<feBlend mode="normal" in="SourceGraphic" in2="BackgroundImageFix" result="shape"/>
<feGaussianBlur stdDeviation="800" result="effect1_foregroundBlur_23_156"/>
</filter>
<linearGradient id="paint0_linear_23_156" x1="1438.57" y1="0" x2="1438.57" y2="728.252" gradientUnits="userSpaceOnUse">
<stop stop-color="#1900FF"/>
<stop offset="1" stop-color="#1900FF"/>
</linearGradient>
</defs>
</svg>
